<?xml version="1.0" standalone="no"?>
<!DOCTYPE svg PUBLIC "-//W3C//DTD SVG 1.1//EN" "http://www.w3.org/Graphics/SVG/1.1/DTD/svg11.dtd" >
<svg>
<metadata>
Created by FontForge 20090622 at Wed May 27 16:44:56 2020
 By deploy user
Copyright &#194;&#169; 1997, 2002 Adobe Systems Incorporated.  All Rights Reserved.
</metadata>
<defs>
<font id="FlorensLPStd" horiz-adv-x="400" >
  <font-face 
    font-family="Florens LP Std"
    font-weight="400"
    font-style="italic"
    font-stretch="normal"
    units-per-em="1000"
    panose-1="0 0 5 0 0 0 0 0 0 0"
    ascent="656"
    descent="-344"
    x-height="353"
    cap-height="539"
    bbox="-498.854 -393 1752 910"
    underline-thickness="50"
    underline-position="-50"
    slope="-20"
    unicode-range="U+0020-U+FB02"
  />
<missing-glyph horiz-adv-x="602" 
d="M102 0v700h500v-700h-500zM352 395l170 255h-340zM382 350l170 -255v510zM182 50h340l-170 255zM152 605v-510l170 255z" />
    <glyph glyph-name="f_i" unicode="fi" horiz-adv-x="423" 
d="M103 307h-65q-8 0 -8 4q0 7 16.5 17.5t30.5 10.5h39q4 0 7 7q1 1 16 37.5t24 56.5t25 45.5t29 34.5q58 40 109.5 61t68.5 21q15 0 25 -9t10 -27q0 -22 -19 -22q-9 0 -23 7q-22 13 -40 13q-28 0 -67 -39q-15 -15 -31.5 -50.5t-34.5 -83.5t-18 -49q-2 -4 0 -4q73 0 85 1
q8 1 52.5 11.5t49.5 10.5q18 0 18 -21q0 -24 -24 -76l-22.5 -46.5l-25.5 -53t-21 -48.5q-16 -42 -16 -62q0 -16 14 -18q23 0 81 45q41 32 50 32q1 0 1 -2q0 -7 -31.5 -35.5t-78 -55.5t-77.5 -27q-36 0 -36 40q0 24 14 64q8 22 41.5 95t37.5 90q4 13 2 22q-5 0 -12.5 0.5
t-11.5 0.5h-101q-4 0 -7 -7q-81 -217 -142.5 -343t-134.5 -191q-72 -63 -143 -63q-27 0 -44.5 8.5t-17.5 20.5q0 7 9 16t19 9q9 0 24 -11t24 -12q4 -1 12 -1q26 0 51.5 16.5t48 41.5t47 70t44.5 87t45.5 108t43.5 117l45 129l1 4q0 3 -8 3z" />
    <glyph glyph-name="f_l" unicode="fl" horiz-adv-x="433" 
d="M103 307h-65q-7 0 -7 4q0 8 16 18t30 10h39q5 0 7 7q2 4 12.5 30l17.5 42.5t18.5 39.5t23 39t22.5 23q41 28 82.5 48t64 27t31.5 7q15 0 25 -9t10 -27q0 -22 -19 -22q-9 0 -23 7q-22 13 -40 13q-28 0 -67 -39q-15 -15 -31.5 -50.5t-34.5 -83.5t-18 -49l-1 -3q0 -3 138 -3
q96 206 142 240q42 30 86 48t63 18q29 0 29 -31q0 -18 -16 -18q-5 0 -17 6q-13 9 -28 9q-34 0 -85 -76t-93.5 -172.5t-73.5 -184.5t-31 -115q0 -22 18 -22q30 0 90 51q29 23 37 23q3 0 3 -2q0 -10 -32.5 -38.5t-79 -54.5t-75.5 -26q-42 0 -42 50q0 10 1 16q8 63 90 248h-130
q-8 0 -11 -7q-81 -217 -140.5 -340.5t-131.5 -189.5q-74 -67 -150 -67q-25 0 -42 8.5t-17 19.5q0 8 7.5 17t19.5 9q9 0 24 -11t24 -12q4 -1 13 -1q38 0 72 31q55 48 112.5 174.5t139.5 363.5l1 4q0 3 -8 3z" />
    <glyph glyph-name=".notdef" horiz-adv-x="602" 
d="M102 0v700h500v-700h-500zM352 395l170 255h-340zM382 350l170 -255v510zM182 50h340l-170 255zM152 605v-510l170 255z" />
    <glyph glyph-name=".null" horiz-adv-x="0" 
 />
    <glyph glyph-name="nonmarkingreturn" horiz-adv-x="333" 
 />
    <glyph glyph-name="space" unicode=" " horiz-adv-x="176" 
 />
    <glyph glyph-name="exclam" unicode="!" horiz-adv-x="271" 
d="M326 574q0 -10 -11 -17q-35 -23 -183 -387q-4 -11 -19.5 -18t-27.5 -7q-8 0 -8 8q0 6 28 82.5l62.5 167.5t41.5 112q7 22 20 28q5 2 37 13t50 22q4 2 5 2q5 0 5 -6zM112 42q10 -17 10 -21q0 -9 -26 -23.5t-33 -14.5q-9 0 -21.5 20t-12.5 28q0 10 24.5 23.5t32.5 13.5
q11 0 26 -26z" />
    <glyph glyph-name="quotedbl" unicode="&#x22;" horiz-adv-x="323" 
d="M393 627q0 -3 -1 -5l-72 -139q-6 -12 -14 -12q-10 0 -10 12q0 4 14 69t20 87q3 8 23 8q40 -4 40 -20zM264 622l-73 -139q-7 -12 -15 -12q-9 0 -9 12q0 5 13 65.5t21 90.5q3 8 20 8q16 -1 30 -7t14 -14q0 -3 -1 -4z" />
    <glyph glyph-name="numbersign" unicode="#" horiz-adv-x="476" 
d="M171 157l-23 -62q-5 -11 -18 -14q-2 0 -9 -2t-13.5 -3.5t-8.5 -1.5q-7 0 -7 6q0 2 25 83q-11 0 -26.5 0.5t-20.5 0.5q-21 0 -29 -5q-5 -3 -9 -3q-5 0 -5 5q0 7 12 16q17 14 34 18t56 2q2 5 10 28l12 34q-50 4 -67 4q-18 0 -25 -3q-6 -3 -11 -3t-5 4q0 8 21 22
q20 15 54 15q19 0 46 -3q4 10 7 18.5l6 16.5t5 12q7 20 17 22q51 9 63 14q1 1 4 1q5 0 5 -6t-7 -10q-19 -11 -43 -73l44.5 -4t52.5 -5q22 60 22 61q9 20 19 22q45 9 55 15q2 1 4 1q6 0 6 -5q0 -6 -8 -11q-17 -11 -43 -84q49 -2 69 10q6 3 11 3q7 0 7 -5q0 -3 -2 -5
q-23 -28 -38.5 -33.5t-61.5 -6.5q-2 -5 -9.5 -26.5l-12.5 -35.5q28 -2 41 -2q31 0 44 8q3 2 8 2q4 0 4 -4q0 -3 -6.5 -12t-25 -19.5t-43.5 -10.5q-7 0 -35 2q-2 -6 -7 -23l-8 -27q-4 -11 -17 -14q-28 -7 -35 -7q-5 0 -5 5t3 12l19 57q-22 2 -58 5t-44 4zM284 185l11.5 33
t9.5 27q-2 0 -100 9l-21 -60z" />
    <glyph glyph-name="dollar" unicode="$" horiz-adv-x="311" 
d="M227 384l-35 -122q76 -49 76 -107q0 -39 -40 -79t-103 -54q-8 -23 -18 -63q-1 -4 -8 -4q-20 0 -20 11q0 6 16 54q-33 0 -59 12t-26 31q1 10 7.5 17.5t14.5 7.5q9 0 15 -9q16 -29 55 -32l45 160q-43 30 -62.5 52t-19.5 49q0 41 40.5 71t97.5 35l9.5 32.5t7.5 26.5q1 5 7 5
q5 0 13 -4.5t8 -10.5q0 -1 -3 -11.5t-6 -23t-4 -15.5q22 -4 37.5 -16t15.5 -28q0 -19 -17 -19q-18 0 -26 18q-4 8 -18 16zM198 391q-28 -1 -47.5 -16.5t-19.5 -38.5q0 -30 35 -57l15 52.5zM209 121q0 36 -37 68l-40 -140q77 22 77 72z" />
    <glyph glyph-name="percent" unicode="%" horiz-adv-x="536" 
d="M294 415q0 -63 -56 -119t-119 -56q-37 0 -58 22t-21 57q0 64 57 119.5t120 55.5q36 0 56.5 -22t20.5 -57zM150 271q30 0 56.5 36t26.5 89q0 33 -14 50t-35 17q-30 0 -57 -35.5t-27 -85.5q0 -33 14 -52t36 -19zM504 161q0 -64 -56.5 -121t-120.5 -57q-35 0 -55.5 22.5
t-20.5 57.5q0 64 56.5 120t119.5 56q36 0 56.5 -21.5t20.5 -56.5zM440 107q3 18 3 33q0 33 -13.5 50t-35.5 17q-31 0 -57 -37.5t-26 -84.5q0 -32 14 -51t36 -19q26 0 49 26.5t30 65.5zM505 509q0 -7 -2 -9l-77.5 -97.5l-148 -187.5l-139.5 -183.5t-64 -100.5q0 -11 -7 -11
q-8 0 -16 9.5t-8 22.5q0 2 2 10q2 9 43.5 65l104.5 138l119 154l110.5 141t56.5 72q5 5 8 5q8 0 13 -9.5t5 -18.5z" />
    <glyph glyph-name="ampersand" unicode="&#x26;" horiz-adv-x="642" 
d="M464 224l-48 5q-11 2 -11 8q0 9 18.5 22t34.5 13q5 0 69.5 -14t77.5 -14q15 0 25 8q7 7 11 7q6 0 6 -8q0 -13 -22.5 -26.5t-38.5 -13.5q-4 0 -29.5 2.5t-30.5 2.5q-6 0 -8 -4q-19 -46 -83 -110q24 -30 37 -44.5t34 -28t42 -13.5q22 0 48 17q4 2 6 2q6 0 6 -7t-12.5 -18.5
t-38 -21.5t-53.5 -10q-64 0 -100 43q-5 6 -15 19t-15 18q-120 -77 -202 -77q-56 0 -96 29t-40 84q0 68 37.5 108t144.5 101q-32 64 -32 102q0 40 26 71t62 46t65.5 22t45.5 7q40 0 62 -19t22 -49q0 -29 -17.5 -56.5t-50.5 -50.5t-53.5 -35t-52.5 -28q49 -90 126 -190
q22 21 37 47.5t15 44.5q0 7 -9 9zM285 335q23 13 37 22t35.5 26.5t32 39t10.5 46.5q0 23 -14 37.5t-39 14.5q-30 0 -63.5 -21.5t-33.5 -60.5q0 -41 35 -104zM359 78q-81 108 -129 202q-116 -69 -116 -148q0 -52 29 -79.5t79 -27.5q38 0 64 11.5t73 41.5z" />
    <glyph glyph-name="quotesingle" unicode="'" horiz-adv-x="179" 
d="M251 622l-72 -139q-6 -12 -15 -12t-9 11q0 2 6 32.5t14.5 69t13.5 55.5q1 8 21 8q16 -1 29 -7t13 -14q0 -2 -1 -4z" />
    <glyph glyph-name="parenleft" unicode="(" horiz-adv-x="310" 
d="M494 651q-100 -42 -179 -117t-126 -161.5t-71 -174.5t-24 -167q0 -123 52 -175q9 -9 9 -17t-9 -8q-6 0 -19.5 9.5t-30.5 30t-32.5 48t-26 68t-10.5 85.5q-1 110 52 226t159 218t244 155q4 2 11 2q12 0 12 -9t-11 -13z" />
    <glyph glyph-name="parenright" unicode=")" horiz-adv-x="310" 
d="M330 427q-1 -110 -53.5 -225t-158 -215.5t-242.5 -153.5q-4 -2 -11 -2q-13 0 -13 10q0 7 11 12q99 41 178 115.5t126 161t71.5 175t24.5 168.5q0 123 -52 175q-9 9 -9 16q0 9 10 9q5 0 17.5 -8.5t30 -29t33 -47.5t26.5 -70t11 -91z" />
    <glyph glyph-name="asterisk" unicode="*" horiz-adv-x="243" 
d="M91 408l52 78q-7 2 -32 11t-41 14q-2 0 -2 3q0 4 4 4q60 4 83 7v82q0 4 6 4q1 0 16 -32t18 -38q74 57 76 57t2 -2q0 -1 -25 -39l-27 -41q56 -22 73 -27q2 0 2 -3q0 -5 -3 -5q-56 -4 -85 -4q-1 -27 -1 -84q0 -4 -4 -4q-3 0 -34 73q-72 -58 -74 -58q-4 0 -4 4z" />
    <glyph glyph-name="plus" unicode="+" 
d="M219 216l-34 -83q-4 -9 -14 -10q-25 -5 -35 -5q-4 0 -4 4q0 1 37 100q-54 8 -80 8t-39 -8q-4 -2 -7 -2q-6 0 -6 6q0 7 12 18q24 22 68 22q25 0 67 -6q14 37 25 63q5 12 14 15q5 1 27 4.5t35 8.5q1 0 3 1q5 0 5 -5t-5 -7q-19 -9 -52 -87q2 0 31 -2.5t44 -2.5q25 0 31 5
q7 5 12 5q8 0 8 -7q0 -3 -4 -7q-21 -20 -34.5 -27.5t-36.5 -7.5q-15 0 -68 7z" />
    <glyph glyph-name="comma" unicode="," horiz-adv-x="161" 
d="M85 61q8 -14 8 -27q0 -33 -43.5 -76t-55.5 -43q-6 0 -6 6q0 5 6 11q39 37 39 64q0 10 -6 19q-12 18 -12 25q0 10 24 24t30 14q7 0 16 -17z" />
    <glyph glyph-name="hyphen" unicode="-" horiz-adv-x="297" 
d="M290 268q-32 -48 -94 -48q-20 0 -37 4q-60 14 -82 14q-15 0 -26 -9q-3 -3 -9 -3q-7 0 -7 5q0 10 28.5 30t56.5 20q12 0 19 -2q65 -15 96 -15q29 0 41 13q4 5 10 5q7 0 7 -6q0 -4 -3 -8z" />
    <glyph glyph-name="period" unicode="." horiz-adv-x="174" 
d="M104 20q0 -8 -26 -22.5t-32 -14.5q-10 0 -22.5 19.5t-12.5 27.5q0 10 25 24t33 14q10 0 22.5 -20t12.5 -28z" />
    <glyph glyph-name="slash" unicode="/" horiz-adv-x="355" 
d="M556 649l-83 -104l-167.5 -211.5l-186 -239t-158 -212t-63.5 -105.5q0 -17 -10 -17q-8 0 -15.5 11.5t-7.5 25.5q0 6 1 10q5 22 154.5 217l326.5 419t182 231q4 7 12 7q7 0 13 -6.5t6 -14.5q0 -5 -4 -11z" />
    <glyph glyph-name="zero" unicode="0" horiz-adv-x="505" 
d="M485 294q0 -115 -86.5 -212t-190.5 -97q-72 0 -116 50t-44 128q0 117 86.5 213t189.5 96q72 0 116.5 -50t44.5 -128zM401 217q4 28 4 58q0 81 -33 122.5t-81 41.5q-62 0 -113.5 -74.5t-51.5 -179.5q0 -76 32 -122t81 -46q54 0 101.5 58t60.5 142z" />
    <glyph glyph-name="one" unicode="1" horiz-adv-x="287" 
d="M226 0h-225q-13 0 -13 6q0 11 20 14q36 5 54 13.5t24 27.5q18 58 40.5 141.5t36.5 140t14 59.5q0 2 -2 2q-4 0 -24 -11t-44 -34t-30 -46q-3 -11 -13 -11q-9 0 -13.5 7t-4.5 13q0 20 22 41q22 20 101 64.5t87 44.5q10 0 10 -13q0 -5 -53.5 -202t-53.5 -204q0 -27 74 -34
q14 -2 14 -8q0 -11 -21 -11z" />
    <glyph glyph-name="two" unicode="2" horiz-adv-x="402" 
d="M381 365q0 -109 -248 -278q-16 -11 -16 -15q0 -6 28 -10q123 -21 148 -21q35 0 46 18q6 8 12 8q9 0 9 -10q0 -3 -3 -9q-18 -34 -41.5 -49t-65.5 -15q-28 0 -78 8q-102 17 -127 17q-22 0 -33 -5q-5 -2 -13 -2q-17 0 -17 14q0 12 11 19q126 74 205 143q54 48 79.5 87
t25.5 81q0 41 -21.5 64.5t-53.5 23.5q-34 0 -58 -22t-34 -56q-9 -36 -32 -36q-27 0 -27 32q0 47 60 83t129 36q27 -1 51 -9t44 -33.5t20 -63.5z" />
    <glyph glyph-name="three" unicode="3" horiz-adv-x="394" 
d="M362 382q0 -32 -25.5 -62t-73.5 -52q-10 -4 -10 -6q0 -3 12 -6q82 -26 82 -97q0 -73 -74.5 -126.5t-175.5 -53.5q-55 0 -85.5 22t-30.5 47q0 13 9.5 21t23.5 8q17 0 32.5 -22t17.5 -24q23 -20 59 -20q50 0 99.5 46t49.5 104q0 27 -13 52t-48 25q-15 0 -36 -7l-1 -1h-3
q-5 0 -9.5 5t-4.5 11q0 16 18 19q53 10 79.5 37.5t26.5 61.5q0 35 -20.5 55t-44.5 20q-25 0 -49.5 -13t-33.5 -41q-13 -40 -41 -40q-21 0 -21 22q0 38 51.5 71t117.5 33q60 0 89 -24q33 -29 33 -65z" />
    <glyph glyph-name="four" unicode="4" horiz-adv-x="436" 
d="M335 0h-171q-13 0 -13 6q0 9 18 12q23 3 34 9t15 21q19 75 19 78q0 4 -8 5q-36 2 -121.5 6t-102.5 5q-1 0 -1 3q0 8 6.5 25t12.5 22l81.5 69.5l135.5 113t129 99.5q5 4 12 4q11 0 11 -12q0 -4 -33.5 -142.5t-33.5 -143.5t11 -6q38 -2 42 -2q20 0 25 8q3 5 9 5q7 0 7 -6
q0 -3 -3 -7q-14 -18 -20.5 -25t-23 -13t-43.5 -6q-13 0 -15.5 -1.5t-4.5 -9.5q-14 -56 -14 -75q0 -17 46 -23q15 -1 15 -10t-21 -9zM295 367q3 8 -2 8t-95.5 -77t-108.5 -94q-3 -3 -3 -5t7 -3q76 -10 146 -13q8 0 9.5 1t2.5 7q4 15 18 73.5t26 102.5z" />
    <glyph glyph-name="five" unicode="5" horiz-adv-x="408" 
d="M402 448q-31 -67 -99 -67q-11 0 -65 5l-54 5q-10 0 -16 -11q-38 -86 -38 -95q0 -6 6 -6q1 0 3 0.5t3 0.5q48 14 90 14q63 -1 97 -33t34 -80q0 -84 -74 -141t-175 -57q-55 1 -84 25t-30 51q0 28 29 28q17 0 24 -18q12 -26 18 -31q29 -23 66 -23q56 2 103 51t47 108
q0 42 -24 65.5t-60 23.5q-53 0 -92 -39q-2 -2 -5 -2q-9 0 -22.5 14t-13.5 24q0 3 17.5 41l39.5 86t26 56q10 23 32 23q5 0 79.5 -8.5t89.5 -8.5q21 0 29 7q7 5 11 5q9 0 9 -9q0 -3 -1 -4z" />
    <glyph glyph-name="six" unicode="6" horiz-adv-x="418" 
d="M368 468q39 0 39 -24q0 -10 -8.5 -17t-18.5 -7q-6 0 -20 4.5t-25 4.5q-71 0 -136.5 -63.5t-85.5 -136.5q72 61 149 61q55 0 89 -33t34 -83q0 -77 -73 -133t-139 -56q-63 -1 -104.5 41.5t-41.5 110.5q0 98 90 204q48 56 124 91.5t127 35.5zM319 127q1 6 1 17
q0 43 -28.5 74t-71.5 31q-48 0 -97 -43q-21 -18 -21 -54q0 -60 34 -93.5t76 -33.5q39 1 70 30t37 72z" />
    <glyph glyph-name="seven" unicode="7" horiz-adv-x="334" 
d="M154 466h10q7 0 32.5 -2t36.5 -3q38 -2 51 -2q5 0 33 2q26 2 32 2q16 0 16 -10q0 -4 -5 -16l-82 -144.5t-98.5 -181t-36.5 -100.5q-1 -11 -3 -13q-10 -10 -23 -10q-12 0 -20 9t-8 24q0 25 50 112t100 165.5t50 81.5q0 6 -17 6q-37 0 -92 4t-71 4q-43 0 -52 -16
q-6 -10 -15 -10t-9 10q0 20 35.5 54t85.5 34z" />
    <glyph glyph-name="eight" unicode="8" horiz-adv-x="406" 
d="M282 474q49 0 78 -27t29 -62q0 -34 -27 -65t-83 -51q-8 -3 -8 -6q0 -4 10 -11q94 -62 94 -129q0 -50 -53.5 -96t-139.5 -46q-42 0 -81 9q-38 8 -62.5 36t-24.5 64q2 89 135 149q8 3 8 10q0 2 -1 3q-56 44 -56 95q0 31 20.5 56.5t50.5 40t59.5 22.5t51.5 8zM319 376
q0 31 -20.5 49t-43.5 18q-30 0 -55 -20t-25 -52q0 -25 16 -47.5t30.5 -32.5t18.5 -10q5 0 23 11t37 34.5t19 49.5zM304 89q0 30 -27.5 63.5t-54.5 52t-34 18.5q-6 0 -28.5 -13t-47.5 -42t-25 -62q0 -38 33 -68.5t81 -30.5q42 0 72.5 26t30.5 56z" />
    <glyph glyph-name="nine" unicode="9" horiz-adv-x="418" 
d="M401 318q0 -100 -90 -207q-47 -55 -123 -90.5t-128 -35.5q-39 0 -39 23q0 11 9 18t19 7q5 0 18.5 -4.5t25.5 -4.5q71 0 136.5 66t85.5 138q-69 -61 -149 -61q-56 0 -89.5 33.5t-33.5 82.5q0 76 72 132.5t144 56.5q62 -1 102 -44t40 -110zM326 294q4 65 -31.5 101
t-78.5 36q-41 0 -74.5 -34t-33.5 -83q0 -44 29 -75.5t73 -30.5q35 0 74.5 25.5t41.5 60.5z" />
    <glyph glyph-name="colon" unicode=":" horiz-adv-x="175" 
d="M132 290q11 0 23 -20.5t12 -26.5q0 -9 -25.5 -23.5t-33.5 -14.5q-9 0 -21.5 19.5t-12.5 27.5q0 10 25 24t33 14zM89 42q10 -17 10 -21q0 -9 -26.5 -23.5t-33.5 -14.5q-9 0 -21.5 19.5t-12.5 27.5q0 11 24.5 24.5t33.5 13.5q11 0 26 -26z" />
    <glyph glyph-name="semicolon" unicode=";" horiz-adv-x="175" 
d="M132 290q11 0 23 -20.5t12 -26.5q0 -9 -25.5 -23.5t-33.5 -14.5q-9 0 -21.5 19.5t-12.5 27.5q0 10 25 24t33 14zM85 61q8 -14 8 -27q0 -33 -43.5 -76t-55.5 -43q-6 0 -6 6q0 5 6 11q39 37 39 64q0 10 -6 19q-13 19 -13 26q0 9 24.5 23t30.5 14q7 0 16 -17z" />
    <glyph glyph-name="less" unicode="&#x3c;" 
d="M352 90v-36l-277 126v40l277 125v-36l-240 -109z" />
    <glyph glyph-name="equal" unicode="=" 
d="M391 290q0 -4 -4 -8q-28 -42 -98 -42q-31 0 -77 6q-87 12 -110 12q-21 0 -35 -8q-4 -2 -9 -2q-6 0 -6 3q0 7 22 24q25 20 75 20q19 0 35 -3q103 -15 140 -15q39 0 52 12q5 5 11 5q4 0 4 -4zM373 190q-29 -42 -99 -42q-31 0 -76 6q-81 11 -111 11q-21 0 -34 -7
q-6 -2 -9 -2q-5 0 -5 3q0 7 21 24q24 20 71 20q13 0 89 -8q70 -9 92 -9q36 0 49 10q8 6 13 6q3 0 3 -3q0 -4 -4 -9z" />
    <glyph glyph-name="greater" unicode="&#x3e;" 
d="M362 220v-40l-277 -126v36l241 110l-241 109v36z" />
    <glyph glyph-name="question" unicode="?" horiz-adv-x="402" 
d="M457 485q1 -63 -64.5 -125.5t-162.5 -114.5q-22 -12 -44 -35t-22 -41t-12 -28.5t-49 -10.5q-12 0 -12 23q0 35 9 49t34 25q77 36 129.5 75.5t74.5 74.5t30 59t8 45q0 36 -22 56t-53 20q-33 0 -57 -18t-34 -47q-11 -31 -33 -31q-26 0 -26 28q0 41 56.5 70t122.5 29
q64 0 95.5 -31t31.5 -72zM145 34q9 -15 9 -22q0 -8 -25.5 -22.5t-32.5 -14.5q-9 0 -22 19.5t-13 26.5q0 9 25 24t34 15q11 0 25 -26z" />
    <glyph glyph-name="at" unicode="@" horiz-adv-x="658" 
d="M483 -67l5 -17q-85 -52 -188 -52q-111 0 -190.5 62.5t-79.5 167.5q0 98 60.5 183t152.5 133t188 48q53 0 93.5 -16t62.5 -39t36 -53t18 -52t4 -42q1 -95 -62 -171.5t-137 -76.5q-70 0 -70 67q0 21 7 45q1 2 1.5 3.5t-0.5 1.5l-2 -2q-46 -54 -97 -86t-77 -32q-36 0 -36 42
q0 25 17.5 71.5t48 97t81.5 87t108 36.5q38 0 45 -19q2 -3 4 -3q1 0 7 4q39 30 69 30q7 0 7 -8q0 -5 -6 -7q-19 -6 -69 -122t-50 -151q0 -28 27 -28q51 0 107 65t56 157q0 51 -21.5 88.5t-54.5 56t-63.5 27t-57.5 8.5q-130 0 -233 -108t-103 -247q0 -97 61 -147t153 -50
q94 0 178 48zM447 282q5 8 5 17q0 18 -24 18q-52 0 -114.5 -91t-62.5 -148q0 -24 14 -24q9 0 24 12q22 17 43.5 40.5t40.5 52.5l30 46.5t27.5 46.5t16.5 30z" />
    <glyph glyph-name="A" unicode="A" horiz-adv-x="575" 
d="M437 487q0 -78 12 -225.5t21 -212.5q6 -41 38 -41q2 0 13 2.5t13 2.5q10 0 10 -6t-10 -9q-60 -19 -92 -19q-29 0 -42 12.5t-20.5 51.5t-13.5 130q0 3 -0.5 4t-1.5 2.5t-2.5 1.5h-5.5q-18 1 -75 1q-71 0 -137 -2q-9 0 -15 -7q-110 -135 -110 -150q0 -8 25 -11
q26 -2 26 -10q0 -6 -5.5 -7t-24.5 -1h-137q-8 0 -8 5q0 4 7 8t16 5q21 2 29 6.5t22 19.5q18 18 93.5 112l168.5 211.5l129 161.5l20 11l47 23t37 19q1 1 3 1q5 0 5 -5q0 -4 -4 -7q-22 -16 -26.5 -27.5t-4.5 -50.5zM363 229q-4 56 -12 214q-1 9 -3 9q-3 0 -89 -111.5
t-86 -115.5q0 -3 8 -4q18 -1 88 -1q69 0 84 1q10 4 10 8z" />
    <glyph glyph-name="B" unicode="B" horiz-adv-x="526" 
d="M505 449q0 -45 -36 -88t-97 -57q-9 -3 -9 -7t11 -7q47 -12 73 -44.5t26 -73.5q0 -71 -71 -127t-197 -56q-8 0 -58 4q-12 0 -33.5 1.5t-26.5 1.5q-14 0 -48.5 -1t-53.5 -1q-15 0 -15 9q2 7 17 10q6 1 13 2l10.5 1.5t8.5 3t10 7.5q9 8 85 236.5t76 240.5t-9 14.5t-30 2.5
q-13 0 -13 8q0 10 10 10h28h46.5h29.5q24 0 67 3q60 2 70 2q58 -3 87 -29.5t29 -65.5zM236 309l70 1q42 0 75 40.5t33 84.5q0 36 -25.5 59t-78.5 23q-24 0 -31 -17l-36 -103t-28 -83q0 -5 21 -5zM378 168v10q0 28 -9.5 48t-21.5 29.5t-35 15t-36.5 6t-39.5 0.5
q-24 0 -29.5 -1.5t-7.5 -9.5l-74 -222q0 -13 34 -20.5t56 -7.5q72 0 116 46.5t47 105.5z" />
    <glyph glyph-name="C" unicode="C" horiz-adv-x="547" 
d="M51 129v23q0 106 62.5 199.5t163.5 148.5t211 55q57 0 92.5 -18.5t34.5 -49.5q0 -16 -12.5 -37t-31.5 -21t-22 16q0 3 -0.5 11.5t-1.5 13t-6 13t-14 16.5q-23 22 -73 22q-87 0 -177 -66.5t-126 -192.5q-11 -33 -11 -70q0 -75 46.5 -122t118.5 -48q93 0 185 75q10 9 19 9
q3 0 3 -4q0 -6 -14.5 -20t-41.5 -31.5t-60 -34t-75.5 -27.5t-82.5 -11q-80 -1 -132 38.5t-55 112.5z" />
    <glyph glyph-name="D" unicode="D" horiz-adv-x="602" 
d="M596 348q0 -61 -29.5 -124t-80 -115.5t-128 -86t-164.5 -33.5q-3 0 -12 0.5t-21.5 1.5t-22.5 1q-36 3 -57 3q-11 0 -36.5 -0.5t-40.5 -0.5q-36 0 -36 7q0 10 16 11q6 1 14.5 1t12.5 0.5t9 3.5t7 9q35 89 97.5 277.5t62.5 200.5q0 17 -37 17q-15 0 -15 9t9 9q26 1 93 1
q7 0 69 1.5t68 1.5q110 0 166 -55t56 -140zM503 323q3 68 -30.5 119.5t-101.5 65.5q-22 4 -64 4q-24 0 -31 -17q-15 -37 -84 -240t-69 -212q0 -12 14 -15q29 -8 55 -8q123 0 214 93t97 210z" />
    <glyph glyph-name="E" unicode="E" horiz-adv-x="441" 
d="M146 539h288q39 0 53.5 -4t14.5 -15q0 -8 -7 -25q-6 -15 -17 -26.5t-22 -11.5q-1 0 -2.5 0.5t-2.5 0.5q-6 2 -7.5 17.5t-16.5 26.5q-12 9 -119 9q-24 0 -30 -17l-18 -52l-27.5 -81t-11.5 -38q0 -8 14 -8h35.5h60.5h37q20 0 20 -8q0 -12 -11.5 -21.5t-31.5 -9.5
q-8 0 -55.5 4t-56.5 4q-27 0 -32 -15q-12 -31 -30 -82.5t-30 -89.5t-12 -40q0 -15 20 -18q97 -19 138 -19q47 0 58 23q15 32 29 32q6 0 10.5 -6.5t4.5 -13.5q0 -11 -12.5 -26.5t-47 -31t-83.5 -15.5q-34 0 -95 7q-50 6 -123 6q-32 0 -49 -1q-9 0 -9 7q0 8 14 11q43 7 50 25
q35 93 95 275t60 192q0 17 -37 17q-16 0 -16 10q0 8 10 8z" />
    <glyph glyph-name="F" unicode="F" horiz-adv-x="387" 
d="M151 539h286q39 0 53.5 -4t14.5 -14q2 -13 -12 -38.5t-33 -25.5q-1 0 -2.5 0.5t-2.5 0.5q-7 2 -7.5 17.5t-15.5 25.5q-12 9 -119 9q-24 0 -30 -17l-18 -53l-33.5 -97.5t-15.5 -48.5q0 -8 14 -8h36h61h37q20 0 20 -8q0 -4 -5 -12q-11 -19 -38 -19q-8 0 -56 4.5t-57 4.5
q-28 0 -32 -15l-32 -88.5t-29 -87t-11 -37.5q0 -9 37 -15q3 -1 4 -1q14 -2 14 -8q0 -10 -22 -10h-122q-47 0 -55.5 1t-8.5 5q0 8 20 12q40 7 47 24q34 85 95 270.5t61 196.5q0 16 -38 18q-15 1 -15 10q0 8 10 8z" />
    <glyph glyph-name="G" unicode="G" horiz-adv-x="633" 
d="M51 129v29q6 109 79.5 203.5t177 146t205.5 51.5q57 0 92 -18t35 -50q0 -6 -3 -18t-13.5 -25.5t-26.5 -13.5q-18 0 -22 15q-1 3 -1.5 14.5t-5 20.5t-15.5 20q-23 21 -73 21q-41 0 -88 -15.5t-94 -45.5t-86 -82t-59 -117q-12 -38 -12 -76q0 -77 51.5 -121.5t127.5 -44.5
q31 0 74 10.5t51 32.5q37 113 40 126q1 3 1 9q0 8 -4 12.5t-21.5 8.5t-49.5 4q-38 0 -50 -8q-4 -4 -10 -4q-7 0 -7 5q2 4 5 7q16 16 42 23t94 7q20 0 60.5 -1t61.5 -1q12 0 12 -7q0 -6 -10 -9q-22 -7 -31 -14t-14 -21q-62 -185 -65 -201q-3 -13 -11 -13q-5 0 -9 4
q-29 23 -49 23q-8 0 -12 -2q-86 -33 -171 -33q-84 0 -138 36.5t-58 111.5z" />
    <glyph glyph-name="H" unicode="H" horiz-adv-x="651" 
d="M172 539h170q13 0 13 -6q0 -11 -20 -13q-25 -4 -34 -8t-13 -15q-2 -5 -20 -57.5l-31.5 -93t-13.5 -44.5q0 -7 6 -7h250q15 0 21 13q26 72 50 121.5t40.5 76.5t41 45.5t37.5 24t44 15.5q8 3 12 4q11 4 24 4q29 0 29 -20q0 -7 -5 -19t-14 -12q-5 0 -18 9.5t-20 9.5
q-32 0 -79 -112t-142 -421q-1 -2 -1 -4q0 -4 2.5 -7t10 -5t12 -2.5t16.5 -2.5q14 -2 14 -9q-2 -10 -23 -10l-171 -1q-13 0 -13 6q2 11 21 13q38 3 45 24q13 35 69 213q1 2 1 5q0 9 -14 9h-145q-78 0 -108 -2q-7 0 -10 -10q-14 -34 -34 -87.5t-33 -92.5t-13 -41q0 -4 2.5 -7
t10 -5t12 -2.5t16.5 -2.5q14 -2 14 -9q-2 -10 -22 -10h-173q-12 0 -12 6q2 10 20 13q41 7 47 23q36 92 97 273.5t61 192.5q0 8 -8 10.5t-29 5.5q-13 1 -13 10q0 11 23 11z" />
    <glyph glyph-name="I" unicode="I" horiz-adv-x="271" 
d="M149 -6l-173 -1q-13 0 -13 6q0 9 21 13q23 3 32.5 7.5t13.5 15.5q42 110 101 283.5t59 184.5t-41 16q-14 1 -14 9q0 11 22 11h173q13 0 13 -6q0 -8 -20 -12q-41 -6 -48 -23q-30 -77 -69.5 -191.5t-64.5 -194t-25 -83.5q0 -12 42 -17q13 -1 13 -8q0 -10 -22 -10z" />
    <glyph glyph-name="J" unicode="J" horiz-adv-x="291" 
d="M189 539h170q12 0 12 -5q0 -10 -20 -14q-42 -6 -48 -24l-123 -365q-22 -62 -60 -113.5t-79.5 -81t-80 -45t-67.5 -15.5q-26 0 -47.5 13.5t-21.5 38.5q0 37 27 37q17 0 33 -20q21 -29 55 -29t68.5 31.5t61.5 98.5q26 64 63.5 174.5l63.5 193.5t26 89q0 12 -41 17
q-15 2 -15 9q0 10 23 10z" />
    <glyph glyph-name="K" unicode="K" horiz-adv-x="596" 
d="M159 -6h-173q-12 0 -12 6q2 9 21 12q40 7 46 24q33 84 93.5 269.5t60.5 196.5q0 8 -6.5 10.5t-24.5 5.5q-4 1 -6 1q-14 2 -14 9q0 11 24 11h173q12 0 12 -6q0 -12 -19 -14q-25 -3 -34 -7.5t-14 -15.5q-51 -132 -51 -156q0 -2 2 -2q3 0 8 5q279 249 403 249q24 0 37 -11
t13 -24q0 -11 -9 -19t-16 -8q-6 0 -12.5 15t-13.5 15h-1l-2 -1q-20 -6 -41 -15.5t-49.5 -26l-47 -27.5t-55.5 -37l-51.5 -36l-60.5 -43l-57 -41q-9 -7 -9 -15q0 -6 2 -8q94 -163 150 -226t92 -63q20 0 47 20q9 6 15 6t6 -5q0 -13 -66 -45t-91 -32q-32 0 -74 54.5t-145 216.5
q-1 2 -5 2q-6 0 -7 -5q-13 -32 -30.5 -82l-29 -85t-11.5 -37q0 -11 42 -17q14 -2 14 -8q-2 -10 -23 -10z" />
    <glyph glyph-name="L" unicode="L" horiz-adv-x="410" 
d="M153 538l172 1q12 0 12 -6q0 -10 -20 -13q-40 -6 -47 -23l-70.5 -201.5l-56 -168t-20.5 -68.5q0 -17 18 -20q98 -19 138 -19q47 0 59 23q9 20 21 20q9 0 12 -13q5 -25 -34.5 -46.5t-97.5 -21.5q-32 0 -95 7q-52 5 -111 5q-40 0 -61 -1q-9 0 -9 8q2 10 16 11q38 4 45 23
q22 55 61.5 168.5l69.5 204t30 95.5q0 11 -41 16q-14 2 -14 9q0 10 23 10z" />
    <glyph glyph-name="M" unicode="M" horiz-adv-x="791" 
d="M103 -6l-139 -1q-11 0 -11 6q0 10 20 13q42 6 49 23l105 255t78 207q0 19 -43 22q-17 2 -17 10q0 10 21 10h140q-3 -6 -3 -18q0 -96 62 -393q3 -14 9 -14q4 0 70.5 84.5l146.5 187l99 125.5q3 3 77 28.5t85 25.5q7 0 7 -5q0 -3 -4 -6q-6 -4 -18.5 -9.5t-18.5 -8.5
q-20 -11 -87 -243.5t-67 -260.5q0 -14 41 -20q14 -2 14 -9q0 -9 -22 -9l-177 -1q-12 0 -12 6q0 10 19 13q24 3 34 7.5t13 15.5q6 24 31.5 117l47.5 172.5t22 81.5q0 5 -2 5q-4 0 -49 -51.5l-128 -152.5l-172 -215q-10 -13 -15 -13q-7 0 -8 12q-12 67 -28 141.5l-32 147
l-22 100.5q-1 10 -6 10t-8 -10q-131 -332 -131 -351q0 -11 39 -17q14 -1 14 -8q0 -10 -24 -10z" />
    <glyph glyph-name="N" unicode="N" horiz-adv-x="661" 
d="M112 -6h-139q-12 0 -12 5q0 9 22 13q23 3 32.5 7.5t15.5 16.5q19 40 49.5 121l65.5 178.5t51 137.5q1 3 4 14q0 26 -53 32q-16 1 -16 11q0 9 20 9h136q5 -35 187 -392q7 -14 12 -14t11 14q17 49 37.5 115.5t31 97.5t29.5 73t40 65.5t55.5 50t83.5 49.5q15 7 27 7
q23 0 23 -24l-3 -14q-5 -15 -17 -15q-3 0 -19.5 6t-19.5 6q-12 0 -29.5 -13t-31.5 -31q-23 -29 -56.5 -107t-59.5 -149l-59 -165t-41 -115q-7 -21 -22 -21q-13 0 -23 20q-97 205 -212 417q-4 9 -8 9t-7 -9q-133 -366 -133 -370q0 -11 39 -17q12 -1 12 -8q0 -11 -23 -11z" />
    <glyph glyph-name="O" unicode="O" horiz-adv-x="696" 
d="M680 372q0 -168 -118.5 -280.5t-287.5 -112.5q-99 0 -158 45t-59 143q0 92 38.5 169t100.5 124.5t135 73.5t146 26q96 0 149.5 -47t53.5 -141zM588 351q0 72 -39.5 122.5t-109.5 50.5q-75 0 -143.5 -50.5t-108.5 -128t-40 -154.5q0 -80 45.5 -130.5t121.5 -50.5
q78 0 142.5 55.5t98 133t33.5 152.5z" />
    <glyph glyph-name="P" unicode="P" horiz-adv-x="454" 
d="M156 -6l-178 -1q-15 0 -15 8q0 7 18 11q6 1 13 2l10.5 1.5t8.5 3t10 7.5q17 15 91 237t74 240t-38 18q-15 0 -15 10q0 8 10 8l126 -1q11 0 41 1t51 1q152 0 152 -107q0 -30 -14.5 -65.5t-43 -72t-81.5 -60.5t-120 -24q-16 0 -32 3q-7 1 -7 12q0 13 8 13h1q7 -2 21 -2
q66 0 118 65t52 129q0 36 -22 59t-70 23q-21 0 -29.5 -3.5t-12.5 -14.5q-32 -80 -71.5 -193.5t-64 -190.5t-24.5 -82q0 -12 41 -17q14 -1 14 -9q0 -9 -22 -9z" />
    <glyph glyph-name="Q" unicode="Q" horiz-adv-x="697" 
d="M719 -69q0 -14 -19.5 -31.5t-37.5 -22.5q-45 -12 -84 -12q-68 0 -193 46q-131 49 -170 49q-31 0 -61 -28q-10 -9 -20 -9q-13 0 -13 11q0 20 62 47q6 3 6 5t-2 2q-71 21 -102.5 61t-31.5 107q0 115 60.5 206.5t156 139t204.5 47.5q100 0 155.5 -45.5t55.5 -138.5
q0 -127 -73.5 -226t-190.5 -140q-43 -12 -43 -17q0 -2 6 -5q5 -2 42.5 -20t63 -29t62.5 -22t63 -11q33 0 62 19q3 2 15 14.5t18 12.5q3 0 6 -4t3 -6zM145 182q0 -75 46.5 -126t119.5 -51q105 0 191 101t91 227q3 74 -38 127.5t-112 53.5q-33 0 -72 -14t-80.5 -41.5
t-77.5 -78.5t-55 -117q-13 -43 -13 -81z" />
    <glyph glyph-name="R" unicode="R" horiz-adv-x="525" 
d="M159 -6h-177q-14 0 -14 6q0 9 16 13q6 1 13.5 2l11 1.5t8.5 3t11 7.5q16 14 90 236t74 240t-38 18q-15 0 -15 10q2 8 10 8l105 -1q9 0 38 1t49 1q85 0 123 -30t38 -75q0 -62 -49 -116.5t-120 -67.5q-7 -1 -9 -8q0 -2 2 -4q62 -142 91 -190.5t57 -48.5q10 0 22 6q6 3 11 3
q9 0 9 -6q0 -4 -18.5 -12t-45 -15t-44.5 -7q-70 0 -103 80l-29 72q-28 71 -40 92t-30 21q-14 0 -16 -5l-62 -196l-1 -4q0 -11 41 -16q14 -2 14 -9q0 -10 -23 -10zM243 261q71 0 117.5 54.5t46.5 112.5q0 37 -20 61.5t-60 24.5q-31 0 -40 -19q-7 -13 -27.5 -69.5
l-37.5 -106.5l-18 -50q0 -8 39 -8z" />
    <glyph glyph-name="S" unicode="S" horiz-adv-x="412" 
d="M419 478q-2 -29 -30 -29t-41 29q-17 40 -61 40q-31 0 -57 -22.5t-26 -56.5q0 -50 63 -102q94 -76 94 -160q0 -75 -76 -136t-166 -61q-61 0 -94 24.5t-33 64.5q0 12 9.5 24t21.5 12q26 0 41 -43q19 -49 80 -49q49 0 92 32.5t43 82.5q0 53 -59 111l-58.5 56.5t-32 42.5
t-17.5 53q0 71 64.5 114.5t143.5 43.5q38 0 69.5 -18t29.5 -53z" />
    <glyph glyph-name="T" unicode="T" horiz-adv-x="449" 
d="M247 -6l-173 -1q-13 0 -13 7q0 10 21 12q40 4 47 23l72.5 192l66.5 186.5t26 80.5q0 7 -11 8q-72 10 -101 10q-51 0 -69 -30q-18 -33 -37 -33q-7 0 -13 6.5t-6 12.5q0 29 64 58.5t122 29.5q26 0 109 -10q22 -3 57 -9t57.5 -9t37.5 -3q36 0 52 16q23 24 28 28t12 4
q13 0 13 -13q0 -6 -1 -9q-6 -22 -27.5 -36t-51 -19t-45 -6.5t-29.5 -1.5q-9 0 -34 2t-35 2t-16 -12q-121 -336 -154 -447l-1 -4q0 -10 32 -16h6q2 -1 3 -1q13 -3 13 -8q0 -10 -22 -10z" />
    <glyph glyph-name="U" unicode="U" horiz-adv-x="579" 
d="M166 539h170q10 0 10 -5q0 -12 -18 -14q-37 -4 -44 -23q-61 -166 -97 -277q-14 -43 -14 -82q0 -56 30 -86t75 -30q38 0 76.5 24t60.5 69q57 115 153 384v1q1 2 1 3q0 10 -32 16q-10 2 -10 9q0 1 1.5 3.5t5.5 5t10 2.5h134q8 0 8 -5q0 -11 -14 -14q-38 -5 -45 -23
q-19 -44 -67.5 -167.5t-77.5 -186.5q-34 -75 -107.5 -120t-147.5 -45q-65 0 -107.5 37.5t-42.5 109.5q0 45 19 102q42 129 96 272l1 4q0 11 -37 16q-12 2 -12 8q0 12 22 12z" />
    <glyph glyph-name="V" unicode="V" horiz-adv-x="523" 
d="M223 538v-8q0 -55 24 -385q2 -14 6 -14q6 0 15 14l66 102l68.5 106l51 74.5t52.5 69.5q24 28 85 61t95 33q36 0 36 -24q0 -10 -9 -22.5t-18 -12.5q-5 0 -15 13t-19 13q-10 0 -21 -4t-23 -13.5t-21.5 -18t-23.5 -25l-22.5 -26.5l-24.5 -30l-23 -29q-40 -49 -155.5 -212.5
t-149.5 -208.5q-13 -17 -20 -17t-8 15q-5 48 -13.5 155t-17 195t-16.5 153q-2 15 -7.5 20.5t-25.5 7.5q-15 2 -15 10q0 9 18 9h78q53 0 53 -1z" />
    <glyph glyph-name="W" unicode="W" horiz-adv-x="849" 
d="M94 539h78q55 0 55 -1q2 -27 8.5 -160.5t12.5 -228.5q1 -13 5 -13q5 0 12 13q174 300 194 350q5 11 7.5 22t3.5 14.5t5 3.5h59q37 0 37 -1v-18q0 -73 21 -373q2 -14 6 -14q6 0 14 14l63.5 103l63 101.5l50.5 78.5t48 67q25 30 80.5 62.5t88.5 32.5t33 -24q0 -10 -9 -22.5
t-16 -12.5q-5 0 -13.5 12t-16.5 14q-1 0 -3 0.5t-3 0.5q-9 0 -18.5 -4.5t-20 -14t-20 -19t-22 -25.5l-21.5 -27l-23 -29.5t-21 -28.5q-30 -38 -81.5 -113.5l-115.5 -172l-91 -135.5q-12 -17 -23 -17q-10 0 -11 16l-14.5 175.5t-18.5 231.5q-1 15 -6 15q-4 0 -12 -13
l-257 -408q-11 -17 -22 -17q-10 0 -11 16q-5 50 -19 234.5t-24 267.5q-2 23 -37 28q-16 3 -16 10q0 9 21 9z" />
    <glyph glyph-name="X" unicode="X" horiz-adv-x="560" 
d="M116 -6h-178q-8 0 -8 5q0 11 23 13q31 3 55 25q109 95 217 217q8 6 8 19q0 4 -1 6q-14 38 -68 213q-5 16 -13 22t-24 8q-15 2 -15 9q0 8 18 8h77q37 0 52 -1q26 -106 48 -184q0 -10 8 -10q5 0 9 5q45 46 120 131q41 45 81 70.5t57.5 30t45.5 8.5q14 2 19 2q36 0 36 -27
q-1 -9 -10 -20.5t-17 -11.5q-6 0 -15 12.5t-17 13.5h-2q-12 0 -37 -16.5t-52.5 -39t-62 -54.5l-58.5 -55.5l-49.5 -49l-28.5 -28.5q-7 -6 -7 -20v-3q51 -167 80 -224.5t61 -57.5q17 0 41 12q6 3 11 3q7 0 7 -6q0 -10 -48 -27t-80 -17q-66 0 -90 64q-47 131 -60 172
q-2 7 -6 7q-5 0 -11 -6l-146 -169q-9 -12 -10 -19q0 -10 26 -13q27 -3 27 -10t-13 -7z" />
    <glyph glyph-name="Y" unicode="Y" horiz-adv-x="487" 
d="M269 -6l-183 -1q-12 0 -12 6q0 9 21 13q23 3 32.5 7.5t14.5 15.5q14 33 36 96.5l26 74.5q3 12 3 23q0 28 -10 68q-24 98 -57 195q-8 23 -49 28q-14 2 -14 9q0 10 18 10h79q55 0 55 -1l28.5 -112.5t27.5 -108.5q5 -15 7 -15t11 14q103 156 155 203.5t152 64.5q12 2 16 2
q18 0 27 -8t9 -18q0 -9 -7.5 -18.5t-15.5 -9.5q-6 0 -15 12.5t-18 13.5h-4q-48 0 -142 -105t-148 -208q-10 -20 -28 -63q-8 -21 -19.5 -58.5l-19.5 -65t-8 -29.5q0 -12 40 -17q14 -2 14 -8q0 -10 -22 -10z" />
    <glyph glyph-name="Z" unicode="Z" horiz-adv-x="532" 
d="M591 522q0 -8 -7 -15l-152.5 -142.5l-187 -184l-127.5 -126.5q-8 -8 -8 -10q0 -5 14 -5q4 0 26.5 1.5t27.5 1.5q41 0 118 -11q50 -8 70 -8q54 0 80 32q10 13 24 13q13 0 13 -13q0 -10 -18.5 -26.5t-64.5 -32.5t-105 -16q-45 0 -106 8q-77 11 -146 11q-46 0 -70 -7
q-4 -1 -9 -1q-8 0 -8 7q0 10 17 27l467 464q4 4 4 8q0 6 -14 6q-5 0 -24 -2t-35 -2q-9 0 -66.5 5t-68.5 5q-50 0 -65 -29q-17 -33 -35 -33q-6 0 -11 6.5t-5 12.5q0 27 57 57t119 30q29 0 90 -9q71 -11 120 -11q33 0 55 6q8 2 10 2q10 0 16 -5.5t5 -13.5z" />
    <glyph glyph-name="bracketleft" unicode="[" horiz-adv-x="268" 
d="M197 659h151l-11 -40h-105l-181 -695h110l-10 -41h-152z" />
    <glyph glyph-name="backslash" unicode="\" horiz-adv-x="355" 
d="M389 -231l1 10q0 25 -60 151t-151.5 299l-140 264l-84.5 156q-2 4 -2 7q0 10 9 17t14 7q6 0 9 -6t35.5 -66.5l68.5 -128.5l84 -159.5l90.5 -174l80 -156.5t60 -123t22.5 -59q1 -17 -10.5 -32t-19.5 -15q-6 0 -6 9z" />
    <glyph glyph-name="bracketright" unicode="]" horiz-adv-x="268" 
d="M158 660h153l-201 -777h-150l11 41h105l183 696h-111z" />
    <glyph glyph-name="asciicircum" unicode="^" 
d="M394 289q2 -11 -6 -11q-6 0 -10 7l-20.5 31.5l-18.5 29t-16 23t-16 19.5t-14.5 13t-17 9.5t-18.5 2.5q-27 0 -70.5 -28.5t-124.5 -97.5q-1 -1 -5 -1q-11 0 -11 7q0 2 5 7q117 120 145 143q41 35 67 35q34 0 58.5 -37.5t63.5 -129.5z" />
    <glyph glyph-name="underscore" unicode="_" horiz-adv-x="500" 
d="M500 -80v-40h-500v40h500z" />
    <glyph glyph-name="grave" unicode="`" horiz-adv-x="258" 
d="M334 406q0 -4 -5 -4q-11 0 -95 55.5t-84 63.5q1 9 16.5 18t29.5 10q13 0 17 -7q6 -10 36.5 -42l57.5 -60.5t27 -33.5z" />
    <glyph glyph-name="a" unicode="a" horiz-adv-x="395" 
d="M420 109q0 -9 -31 -36.5t-76 -53.5t-75 -26q-35 0 -35 48q0 32 12 74v5l-1 -1q-50 -59 -104 -93t-82 -34q-39 0 -39 46q0 29 19 79t52 103.5t87.5 92.5t115.5 39q41 0 48 -21q1 -4 4 -4t8 5q9 9 33 20.5t41 11.5q7 0 7 -8q0 -6 -5 -7q-21 -7 -72.5 -118t-51.5 -168
q0 -26 17 -26q24 0 92 55q24 20 33 20q3 0 3 -3zM291 308q0 19 -26 19q-58 0 -124.5 -98.5t-66.5 -158.5q0 -25 14 -25q10 0 26 12q29 23 59.5 60t47.5 63.5t39.5 66.5t24.5 43q6 10 6 18z" />
    <glyph glyph-name="b" unicode="b" horiz-adv-x="377" 
d="M455 609q0 -22 -20 -22q-11 0 -23 7q-20 12 -40 12q-19 0 -39 -13t-41.5 -42t-39 -57t-41.5 -76.5l-39 -80.5l-40 -88q-4 -8 -7.5 -18t-1.5 -10q1 0 2 1q40 47 108.5 94.5t108.5 47.5q35 0 35 -40q0 -8 -4 -30q-23 -111 -117.5 -204.5t-181.5 -93.5q-3 0 -27 2
q-22 2 -27 2q-11 0 -24.5 -3t-21.5 -3q-5 0 -5 5l4 8q9 10 37.5 91l61.5 172.5t84.5 184t101.5 127.5q32 22 73 37.5t63 20.5t26 5q15 0 25 -10t10 -26zM295 293q2 19 -12 19q-15 0 -38 -18q-68 -53 -106 -99.5t-75 -130.5q-8 -18 -8 -24q0 -18 30 -18q58 0 130.5 86
t78.5 185z" />
    <glyph glyph-name="c" unicode="c" horiz-adv-x="302" 
d="M341 154q0 -16 -45.5 -56t-114 -76t-118.5 -36q-71 0 -71 67q0 62 53 146t111 119q29 17 58.5 28.5t44.5 13.5l15 3q15 0 25.5 -9.5t10.5 -27.5q0 -27 -22 -27q-15 0 -24 11q-12 14 -30 14q-46 0 -100 -96t-54 -157q0 -37 34 -37t91 32.5t96 67.5q27 24 36 24q4 0 4 -4z
" />
    <glyph glyph-name="d" unicode="d" horiz-adv-x="403" 
d="M639 624q0 -19 -17 -19q-8 0 -17 6q-14 9 -29 9q-29 0 -65 -45q-45 -55 -133.5 -253t-88.5 -260q0 -23 18 -23q29 0 90 52q27 23 39 23q3 0 3 -2q0 -8 -33 -37t-78.5 -56t-72.5 -27q-39 0 -39 53q0 34 13 77q2 10 2 12t-1 2q-3 0 -14 -14q-50 -61 -104 -95.5t-84 -34.5
q-40 0 -40 51q0 32 19 83t52 104t87.5 91t114.5 38q35 0 47 -15q2 -3 4 -3t2 1l51.5 107t47 80.5t55.5 64.5q87 62 140 62q13 0 22 -8.5t9 -23.5zM295 308q0 26 -32 26q-59 0 -124 -99.5t-65 -162.5q0 -26 15 -26q8 0 26 13q67 54 123.5 138.5t56.5 110.5z" />
    <glyph glyph-name="e" unicode="e" horiz-adv-x="320" 
d="M353 160q0 -12 -37 -42q-43 -35 -73.5 -57t-86 -48t-100.5 -26q-65 0 -65 64q0 60 49.5 143t108.5 122q71 48 126 48q43 0 43 -29q0 -40 -26.5 -75t-61 -55t-61 -31t-32.5 -11q-4 0 -4 6q0 9 12 15q109 52 110 116q0 28 -19 28q-43 0 -100 -96.5t-57 -153.5q0 -40 31 -40
q41 0 80.5 22t113.5 79q32 25 45 25q4 0 4 -4z" />
    <glyph glyph-name="f" unicode="f" horiz-adv-x="242" 
d="M100 307h-65q-8 0 -8 4q0 7 16 17.5t30 10.5h39q5 0 7 7q3 6 16 38.5l22.5 54.5t24.5 47t28 34q40 28 81.5 48t64 27t31.5 7q15 0 24.5 -10t10.5 -26q0 -22 -18 -22q-9 0 -23 7q-25 13 -42 13q-26 0 -65 -39q-14 -15 -30.5 -51.5t-32.5 -82t-18 -49.5q-1 -1 -1 -3
q0 -1 1 -1q20 0 60.5 -1t58.5 -1q16 0 18 -6q0 -7 -16.5 -16t-29.5 -9h-101q-4 0 -7 -7q-87 -246 -155.5 -380.5t-156.5 -186.5q-51 -30 -98 -30q-26 0 -44 8.5t-18 20.5q0 7 9 16t19 9q8 0 23.5 -11t24.5 -12q4 -1 12 -1q28 0 54 16q57 38 116 164t145 389l1 1v2q0 4 -8 4z
" />
    <glyph glyph-name="g" unicode="g" horiz-adv-x="399" 
d="M216 116h-1q-46 -55 -100.5 -89.5t-83.5 -34.5q-40 0 -40 46q0 27 19.5 77t53 104t89.5 93.5t118 39.5q24 0 30.5 -4t12.5 -17q2 -3 4 -3q4 0 8 4q8 10 27.5 18t32 11t15.5 3q7 0 7 -8q0 -4 -5 -7q-10 -4 -20.5 -20t-24 -45.5t-24.5 -57.5l-29.5 -75l-32.5 -80
q-29 -71 -59 -127t-70.5 -113t-92 -94.5t-109.5 -50.5q-15 -3 -30 -3q-35 0 -59 15.5t-24 29.5q0 18 24 18q18 0 33.5 -14.5t18.5 -15.5q16 -8 32 -8q65 0 143.5 110t139.5 296v1q0 1 -3 1zM298 308q0 19 -26 19q-59 0 -127 -98.5t-68 -158.5q0 -25 15 -25q12 0 26 12
q20 15 41 37.5t36.5 42t33 46.5t26.5 42l22 38.5t15 26.5q6 10 6 18z" />
    <glyph glyph-name="h" unicode="h" horiz-adv-x="389" 
d="M439 605q0 -22 -20 -22q-9 0 -23 7q-21 12 -40 12q-41 0 -91.5 -75t-141.5 -276q-7 -15 -7 -20q0 -1 1 -1t15 10q146 112 206 112q31 0 31 -36q0 -24 -16 -59q-59 -124 -66 -145q-14 -38 -14 -59t15 -21q24 0 97 56q27 20 35 20q3 0 3 -2q0 -10 -33.5 -38t-81.5 -53.5
t-81 -25.5q-40 0 -40 43q0 24 13 62q8 25 34 78t34 77q6 19 6 31q0 14 -10 14q-33 0 -114 -82.5t-117 -191.5q-10 -6 -36.5 -16.5t-36.5 -16.5q-2 -1 -5 -1q-5 0 -5 5q0 8 8 16q9 9 40.5 90l66.5 174.5t84.5 185.5t92.5 121l22.5 14t20 11.5t21 9.5l18.5 7.5t19.5 6
t16.5 4.5t18 5t16 4q3 1 10 1q14 0 24.5 -10.5t10.5 -25.5z" />
    <glyph glyph-name="i" unicode="i" horiz-adv-x="208" 
d="M159 448q0 13 15 30t29 18q45 5 84 46q2 2 3 2q5 0 5 -7q0 -20 -42.5 -60t-82.5 -40q-11 0 -11 11zM0 34q0 24 14 63q4 11 26.5 59.5t40.5 92.5t18 56q0 15 -17 15q-8 0 -18 -2.5t-14 -2.5q-8 0 -8 6q0 9 8 11q104 29 118 29q18 0 18 -21q0 -25 -24 -76l-22.5 -46.5
l-25.5 -53t-21 -48.5q-16 -41 -16 -60q0 -20 15 -20q23 0 80 45q39 31 49 31q3 0 3 -1q0 -7 -32 -35t-78.5 -55.5t-78.5 -27.5q-35 0 -35 41z" />
    <glyph glyph-name="j" unicode="j" horiz-adv-x="201" 
d="M132 448q0 13 14.5 30t28.5 18q46 5 83 46q2 2 3 2q6 0 6 -7q0 -23 -43 -61.5t-77 -38.5q-15 0 -15 11zM-235 -299h-2q-17 0 -39 12t-22 28q0 7 6.5 17t17.5 10q16 0 33 -21q12 -15 33 -15q45 0 100.5 67t102.5 213q87 271 96 288q4 6 4 10q0 2 -3 2t-21.5 -5.5
t-22.5 -5.5q-10 0 -10 8q0 5 7 8q33 12 87.5 28t59.5 16q10 0 12 -10q0 -11 -18 -13q-10 0 -26.5 -46.5t-36 -115.5t-53.5 -150t-73.5 -151.5t-100.5 -119.5t-131 -54z" />
    <glyph glyph-name="k" unicode="k" horiz-adv-x="393" 
d="M449 607q0 -22 -20 -22q-9 0 -23 7q-19 10 -34 10q-44 0 -90.5 -70.5t-125.5 -240.5l-2 -5q2 0 9 6q39 33 85 54t78 21q45 0 45 -39q0 -41 -57 -84t-124 -56q-15 -3 -15 -9q0 -4 22.5 -37t59 -67t65.5 -34q27 0 62 27q20 16 30 16q4 0 4 -4q0 -13 -56 -51.5t-96 -38.5
q-35 0 -62.5 25t-68.5 83q-33 48 -38 48q-3 0 -5 -6q-1 -3 -12.5 -28.5t-21 -49t-9.5 -27.5q0 -9 -7 -12q-6 -4 -41.5 -18.5t-37.5 -14.5q-5 0 -5 5q0 7 8 15q10 9 43 90.5l70.5 175.5t87.5 185t91 119q45 31 92.5 47.5t64.5 16.5q13 0 23.5 -10t10.5 -27zM304 296
q0 26 -27 26t-59 -23.5t-50.5 -46t-18.5 -26.5q0 -11 14 -11q46 0 93.5 23t47.5 58z" />
    <glyph glyph-name="l" unicode="l" horiz-adv-x="198" 
d="M419 611q0 -18 -16 -18q-8 0 -17 6q-14 9 -27 9q-46 0 -116 -123.5t-118.5 -255t-48.5 -169.5q0 -22 18 -22q27 0 89 51q28 24 37 24q3 0 3 -3q0 -16 -71 -67.5t-114 -51.5q-44 0 -44 51q0 68 100 284.5t147 249.5q50 35 91 50.5t58 15.5q29 0 29 -31z" />
    <glyph glyph-name="m" unicode="m" horiz-adv-x="627" 
d="M604 322q2 -25 -16 -62l-18.5 -36.5l-18 -35.5t-15 -32.5t-15.5 -39.5q-14 -39 -14 -61q0 -20 16 -20q24 1 94 55q29 22 38 22q4 0 2 -4q-6 -20 -78 -68t-117 -48q-41 0 -41 42q0 23 13 63q9 26 35 79t33 76q7 21 7 34q0 9 -10 9t-32 -13t-52 -39t-65.5 -78t-64.5 -119
q-4 -10 -10 -22q-6 -4 -25.5 -12t-36 -14t-17.5 -6q-6 0 -6 10q0 21 58.5 140t58.5 144q0 15 -12 15q-14 -2 -42 -19q-61 -38 -101.5 -92t-78.5 -144q-3 -6 -5 -13t-3 -9q-8 -5 -26 -13l-32.5 -14t-15.5 -6q-4 0 -4 5q0 8 3 18q3 12 57.5 136t54.5 152q0 18 -20 18
q-2 0 -17 -2.5t-18 -2.5q-8 0 -8 7q0 10 8 11q104 31 126 31q16 0 16 -19q0 -24 -28 -92q-1 -1 -1 -3q0 -1 1 -1q2 0 3 1q143 105 195 105q16 0 24.5 -11t8.5 -26q0 -30 -13 -57q-7 -17 -6 -17q144 111 198 111q33 0 33 -33z" />
    <glyph glyph-name="n" unicode="n" horiz-adv-x="425" 
d="M418 84q0 -14 -62 -53t-100 -39q-7 0 -12 1t-13 4.5t-12.5 13t-4.5 24.5q0 67 76 205q16 29 16 46q0 12 -10 12q-34 0 -109.5 -75t-116.5 -177q-5 -15 -9 -22q-7 -5 -35 -16.5t-38 -16.5q-1 -1 -3 -1q-4 0 -4 6q0 8 3 14q2 7 58.5 136t56.5 159q0 17 -14 17q-8 0 -30 -10
q-5 -3 -8 -3q-7 0 -7 7q0 6 46.5 26t62.5 20q23 0 23 -30q0 -29 -20 -82q-2 -6 -2 -8q0 -3 2 -3t3 1q150 114 209 114q30 0 30 -32q0 -14 -7 -37q-10 -31 -37.5 -87t-36.5 -82q-13 -38 -13 -56q0 -23 17 -23q23 0 80 43q10 7 17 7q4 0 4 -3z" />
    <glyph glyph-name="o" unicode="o" horiz-adv-x="355" 
d="M-3 61q0 66 42 145t99 108q35 18 71.5 30t56 15.5t28.5 3.5q49 0 49 -63q0 -52 -32.5 -118.5t-78.5 -102.5q-115 -90 -183 -90q-52 0 -52 72zM77 95q0 -53 43 -53q20 -1 51 22q40 29 65 89.5t25 106.5q0 63 -42 63q-41 0 -91.5 -82t-50.5 -146z" />
    <glyph glyph-name="p" unicode="p" horiz-adv-x="405" 
d="M396 325q0 -8 -4 -30q-24 -113 -116.5 -205.5t-177.5 -96.5q-35 0 -39 11l-1 1q-7 0 -48.5 -102.5t-41.5 -114.5q0 -7 7 -7q5 0 40 13.5t42 13.5q9 0 9 -6q0 -8 -9 -11l-95.5 -41t-92.5 -39q-4 -2 -12 -2q-12 0 -14 11q0 13 15 16q6 1 13 9q15 16 122 279t107 282
q0 17 -17 17q-2 0 -17 -3t-18 -3q-8 0 -8 7q0 10 8 12q112 28 122 28q13 0 13 -16q0 -2 -2 -14q-3 -13 -7.5 -25.5t-11 -28.5l-10.5 -26q-1 -4 -5 -13t-6 -14q39 45 108.5 91.5t110.5 46.5q36 0 36 -40zM313 294q1 19 -13 19q-15 0 -38 -18q-68 -53 -107.5 -101.5
t-77.5 -132.5q-8 -16 -8 -24q0 -9 9.5 -13t16.5 -4q63 0 137.5 87.5t80.5 186.5z" />
    <glyph glyph-name="q" unicode="q" horiz-adv-x="378" 
d="M393 357q0 -12 -11 -16q-18 -7 -128 -269t-110 -289q0 -3 3 -3q4 0 38.5 13.5t37.5 13.5q6 0 8 -6q0 -8 -7 -11l-57.5 -25.5l-90.5 -39.5t-46 -17q-13 0 -13 13q0 17 17 17q10 0 16 11q7 13 36.5 83.5l66 159l51.5 123.5l1 4q-47 -57 -102.5 -92.5t-82.5 -35.5
q-39 0 -39 45q0 32 20 83.5t53.5 104t86.5 90.5t110 38q44 0 51 -21q1 -4 4 -4t8 5q9 9 32.5 20.5t40.5 11.5q6 0 6 -7zM65 70q0 -25 13 -25q10 0 27 12q29 23 59.5 60t47.5 63.5t39.5 66.5t24.5 43q6 10 6 18q0 19 -26 19q-58 0 -124.5 -98.5t-66.5 -158.5z" />
    <glyph glyph-name="r" unicode="r" horiz-adv-x="308" 
d="M335 299q-3 -48 -29 -48q-15 0 -20 18q-6 24 -25 24q-31 0 -93.5 -77t-106.5 -194q-6 -4 -31.5 -14t-36.5 -16q-4 -2 -5 -2q-4 0 -4 7q0 6 3 17q2 9 57 134t55 154q0 18 -20 18q-3 0 -18.5 -3t-16.5 -3q-8 0 -8 9q0 8 8 10q105 31 129 31q14 0 14 -16q0 -22 -32 -95
q-4 -12 -4 -13q0 -2 2 -2q1 0 4 3l54 57t34.5 34t31.5 23.5t23 4.5q17 0 27 -15.5t8 -45.5z" />
    <glyph glyph-name="s" unicode="s" horiz-adv-x="244" 
d="M253 339q0 -26 -21 -28q-14 0 -28 11q-21 15 -40 15q-18 0 -29 -11.5t-11 -29.5q0 -27 26 -63q36 -51 36 -93q0 -34 -18 -59q-34 -48 -81 -78.5t-83 -30.5q-23 0 -38 14.5t-15 25.5t10.5 22t18.5 11q10 0 24 -14t39 -14q27 0 49.5 18t23.5 49q0 37 -29 78q-38 58 -38 93
q0 49 65 86.5t96 37.5q16 0 29.5 -10.5t13.5 -29.5z" />
    <glyph glyph-name="t" unicode="t" horiz-adv-x="262" 
d="M100 307h-63q-8 0 -8 4q0 7 17.5 17.5t31.5 10.5h42q5 0 8 8q43 91 52 121q5 18 40 32.5t46 14.5q6 0 6 -7q0 -8 -4 -14q-10 -18 -43 -84t-33 -71q0 -1 1 -1q20 0 61.5 -1t59.5 -1q16 0 16 -5q0 -7 -17.5 -16.5t-30.5 -9.5h-104q-4 0 -7 -7q-77 -181 -77 -225
q0 -38 32 -38q41 0 121 55q18 12 24 12q3 0 3 -3q0 -17 -78 -63t-135 -46q-53 0 -53 53q0 13 3.5 29.5t7 31t12 36.5t14 34.5l16.5 36.5t15 32l16 31.5l13 25.5l1 3q0 4 -6 4z" />
    <glyph glyph-name="u" unicode="u" horiz-adv-x="416" 
d="M58 315h-3q-11 0 -11 9q0 7 8 9q93 27 114 27q26 0 26 -31q0 -21 -14 -50q-2 -5 -20 -37.5l-33.5 -62.5t-29 -64t-13.5 -51t14 -17q33 0 98 67t116 176q16 33 23.5 44.5t16.5 14.5q50 15 61 15q5 0 5 -6t-2 -9q-115 -230 -115 -287q0 -25 19 -25q28 0 91 59q22 22 34 22
q2 0 2 -3q0 -18 -66.5 -71t-114.5 -53q-20 0 -31.5 13.5t-11.5 37.5q0 22 12 63q7 21 6 24l-10 -11q-54 -63 -102.5 -95t-82.5 -32q-45 0 -45 50q0 7 4 29q10 46 56.5 131t48.5 97q1 3 1 8q0 14 -17 14q-15 0 -34 -5z" />
    <glyph glyph-name="v" unicode="v" horiz-adv-x="383" 
d="M377 312q0 -57 -61.5 -134.5t-140.5 -131.5t-128 -54q-44 0 -44 49q0 26 11 59q10 31 43 102.5t38 93.5q1 3 1 7q0 15 -20 15q-2 0 -17 -2.5t-18 -2.5q-8 0 -8 6q0 9 11 12q87 24 104 24q30 0 30 -32q0 -29 -23 -72q-69 -132 -69 -185q0 -26 19 -26q26 0 77 46.5t93 112
t42 111.5q0 30 -21 45q-3 3 -3 6q0 13 21 13q25 0 44 -16.5t19 -45.5z" />
    <glyph glyph-name="w" unicode="w" horiz-adv-x="589" 
d="M596 313q0 -56 -56 -133.5t-131 -133t-126 -55.5q-53 0 -53 74q0 22 5 49q-2 -3 -13.5 -14.5t-33 -31t-45 -37t-50.5 -30t-49 -12.5q-47 0 -47 54q0 22 11 57q10 31 43.5 105t38.5 96q1 3 1 7q0 15 -20 15q-2 0 -17 -2.5t-18 -2.5q-8 0 -8 6q0 9 11 12q79 23 103 23
q32 0 32 -33q0 -24 -23 -70q-73 -141 -73 -199q0 -23 15 -23q25 0 80.5 61.5t97.5 138.5l16 30l16 30t15 25q13 21 34 31t32 10q9 0 9 -7q0 -6 -10 -23q-6 -11 -31 -72q-44 -111 -44 -172q0 -44 29 -44q30 0 78 43t85 105.5t37 110.5q0 34 -19 53q-3 3 -3 6q0 13 20 13
q26 0 43.5 -16.5t17.5 -43.5z" />
    <glyph glyph-name="x" unicode="x" horiz-adv-x="368" 
d="M394 348q0 -19 -15 -19q-5 0 -11 3q-14 7 -26 7q-17 0 -26 -9q-42 -39 -101 -108q-6 -6 -6 -11q0 -1 0.5 -3t0.5 -4q16 -89 27 -125.5t30 -36.5q20 0 67 35q6 5 12 5t6 -5q0 -14 -63 -52.5t-87 -38.5q-8 0 -14.5 3t-11.5 10.5t-8.5 14.5t-7.5 21.5t-6.5 25t-7 31
l-7.5 33.5q-2 8 -3 8q-2 0 -8 -6l-44.5 -50.5t-57.5 -63.5t-51.5 -45.5t-49.5 -22.5q-12 0 -24 7t-19 14t-7 9q0 4 4 7t8 3q1 0 7 -4t8 -4q26 0 103 72t118 123q4 4 4 11q0 10 -7.5 48t-17.5 67q-8 22 -26 22q-2 0 -16 -2.5t-17 -2.5q-8 0 -8 6q0 9 11 12q93 25 105 25
q40 0 48 -93q1 -12 4 -12q1 0 9 8q108 123 155 123q10 0 18.5 -8.5t8.5 -27.5z" />
    <glyph glyph-name="y" unicode="y" horiz-adv-x="397" 
d="M408 364h1q5 0 5 -9q0 -8 -6 -9q-16 -4 -41 -63t-52 -135.5t-76 -171t-105 -156.5q-102 -113 -218 -119h-5q-29 0 -53 13t-24 27q0 11 10 20t19 9q10 0 23 -16t19 -18q12 -4 28 -4q49 0 98 38.5t84 93t62.5 111.5t41.5 96t14 46q0 2 -3 2t-5 -2q-53 -63 -103 -97t-83 -34
q-41 0 -41 50q0 25 12 64q9 28 43 101t37 97v4q0 18 -19 18q-3 0 -19 -2.5t-17 -2.5q-8 0 -8 6q0 9 11 12q84 23 112 23q25 0 25 -31q0 -21 -15 -56l-16 -36.5l-16.5 -38l-15 -33.5t-14 -33.5l-10 -28t-7.5 -26t-2 -17.5q0 -17 12 -17q10 0 21 6q27 14 59 51.5t51.5 69
l45.5 77t27 47.5q13 20 43 53q2 2 5 4t5.5 3.5t7 3t7 2t9.5 2t10.5 2t12 2t13.5 2.5z" />
    <glyph glyph-name="z" unicode="z" horiz-adv-x="322" 
d="M343 348q3 -2 3 -5q0 -4 -7 -10l-98.5 -87l-131.5 -117.5t-59 -53.5l1 -1q1 -2 2 -2q19 -2 43 -6.5t42 -6.5q50 -6 63 -6q44 0 78 31q11 10 18 10q5 0 5 -5q0 -7 -10 -17q-48 -45 -77.5 -60t-62.5 -15q-14 0 -86 7t-78 7q-2 0 -19 -4t-21 -4q-22 0 -22 13q0 4 3 6
q22 18 141.5 124.5l156.5 141.5q-32 1 -75 4t-56 3q-26 0 -34 -9q-9 -11 -19 -11q-5 0 -5 5q0 9 35 37.5t50 33.5q6 2 22 2q13 0 69 -7q50 -8 66 -8q14 0 22 3q21 9 33 9q4 0 8 -2z" />
    <glyph glyph-name="braceleft" unicode="{" horiz-adv-x="268" 
d="M139 -104l-1 -8q-44 -2 -65.5 13.5t-21.5 60.5q0 47 23 127q30 106 30 135q0 35 -35 51q43 12 59.5 41t44.5 125q3 11 5 17q20 68 40.5 110t44 61t43 24t50.5 4l-1 -6q-42 -19 -61.5 -50.5t-50.5 -143.5q-26 -94 -50 -128t-73 -55q22 -15 32 -31.5t10 -42.5
q0 -37 -23 -112q-33 -109 -33 -147q0 -35 33 -45z" />
    <glyph glyph-name="bar" unicode="|" horiz-adv-x="250" 
d="M114 -250v1000h38v-1000h-38z" />
    <glyph glyph-name="braceright" unicode="}" horiz-adv-x="268" 
d="M187 648l1 7q43 2 63.5 -12.5t20.5 -58.5q0 -46 -23 -129q-31 -111 -31 -137q0 -33 35 -49q-42 -12 -59 -41.5t-44 -123.5q-3 -12 -5 -18q-14 -48 -27.5 -82.5t-28 -56t-26.5 -34.5t-29 -18.5t-29.5 -6.5t-33.5 0l1 6q42 19 61.5 50.5t50.5 142.5q27 94 48.5 128.5
t68.5 54.5q-38 27 -38 68q0 36 24 118q35 122 35 155q0 19 -8.5 27t-26.5 10z" />
    <glyph glyph-name="asciitilde" unicode="~" 
d="M408 326q2 -2 2 -6q0 -6 -12.5 -22t-39.5 -32.5t-57 -16.5q-31 0 -93 34q-69 39 -100 39q-33 0 -52 -42q-3 -6 -6 -6q-6 0 -6 8q0 5 10 23.5t35 38.5t56 20q21 0 40 -8t65 -34q47 -29 93 -29q32 0 56 32q3 3 5 3t4 -2z" />
    <glyph glyph-name="uni00A0" unicode="&#xa0;" horiz-adv-x="176" 
 />
    <glyph glyph-name="exclamdown" unicode="&#xa1;" horiz-adv-x="271" 
d="M208 361q9 0 21.5 -20t12.5 -28q0 -10 -24.5 -23.5t-32.5 -13.5q-11 0 -23.5 21t-12.5 26q0 9 26 23.5t33 14.5zM191 178q-21 -60 -66.5 -179.5t-62.5 -169.5q-7 -22 -20 -28q-5 -2 -37 -13t-50 -22q-4 -2 -5 -2q-5 0 -5 6q0 10 11 17q35 23 183 387q4 11 19.5 18t27.5 7
q8 0 8 -8q0 -4 -3 -13z" />
    <glyph glyph-name="cent" unicode="&#xa2;" horiz-adv-x="336" 
d="M225 364l24 80q1 5 9 5q19 -5 19 -15q0 -3 -19 -66q25 1 41.5 -7.5t21 -17.5t4.5 -16q0 -10 -7.5 -16.5t-14.5 -6.5h-1q-8 1 -14.5 12t-11.5 14q-13 9 -26 11l-76 -269q63 -6 125 50q5 5 11 5q8 0 8 -7q0 -8 -20.5 -25.5t-58 -36t-75.5 -22.5q-17 -54 -24 -85
q-2 -6 -12 -6q-17 0 -17 10q0 2 23 80q-16 2 -28 4.5t-27.5 10t-26 19t-17.5 31.5t-7 46q0 70 55 136t142 82zM218 338q-44 -7 -83 -55.5t-39 -112.5q0 -60 51 -90z" />
    <glyph glyph-name="sterling" unicode="&#xa3;" horiz-adv-x="296" 
d="M179 213h-44q-28 -103 -32 -120q-1 -4 -1 -10q0 -10 12 -13q68 -13 96 -13q33 0 40 16q6 14 13 14q10 0 10 -13q0 -14 -24 -28.5t-64 -14.5q-10 0 -72.5 4.5t-74.5 4.5q-24 0 -40 -1q-6 0 -6 4q0 5 11 8q26 3 30 16q6 17 22 71l23 76q-33 0 -33 5q0 6 13 13t26 7
q11 38 13 46q18 69 53 100t59 31q33 0 56 -11t23 -35q0 -3 -1.5 -10t-8 -16t-16.5 -9q-12 0 -15 10q-1 2 -1.5 9.5t-3.5 13t-11 12.5q-11 10 -22 10q-22 0 -29 -26l-37 -126q11 0 31.5 -0.5t29.5 -0.5q13 0 13 -4q0 -7 -13.5 -13.5t-24.5 -6.5z" />
    <glyph glyph-name="currency" unicode="&#xa4;" horiz-adv-x="500" 
d="M60 9l67 61q-41 44 -41 118q0 68 41 118l-67 62l30 28l63 -63q48 40 114 40q73 0 114 -40l63 63l30 -28l-67 -62q41 -44 41 -118q0 -67 -41 -118l67 -61l-30 -29l-63 64q-46 -41 -114 -41q-73 0 -114 41l-63 -64zM127 188q0 -60 39 -105t101 -45q61 0 100.5 45t39.5 105
t-39.5 105t-100.5 45q-62 0 -101 -45t-39 -105z" />
    <glyph glyph-name="yen" unicode="&#xa5;" horiz-adv-x="487" 
d="M95 539h79q55 0 55 -1l28.5 -112.5t27.5 -108.5q5 -15 6 -15q2 0 9 12q92 148 149 205q35 35 83.5 51t76.5 16q19 0 29.5 -8t10.5 -19q0 -7 -7.5 -17t-15.5 -10q-6 0 -15 12.5t-18 13.5h-4q-41 0 -120 -82t-130 -175q135 28 150 28q4 0 4 -12q0 -11 -3 -14
q-4 -4 -168 -35q-13 -24 -20 -44q142 30 160 30q8 0 8 -19q0 -5 -3 -7q-7 -4 -176 -35q-12 -40 -22 -80t-14.5 -60.5t-4.5 -22.5q0 -13 39 -18q14 -2 14 -8q0 -10 -22 -10h-188q-12 0 -12 6q0 10 21 13q18 3 25 4.5t14.5 6t10.5 12.5q20 55 45 138q-148 -28 -149 -28
q-5 0 -7 13q0 11 2 13q6 6 163 34q5 16 3 40q-133 -25 -136 -25q-7 0 -7 14q0 12 4 13q13 6 134 27q-44 159 -64 217q-8 23 -49 28q-14 2 -14 9q0 10 18 10z" />
    <glyph glyph-name="brokenbar" unicode="&#xa6;" horiz-adv-x="250" 
d="M114 -175v350h38v-350h-38zM114 325v350h38v-350h-38z" />
    <glyph glyph-name="section" unicode="&#xa7;" horiz-adv-x="420" 
d="M348 428h-49q0 34 -22.5 58.5t-51.5 24.5q-22 0 -43 -17t-21 -43q0 -47 84 -86q55 -26 93.5 -70.5t38.5 -87.5q0 -62 -76 -108q32 -32 32 -73q0 -43 -34 -76t-92 -33q-57 0 -94.5 36.5t-32.5 89.5h55q0 -37 18 -58.5t50 -21.5q30 0 52.5 16.5t22.5 40.5q0 59 -130 129
q-89 48 -89 125q0 34 19.5 64t51.5 47q-28 25 -28 61q0 42 35.5 77.5t87.5 35.5q62 0 95.5 -40t27.5 -91zM319 203q0 21 -14.5 42t-42 41.5t-47.5 32.5t-51 29q-47 -26 -47 -73q0 -35 28 -57q51 -40 122 -82q52 24 52 67z" />
    <glyph glyph-name="dieresis" unicode="&#xa8;" horiz-adv-x="335" 
d="M316 473h3q2 0 2 -9q0 -21 -12 -37t-29 -16q-12 0 -20 8t-8 22q0 5 1 7q3 6 28 11.5t35 13.5zM178 473h3q2 0 2 -9q0 -21 -12 -37t-29 -16q-12 0 -20 8t-8 22q0 5 1 7q3 6 28 11.5t35 13.5z" />
    <glyph glyph-name="copyright" unicode="&#xa9;" horiz-adv-x="700" 
d="M494 226l20 -4q-21 -85 -24 -92q-57 -19 -105 -19q-91 0 -140 51t-49 119q0 80 56.5 127.5t137.5 47.5q64 0 102 -17q6 -37 12 -90l-20 -4q-18 42 -41.5 62t-63.5 20q-53 0 -83.5 -38.5t-30.5 -101.5q0 -65 34 -105.5t86 -40.5q71 0 109 85zM363 586q127 0 214 -88
t87 -215q0 -126 -87 -213t-214 -87t-214 87t-87 213q0 127 87 215t214 88zM363 21q108 0 182.5 76t74.5 187q0 113 -74 188.5t-183 75.5q-108 0 -182.5 -75.5t-74.5 -188.5q0 -111 74.5 -187t182.5 -76z" />
    <glyph glyph-name="ordfeminine" unicode="&#xaa;" horiz-adv-x="361" 
d="M403 564h1q5 0 5 -5q0 -4 -4 -5q-16 -5 -54.5 -84t-38.5 -120q0 -17 15 -17q14 0 69 42q5 4 10 4t5 -4q0 -13 -44.5 -46.5t-77.5 -33.5q-31 0 -33 37q0 26 8 53q4 4 0 4q-1 0 -1 -1q-38 -42 -80.5 -66.5t-65.5 -24.5q-32 0 -32 35q0 20 14 55.5t39 74t67 66.5t91 28
q33 0 39 -15q1 -3 4 -3l6 3q16 16 58 23zM319 519q0 13 -19 13q-44 0 -95 -66.5t-52 -107.5q0 -17 10 -17q9 0 20 8q23 15 46.5 40.5t35.5 43l31 45.5l18 29q5 5 5 12z" />
    <glyph glyph-name="guillemotleft" unicode="&#xab;" horiz-adv-x="500" 
d="M490 397q0 -6 -7 -13q-97 -81 -135.5 -123.5t-38.5 -72.5q0 -23 20 -44.5t67 -55.5q7 -6 7 -10q0 -6 -7 -6q-2 0 -8 2q-73 38 -106 65.5t-33 55.5q0 35 52 80.5t174 120.5q8 5 11 5q4 0 4 -4zM349 397q0 -6 -7 -13q-97 -81 -135.5 -123.5t-38.5 -72.5q0 -23 21 -45.5
t66 -54.5q7 -6 7 -10q0 -6 -7 -6q-2 0 -8 2q-73 38 -106 65.5t-33 55.5q0 35 52 80.5t174 120.5q8 5 11 5q4 0 4 -4z" />
    <glyph glyph-name="logicalnot" unicode="&#xac;" 
d="M75 233v33h277v-140h-35v107h-242z" />
    <glyph glyph-name="uni00AD" unicode="&#xad;" horiz-adv-x="297" 
d="M290 268q-32 -48 -94 -48q-20 0 -37 4q-60 14 -82 14q-15 0 -26 -9q-3 -3 -9 -3q-7 0 -7 5q0 10 28.5 30t56.5 20q12 0 19 -2q65 -15 96 -15q29 0 41 13q4 5 10 5q7 0 7 -6q0 -4 -3 -8z" />
    <glyph glyph-name="registered" unicode="&#xae;" horiz-adv-x="530" 
d="M297 162q-91 0 -152 61.5t-61 150.5q0 90 60.5 151t152.5 61t152.5 -61t60.5 -151q0 -89 -61 -150.5t-152 -61.5zM297 552q-74 0 -123.5 -51t-49.5 -127q0 -77 49.5 -127.5t123.5 -50.5q73 0 123 50.5t50 127.5q0 76 -50 127t-123 51zM192 475v18h108q83 0 83 -62
q0 -44 -49 -60q47 -90 80 -101l-3 -15q-41 0 -60 14t-51 77q-5 8 -11 10t-23 2v-48q0 -22 4.5 -27.5t27.5 -7.5v-18h-107v18q23 2 28 7.5t5 27.5v130q0 23 -4.5 28t-27.5 7zM266 457v-80q23 0 35 1.5t23.5 13t11.5 33.5q0 26 -14.5 37.5t-32.5 11.5q-17 0 -20 -2.5t-3 -14.5
z" />
    <glyph glyph-name="macron" unicode="&#xaf;" horiz-adv-x="389" 
d="M313 399h-200q-12 0 -12 8q0 9 12.5 20t23.5 10h53.5h90.5h56q12 0 12 -10q0 -9 -10.5 -18.5t-25.5 -9.5z" />
    <glyph glyph-name="degree" unicode="&#xb0;" horiz-adv-x="275" 
d="M275 364q0 -50 -33 -81.5t-81 -31.5q-46 0 -76.5 34t-30.5 82q0 45 33 78.5t78 32.5q47 -1 78.5 -34.5t31.5 -79.5zM82 364q0 -34 24 -59.5t59 -25.5q33 0 57.5 25.5t24.5 59.5q0 33 -24.5 59.5t-57.5 26.5q-35 0 -59 -26.5t-24 -59.5z" />
    <glyph glyph-name="plusminus" unicode="&#xb1;" 
d="M237 216l-34 -83q-4 -9 -14 -10q-25 -5 -35 -5q-4 0 -4 4q0 1 37 100q-54 8 -80 8t-39 -8q-4 -2 -7 -2q-6 0 -6 6q0 7 12 18q24 22 68 22q25 0 67 -6q14 37 25 63q5 12 14 15q5 1 27 4.5t35 8.5q1 0 3 1q5 0 5 -5t-5 -7q-19 -9 -52 -87q2 0 31 -2.5t44 -2.5q25 0 31 5
q7 5 12 5q8 0 8 -7q0 -2 -8 -11.5t-26.5 -20t-40.5 -10.5q-15 0 -68 7zM351 72q-15 -22 -36 -32t-58 -10q-29 0 -74 6q-83 12 -105 12q-20 0 -34 -8q-4 -2 -9 -2t-5 3q0 7 21 24q23 20 71 20q19 0 34 -3q99 -15 134 -15q38 0 50 12q5 5 11 5q4 0 4 -4t-4 -8z" />
    <glyph glyph-name="two.superior" unicode="&#xb2;" horiz-adv-x="313" 
d="M339 483q-1 -24 -14 -45t-39 -40.5t-46.5 -32t-56.5 -31.5q-8 -4 -8 -8q0 -3 6 -5q52 -9 87 -9q30 0 41 12q5 6 11 6t6 -7t-7 -18q-25 -40 -77 -40q-10 0 -69.5 8t-70.5 8q-19 0 -28 -4q-6 -2 -9 -2q-11 0 -11 10q0 7 8 11q78 40 139 81q73 49 73 97q0 44 -47 44
q-50 -2 -64 -40q-9 -24 -31 -24q-15 0 -15 20q0 28 44 49t88 21q35 0 63 -15.5t27 -45.5z" />
    <glyph glyph-name="three.superior" unicode="&#xb3;" horiz-adv-x="288" 
d="M335 490q-2 -18 -24 -36t-58 -27q-7 -1 -7 -3t8 -4q61 -14 61 -54q0 -44 -60 -73.5t-124 -29.5q-41 0 -59.5 10t-18.5 24q0 19 28 19q8 0 12.5 -2.5t9 -7t8.5 -6.5q18 -12 39 -12q43 0 71.5 22.5t28.5 52.5q0 41 -40 41l-27 -4q-13 0 -13 12q0 11 16 13q77 10 79 55
q0 15 -11.5 25.5t-31.5 11.5q-46 0 -61 -28l-1 -3q-2 -3 -2.5 -4t-2 -3.5t-2.5 -3.5l-3 -3t-3.5 -3t-4 -2t-5.5 -1.5t-6 -0.5q-17 0 -17 17q0 22 41 40t89 18q47 0 67 -13q25 -18 24 -37z" />
    <glyph glyph-name="acute" unicode="&#xb4;" horiz-adv-x="337" 
d="M352 497q0 -15 -10 -19q-6 -3 -171 -91q-4 -2 -9 -2q-4 0 -4 4t5 9q35 33 96.5 85.5t69.5 52.5t15.5 -13t7.5 -26z" />
    <glyph glyph-name="mu" unicode="&#xb5;" horiz-adv-x="416" 
d="M58 315h-3q-11 0 -11 9q0 7 8 9q93 27 114 27q26 0 26 -31q0 -21 -14 -50q-2 -5 -20 -37.5l-33.5 -62.5t-29 -64t-13.5 -51t14 -17q33 0 98 67t116 176q16 33 23.5 44.5t16.5 14.5q50 15 61 15q5 0 5 -6t-2 -9q-115 -230 -115 -287q0 -25 19 -25q28 0 91 59q22 22 34 22
q2 0 2 -3q0 -18 -66.5 -71t-114.5 -53q-20 0 -31.5 13.5t-11.5 37.5q0 22 12 63q7 21 6 24l-10 -11q-108 -127 -194 -127l-44 -115q-13 -33 -19 -43.5t-16 -14.5q-46 -18 -59 -18q-7 0 -7 7t55 120.5t55 122.5q0 39 53.5 139t54.5 109q1 3 1 8q0 14 -17 14q-15 0 -34 -5z
" />
    <glyph glyph-name="paragraph" unicode="&#xb6;" horiz-adv-x="430" 
d="M219 -74v292q-62 4 -103 44.5t-41 111.5q0 67 45.5 116t100.5 49h175v-35h-35v-578h-35v578h-72v-578h-35z" />
    <glyph glyph-name="periodcentered" unicode="&#xb7;" horiz-adv-x="174" 
d="M155 256q0 -8 -26 -22.5t-32 -14.5q-9 0 -22 19t-13 27q0 11 24.5 25t33.5 14t22 -20t13 -28z" />
    <glyph glyph-name="cedilla" unicode="&#xb8;" horiz-adv-x="604" 
d="M338 -48q0 -5 -4 -6q-77 -15 -77 -29q0 -6 10 -10q41 -20 41 -50q0 -23 -30 -42.5t-55.5 -27.5t-30.5 -8q-4 0 -4 3q0 1 2 3q71 51 71 86q0 13 -11 18q-40 21 -40 41q0 24 41 39.5t67 15.5q6 0 13 -12.5t7 -20.5z" />
    <glyph glyph-name="one.superior" unicode="&#xb9;" horiz-adv-x="245" 
d="M236 273h-164q-10 0 -10 8q0 7 19 10q27 1 39 8t17 22q12 32 26 73.5t22.5 69t8.5 29.5t-1 2q-3 0 -9 -3q-25 -12 -37 -23t-18 -29q-3 -8 -10 -8q-6 0 -10 6t-4 12q0 16 18 30q12 9 45.5 26t61.5 29t30 12q7 0 7 -9q0 -3 -2 -11l-69 -207q-1 -3 -1 -7q0 -17 49 -22
q9 -1 9 -8q0 -10 -17 -10z" />
    <glyph glyph-name="ordmasculine" unicode="&#xba;" horiz-adv-x="319" 
d="M369 517q0 -37 -26 -85.5t-63 -74.5q-93 -65 -146 -65q-42 0 -42 52q1 48 34.5 104.5t78.5 77.5q75 35 125 35q39 0 39 -44zM302 485q0 40 -29 40q-34 0 -75 -58t-41 -99q0 -33 34 -33q31 0 70.5 49t40.5 101z" />
    <glyph glyph-name="guillemotright" unicode="&#xbb;" horiz-adv-x="500" 
d="M416 275q0 -35 -52 -81t-173 -121q-7 -4 -11 -4q-5 0 -5 4t8 12q98 84 136 125.5t38 71.5q0 22 -20 44t-67 56q-8 5 -8 10t7 5q5 0 39.5 -17t71 -47.5t36.5 -57.5zM275 274q0 -35 -52 -81t-173 -121q-7 -4 -11 -4t-4 4q0 7 7 12q97 83 135.5 125t38.5 72q0 23 -20 45
t-67 56q-8 5 -8 10t7 5q5 0 39 -17t71 -47.5t37 -58.5z" />
    <glyph glyph-name="onequarter" unicode="&#xbc;" horiz-adv-x="600" 
d="M430 77l-147 6q-1 0 -1 2q0 6 5 16.5t9 13.5q9 6 42.5 30l59 42l64.5 44t74 47q3 2 8 2q10 0 10 -7l-23 -81q-23 -80 -23 -83t4 -3q14 -1 29 -1q11 0 15 4q3 3 7 3q7 0 7 -5q0 -3 -3 -6q-10 -11 -14 -14.5t-15.5 -7.5t-29.5 -4q-11 0 -12 -6q-9 -33 -9 -41t27 -11
q10 0 10 -8q0 -9 -14 -9h-120q-9 0 -9 6q0 9 14 11q26 4 29 14q12 33 12 42q0 4 -6 4zM345 121v-2q54 -7 102 -7q4 12 15 48.5t18 56.5q-96 -66 -135 -96zM540 519q0 -7 -2 -9l-77.5 -97.5l-148 -187.5l-139.5 -183.5t-64 -100.5q0 -11 -7 -11q-8 0 -16 9.5t-8 22.5
q0 2 2 10q2 9 43.5 65l104.5 138l119 154l110.5 141t56.5 72q5 5 8 5q8 0 13 -9.5t5 -18.5zM236 273h-164q-10 0 -10 8q0 7 19 10q27 1 39 8t17 22q12 32 26 73.5t22.5 69t8.5 29.5t-1 2q-3 0 -9 -3q-25 -12 -37 -23t-18 -29q-3 -8 -10 -8q-6 0 -10 6t-4 12q0 16 18 30
q12 9 45.5 26t61.5 29t30 12q7 0 7 -9q0 -3 -2 -11l-69 -207q-1 -3 -1 -7q0 -17 49 -22q9 -1 9 -8q0 -10 -17 -10z" />
    <glyph glyph-name="onehalf" unicode="&#xbd;" horiz-adv-x="600" 
d="M525 519q0 -7 -2 -9l-77.5 -97.5l-148 -187.5l-139.5 -183.5t-64 -100.5q0 -11 -7 -11q-8 0 -16 9.5t-8 22.5q0 2 2 10q2 9 43.5 65l104.5 138l119 154l110.5 141t56.5 72q5 5 8 5q8 0 13 -9.5t5 -18.5zM479 269q35 0 63 -15.5t27 -45.5q-1 -24 -14 -45t-39 -40.5
t-46.5 -32t-56.5 -31.5q-8 -4 -8 -8q0 -3 6 -5q52 -9 87 -9q30 0 41 12q5 6 11 6t6 -7t-7 -18q-25 -40 -77 -40q-10 0 -69.5 8t-70.5 8q-19 0 -28 -4q-6 -2 -9 -2q-11 0 -11 10q0 7 8 11q78 40 139 81q73 49 73 97q0 44 -47 44q-50 -2 -64 -40q-9 -24 -31 -24q-15 0 -15 20
q0 28 44 49t88 21zM236 273h-164q-10 0 -10 8q0 7 19 10q27 1 39 8t17 22q12 32 26 73.5t22.5 69t8.5 29.5t-1 2q-3 0 -9 -3q-25 -12 -37 -23t-18 -29q-3 -8 -10 -8q-6 0 -10 6t-4 12q0 16 18 30q12 9 45.5 26t61.5 29t30 12q7 0 7 -9q0 -3 -2 -11l-69 -207q-1 -3 -1 -7
q0 -17 49 -22q9 -1 9 -8q0 -10 -17 -10z" />
    <glyph glyph-name="threequarters" unicode="&#xbe;" horiz-adv-x="600" 
d="M436 77l-147 6q-1 0 -1 2q0 6 5 16.5t9 13.5q9 6 42.5 30l59 42l64.5 44t74 47q3 2 8 2q10 0 10 -7l-23 -81q-23 -80 -23 -83t4 -3q14 -1 29 -1q11 0 15 4q3 3 7 3q7 0 7 -5q0 -3 -3 -6q-10 -11 -14 -14.5t-15.5 -7.5t-29.5 -4q-11 0 -12 -6q-9 -33 -9 -41t27 -11
q10 0 10 -8q0 -9 -14 -9h-120q-9 0 -9 6q0 9 14 11q26 4 29 14q12 33 12 42q0 4 -6 4zM351 121v-2q54 -7 102 -7q4 12 15 48.5t18 56.5q-96 -66 -135 -96zM557 519q0 -7 -2 -9l-77.5 -97.5l-148 -187.5l-139.5 -183.5t-64 -100.5q0 -11 -7 -11q-8 0 -16 9.5t-8 22.5
q0 2 2 10q2 9 43.5 65l104.5 138l119 154l110.5 141t56.5 72q5 5 8 5q8 0 13 -9.5t5 -18.5zM335 490q-2 -18 -24 -36t-58 -27q-7 -1 -7 -3t8 -4q61 -14 61 -54q0 -44 -60 -73.5t-124 -29.5q-41 0 -59.5 10t-18.5 24q0 19 28 19q8 0 12.5 -2.5t9 -7t8.5 -6.5q18 -12 39 -12
q43 0 71.5 22.5t28.5 52.5q0 41 -40 41l-27 -4q-13 0 -13 12q0 11 16 13q77 10 79 55q0 15 -11.5 25.5t-31.5 11.5q-46 0 -61 -28l-1 -3q-2 -3 -2.5 -4t-2 -3.5t-2.5 -3.5l-3 -3t-3.5 -3t-4 -2t-5.5 -1.5t-6 -0.5q-17 0 -17 17q0 22 41 40t89 18q47 0 67 -13q25 -18 24 -37z
" />
    <glyph glyph-name="questiondown" unicode="&#xbf;" horiz-adv-x="402" 
d="M316 358q9 0 22 -19.5t13 -26.5q0 -9 -25 -24t-34 -15q-11 0 -22.5 21t-11.5 27q0 8 25.5 22.5t32.5 14.5zM320 191q1 -3 1 -11q0 -35 -9 -49t-34 -25q-77 -36 -129.5 -75.5t-74.5 -74.5t-30 -59t-8 -45q0 -36 22 -56t53 -20q33 0 57 18t34 47q11 31 33 31q26 0 26 -28
q0 -41 -56.5 -70t-122.5 -29q-64 0 -95.5 31.5t-31.5 71.5q-1 63 64.5 125.5t162.5 114.5q22 12 44 35t22 41t12 28.5t49 10.5q9 0 11 -12z" />
    <glyph glyph-name="Agrave" unicode="&#xc0;" horiz-adv-x="575" 
d="M490 618q0 -4 -5 -4q-11 0 -95 55.5t-84 63.5q1 9 16.5 18t29.5 10q13 0 17 -7q6 -10 36.5 -42l57.5 -60.5t27 -33.5zM437 487q0 -78 12 -225.5t21 -212.5q6 -41 38 -41q2 0 13 2.5t13 2.5q10 0 10 -6t-10 -9q-60 -19 -92 -19q-29 0 -42 12.5t-20.5 51.5t-13.5 130
q0 3 -0.5 4t-1.5 2.5t-2.5 1.5h-5.5q-18 1 -75 1q-71 0 -137 -2q-9 0 -15 -7q-110 -135 -110 -150q0 -8 25 -11q26 -2 26 -10q0 -6 -5.5 -7t-24.5 -1h-137q-8 0 -8 5q0 4 7 8t16 5q21 2 29 6.5t22 19.5q18 18 93.5 112l168.5 211.5l129 161.5l20 11l47 23t37 19q1 1 3 1
q5 0 5 -5q0 -4 -4 -7q-22 -16 -26.5 -27.5t-4.5 -50.5zM363 229q-4 56 -12 214q-1 9 -3 9q-3 0 -89 -111.5t-86 -115.5q0 -3 8 -4q18 -1 88 -1q69 0 84 1q10 4 10 8z" />
    <glyph glyph-name="Aacute" unicode="&#xc1;" horiz-adv-x="575" 
d="M540 719q0 -15 -10 -19q-6 -3 -171 -91q-4 -2 -9 -2q-4 0 -4 4t5 9q35 33 96.5 85.5t69.5 52.5t15.5 -13t7.5 -26zM437 487q0 -78 12 -225.5t21 -212.5q6 -41 38 -41q2 0 13 2.5t13 2.5q10 0 10 -6t-10 -9q-60 -19 -92 -19q-29 0 -42 12.5t-20.5 51.5t-13.5 130
q0 3 -0.5 4t-1.5 2.5t-2.5 1.5h-5.5q-18 1 -75 1q-71 0 -137 -2q-9 0 -15 -7q-110 -135 -110 -150q0 -8 25 -11q26 -2 26 -10q0 -6 -5.5 -7t-24.5 -1h-137q-8 0 -8 5q0 4 7 8t16 5q21 2 29 6.5t22 19.5q18 18 93.5 112l168.5 211.5l129 161.5l20 11l47 23t37 19q1 1 3 1
q5 0 5 -5q0 -4 -4 -7q-22 -16 -26.5 -27.5t-4.5 -50.5zM363 229q-4 56 -12 214q-1 9 -3 9q-3 0 -89 -111.5t-86 -115.5q0 -3 8 -4q18 -1 88 -1q69 0 84 1q10 4 10 8z" />
    <glyph glyph-name="Acircumflex" unicode="&#xc2;" horiz-adv-x="575" 
d="M454 730q27 -1 45.5 -27t50.5 -93q5 -10 7 -15q0 -1 0.5 -1t0.5 -1q0 -5 -7 -5q-3 0 -6 4l-17 23l-15 21t-12.5 16.5t-12.5 14t-12 9.5t-13.5 6.5t-14.5 1.5q-37 0 -154 -76q-2 -1 -6 -1q-7 2 -7 4t30.5 31t74 58.5t68.5 29.5zM437 487q0 -78 12 -225.5t21 -212.5
q6 -41 38 -41q2 0 13 2.5t13 2.5q10 0 10 -6t-10 -9q-60 -19 -92 -19q-29 0 -42 12.5t-20.5 51.5t-13.5 130q0 3 -0.5 4t-1.5 2.5t-2.5 1.5h-5.5q-18 1 -75 1q-71 0 -137 -2q-9 0 -15 -7q-110 -135 -110 -150q0 -8 25 -11q26 -2 26 -10q0 -6 -5.5 -7t-24.5 -1h-137
q-8 0 -8 5q0 4 7 8t16 5q21 2 29 6.5t22 19.5q18 18 93.5 112l168.5 211.5l129 161.5l20 11l47 23t37 19q1 1 3 1q5 0 5 -5q0 -4 -4 -7q-22 -16 -26.5 -27.5t-4.5 -50.5zM363 229q-4 56 -12 214q-1 9 -3 9q-3 0 -89 -111.5t-86 -115.5q0 -3 8 -4q18 -1 88 -1q69 0 84 1
q10 4 10 8z" />
    <glyph glyph-name="Atilde" unicode="&#xc3;" horiz-adv-x="575" 
d="M554 698q5 0 5 -5t-11 -17.5t-33.5 -25t-47.5 -12.5q-28 0 -60 15l-28.5 14.5t-38.5 17.5t-26 6q-23 0 -36 -27q-3 -4 -6 -4q-5 2 -5 6t10 18.5t32 30t47 15.5q31 0 82 -29q47 -26 70 -26q24 0 42 21q1 2 4 2zM437 487q0 -78 12 -225.5t21 -212.5q6 -41 38 -41
q2 0 13 2.5t13 2.5q10 0 10 -6t-10 -9q-60 -19 -92 -19q-29 0 -42 12.5t-20.5 51.5t-13.5 130q0 3 -0.5 4t-1.5 2.5t-2.5 1.5h-5.5q-18 1 -75 1q-71 0 -137 -2q-9 0 -15 -7q-110 -135 -110 -150q0 -8 25 -11q26 -2 26 -10q0 -6 -5.5 -7t-24.5 -1h-137q-8 0 -8 5q0 4 7 8
t16 5q21 2 29 6.5t22 19.5q18 18 93.5 112l168.5 211.5l129 161.5l20 11l47 23t37 19q1 1 3 1q5 0 5 -5q0 -4 -4 -7q-22 -16 -26.5 -27.5t-4.5 -50.5zM363 229q-4 56 -12 214q-1 9 -3 9q-3 0 -89 -111.5t-86 -115.5q0 -3 8 -4q18 -1 88 -1q69 0 84 1q10 4 10 8z" />
    <glyph glyph-name="Adieresis" unicode="&#xc4;" horiz-adv-x="575" 
d="M437 487q0 -78 12 -225.5t21 -212.5q6 -41 38 -41q2 0 13 2.5t13 2.5q10 0 10 -6t-10 -9q-60 -19 -92 -19q-29 0 -42 12.5t-20.5 51.5t-13.5 130q0 3 -0.5 4t-1.5 2.5t-2.5 1.5h-5.5q-18 1 -75 1q-71 0 -137 -2q-9 0 -15 -7q-110 -135 -110 -150q0 -8 25 -11
q26 -2 26 -10q0 -6 -5.5 -7t-24.5 -1h-137q-8 0 -8 5q0 4 7 8t16 5q21 2 29 6.5t22 19.5q18 18 93.5 112l168.5 211.5l129 161.5l20 11l47 23t37 19q1 1 3 1q5 0 5 -5q0 -4 -4 -7q-22 -16 -26.5 -27.5t-4.5 -50.5zM363 229q-4 56 -12 214q-1 9 -3 9q-3 0 -89 -111.5
t-86 -115.5q0 -3 8 -4q18 -1 88 -1q69 0 84 1q10 4 10 8zM533 677h3q2 0 2 -9q0 -21 -12 -37t-29 -16q-12 0 -20 8t-8 22q0 5 1 7q3 6 28 11.5t35 13.5zM395 677h3q2 0 2 -9q0 -21 -12 -37t-29 -16q-12 0 -20 8t-8 22q0 5 1 7q3 6 28 11.5t35 13.5z" />
    <glyph glyph-name="Aring" unicode="&#xc5;" horiz-adv-x="575" 
d="M495 673q0 -30 -21.5 -51.5t-51.5 -21.5t-51.5 21.5t-21.5 51.5t21.5 51.5t51.5 21.5t51.5 -21.5t21.5 -51.5zM475 673q0 22 -15 37.5t-38 15.5q-24 0 -38.5 -16.5t-14.5 -36.5q0 -24 16.5 -38.5t36.5 -14.5q24 0 38.5 16.5t14.5 36.5zM437 487q0 -78 12 -225.5
t21 -212.5q6 -41 38 -41q2 0 13 2.5t13 2.5q10 0 10 -6t-10 -9q-60 -19 -92 -19q-29 0 -42 12.5t-20.5 51.5t-13.5 130q0 3 -0.5 4t-1.5 2.5t-2.5 1.5h-5.5q-18 1 -75 1q-71 0 -137 -2q-9 0 -15 -7q-110 -135 -110 -150q0 -8 25 -11q26 -2 26 -10q0 -6 -5.5 -7t-24.5 -1
h-137q-8 0 -8 5q0 4 7 8t16 5q21 2 29 6.5t22 19.5q18 18 93.5 112l168.5 211.5l129 161.5l20 11l47 23t37 19q1 1 3 1q5 0 5 -5q0 -4 -4 -7q-22 -16 -26.5 -27.5t-4.5 -50.5zM363 229q-4 56 -12 214q-1 9 -3 9q-3 0 -89 -111.5t-86 -115.5q0 -3 8 -4q18 -1 88 -1q69 0 84 1
q10 4 10 8z" />
    <glyph glyph-name="AE" unicode="&#xc6;" horiz-adv-x="680" 
d="M-24 43l185 218l223 260q-27 0 -27 10q0 8 10 8h288q38 0 53 -4t15 -16q0 -3 -4.5 -17t-16.5 -29.5t-26 -15.5l-2 1h-3q-6 2 -7 17t-16 27q-12 9 -119 9q-25 0 -31 -17q-56 -168 -56 -171q0 -7 14 -8q17 -1 60 -1l73 1q20 0 20 -8q0 -12 -12 -21.5t-31 -9.5q-8 0 -55.5 4
t-56.5 4q-26 0 -33 -15q-11 -29 -28 -80l-30 -90.5t-13 -41.5q0 -14 19 -18q98 -19 138 -19q47 0 59 23q15 32 29 32t14 -21q0 -5 -4 -12.5t-15 -18t-26.5 -19.5t-41 -15.5t-56.5 -6.5q-33 0 -94 7q-39 5 -111 5q-40 0 -61 -1q-9 0 -9 8q2 10 14 11q42 7 49 25l53 146
q-123 0 -165 -4q-116 -140 -116 -146q0 -18 18 -21q26 -4 26 -9q0 -9 -12 -9h-155q-8 0 -8 5q2 10 23 13q35 4 58 31zM319 219q81 249 89 278q-9 -12 -64 -78l-104.5 -125t-49.5 -63q0 -8 25.5 -10t103.5 -2z" />
    <glyph glyph-name="Ccedilla" unicode="&#xc7;" horiz-adv-x="552" 
d="M615 487q0 -16 -12.5 -37t-31.5 -21t-22 16q0 3 -0.5 11.5t-1.5 13t-6 13t-14 16.5q-23 22 -73 22q-87 0 -177 -66.5t-126 -192.5q-11 -33 -11 -70q0 -75 46.5 -122t118.5 -48q93 0 185 75q10 9 19 9q3 0 3 -4q0 -6 -14.5 -20t-41.5 -31.5t-60 -34t-75.5 -27.5t-82.5 -11
q-24 0 -35 2q-4 -7 -4 -13q0 -9 9 -14q17 -7 29 -21t12 -29q0 -23 -30 -42.5t-55.5 -27.5t-30.5 -8q-4 0 -4 3q0 1 2 3q71 51 71 86q0 13 -11 18q-30 20 -30 45q0 6 1 8q-111 33 -111 164q0 106 62.5 199.5t163.5 148.5t211 55q57 0 92.5 -18.5t34.5 -49.5z" />
    <glyph glyph-name="Egrave" unicode="&#xc8;" horiz-adv-x="441" 
d="M424 588q0 -4 -5 -4q-11 0 -95 55.5t-84 63.5q1 9 16.5 18t29.5 10q13 0 17 -7q6 -10 36.5 -42l57.5 -60.5t27 -33.5zM146 539h288q39 0 53.5 -4t14.5 -15q0 -8 -7 -25q-6 -15 -17 -26.5t-22 -11.5q-1 0 -2.5 0.5t-2.5 0.5q-6 2 -7.5 17.5t-16.5 26.5q-12 9 -119 9
q-24 0 -30 -17l-18 -52l-27.5 -81t-11.5 -38q0 -8 14 -8h35.5h60.5h37q20 0 20 -8q0 -12 -11.5 -21.5t-31.5 -9.5q-8 0 -55.5 4t-56.5 4q-27 0 -32 -15q-12 -31 -30 -82.5t-30 -89.5t-12 -40q0 -15 20 -18q97 -19 138 -19q47 0 58 23q15 32 29 32q6 0 10.5 -6.5t4.5 -13.5
q0 -11 -12.5 -26.5t-47 -31t-83.5 -15.5q-34 0 -95 7q-52 5 -111 5l-62 -1q-8 0 -8 7q0 9 14 12q43 7 50 25q35 93 95 275t60 192q0 17 -37 17q-16 0 -16 10q0 8 10 8z" />
    <glyph glyph-name="Eacute" unicode="&#xc9;" horiz-adv-x="441" 
d="M469 697q0 -15 -10 -19q-6 -3 -171 -91q-4 -2 -9 -2q-4 0 -4 4t5 9q35 33 96.5 85.5t69.5 52.5t15.5 -13t7.5 -26zM146 539h288q39 0 53.5 -4t14.5 -15q0 -8 -7 -25q-6 -15 -17 -26.5t-22 -11.5q-1 0 -2.5 0.5t-2.5 0.5q-6 2 -7.5 17.5t-16.5 26.5q-12 9 -119 9
q-24 0 -30 -17l-18 -52l-27.5 -81t-11.5 -38q0 -8 14 -8h35.5h60.5h37q20 0 20 -8q0 -12 -11.5 -21.5t-31.5 -9.5q-8 0 -55.5 4t-56.5 4q-27 0 -32 -15q-12 -31 -30 -82.5t-30 -89.5t-12 -40q0 -15 20 -18q97 -19 138 -19q47 0 58 23q15 32 29 32q6 0 10.5 -6.5t4.5 -13.5
q0 -11 -12.5 -26.5t-47 -31t-83.5 -15.5q-34 0 -95 7q-52 5 -111 5l-62 -1q-8 0 -8 7q0 9 14 12q43 7 50 25q35 93 95 275t60 192q0 17 -37 17q-16 0 -16 10q0 8 10 8z" />
    <glyph glyph-name="Ecircumflex" unicode="&#xca;" horiz-adv-x="441" 
d="M382 717q27 -1 45.5 -27t50.5 -93q5 -10 7 -15l1 -1v-1q0 -5 -7 -5q-3 0 -6 4l-17 23l-15 21t-12.5 16.5t-12.5 14t-12 9.5t-13.5 6.5t-14.5 1.5q-37 0 -154 -76q-2 -1 -6 -1q-7 2 -7 4t30.5 31t74 58.5t68.5 29.5zM146 539h288q39 0 53.5 -4t14.5 -15q0 -8 -7 -25
q-6 -15 -17 -26.5t-22 -11.5q-1 0 -2.5 0.5t-2.5 0.5q-6 2 -7.5 17.5t-16.5 26.5q-12 9 -119 9q-24 0 -30 -17l-18 -52l-27.5 -81t-11.5 -38q0 -8 14 -8h35.5h60.5h37q20 0 20 -8q0 -12 -11.5 -21.5t-31.5 -9.5q-8 0 -55.5 4t-56.5 4q-27 0 -32 -15q-12 -31 -30 -82.5
t-30 -89.5t-12 -40q0 -15 20 -18q97 -19 138 -19q47 0 58 23q15 32 29 32q6 0 10.5 -6.5t4.5 -13.5q0 -11 -12.5 -26.5t-47 -31t-83.5 -15.5q-34 0 -95 7q-52 5 -111 5l-62 -1q-8 0 -8 7q0 9 14 12q43 7 50 25q35 93 95 275t60 192q0 17 -37 17q-16 0 -16 10q0 8 10 8z" />
    <glyph glyph-name="Edieresis" unicode="&#xcb;" horiz-adv-x="441" 
d="M437 677h3q2 0 2 -9q0 -21 -12 -37t-29 -16q-12 0 -20 8t-8 22q0 5 1 7q3 6 28 11.5t35 13.5zM299 677h3q2 0 2 -9q0 -21 -12 -37t-29 -16q-12 0 -20 8t-8 22q0 5 1 7q3 6 28 11.5t35 13.5zM146 539h288q39 0 53.5 -4t14.5 -15q0 -8 -7 -25q-6 -15 -17 -26.5t-22 -11.5
q-1 0 -2.5 0.5t-2.5 0.5q-6 2 -7.5 17.5t-16.5 26.5q-12 9 -119 9q-24 0 -30 -17l-18 -52l-27.5 -81t-11.5 -38q0 -8 14 -8h35.5h60.5h37q20 0 20 -8q0 -12 -11.5 -21.5t-31.5 -9.5q-8 0 -55.5 4t-56.5 4q-27 0 -32 -15q-12 -31 -30 -82.5t-30 -89.5t-12 -40q0 -15 20 -18
q97 -19 138 -19q47 0 58 23q15 32 29 32q6 0 10.5 -6.5t4.5 -13.5q0 -11 -12.5 -26.5t-47 -31t-83.5 -15.5q-34 0 -95 7q-52 5 -111 5l-62 -1q-8 0 -8 7q0 9 14 12q43 7 50 25q35 93 95 275t60 192q0 17 -37 17q-16 0 -16 10q0 8 10 8z" />
    <glyph glyph-name="Igrave" unicode="&#xcc;" horiz-adv-x="271" 
d="M327 597q-11 0 -95 55.5t-84 63.5q1 9 16.5 18t29.5 10q13 0 17 -7q6 -10 36.5 -42l57.5 -60.5t27 -33.5q0 -4 -5 -4zM149 -6l-173 -1q-13 0 -13 6q0 9 21 13q23 3 32.5 7.5t13.5 15.5q42 110 101 283.5t59 184.5t-41 16q-14 1 -14 9q0 11 22 11h173q13 0 13 -6
q0 -8 -20 -12q-41 -6 -48 -23q-30 -77 -69.5 -191.5t-64.5 -194t-25 -83.5q0 -12 42 -17q13 -1 13 -8q0 -10 -22 -10z" />
    <glyph glyph-name="Iacute" unicode="&#xcd;" horiz-adv-x="271" 
d="M367 741q8 0 15.5 -13t7.5 -26q0 -15 -10 -19q-6 -3 -171 -91q-4 -2 -9 -2q-4 0 -4 4t5 9q35 33 96.5 85.5t69.5 52.5zM149 -6l-173 -1q-13 0 -13 6q0 9 21 13q23 3 32.5 7.5t13.5 15.5q42 110 101 283.5t59 184.5t-41 16q-14 1 -14 9q0 11 22 11h173q13 0 13 -6
q0 -8 -20 -12q-41 -6 -48 -23q-30 -77 -69.5 -191.5t-64.5 -194t-25 -83.5q0 -12 42 -17q13 -1 13 -8q0 -10 -22 -10z" />
    <glyph glyph-name="Icircumflex" unicode="&#xce;" horiz-adv-x="271" 
d="M277 718q27 -1 45.5 -27t50.5 -93q5 -10 7 -15q0 -1 0.5 -1t0.5 -1q0 -5 -7 -5q-3 0 -6 4l-17 23l-15 21t-12.5 16.5t-12.5 14t-12 9.5t-13.5 6.5t-14.5 1.5q-37 0 -154 -76q-2 -1 -6 -1q-7 2 -7 4t30.5 31t74 58.5t68.5 29.5zM149 -6l-173 -1q-13 0 -13 6q0 9 21 13
q23 3 32.5 7.5t13.5 15.5q42 110 101 283.5t59 184.5t-41 16q-14 1 -14 9q0 11 22 11h173q13 0 13 -6q0 -8 -20 -12q-41 -6 -48 -23q-30 -77 -69.5 -191.5t-64.5 -194t-25 -83.5q0 -12 42 -17q13 -1 13 -8q0 -10 -22 -10z" />
    <glyph glyph-name="Idieresis" unicode="&#xcf;" horiz-adv-x="271" 
d="M347 673h3q2 0 2 -9q0 -21 -12 -37t-29 -16q-12 0 -20 8t-8 22q0 5 1 7q3 6 28 11.5t35 13.5zM209 673h3q2 0 2 -9q0 -21 -12 -37t-29 -16q-12 0 -20 8t-8 22q0 5 1 7q3 6 28 11.5t35 13.5zM149 -6l-173 -1q-13 0 -13 6q0 9 21 13q23 3 32.5 7.5t13.5 15.5
q42 110 101 283.5t59 184.5t-41 16q-14 1 -14 9q0 11 22 11h173q13 0 13 -6q0 -8 -20 -12q-41 -6 -48 -23q-30 -77 -69.5 -191.5t-64.5 -194t-25 -83.5q0 -12 42 -17q13 -1 13 -8q0 -10 -22 -10z" />
    <glyph glyph-name="Eth" unicode="&#xd0;" horiz-adv-x="612" 
d="M248 540l136 3q111 0 166.5 -55t55.5 -140q0 -61 -29 -124t-80 -115.5t-128 -86t-164 -33.5q-3 0 -12 0.5t-21.5 1.5t-22.5 1q-36 3 -57 3q-11 0 -36.5 -0.5t-40.5 -0.5q-36 0 -36 7q0 10 16 11q6 1 14.5 1t12.5 0.5t9 3.5t7 9q28 71 78 220q-32 4 -57 4q-31 0 -46 -9
q-10 -5 -15 -5t-5 3q0 4 12 17.5t41 28t64 14.5q7 0 23 -2q65 195 65 207q0 17 -37 17q-15 0 -15 8q0 10 9 10q26 1 93 1zM514 323q3 68 -30.5 119.5t-102.5 65.5q-21 4 -63 4q-24 0 -31 -17q-20 -50 -73 -209q47 -5 77 -5q49 0 63 13q5 5 13 5t8 -5t-11.5 -18.5t-43 -29
t-71.5 -15.5q-26 0 -53 4q-57 -171 -60 -182q-2 -8 -2 -10q0 -12 13 -15q30 -8 55 -8q124 0 215 93t97 210z" />
    <glyph glyph-name="Ntilde" unicode="&#xd1;" horiz-adv-x="661" 
d="M348 624q-5 2 -5 6t10 18.5t32 30t47 15.5q31 0 82 -29q47 -26 70 -26q24 0 42 21q1 2 4 2q5 0 5 -5t-11 -17.5t-33.5 -25t-47.5 -12.5q-28 0 -60 15l-28.5 14.5t-38.5 17.5t-26 6q-23 0 -36 -27q-3 -4 -6 -4zM112 -6h-139q-12 0 -12 5q0 9 22 13q23 3 32.5 7.5
t15.5 16.5q19 40 49.5 121l65.5 178.5t51 137.5q1 3 4 14q0 26 -53 32q-16 1 -16 11q0 9 20 9h136q5 -35 187 -392q7 -14 12 -14t11 14q17 49 37.5 115.5t31 97.5t29.5 73t40 65.5t55.5 50t83.5 49.5q15 7 27 7q23 0 23 -24l-3 -14q-5 -15 -17 -15q-3 0 -19.5 6t-19.5 6
q-12 0 -29.5 -13t-31.5 -31q-23 -29 -56.5 -107t-59.5 -149l-59 -165t-41 -115q-7 -21 -22 -21q-13 0 -23 20q-97 205 -212 417q-4 9 -8 9t-7 -9q-133 -366 -133 -370q0 -11 39 -17q12 -1 12 -8q0 -11 -23 -11z" />
    <glyph glyph-name="Ograve" unicode="&#xd2;" horiz-adv-x="696" 
d="M522 614q0 -4 -5 -4q-11 0 -95 55.5t-84 63.5q1 9 16.5 18t29.5 10q13 0 17 -7q6 -10 36.5 -42l57.5 -60.5t27 -33.5zM680 372q0 -168 -118.5 -280.5t-287.5 -112.5q-99 0 -158 45t-59 143q0 92 38.5 169t100.5 124.5t135 73.5t146 26q96 0 149.5 -47t53.5 -141zM588 351
q0 72 -39.5 122.5t-109.5 50.5q-75 0 -143.5 -50.5t-108.5 -128t-40 -154.5q0 -80 45.5 -130.5t121.5 -50.5q78 0 142.5 55.5t98 133t33.5 152.5z" />
    <glyph glyph-name="Oacute" unicode="&#xd3;" horiz-adv-x="696" 
d="M595 715q0 -15 -10 -19q-6 -3 -171 -91q-4 -2 -9 -2q-4 0 -4 4t5 9q35 33 96.5 85.5t69.5 52.5t15.5 -13t7.5 -26zM680 372q0 -168 -118.5 -280.5t-287.5 -112.5q-99 0 -158 45t-59 143q0 92 38.5 169t100.5 124.5t135 73.5t146 26q96 0 149.5 -47t53.5 -141zM588 351
q0 72 -39.5 122.5t-109.5 50.5q-75 0 -143.5 -50.5t-108.5 -128t-40 -154.5q0 -80 45.5 -130.5t121.5 -50.5q78 0 142.5 55.5t98 133t33.5 152.5z" />
    <glyph glyph-name="Ocircumflex" unicode="&#xd4;" horiz-adv-x="696" 
d="M505 721q27 -1 45.5 -27t50.5 -93q5 -10 7 -15v-1l1 -1q0 -5 -7 -5q-3 0 -6 4l-17 23l-15 21t-12.5 16.5t-12.5 14t-12 9.5t-13.5 6.5t-14.5 1.5q-37 0 -154 -76q-2 -1 -6 -1q-7 2 -7 4t30.5 31t74 58.5t68.5 29.5zM680 372q0 -168 -118.5 -280.5t-287.5 -112.5
q-99 0 -158 45t-59 143q0 92 38.5 169t100.5 124.5t135 73.5t146 26q96 0 149.5 -47t53.5 -141zM588 351q0 72 -39.5 122.5t-109.5 50.5q-75 0 -143.5 -50.5t-108.5 -128t-40 -154.5q0 -80 45.5 -130.5t121.5 -50.5q78 0 142.5 55.5t98 133t33.5 152.5z" />
    <glyph glyph-name="Otilde" unicode="&#xd5;" horiz-adv-x="696" 
d="M610 681q5 0 5 -5t-11 -17.5t-33.5 -25t-47.5 -12.5q-28 0 -60 15l-28.5 14.5t-38.5 17.5t-26 6q-23 0 -36 -27q-3 -4 -6 -4q-5 2 -5 6t10 18.5t32 30t47 15.5q31 0 82 -29q47 -26 70 -26q24 0 42 21q1 2 4 2zM680 372q0 -168 -118.5 -280.5t-287.5 -112.5q-99 0 -158 45
t-59 143q0 92 38.5 169t100.5 124.5t135 73.5t146 26q96 0 149.5 -47t53.5 -141zM588 351q0 72 -39.5 122.5t-109.5 50.5q-75 0 -143.5 -50.5t-108.5 -128t-40 -154.5q0 -80 45.5 -130.5t121.5 -50.5q78 0 142.5 55.5t98 133t33.5 152.5z" />
    <glyph glyph-name="Odieresis" unicode="&#xd6;" horiz-adv-x="696" 
d="M680 372q0 -168 -118.5 -280.5t-287.5 -112.5q-99 0 -158 45t-59 143q0 92 38.5 169t100.5 124.5t135 73.5t146 26q96 0 149.5 -47t53.5 -141zM588 351q0 72 -39.5 122.5t-109.5 50.5q-75 0 -143.5 -50.5t-108.5 -128t-40 -154.5q0 -80 45.5 -130.5t121.5 -50.5
q78 0 142.5 55.5t98 133t33.5 152.5zM560 676h3q2 0 2 -9q0 -21 -12 -37t-29 -16q-12 0 -20 8t-8 22q0 5 1 7q3 6 28 11.5t35 13.5zM422 676h3q2 0 2 -9q0 -21 -12 -37t-29 -16q-12 0 -20 8t-8 22q0 5 1 7q3 6 28 11.5t35 13.5z" />
    <glyph glyph-name="multiply" unicode="&#xd7;" 
d="M121 320l93 -93l93 93l25 -25l-93 -93l93 -93l-25 -25l-93 93l-93 -93l-25 25l93 93l-93 93z" />
    <glyph glyph-name="Oslash" unicode="&#xd8;" horiz-adv-x="696" 
d="M667 610l30 -8l-73 -85q57 -46 57 -142q0 -170 -117.5 -283t-287.5 -113q-59 0 -106 16l-88 -100l-30 9l89 103q-83 42 -83 148q0 81 26.5 149.5t69.5 114.5t98.5 78.5t113 47.5t112.5 15q72 0 122 -27zM192 64l357 410q-43 50 -107 50q-107 0 -200 -100t-93 -235
q0 -77 43 -125zM565 451l-352 -406q45 -36 102 -36q104 0 184.5 99.5t88.5 229.5q3 69 -23 113z" />
    <glyph glyph-name="Ugrave" unicode="&#xd9;" horiz-adv-x="579" 
d="M491 596q-11 0 -95 55.5t-84 63.5q1 9 16.5 18t29.5 10q13 0 17 -7q6 -10 36.5 -42l57.5 -60.5t27 -33.5q0 -4 -5 -4zM166 539h170q10 0 10 -5q0 -12 -18 -14q-37 -4 -44 -23q-61 -166 -97 -277q-14 -43 -14 -82q0 -56 30 -86t75 -30q38 0 76.5 24t60.5 69
q57 115 153 384v1q1 2 1 3q0 10 -32 16q-10 2 -10 9q0 1 1.5 3.5t5.5 5t10 2.5h134q8 0 8 -5q0 -11 -14 -14q-38 -5 -45 -23q-19 -44 -67.5 -167.5t-77.5 -186.5q-34 -75 -107.5 -120t-147.5 -45q-65 0 -107.5 37.5t-42.5 109.5q0 45 19 102q42 129 96 272l1 4q0 11 -37 16
q-12 2 -12 8q0 12 22 12z" />
    <glyph glyph-name="Uacute" unicode="&#xda;" horiz-adv-x="579" 
d="M406 581q-4 0 -4 4t5 9q35 33 96.5 85.5t69.5 52.5t15.5 -13t7.5 -26q0 -15 -10 -19q-6 -3 -171 -91q-4 -2 -9 -2zM166 539h170q10 0 10 -5q0 -12 -18 -14q-37 -4 -44 -23q-61 -166 -97 -277q-14 -43 -14 -82q0 -56 30 -86t75 -30q38 0 76.5 24t60.5 69q57 115 153 384v1
q1 2 1 3q0 10 -32 16q-10 2 -10 9q0 1 1.5 3.5t5.5 5t10 2.5h134q8 0 8 -5q0 -11 -14 -14q-38 -5 -45 -23q-19 -44 -67.5 -167.5t-77.5 -186.5q-34 -75 -107.5 -120t-147.5 -45q-65 0 -107.5 37.5t-42.5 109.5q0 45 19 102q42 129 96 272l1 4q0 11 -37 16q-12 2 -12 8
q0 12 22 12z" />
    <glyph glyph-name="Ucircumflex" unicode="&#xdb;" horiz-adv-x="579" 
d="M313 607q-7 2 -7 4t30.5 31t74 58.5t68.5 29.5q27 -1 45.5 -27t50.5 -93q5 -10 7 -15q0 -1 0.5 -1t0.5 -1q0 -5 -7 -5q-3 0 -6 4l-17 23l-15 21t-12.5 16.5t-12.5 14t-12 9.5t-13.5 6.5t-14.5 1.5q-37 0 -154 -76q-2 -1 -6 -1zM166 539h170q10 0 10 -5q0 -12 -18 -14
q-37 -4 -44 -23q-61 -166 -97 -277q-14 -43 -14 -82q0 -56 30 -86t75 -30q38 0 76.5 24t60.5 69q57 115 153 384v1q1 2 1 3q0 10 -32 16q-10 2 -10 9q0 1 1.5 3.5t5.5 5t10 2.5h134q8 0 8 -5q0 -11 -14 -14q-38 -5 -45 -23q-19 -44 -67.5 -167.5t-77.5 -186.5
q-34 -75 -107.5 -120t-147.5 -45q-65 0 -107.5 37.5t-42.5 109.5q0 45 19 102q42 129 96 272l1 4q0 11 -37 16q-12 2 -12 8q0 12 22 12z" />
    <glyph glyph-name="Udieresis" unicode="&#xdc;" horiz-adv-x="579" 
d="M554 667h3q2 0 2 -9q0 -21 -12 -37t-29 -16q-12 0 -20 8t-8 22q0 5 1 7q3 6 28 11.5t35 13.5zM416 667h3q2 0 2 -9q0 -21 -12 -37t-29 -16q-12 0 -20 8t-8 22q0 5 1 7q3 6 28 11.5t35 13.5zM166 539h170q10 0 10 -5q0 -12 -18 -14q-37 -4 -44 -23q-61 -166 -97 -277
q-14 -43 -14 -82q0 -56 30 -86t75 -30q38 0 76.5 24t60.5 69q57 115 153 384v1q1 2 1 3q0 10 -32 16q-10 2 -10 9q0 1 1.5 3.5t5.5 5t10 2.5h134q8 0 8 -5q0 -11 -14 -14q-38 -5 -45 -23q-19 -44 -67.5 -167.5t-77.5 -186.5q-34 -75 -107.5 -120t-147.5 -45
q-65 0 -107.5 37.5t-42.5 109.5q0 45 19 102q42 129 96 272l1 4q0 11 -37 16q-12 2 -12 8q0 12 22 12z" />
    <glyph glyph-name="Yacute" unicode="&#xdd;" horiz-adv-x="487" 
d="M269 -6l-183 -1q-12 0 -12 6q0 9 21 13q23 3 32.5 7.5t14.5 15.5q14 33 36 96.5l26 74.5q3 12 3 23q0 28 -10 68q-24 98 -57 195q-8 23 -49 28q-14 2 -14 9q0 10 18 10h79q55 0 55 -1l28.5 -112.5t27.5 -108.5q5 -15 7 -15t11 14q103 156 155 203.5t152 64.5q12 2 16 2
q18 0 27 -8t9 -18q0 -9 -7.5 -18.5t-15.5 -9.5q-6 0 -15 12.5t-18 13.5h-4q-48 0 -142 -105t-148 -208q-10 -20 -28 -63q-8 -21 -19.5 -58.5l-19.5 -65t-8 -29.5q0 -12 40 -17q14 -2 14 -8q0 -10 -22 -10zM497 727q0 -15 -10 -19q-6 -3 -171 -91q-4 -2 -9 -2q-4 0 -4 4t5 9
q35 33 96.5 85.5t69.5 52.5t15.5 -13t7.5 -26z" />
    <glyph glyph-name="Thorn" unicode="&#xde;" horiz-adv-x="464" 
d="M244 415l71 1q82 0 118 -31t33 -80q-2 -27 -15 -56.5t-40 -61t-78 -51.5t-117 -20q-16 0 -32 3q-8 1 -8 11q3 14 8 14q4 0 12 -1t11 -1q67 0 114 54.5t47 113.5q0 35 -22 57t-70 22q-41 0 -49 -21q-111 -319 -111 -339q0 -12 42 -17q13 -1 13 -8q0 -10 -22 -10l-173 -1
q-13 0 -13 6q0 9 21 13q23 3 32.5 7.5t13.5 15.5q42 110 101 283.5t59 184.5t-41 16q-14 1 -14 9q0 11 22 11h173q13 0 13 -6q0 -9 -20 -12q-41 -6 -48 -23q-6 -14 -16.5 -43.5t-14.5 -39.5z" />
    <glyph glyph-name="germandbls" unicode="&#xdf;" horiz-adv-x="443" 
d="M103 307h-65q-8 0 -8 4q0 7 16.5 17.5t30.5 10.5h39q4 0 7 7q1 3 16 39t24 55.5t25 45t29 34.5q59 40 110.5 61t68.5 21q27 0 43.5 -28.5t16.5 -74.5q0 -54 -22.5 -92.5t-93.5 -73.5q-27 -13 -27 -40q0 -25 26 -60q36 -49 36 -95q0 -32 -18 -57q-34 -48 -80.5 -78.5
t-83.5 -30.5q-20 0 -36.5 13t-16.5 28q0 10 10 21t18 11q13 0 25 -14q14 -14 40 -14q28 0 50 19t22 50q0 32 -29 76q-38 55 -38 93q0 31 25 55q11 11 22 18.5t28.5 18t19.5 11.5q86 54 86 119q0 42 -22.5 64.5t-46.5 22.5q-30 0 -69 -39q-30 -31 -102 -227
q-81 -219 -141.5 -343t-134.5 -190q-72 -64 -145 -64q-26 0 -43.5 8.5t-17.5 20.5q0 7 9 16t19 9q8 0 23.5 -11t24.5 -12q5 -1 14 -1q29 0 57.5 19.5t56.5 62t52 87t53.5 119l50.5 132l53 149.5v1q1 1 1 2q0 4 -8 4z" />
    <glyph glyph-name="agrave" unicode="&#xe0;" horiz-adv-x="395" 
d="M334 406q0 -4 -5 -4q-11 0 -95 55.5t-84 63.5q1 9 16.5 18t29.5 10q13 0 17 -7q6 -10 36.5 -42l57.5 -60.5t27 -33.5zM420 109q0 -9 -31 -36.5t-76 -53.5t-75 -26q-35 0 -35 48q0 32 12 74v5l-1 -1q-50 -59 -104 -93t-82 -34q-39 0 -39 46q0 29 19 79t52 103.5t87.5 92.5
t115.5 39q41 0 48 -21q1 -4 4 -4t8 5q9 9 33 20.5t41 11.5q7 0 7 -8q0 -6 -5 -7q-21 -7 -72.5 -118t-51.5 -168q0 -26 17 -26q24 0 92 55q24 20 33 20q3 0 3 -3zM291 308q0 19 -26 19q-58 0 -124.5 -98.5t-66.5 -158.5q0 -25 14 -25q10 0 26 12q29 23 59.5 60t47.5 63.5
t39.5 66.5t24.5 43q6 10 6 18z" />
    <glyph glyph-name="aacute" unicode="&#xe1;" horiz-adv-x="395" 
d="M408 504q0 -15 -10 -19q-6 -3 -171 -91q-4 -2 -9 -2q-4 0 -4 4t5 9q35 33 96.5 85.5t69.5 52.5t15.5 -13t7.5 -26zM420 109q0 -9 -31 -36.5t-76 -53.5t-75 -26q-35 0 -35 48q0 32 12 74v5l-1 -1q-50 -59 -104 -93t-82 -34q-39 0 -39 46q0 29 19 79t52 103.5t87.5 92.5
t115.5 39q41 0 48 -21q1 -4 4 -4t8 5q9 9 33 20.5t41 11.5q7 0 7 -8q0 -6 -5 -7q-21 -7 -72.5 -118t-51.5 -168q0 -26 17 -26q24 0 92 55q24 20 33 20q3 0 3 -3zM291 308q0 19 -26 19q-58 0 -124.5 -98.5t-66.5 -158.5q0 -25 14 -25q10 0 26 12q29 23 59.5 60t47.5 63.5
t39.5 66.5t24.5 43q6 10 6 18z" />
    <glyph glyph-name="acircumflex" unicode="&#xe2;" horiz-adv-x="395" 
d="M324 537q27 -1 45.5 -27t50.5 -93q5 -10 7 -15l1 -1v-1q0 -5 -7 -5q-3 0 -6 4l-17 23l-15 21t-12.5 16.5t-12.5 14t-12 9.5t-13.5 6.5t-14.5 1.5q-37 0 -154 -76q-2 -1 -6 -1q-7 2 -7 4t30.5 31t74 58.5t68.5 29.5zM420 109q0 -9 -31 -36.5t-76 -53.5t-75 -26
q-35 0 -35 48q0 32 12 74v5l-1 -1q-50 -59 -104 -93t-82 -34q-39 0 -39 46q0 29 19 79t52 103.5t87.5 92.5t115.5 39q41 0 48 -21q1 -4 4 -4t8 5q9 9 33 20.5t41 11.5q7 0 7 -8q0 -6 -5 -7q-21 -7 -72.5 -118t-51.5 -168q0 -26 17 -26q24 0 92 55q24 20 33 20q3 0 3 -3z
M291 308q0 19 -26 19q-58 0 -124.5 -98.5t-66.5 -158.5q0 -25 14 -25q10 0 26 12q29 23 59.5 60t47.5 63.5t39.5 66.5t24.5 43q6 10 6 18z" />
    <glyph glyph-name="atilde" unicode="&#xe3;" horiz-adv-x="395" 
d="M444 476q5 0 5 -5t-11 -17.5t-33.5 -25t-47.5 -12.5q-28 0 -60 15l-28.5 14.5t-38.5 17.5t-26 6q-23 0 -36 -27q-3 -4 -6 -4q-5 2 -5 6t10 18.5t32 30t47 15.5q31 0 82 -29q47 -26 70 -26q24 0 42 21q1 2 4 2zM420 109q0 -9 -31 -36.5t-76 -53.5t-75 -26q-35 0 -35 48
q0 32 12 74v5l-1 -1q-50 -59 -104 -93t-82 -34q-39 0 -39 46q0 29 19 79t52 103.5t87.5 92.5t115.5 39q41 0 48 -21q1 -4 4 -4t8 5q9 9 33 20.5t41 11.5q7 0 7 -8q0 -6 -5 -7q-21 -7 -72.5 -118t-51.5 -168q0 -26 17 -26q24 0 92 55q24 20 33 20q3 0 3 -3zM291 308
q0 19 -26 19q-58 0 -124.5 -98.5t-66.5 -158.5q0 -25 14 -25q10 0 26 12q29 23 59.5 60t47.5 63.5t39.5 66.5t24.5 43q6 10 6 18z" />
    <glyph glyph-name="adieresis" unicode="&#xe4;" horiz-adv-x="395" 
d="M420 109q0 -9 -31 -36.5t-76 -53.5t-75 -26q-35 0 -35 48q0 32 12 74v5l-1 -1q-50 -59 -104 -93t-82 -34q-39 0 -39 46q0 29 19 79t52 103.5t87.5 92.5t115.5 39q41 0 48 -21q1 -4 4 -4t8 5q9 9 33 20.5t41 11.5q7 0 7 -8q0 -6 -5 -7q-21 -7 -72.5 -118t-51.5 -168
q0 -26 17 -26q24 0 92 55q24 20 33 20q3 0 3 -3zM291 308q0 19 -26 19q-58 0 -124.5 -98.5t-66.5 -158.5q0 -25 14 -25q10 0 26 12q29 23 59.5 60t47.5 63.5t39.5 66.5t24.5 43q6 10 6 18zM415 493h3q2 0 2 -9q0 -21 -12 -37t-29 -16q-12 0 -20 8t-8 22q0 5 1 7q3 6 28 11.5
t35 13.5zM277 493h3q2 0 2 -9q0 -21 -12 -37t-29 -16q-12 0 -20 8t-8 22q0 5 1 7q3 6 28 11.5t35 13.5z" />
    <glyph glyph-name="aring" unicode="&#xe5;" horiz-adv-x="395" 
d="M358 461q0 -30 -21.5 -51.5t-51.5 -21.5t-51.5 21.5t-21.5 51.5t21.5 51.5t51.5 21.5t51.5 -21.5t21.5 -51.5zM338 461q0 22 -15 37.5t-38 15.5q-24 0 -38.5 -16.5t-14.5 -36.5q0 -24 16.5 -38.5t36.5 -14.5q24 0 38.5 16.5t14.5 36.5zM420 109q0 -9 -31 -36.5t-76 -53.5
t-75 -26q-35 0 -35 48q0 32 12 74v5l-1 -1q-50 -59 -104 -93t-82 -34q-39 0 -39 46q0 29 19 79t52 103.5t87.5 92.5t115.5 39q41 0 48 -21q1 -4 4 -4t8 5q9 9 33 20.5t41 11.5q7 0 7 -8q0 -6 -5 -7q-21 -7 -72.5 -118t-51.5 -168q0 -26 17 -26q24 0 92 55q24 20 33 20
q3 0 3 -3zM291 308q0 19 -26 19q-58 0 -124.5 -98.5t-66.5 -158.5q0 -25 14 -25q10 0 26 12q29 23 59.5 60t47.5 63.5t39.5 66.5t24.5 43q6 10 6 18z" />
    <glyph glyph-name="ae" unicode="&#xe6;" horiz-adv-x="510" 
d="M539 164q4 0 4 -3q0 -13 -37 -43l-25 -19.5l-29 -22.5t-29.5 -21t-34 -22l-33.5 -18t-37.5 -16t-37 -9t-39.5 -4q-59 0 -59 67q0 19 4 35q-48 -47 -92.5 -72t-68.5 -25q-36 1 -36 48q0 28 18.5 78t51.5 103.5t88 92.5t118 39q37 0 45 -18q3 -8 11 -8q6 0 10 4
q17 13 53.5 23t63.5 10q37 -1 48.5 -5.5t11.5 -18.5q0 -35 -18 -65.5t-43.5 -49.5t-52.5 -33.5t-45 -20.5t-22 -6t-4 6q0 9 12 14q112 54 112 124q0 11 -7 17t-14 6q-17 0 -42.5 -20t-43.5 -45q-20 -30 -46 -92.5t-25 -98.5q0 -17 6.5 -26t12 -10.5t14.5 -1.5q37 0 79 23.5
t113 78.5q32 25 45 25zM285 290q6 10 6 18q0 18 -25 18q-40 0 -86.5 -49.5t-76 -110t-29.5 -96.5q0 -25 14 -25q10 0 26 12q29 23 59.5 60t47.5 63.5t39.5 66.5t24.5 43z" />
    <glyph glyph-name="ccedilla" unicode="&#xe7;" horiz-adv-x="311" 
d="M341 154q0 -15 -45 -55t-113.5 -76.5t-121.5 -36.5q1 -4 4 -7t9 -6l5 -3q31 -14 31 -37q0 -18 -22.5 -33.5t-42 -21.5t-23.5 -6t-4 3t3 4q54 37 54 64q0 10 -8 14q-32 18 -34 33q-41 12 -41 63q0 62 53.5 148t110.5 120q29 17 58.5 28.5t44.5 14.5l15 2q15 0 25.5 -9.5
t10.5 -27.5q0 -27 -22 -27q-15 0 -24 11q-12 14 -30 14q-46 0 -100 -97.5t-54 -158.5q0 -37 34 -37t91 32.5t96 67.5q27 24 36 24q4 0 4 -4z" />
    <glyph glyph-name="egrave" unicode="&#xe8;" horiz-adv-x="320" 
d="M334 406q0 -4 -5 -4q-11 0 -95 55.5t-84 63.5q1 9 16.5 18t29.5 10q13 0 17 -7q6 -10 36.5 -42l57.5 -60.5t27 -33.5zM353 160q0 -12 -37 -42q-43 -35 -73.5 -57t-86 -48t-100.5 -26q-65 0 -65 64q0 60 49.5 143t108.5 122q71 48 126 48q43 0 43 -29q0 -40 -26.5 -75
t-61 -55t-61 -31t-32.5 -11q-4 0 -4 6q0 9 12 15q109 52 110 116q0 28 -19 28q-43 0 -100 -96.5t-57 -153.5q0 -40 31 -40q41 0 80.5 22t113.5 79q32 25 45 25q4 0 4 -4z" />
    <glyph glyph-name="eacute" unicode="&#xe9;" horiz-adv-x="320" 
d="M396 501q0 -15 -10 -19q-6 -3 -171 -91q-4 -2 -9 -2q-4 0 -4 4t5 9q35 33 96.5 85.5t69.5 52.5t15.5 -13t7.5 -26zM353 160q0 -12 -37 -42q-43 -35 -73.5 -57t-86 -48t-100.5 -26q-65 0 -65 64q0 60 49.5 143t108.5 122q71 48 126 48q43 0 43 -29q0 -40 -26.5 -75
t-61 -55t-61 -31t-32.5 -11q-4 0 -4 6q0 9 12 15q109 52 110 116q0 28 -19 28q-43 0 -100 -96.5t-57 -153.5q0 -40 31 -40q41 0 80.5 22t113.5 79q32 25 45 25q4 0 4 -4z" />
    <glyph glyph-name="ecircumflex" unicode="&#xea;" horiz-adv-x="320" 
d="M261 525q27 -1 45.5 -27t50.5 -93q5 -10 7 -15v-1l1 -1q0 -5 -7 -5q-3 0 -6 4l-17 23l-15 21t-12.5 16.5t-12.5 14t-12 9.5t-13.5 6.5t-14.5 1.5q-37 0 -154 -76q-2 -1 -6 -1q-7 2 -7 4t30.5 31t74 58.5t68.5 29.5zM353 160q0 -12 -37 -42q-43 -35 -73.5 -57t-86 -48
t-100.5 -26q-65 0 -65 64q0 60 49.5 143t108.5 122q71 48 126 48q43 0 43 -29q0 -40 -26.5 -75t-61 -55t-61 -31t-32.5 -11q-4 0 -4 6q0 9 12 15q109 52 110 116q0 28 -19 28q-43 0 -100 -96.5t-57 -153.5q0 -40 31 -40q41 0 80.5 22t113.5 79q32 25 45 25q4 0 4 -4z" />
    <glyph glyph-name="edieresis" unicode="&#xeb;" horiz-adv-x="320" 
d="M378 499h3q2 0 2 -9q0 -21 -12 -37t-29 -16q-12 0 -20 8t-8 22q0 5 1 7q3 6 28 11.5t35 13.5zM240 499h3q2 0 2 -9q0 -21 -12 -37t-29 -16q-12 0 -20 8t-8 22q0 5 1 7q3 6 28 11.5t35 13.5zM353 160q0 -12 -37 -42q-43 -35 -73.5 -57t-86 -48t-100.5 -26q-65 0 -65 64
q0 60 49.5 143t108.5 122q71 48 126 48q43 0 43 -29q0 -40 -26.5 -75t-61 -55t-61 -31t-32.5 -11q-4 0 -4 6q0 9 12 15q109 52 110 116q0 28 -19 28q-43 0 -100 -96.5t-57 -153.5q0 -40 31 -40q41 0 80.5 22t113.5 79q32 25 45 25q4 0 4 -4z" />
    <glyph glyph-name="igrave" unicode="&#xec;" horiz-adv-x="208" 
d="M206 413q0 -4 -5 -4q-11 0 -95 55.5t-84 63.5q1 9 16.5 18t29.5 10q13 0 17 -7q6 -10 36.5 -42l57.5 -60.5t27 -33.5zM175 62q-34 -28 -73.5 -48.5t-66.5 -20.5q-36 0 -36 39q0 23 15 65q6 18 41.5 95t41.5 103q1 4 1 11q0 14 -16 14q-3 0 -17.5 -3t-15.5 -3q-7 0 -7 7
q0 9 8 11q110 29 118 29q18 0 18 -21q0 -22 -24 -76l-22.5 -46.5l-25.5 -53t-21 -48.5q-16 -41 -16 -60q0 -20 15 -20q23 0 80 45q39 31 50 31q2 0 2 -1q0 -10 -49 -49z" />
    <glyph glyph-name="iacute" unicode="&#xed;" horiz-adv-x="208" 
d="M308 506q0 -15 -10 -19q-6 -3 -171 -91q-4 -2 -9 -2q-4 0 -4 4t5 9q35 33 96.5 85.5t69.5 52.5t15.5 -13t7.5 -26zM0 34q0 24 14 63q4 11 26.5 59.5t40.5 92.5t18 56q0 15 -17 15q-8 0 -18 -2.5t-14 -2.5q-8 0 -8 6q0 9 8 11q104 29 118 29q18 0 18 -21q0 -25 -24 -76
l-22.5 -46.5l-25.5 -53t-21 -48.5q-16 -41 -16 -60q0 -20 15 -20q23 0 80 45q39 31 49 31q3 0 3 -1q0 -7 -32 -35t-78.5 -55.5t-78.5 -27.5q-35 0 -35 41z" />
    <glyph glyph-name="icircumflex" unicode="&#xee;" horiz-adv-x="208" 
d="M174 533q27 -1 45.5 -27t50.5 -93q5 -10 7 -15l1 -1v-1q0 -5 -7 -5q-3 0 -6 4l-17 23l-15 21t-12.5 16.5t-12.5 14t-12 9.5t-13.5 6.5t-14.5 1.5q-37 0 -154 -76q-2 -1 -6 -1q-7 2 -7 4t30.5 31t74 58.5t68.5 29.5zM0 34q0 24 14 63q4 11 26.5 59.5t40.5 92.5t18 56
q0 15 -17 15q-8 0 -18 -2.5t-14 -2.5q-8 0 -8 6q0 9 8 11q104 29 118 29q18 0 18 -21q0 -25 -24 -76l-22.5 -46.5l-25.5 -53t-21 -48.5q-16 -41 -16 -60q0 -20 15 -20q23 0 80 45q39 31 49 31q3 0 3 -1q0 -7 -32 -35t-78.5 -55.5t-78.5 -27.5q-35 0 -35 41z" />
    <glyph glyph-name="idieresis" unicode="&#xef;" horiz-adv-x="208" 
d="M259 499h3q2 0 2 -9q0 -21 -12 -37t-29 -16q-12 0 -20 8t-8 22q0 5 1 7q3 6 28 11.5t35 13.5zM121 499h3q2 0 2 -9q0 -21 -12 -37t-29 -16q-12 0 -20 8t-8 22q0 5 1 7q3 6 28 11.5t35 13.5zM0 34q0 24 14 63q4 11 26.5 59.5t40.5 92.5t18 56q0 15 -17 15q-8 0 -18 -2.5
t-14 -2.5q-8 0 -8 6q0 9 8 11q104 29 118 29q18 0 18 -21q0 -25 -24 -76l-22.5 -46.5l-25.5 -53t-21 -48.5q-16 -41 -16 -60q0 -20 15 -20q23 0 80 45q39 31 49 31q3 0 3 -1q0 -7 -32 -35t-78.5 -55.5t-78.5 -27.5q-35 0 -35 41z" />
    <glyph glyph-name="eth" unicode="&#xf0;" horiz-adv-x="355" 
d="M482 554l7 -36l-104 -22q1 -8 1 -24q0 -81 -44 -208.5t-110 -184.5q-87 -75 -169 -89q-5 -1 -14 -1q-52 0 -52 72q1 66 42.5 145t98.5 108q5 2 20 10t20 10t17 8t17.5 7.5t14.5 4.5t16.5 4t14.5 1q37 0 42 -26q9 18 16.5 62.5t6.5 88.5l-119 -25l-8 36l123 25
q-14 82 -65 82q-15 0 -35 -9l-18 -10.5t-19 -10.5t-13 -4q-12 0 -12 13q0 5 3 12.5t10 18.5t24.5 18.5t42.5 7.5q46 0 87.5 -27t54.5 -78zM261 264q-2 59 -42 59q-41 0 -91.5 -82t-50.5 -146q0 -53 46 -53q17 0 47 22q41 30 66.5 90t24.5 110z" />
    <glyph glyph-name="ntilde" unicode="&#xf1;" horiz-adv-x="425" 
d="M428 467q5 0 5 -5t-11 -17.5t-33.5 -25t-47.5 -12.5q-28 0 -60 15l-28.5 14.5t-38.5 17.5t-26 6q-23 0 -36 -27q-3 -4 -6 -4q-5 2 -5 6t10 18.5t32 30t47 15.5q31 0 82 -29q47 -26 70 -26q24 0 42 21q1 2 4 2zM418 84q0 -14 -62 -53t-100 -39q-7 0 -12 1t-13 4.5
t-12.5 13t-4.5 24.5q0 67 76 205q16 29 16 46q0 12 -10 12q-34 0 -109.5 -75t-116.5 -177q-5 -15 -9 -22q-7 -5 -35 -16.5t-38 -16.5q-1 -1 -3 -1q-4 0 -4 6q0 8 3 14q2 7 58.5 136t56.5 159q0 17 -14 17q-8 0 -30 -10q-5 -3 -8 -3q-7 0 -7 7q0 6 46.5 26t62.5 20
q23 0 23 -30q0 -29 -20 -82q-2 -6 -2 -8q0 -3 2 -3t3 1q150 114 209 114q30 0 30 -32q0 -14 -7 -37q-10 -31 -37.5 -87t-36.5 -82q-13 -38 -13 -56q0 -23 17 -23q23 0 80 43q10 7 17 7q4 0 4 -3z" />
    <glyph glyph-name="ograve" unicode="&#xf2;" horiz-adv-x="355" 
d="M334 406q0 -4 -5 -4q-11 0 -95 55.5t-84 63.5q1 9 16.5 18t29.5 10q13 0 17 -7q6 -10 36.5 -42l57.5 -60.5t27 -33.5zM-3 61q0 66 42 145t99 108q35 18 71.5 30t56 15.5t28.5 3.5q49 0 49 -63q0 -52 -32.5 -118.5t-78.5 -102.5q-115 -90 -183 -90q-52 0 -52 72zM77 95
q0 -53 43 -53q20 -1 51 22q40 29 65 89.5t25 106.5q0 63 -42 63q-41 0 -91.5 -82t-50.5 -146z" />
    <glyph glyph-name="oacute" unicode="&#xf3;" horiz-adv-x="355" 
d="M366 501q0 -15 -10 -19q-6 -3 -171 -91q-4 -2 -9 -2q-4 0 -4 4t5 9q35 33 96.5 85.5t69.5 52.5t15.5 -13t7.5 -26zM-3 61q0 66 42 145t99 108q35 18 71.5 30t56 15.5t28.5 3.5q49 0 49 -63q0 -52 -32.5 -118.5t-78.5 -102.5q-115 -90 -183 -90q-52 0 -52 72zM77 95
q0 -53 43 -53q20 -1 51 22q40 29 65 89.5t25 106.5q0 63 -42 63q-41 0 -91.5 -82t-50.5 -146z" />
    <glyph glyph-name="ocircumflex" unicode="&#xf4;" horiz-adv-x="355" 
d="M282 525q27 -1 45.5 -27t50.5 -93q5 -10 7 -15l1 -1v-1q0 -5 -7 -5q-3 0 -6 4l-17 23l-15 21t-12.5 16.5t-12.5 14t-12 9.5t-13.5 6.5t-14.5 1.5q-37 0 -154 -76q-2 -1 -6 -1q-7 2 -7 4t30.5 31t74 58.5t68.5 29.5zM-3 61q0 66 42 145t99 108q35 18 71.5 30t56 15.5
t28.5 3.5q49 0 49 -63q0 -52 -32.5 -118.5t-78.5 -102.5q-115 -90 -183 -90q-52 0 -52 72zM77 95q0 -53 43 -53q20 -1 51 22q40 29 65 89.5t25 106.5q0 63 -42 63q-41 0 -91.5 -82t-50.5 -146z" />
    <glyph glyph-name="otilde" unicode="&#xf5;" horiz-adv-x="355" 
d="M384 476q5 0 5 -5t-11 -17.5t-33.5 -25t-47.5 -12.5q-28 0 -60 15l-28.5 14.5t-38.5 17.5t-26 6q-23 0 -36 -27q-3 -4 -6 -4q-5 2 -5 6t10 18.5t32 30t47 15.5q31 0 82 -29q47 -26 70 -26q24 0 42 21q1 2 4 2zM-3 61q0 66 42 145t99 108q35 18 71.5 30t56 15.5t28.5 3.5
q49 0 49 -63q0 -52 -32.5 -118.5t-78.5 -102.5q-115 -90 -183 -90q-52 0 -52 72zM77 95q0 -53 43 -53q20 -1 51 22q40 29 65 89.5t25 106.5q0 63 -42 63q-41 0 -91.5 -82t-50.5 -146z" />
    <glyph glyph-name="odieresis" unicode="&#xf6;" horiz-adv-x="355" 
d="M-3 61q0 66 42 145t99 108q35 18 71.5 30t56 15.5t28.5 3.5q49 0 49 -63q0 -52 -32.5 -118.5t-78.5 -102.5q-115 -90 -183 -90q-52 0 -52 72zM77 95q0 -53 43 -53q20 -1 51 22q40 29 65 89.5t25 106.5q0 63 -42 63q-41 0 -91.5 -82t-50.5 -146zM359 495h3q2 0 2 -9
q0 -21 -12 -37t-29 -16q-12 0 -20 8t-8 22q0 5 1 7q3 6 28 11.5t35 13.5zM221 495h3q2 0 2 -9q0 -21 -12 -37t-29 -16q-12 0 -20 8t-8 22q0 5 1 7q3 6 28 11.5t35 13.5z" />
    <glyph glyph-name="divide" unicode="&#xf7;" 
d="M183 355q0 14 9.5 23.5t23.5 9.5t23.5 -9.5t9.5 -23.5t-9.5 -23.5t-23.5 -9.5q-15 0 -24 9.5t-9 23.5zM183 120q0 14 9.5 23.5t23.5 9.5t23.5 -9.5t9.5 -23.5t-9.5 -23.5t-23.5 -9.5q-15 0 -24 9.5t-9 23.5zM381 252q-28 -42 -98 -42q-31 0 -77 6q-87 12 -110 12
q-21 0 -35 -8q-4 -2 -9 -2q-6 0 -6 3q0 8 22 24q25 20 75 20q19 0 35 -3q103 -15 140 -15q39 0 52 12q5 5 11 5q4 0 4 -4t-4 -8z" />
    <glyph glyph-name="oslash" unicode="&#xf8;" horiz-adv-x="355" 
d="M340 408l16 -10l-34 -43q21 -15 21 -55q0 -52 -32.5 -118.5t-78.5 -102.5q-116 -90 -182 -90q-6 0 -18 2l-39 -49l-15 11l38 48q-19 18 -19 57q0 68 42 147.5t99 108.5q48 24 97 37.5t68 10.5zM78 79l176 221q-9 23 -34 23q-43 0 -93 -83.5t-50 -144.5q0 -11 1 -16z
M260 278l-174 -220q13 -16 37 -16q42 0 90 70t48 149q0 12 -1 17z" />
    <glyph glyph-name="ugrave" unicode="&#xf9;" horiz-adv-x="416" 
d="M333 398q0 -4 -5 -4q-11 0 -95 55.5t-84 63.5q1 9 16.5 18t29.5 10q13 0 17 -7q6 -10 36.5 -42l57.5 -60.5t27 -33.5zM58 315h-3q-11 0 -11 9q0 7 8 9q93 27 114 27q26 0 26 -31q0 -21 -14 -50q-2 -5 -20 -37.5l-33.5 -62.5t-29 -64t-13.5 -51t14 -17q33 0 98 67t116 176
q16 33 23.5 44.5t16.5 14.5q50 15 61 15q5 0 5 -6t-2 -9q-115 -230 -115 -287q0 -25 19 -25q28 0 91 59q22 22 34 22q2 0 2 -3q0 -18 -66.5 -71t-114.5 -53q-20 0 -31.5 13.5t-11.5 37.5q0 22 12 63q7 21 6 24l-10 -11q-54 -63 -102.5 -95t-82.5 -32q-45 0 -45 50q0 7 4 29
q10 46 56.5 131t48.5 97q1 3 1 8q0 14 -17 14q-15 0 -34 -5z" />
    <glyph glyph-name="uacute" unicode="&#xfa;" horiz-adv-x="416" 
d="M440 505q0 -15 -10 -19q-6 -3 -171 -91q-4 -2 -9 -2q-4 0 -4 4t5 9q35 33 96.5 85.5t69.5 52.5t15.5 -13t7.5 -26zM58 315h-3q-11 0 -11 9q0 7 8 9q93 27 114 27q26 0 26 -31q0 -21 -14 -50q-2 -5 -20 -37.5l-33.5 -62.5t-29 -64t-13.5 -51t14 -17q33 0 98 67t116 176
q16 33 23.5 44.5t16.5 14.5q50 15 61 15q5 0 5 -6t-2 -9q-115 -230 -115 -287q0 -25 19 -25q28 0 91 59q22 22 34 22q2 0 2 -3q0 -18 -66.5 -71t-114.5 -53q-20 0 -31.5 13.5t-11.5 37.5q0 22 12 63q7 21 6 24l-10 -11q-54 -63 -102.5 -95t-82.5 -32q-45 0 -45 50q0 7 4 29
q10 46 56.5 131t48.5 97q1 3 1 8q0 14 -17 14q-15 0 -34 -5z" />
    <glyph glyph-name="ucircumflex" unicode="&#xfb;" horiz-adv-x="416" 
d="M313 537q27 -1 45.5 -27t50.5 -93q5 -10 7 -15v-1l1 -1q0 -5 -7 -5q-3 0 -6 4l-17 23l-15 21t-12.5 16.5t-12.5 14t-12 9.5t-13.5 6.5t-14.5 1.5q-37 0 -154 -76q-2 -1 -6 -1q-7 2 -7 4t30.5 31t74 58.5t68.5 29.5zM58 315h-3q-11 0 -11 9q0 7 8 9q93 27 114 27
q26 0 26 -31q0 -21 -14 -50q-2 -5 -20 -37.5l-33.5 -62.5t-29 -64t-13.5 -51t14 -17q33 0 98 67t116 176q16 33 23.5 44.5t16.5 14.5q50 15 61 15q5 0 5 -6t-2 -9q-115 -230 -115 -287q0 -25 19 -25q28 0 91 59q22 22 34 22q2 0 2 -3q0 -18 -66.5 -71t-114.5 -53
q-20 0 -31.5 13.5t-11.5 37.5q0 22 12 63q7 21 6 24l-10 -11q-54 -63 -102.5 -95t-82.5 -32q-45 0 -45 50q0 7 4 29q10 46 56.5 131t48.5 97q1 3 1 8q0 14 -17 14q-15 0 -34 -5z" />
    <glyph glyph-name="udieresis" unicode="&#xfc;" horiz-adv-x="416" 
d="M399 492h3q2 0 2 -9q0 -21 -12 -37t-29 -16q-12 0 -20 8t-8 22q0 5 1 7q3 6 28 11.5t35 13.5zM261 492h3q2 0 2 -9q0 -21 -12 -37t-29 -16q-12 0 -20 8t-8 22q0 5 1 7q3 6 28 11.5t35 13.5zM58 315h-3q-11 0 -11 9q0 7 8 9q93 27 114 27q26 0 26 -31q0 -21 -14 -50
q-2 -5 -20 -37.5l-33.5 -62.5t-29 -64t-13.5 -51t14 -17q33 0 98 67t116 176q16 33 23.5 44.5t16.5 14.5q50 15 61 15q5 0 5 -6t-2 -9q-115 -230 -115 -287q0 -25 19 -25q28 0 91 59q22 22 34 22q2 0 2 -3q0 -18 -66.5 -71t-114.5 -53q-20 0 -31.5 13.5t-11.5 37.5
q0 22 12 63q7 21 6 24l-10 -11q-54 -63 -102.5 -95t-82.5 -32q-45 0 -45 50q0 7 4 29q10 46 56.5 131t48.5 97q1 3 1 8q0 14 -17 14q-15 0 -34 -5z" />
    <glyph glyph-name="yacute" unicode="&#xfd;" horiz-adv-x="397" 
d="M408 364h1q5 0 5 -9q0 -8 -6 -9q-16 -4 -41 -63t-52 -135.5t-76 -171t-105 -156.5q-102 -113 -218 -119h-5q-29 0 -53 13t-24 27q0 11 10 20t19 9q10 0 23 -16t19 -18q12 -4 28 -4q49 0 98 38.5t84 93t62.5 111.5t41.5 96t14 46q0 2 -3 2t-5 -2q-53 -63 -103 -97t-83 -34
q-41 0 -41 50q0 25 12 64q9 28 43 101t37 97v4q0 18 -19 18q-3 0 -19 -2.5t-17 -2.5q-8 0 -8 6q0 9 11 12q84 23 112 23q25 0 25 -31q0 -21 -15 -56l-16 -36.5l-16.5 -38l-15 -33.5t-14 -33.5l-10 -28t-7.5 -26t-2 -17.5q0 -17 12 -17q10 0 21 6q27 14 59 51.5t51.5 69
l45.5 77t27 47.5q13 20 43 53q2 2 5 4t5.5 3.5t7 3t7 2t9.5 2t10.5 2t12 2t13.5 2.5zM397 497q0 -15 -10 -19q-6 -3 -171 -91q-4 -2 -9 -2q-4 0 -4 4t5 9q35 33 96.5 85.5t69.5 52.5t15.5 -13t7.5 -26z" />
    <glyph glyph-name="thorn" unicode="&#xfe;" horiz-adv-x="405" 
d="M471 609q0 -22 -20 -22q-11 0 -23 7q-19 12 -40 12q-15 0 -31 -8.5t-32.5 -27t-31.5 -38t-32.5 -51l-31 -57t-31.5 -65l-29.5 -65l-29.5 -67.5q39 45 109.5 91.5t111.5 46.5q36 0 36 -40q0 -8 -4 -30q-24 -113 -116.5 -205.5t-177.5 -96.5q-35 0 -39 11l-1 1
q-7 0 -48.5 -102.5t-41.5 -114.5q0 -7 7 -7q5 0 40 13.5t42 13.5q9 0 9 -6q0 -8 -9 -11l-192 -80q-5 -2 -13 -2q-13 0 -13 11q0 13 15 16q18 3 59 85.5t76 185.5q95 276 157.5 405.5t127.5 169.5q33 21 72.5 36.5t61.5 21t28 5.5q15 0 25 -10t10 -26zM313 294q1 19 -13 19
q-15 0 -38 -18q-68 -53 -107.5 -101.5t-77.5 -132.5q-8 -16 -8 -24q0 -9 9.5 -13t16.5 -4q63 0 137.5 87.5t80.5 186.5z" />
    <glyph glyph-name="ydieresis" unicode="&#xff;" horiz-adv-x="397" 
d="M381 487h3q2 0 2 -9q0 -21 -12 -37t-29 -16q-12 0 -20 8t-8 22q0 5 1 7q3 6 28 11.5t35 13.5zM243 487h3q2 0 2 -9q0 -21 -12 -37t-29 -16q-12 0 -20 8t-8 22q0 5 1 7q3 6 28 11.5t35 13.5zM408 364h1q5 0 5 -9q0 -8 -6 -9q-16 -4 -41 -63t-52 -135.5t-76 -171
t-105 -156.5q-102 -113 -218 -119h-5q-29 0 -53 13t-24 27q0 11 10 20t19 9q10 0 23 -16t19 -18q12 -4 28 -4q49 0 98 38.5t84 93t62.5 111.5t41.5 96t14 46q0 2 -3 2t-5 -2q-53 -63 -103 -97t-83 -34q-41 0 -41 50q0 25 12 64q9 28 43 101t37 97v4q0 18 -19 18
q-3 0 -19 -2.5t-17 -2.5q-8 0 -8 6q0 9 11 12q84 23 112 23q25 0 25 -31q0 -21 -15 -56l-16 -36.5l-16.5 -38l-15 -33.5t-14 -33.5l-10 -28t-7.5 -26t-2 -17.5q0 -17 12 -17q10 0 21 6q27 14 59 51.5t51.5 69l45.5 77t27 47.5q13 20 43 53q2 2 5 4t5.5 3.5t7 3t7 2t9.5 2
t10.5 2t12 2t13.5 2.5z" />
    <glyph glyph-name="dotlessi" unicode="&#x131;" horiz-adv-x="208" 
d="M0 34q0 24 14 63q4 11 26.5 59.5t40.5 92.5t18 56q0 15 -17 15q-8 0 -18 -2.5t-14 -2.5q-8 0 -8 6q0 9 8 11q104 29 118 29q18 0 18 -21q0 -25 -24 -76l-22.5 -46.5l-25.5 -53t-21 -48.5q-16 -41 -16 -60q0 -20 15 -20q23 0 80 45q39 31 49 31q3 0 3 -1q0 -7 -32 -35
t-78.5 -55.5t-78.5 -27.5q-35 0 -35 41z" />
    <glyph glyph-name="Lslash" unicode="&#x141;" horiz-adv-x="441" 
d="M184 538l172 1q13 0 13 -6q-2 -10 -21 -13q-40 -6 -46 -23l-69 -193q133 38 154 71q9 13 17 13q6 0 6 -7q0 -2 -2 -6q-34 -66 -60.5 -84t-134.5 -46q-46 -141 -56 -174q-2 -9 -2 -14q0 -15 18 -18q97 -19 138 -19q47 0 58 23q10 20 21 20q12 0 12 -18q0 -22 -37.5 -42.5
t-93.5 -20.5q-33 0 -96 7q-52 5 -111 5q-40 0 -61 -1q-8 0 -8 6q0 13 15 13q38 4 45 23q26 62 67 185q-61 -18 -81 -27.5t-41 -31.5q-6 -6 -11 -6q-7 0 -7 9q0 10 20 36q16 20 26.5 29.5t38 22.5t75.5 26q74 213 74 225q0 11 -41 16q-14 2 -14 9q2 10 23 10z" />
    <glyph glyph-name="lslash" unicode="&#x142;" horiz-adv-x="250" 
d="M211 361h1q104 39 107 41q26 14 34 29q8 12 16 12q5 0 5 -6q0 -4 -1 -6q-30 -64 -55 -81t-133 -50q-78 -183 -78 -240q0 -22 18 -22q27 0 89 51q28 24 37 24q3 0 3 -3q0 -16 -71 -67.5t-114 -51.5q-44 0 -44 51q0 60 78 235q-49 -16 -64.5 -24t-33.5 -29q-5 -6 -9 -6
q-7 0 -7 9q0 11 19 36q13 18 22 27t34 22t66 25q98 208 142 239q50 35 91 50.5t58 15.5q29 0 29 -31q0 -18 -16 -18q-8 0 -17 6q-13 9 -27 9q-65 0 -179 -247z" />
    <glyph glyph-name="OE" unicode="&#x152;" horiz-adv-x="763" 
d="M570 539h167q43 0 55.5 -4t12.5 -16q0 -13 -14 -37.5t-32 -24.5l-2 1h-3q-6 2 -7.5 17t-15.5 27q-12 9 -119 9q-25 0 -31 -17l-15.5 -46l-27.5 -82.5t-13 -43.5q0 -6 14 -7q16 -1 60 -1l74 1q19 0 19 -8q0 -10 -10 -20.5t-33 -10.5q-8 0 -56 4t-57 4q-25 0 -32 -15
q-11 -28 -28.5 -79l-30 -90.5t-12.5 -42.5q0 -15 19 -18q98 -19 138 -19q46 0 58 23q18 32 30 32q4 0 9 -5t5 -14q0 -5 -4 -13.5t-14.5 -19t-26 -19.5t-42.5 -15.5t-60 -6.5q-18 0 -54 4l-54 3q-17 0 -78 -7q-52 -8 -78 -8q-112 0 -167.5 46t-55.5 151q0 69 25 131.5
t67 107.5t95.5 78t111.5 49.5t113 16.5q60 0 100 -15zM494 508q-25 10 -53 10q-106 0 -199 -101.5t-93 -234.5q0 -84 49 -128t101 -44q16 0 29 3q43 116 166 495z" />
    <glyph glyph-name="oe" unicode="&#x153;" horiz-adv-x="538" 
d="M570 160q0 -12 -37 -42q-43 -35 -73.5 -57t-86 -48t-100.5 -26q-36 0 -50.5 18t-13.5 56q-100 -72 -160 -72q-27 0 -39.5 20t-12.5 51q0 65 42 144.5t99 109.5q50 26 94.5 37.5t62.5 11.5q48 0 48 -65q30 26 74 46t75 20q43 0 43 -29q0 -40 -26.5 -75t-60.5 -54.5
t-60.5 -30.5t-32.5 -11q-5 0 -5 5q0 9 12 15q109 52 110 116q0 28 -19 28q-28 0 -65.5 -46.5t-64 -106.5t-26.5 -98q0 -39 33 -39q40 0 80 23t111 78q32 25 45 25q4 0 4 -4zM261 260q0 22 -4.5 36t-12.5 19t-13 6.5t-12 1.5q-27 0 -61.5 -40.5t-58 -94.5t-23.5 -92
q0 -54 47 -54q42 0 90 70.5t48 147.5z" />
    <glyph glyph-name="Scaron" unicode="&#x160;" horiz-adv-x="412" 
d="M419 478q-2 -29 -30 -29t-41 29q-17 40 -61 40q-31 0 -57 -22.5t-26 -56.5q0 -50 63 -102q94 -76 94 -160q0 -75 -76 -136t-166 -61q-61 0 -94 24.5t-33 64.5q0 12 9.5 24t21.5 12q26 0 41 -43q19 -49 80 -49q49 0 92 32.5t43 82.5q0 53 -59 111l-58.5 56.5t-32 42.5
t-17.5 53q0 71 64.5 114.5t143.5 43.5q38 0 69.5 -18t29.5 -53zM466 733q-1 -2 -4 -5q-122 -113 -169 -113q-27 1 -45.5 27t-50.5 93q-5 10 -7 15v1l-1 1q0 5 7 5q3 0 6 -4l17 -23l15 -21t12.5 -16.5t12.5 -14t12 -9.5t13.5 -6.5t14.5 -1.5q37 0 154 76q2 1 6 1q1 0 2 -0.5
l3 -1.5t2 -3z" />
    <glyph glyph-name="scaron" unicode="&#x161;" horiz-adv-x="244" 
d="M253 339q0 -26 -21 -28q-14 0 -28 11q-21 15 -40 15q-18 0 -29 -11.5t-11 -29.5q0 -27 26 -63q36 -51 36 -93q0 -34 -18 -59q-34 -48 -81 -78.5t-83 -30.5q-23 0 -38 14.5t-15 25.5t10.5 22t18.5 11q10 0 24 -14t39 -14q27 0 49.5 18t23.5 49q0 37 -29 78q-38 58 -38 93
q0 49 65 86.5t96 37.5q16 0 29.5 -10.5t13.5 -29.5zM351 523q-1 -2 -4 -5q-122 -113 -169 -113q-27 1 -45.5 27t-50.5 93q-5 10 -7 15l-1 1v1q0 5 7 5q3 0 6 -4l17 -23l15 -21t12.5 -16.5t12.5 -14t12 -9.5t13.5 -6.5t14.5 -1.5q37 0 154 76q2 1 6 1q1 0 2 -0.5l3 -1.5t2 -3
z" />
    <glyph glyph-name="Ydieresis" unicode="&#x178;" horiz-adv-x="487" 
d="M464 667h3q2 0 2 -9q0 -21 -12 -37t-29 -16q-12 0 -20 8t-8 22q0 5 1 7q3 6 28 11.5t35 13.5zM326 667h3q2 0 2 -9q0 -21 -12 -37t-29 -16q-12 0 -20 8t-8 22q0 5 1 7q3 6 28 11.5t35 13.5zM269 -6l-183 -1q-12 0 -12 6q0 9 21 13q23 3 32.5 7.5t14.5 15.5q14 33 36 96.5
l26 74.5q3 12 3 23q0 28 -10 68q-24 98 -57 195q-8 23 -49 28q-14 2 -14 9q0 10 18 10h79q55 0 55 -1l28.5 -112.5t27.5 -108.5q5 -15 7 -15t11 14q103 156 155 203.5t152 64.5q12 2 16 2q18 0 27 -8t9 -18q0 -9 -7.5 -18.5t-15.5 -9.5q-6 0 -15 12.5t-18 13.5h-4
q-48 0 -142 -105t-148 -208q-10 -20 -28 -63q-8 -21 -19.5 -58.5l-19.5 -65t-8 -29.5q0 -12 40 -17q14 -2 14 -8q0 -10 -22 -10z" />
    <glyph glyph-name="Zcaron" unicode="&#x17d;" horiz-adv-x="532" 
d="M591 522q0 -8 -7 -15l-152.5 -142.5l-187 -184l-127.5 -126.5q-8 -8 -8 -10q0 -5 14 -5q4 0 26.5 1.5t27.5 1.5q41 0 118 -11q50 -8 70 -8q54 0 80 32q10 13 24 13q13 0 13 -13q0 -10 -18.5 -26.5t-64.5 -32.5t-105 -16q-45 0 -106 8q-77 11 -146 11q-46 0 -70 -7
q-4 -1 -9 -1q-8 0 -8 7q0 10 17 27l467 464q4 4 4 8q0 6 -14 6q-5 0 -24 -2t-35 -2q-9 0 -66.5 5t-68.5 5q-50 0 -65 -29q-17 -33 -35 -33q-6 0 -11 6.5t-5 12.5q0 27 57 57t119 30q29 0 90 -9q71 -11 120 -11q33 0 55 6q8 2 10 2q10 0 16 -5.5t5 -13.5zM536 733
q-1 -2 -4 -5q-122 -113 -169 -113q-27 1 -45.5 27t-50.5 93q-5 10 -7 15v1l-1 1q0 5 7 5q3 0 6 -4l17 -23l15 -21t12.5 -16.5t12.5 -14t12 -9.5t13.5 -6.5t14.5 -1.5q37 0 154 76q2 1 6 1q1 0 2 -0.5l3 -1.5t2 -3z" />
    <glyph glyph-name="zcaron" unicode="&#x17e;" horiz-adv-x="322" 
d="M343 348q3 -2 3 -5q0 -4 -7 -10l-98.5 -87l-131.5 -117.5t-59 -53.5l1 -1q1 -2 2 -2q19 -2 43 -6.5t42 -6.5q50 -6 63 -6q44 0 78 31q11 10 18 10q5 0 5 -5q0 -7 -10 -17q-48 -45 -77.5 -60t-62.5 -15q-14 0 -86 7t-78 7q-2 0 -19 -4t-21 -4q-22 0 -22 13q0 4 3 6
q22 18 141.5 124.5l156.5 141.5q-32 1 -75 4t-56 3q-26 0 -34 -9q-9 -11 -19 -11q-5 0 -5 5q0 9 35 37.5t50 33.5q6 2 22 2q13 0 69 -7q50 -8 66 -8q14 0 22 3q21 9 33 9q4 0 8 -2zM380 503q-1 -2 -4 -5q-122 -113 -169 -113q-27 1 -45.5 27t-50.5 93q-5 10 -7 15v1l-1 1
q0 5 7 5q3 0 6 -4l17 -23l15 -21t12.5 -16.5t12.5 -14t12 -9.5t13.5 -6.5t14.5 -1.5q37 0 154 76q2 1 6 1q1 0 2 -0.5l3 -1.5t2 -3z" />
    <glyph glyph-name="florin" unicode="&#x192;" horiz-adv-x="296" 
d="M128 307h-65q-8 0 -8 4q0 7 16.5 17.5t30.5 10.5h39q3 0 7 7q1 1 16 37.5t24 56.5t25 45.5t29 34.5q41 28 82.5 48t64 27t31.5 7q15 0 25 -10t10 -26q0 -22 -19 -22q-9 0 -23 7q-23 13 -41 13q-27 0 -66 -39q-15 -15 -31.5 -50.5t-34.5 -83.5t-18 -49q-1 -1 -1 -3
q0 -1 1 -1q20 0 60.5 -1t58.5 -1q17 0 17 -6q0 -7 -16.5 -16t-29.5 -9h-101q-4 0 -7 -7q-45 -120 -77 -197.5t-72.5 -158.5t-83 -132t-89.5 -79q-51 -30 -99 -30q-25 0 -43 8.5t-18 20.5q0 7 9 16t19 9q8 0 23.5 -11t24.5 -12q4 -1 12 -1q28 0 54 16q58 38 119 164t152 389
l1 1v2q0 4 -8 4z" />
    <glyph glyph-name="circumflex" unicode="&#x2c6;" horiz-adv-x="465" 
d="M448 382q2 -2 0 -4.5t-6 -2.5q-3 0 -6 4l-17 23l-15 21t-12.5 16.5t-12.5 14t-12 9.5t-13.5 6.5t-14.5 1.5q-37 0 -154 -76q-2 -1 -6 -1q-7 2 -7 4t30.5 31t74 58.5t68.5 29.5q27 -1 45.5 -27t50.5 -93q5 -10 7 -15z" />
    <glyph glyph-name="caron" unicode="&#x2c7;" horiz-adv-x="399" 
d="M399 503q-1 -2 -4 -5q-122 -113 -169 -113q-27 1 -45.5 27t-50.5 93q-5 10 -7 15l-1 1v1q0 5 7 5q3 0 6 -4l17 -23l15 -21t12.5 -16.5t12.5 -14t12 -9.5t13.5 -6.5t14.5 -1.5q37 0 154 76q2 1 6 1q1 0 2 -0.5l3 -1.5t2 -3z" />
    <glyph glyph-name="uni02C9" unicode="&#x2c9;" horiz-adv-x="389" 
d="M313 399h-200q-12 0 -12 8q0 9 12.5 20t23.5 10h53.5h90.5h56q12 0 12 -10q0 -9 -10.5 -18.5t-25.5 -9.5z" />
    <glyph glyph-name="breve" unicode="&#x2d8;" horiz-adv-x="389" 
d="M376 508q-48 -109 -131 -109q-49 0 -77.5 33.5t-30.5 93.5l-1 1v1q0 6 7 6q4 0 6 -5q33 -87 97 -87q35 0 61.5 16.5t55.5 58.5q1 3 7 3q7 0 7 -6q0 -4 -1 -6z" />
    <glyph glyph-name="dotaccent" unicode="&#x2d9;" horiz-adv-x="329" 
d="M227 460q-1 -22 -13.5 -36t-26.5 -14q-13 0 -21 9t-8 19q0 8 1 9q4 6 29 11.5t36 13.5q3 0 3 -12z" />
    <glyph glyph-name="ring" unicode="&#x2da;" horiz-adv-x="315" 
d="M285 461q0 -30 -21.5 -51.5t-51.5 -21.5t-51.5 21.5t-21.5 51.5t21.5 51.5t51.5 21.5t51.5 -21.5t21.5 -51.5zM265 461q0 22 -15 37.5t-38 15.5q-24 0 -38.5 -16.5t-14.5 -36.5q0 -24 16.5 -38.5t36.5 -14.5q24 0 38.5 16.5t14.5 36.5z" />
    <glyph glyph-name="ogonek" unicode="&#x2db;" horiz-adv-x="604" 
d="M353 -160q5 -5 5 -6q0 -5 -33 -11.5t-53 -6.5q-34 0 -49.5 14t-15.5 31q0 24 22.5 54t33.5 30q3 0 3 -3q0 -4 -6 -13q-17 -25 -17 -49q0 -12 4 -20t22 -14.5t51 -6.5q21 0 33 1z" />
    <glyph glyph-name="tilde" unicode="&#x2dc;" horiz-adv-x="389" 
d="M363 439q2 -2 2 -4q0 -5 -11 -17.5t-33.5 -25t-47.5 -12.5q-28 0 -60 15l-28.5 14.5t-38.5 17.5t-26 6q-23 0 -36 -27q-3 -4 -6 -4q-5 2 -5 6t10 18.5t32 30t47 15.5q31 0 82 -29q47 -26 70 -26q24 0 42 21q1 2 4 2t3 -1z" />
    <glyph glyph-name="hungarumlaut" unicode="&#x2dd;" horiz-adv-x="443" 
d="M399 529q9 0 17.5 -14t8.5 -26q0 -9 -7 -16q-6 -3 -159 -111q-5 -3 -9 -3t-4 4q0 5 4 9q21 27 81 92t68 65zM266 515q1 -2 1 -7q0 -9 -5 -14q-9 -8 -29.5 -28.5l-54 -54.5l-53.5 -54q-4 -4 -10 -4q-3 0 -3 5q0 7 49.5 85.5t63.5 94.5q7 8 10 8q7 0 17 -10t14 -21z" />
    <glyph glyph-name="uni03A9" unicode="&#x3a9;" horiz-adv-x="640" 
d="M579 107l-62 -107h-208v17q88 71 126 114q53 61 75 122q28 72 18 116.5t-39 63.5t-75 19q-76 0 -140 -50.5t-101 -152.5q-6 -15 -9.5 -31t-5.5 -28t-1 -27.5t1.5 -24.5t5 -24.5t5.5 -21.5t7.5 -21.5t8 -18.5l9.5 -19l7 -16l-12 -17h-207l18 107h19q2 -35 10.5 -45.5
t35.5 -10.5h90q-16 14 -27.5 25t-25 31t-19.5 39.5t-5.5 48t11.5 59.5q36 100 130.5 161t204.5 61q113 0 161.5 -57.5t12.5 -156.5q-23 -62 -80 -111.5t-140 -99.5h95q28 0 42.5 9.5t42.5 46.5h21z" />
    <glyph glyph-name="uni03BC" unicode="&#x3bc;" horiz-adv-x="416" 
d="M58 315h-3q-11 0 -11 9q0 7 8 9q93 27 114 27q26 0 26 -31q0 -21 -14 -50q-2 -5 -20 -37.5l-33.5 -62.5t-29 -64t-13.5 -51t14 -17q33 0 98 67t116 176q16 33 23.5 44.5t16.5 14.5q50 15 61 15q5 0 5 -6t-2 -9q-115 -230 -115 -287q0 -25 19 -25q28 0 91 59q22 22 34 22
q2 0 2 -3q0 -18 -66.5 -71t-114.5 -53q-20 0 -31.5 13.5t-11.5 37.5q0 22 12 63q7 21 6 24l-10 -11q-108 -127 -194 -127l-44 -115q-13 -33 -19 -43.5t-16 -14.5q-46 -18 -59 -18q-7 0 -7 7t55 120.5t55 122.5q0 39 53.5 139t54.5 109q1 3 1 8q0 14 -17 14q-15 0 -34 -5z
" />
    <glyph glyph-name="pi" unicode="&#x3c0;" horiz-adv-x="475" 
d="M487 340l16 -8q-27 -49 -56 -70q-19 -4 -58 -4q-20 -42 -62 -161q-23 -62 14 -62q19 0 48 21l3 -17q-47 -47 -104 -47q-36 0 -47 18t5 70q20 55 74 180q-55 1 -132 1l-5 -12q-25 -71 -58 -129.5t-53.5 -84t-30.5 -32.5q-46 -11 -49 -11v13q53 42 98.5 118t68.5 139
q-36 1 -61 -7.5t-58 -27.5l-6 17q54 45 83 57q36 16 81 15q28 0 108.5 -1t121.5 -1q33 0 59 26z" />
    <glyph glyph-name="endash" unicode="&#x2013;" horiz-adv-x="396" 
d="M388 280q1 -1 1 -4q0 -4 -4 -8q-43 -50 -111 -50q-28 0 -67 6q-85 14 -115 14q-22 0 -37 -9q-10 -5 -15 -5t-5 3t12 15.5t39.5 26t59.5 13.5q16 0 32 -3q92 -15 135 -15q41 0 55 13q5 5 13 5q5 0 7 -2z" />
    <glyph glyph-name="emdash" unicode="&#x2014;" horiz-adv-x="791" 
d="M780 281q2 -2 2 -3q0 -3 -5 -10q-21 -27 -50.5 -39t-81.5 -12q-68 0 -238 5.5t-228 10.5q-55 5 -71 5q-28 0 -46 -9q-8 -4 -14 -4t-6 4q0 8 29 30q32 24 92 24q16 0 24 -1q61 -4 223.5 -8t220.5 -9q35 -3 61 -3q51 0 69 14q8 7 15 7q2 0 4 -2z" />
    <glyph glyph-name="quoteleft" unicode="&#x2018;" horiz-adv-x="179" 
d="M247 646q0 -5 -6 -11q-39 -37 -39 -64q0 -10 6 -19q12 -17 12 -26t-23.5 -22.5t-29.5 -13.5q-9 0 -17 15.5t-8 27.5q0 23 24 53t47.5 48t27.5 18q6 0 6 -6z" />
    <glyph glyph-name="quoteright" unicode="&#x2019;" horiz-adv-x="179" 
d="M260 594q0 -31 -43 -74t-55 -43q-7 0 -7 6q0 5 6 11q40 35 40 63q0 11 -6 20q-13 19 -13 24q0 11 24 24.5t30 13.5t15 -15.5t9 -29.5z" />
    <glyph glyph-name="quotesinglbase" unicode="&#x201a;" horiz-adv-x="179" 
d="M92 32q0 -31 -43 -74t-55 -43q-7 0 -7 6q0 5 6 11q40 35 40 64q0 10 -6 19q-13 19 -13 24q0 11 24 24.5t30 13.5q7 0 15.5 -15t8.5 -30z" />
    <glyph glyph-name="quotedblleft" unicode="&#x201c;" horiz-adv-x="310" 
d="M382 668q6 0 6 -6q0 -5 -6 -11q-40 -37 -40 -64q0 -10 6 -19q13 -20 13 -24q0 -10 -23.5 -24t-29.5 -14q-9 0 -17 15.5t-8 27.5q0 34 43.5 76.5t55.5 42.5zM254 651q3 -1 3 -5t-7 -11q-39 -37 -39 -64q0 -10 6 -19q13 -19 13 -27t-24 -21.5t-30 -13.5q-9 0 -17 16t-8 29
q2 44 88 111q10 8 15 5z" />
    <glyph glyph-name="quotedblright" unicode="&#x201d;" horiz-adv-x="310" 
d="M382 610q0 -32 -43 -75t-55 -43q-7 0 -7 5q0 6 6 12q39 37 39 64q0 10 -6 19q-12 18 -12 24q0 10 23.5 24t29.5 14q9 0 17 -15.5t8 -28.5zM250 595q2 -45 -87 -114q-7 -5 -13 -5q-5 0 -5 5t6 11q40 35 40 64q0 12 -6 19q-13 20 -13 25q0 11 23.5 24.5t31.5 13.5
q6 0 14.5 -15t8.5 -28z" />
    <glyph glyph-name="quotedblbase" unicode="&#x201e;" horiz-adv-x="310" 
d="M224 42q0 -31 -43 -74t-56 -43q-6 0 -6 7q0 4 6 10q39 37 39 64q0 10 -6 19q-12 18 -12 24q0 11 24 24.5t30 13.5q7 0 15.5 -15t8.5 -30zM92 27q0 -23 -23 -52.5t-46.5 -47.5t-28.5 -18q-7 0 -7 5t6 11q40 37 40 64q0 10 -6 19q-13 19 -13 25q0 10 22.5 23.5t31.5 13.5
q7 0 15.5 -15.5t8.5 -27.5z" />
    <glyph glyph-name="dagger" unicode="&#x2020;" horiz-adv-x="380" 
d="M360 392v-36h-134v-388h-40v388h-134v36h134v147h40v-147h134z" />
    <glyph glyph-name="daggerdbl" unicode="&#x2021;" horiz-adv-x="380" 
d="M360 164v-37h-134v-159h-40v159h-134v37h134v181h-134v36h134v158h40v-158h134v-36h-134v-181h134z" />
    <glyph glyph-name="bullet" unicode="&#x2022;" horiz-adv-x="299" 
d="M258 271q-2 -44 -36 -77.5t-78 -33.5q-38 0 -63.5 24t-25.5 61q0 47 34.5 81.5t80.5 34.5q38 0 64 -26.5t24 -63.5z" />
    <glyph glyph-name="ellipsis" unicode="&#x2026;" horiz-adv-x="498" 
d="M403 69q11 0 23 -20.5t12 -26.5q0 -9 -25.5 -23.5t-33.5 -14.5q-9 0 -21.5 19.5t-12.5 27.5q0 10 25 24t33 14zM236 68q11 0 23 -20.5t12 -26.5q0 -9 -25.5 -23.5t-33.5 -14.5q-9 0 -21.5 19.5t-12.5 27.5q0 10 25 24t33 14zM95 42q9 -15 9 -21q0 -9 -25.5 -23.5
t-33.5 -14.5q-9 0 -21.5 19.5t-12.5 27.5q0 10 25 24t33 14q12 0 26 -26z" />
    <glyph glyph-name="perthousand" unicode="&#x2030;" horiz-adv-x="808" 
d="M701 239q38 0 58 -22.5t20 -56.5q0 -65 -57 -121t-117 -56q-35 0 -57 22t-22 58q0 64 57 120t118 56zM636 15q31 0 56.5 37t25.5 89q0 35 -15 50.5t-35 15.5q-30 0 -56 -36t-26 -85q0 -33 14 -52t36 -19zM294 415q0 -63 -56 -119t-119 -56q-37 0 -58 22t-21 57
q0 64 57 119.5t120 55.5q36 0 56.5 -22t20.5 -57zM150 271q30 0 56.5 36t26.5 89q0 33 -14 50t-35 17q-30 0 -57 -35.5t-27 -85.5q0 -33 14 -52t36 -19zM504 161q0 -64 -56.5 -121t-120.5 -57q-35 0 -55.5 22.5t-20.5 57.5q0 64 56.5 120t119.5 56q36 0 56.5 -21.5
t20.5 -56.5zM440 107q3 18 3 33q0 33 -13.5 50t-35.5 17q-31 0 -57 -37.5t-26 -84.5q0 -32 14 -51t36 -19q26 0 49 26.5t30 65.5zM505 509q0 -7 -2 -9l-77.5 -97.5l-148 -187.5l-139.5 -183.5t-64 -100.5q0 -11 -7 -11q-8 0 -16 9.5t-8 22.5q0 2 2 10q2 9 43.5 65l104.5 138
l119 154l110.5 141t56.5 72q5 5 8 5q8 0 13 -9.5t5 -18.5z" />
    <glyph glyph-name="guilsinglleft" unicode="&#x2039;" horiz-adv-x="370" 
d="M352 397q0 -6 -7 -13q-97 -81 -135.5 -123.5t-38.5 -72.5q0 -23 20.5 -45t66.5 -55q7 -6 7 -10q0 -6 -7 -6q-2 0 -8 2q-73 38 -106 65.5t-33 55.5q0 35 52 80.5t174 120.5q8 5 11 5q4 0 4 -4z" />
    <glyph glyph-name="guilsinglright" unicode="&#x203a;" horiz-adv-x="370" 
d="M286 274q0 -35 -52.5 -80.5t-172.5 -120.5q-7 -4 -11 -4q-5 0 -5 4q0 7 7 12q99 85 137 126t38 71q0 23 -20 44t-67 56q-8 5 -8 10t7 5q5 0 39.5 -17t71 -47.5t36.5 -58.5z" />
    <glyph glyph-name="fraction" unicode="&#x2044;" horiz-adv-x="300" 
d="M403 510l-77.5 -97.5l-148 -187.5l-139.5 -183.5t-64 -100.5q0 -11 -7 -11q-8 0 -16 9.5t-8 22.5q0 2 2 10q2 9 43.5 65l104.5 138l119 154l110.5 141t56.5 72q5 5 8 5q8 0 13 -9.5t5 -18.5q0 -7 -2 -9z" />
    <glyph glyph-name="Euro" unicode="&#x20ac;" horiz-adv-x="421" 
d="M413 399q10 -16 4 -29.5t-19 -11.5q-17 2 -25 21q-10 17 -46 20q-43 3 -86 -33t-65 -93h165q23 0 15 -15q-7 -15 -29 -15h-160q-1 -2 -2 -8t-1 -8t-1.5 -13.5t-1.5 -17.5h152q23 0 15 -15q-7 -15 -29 -15h-138q4 -54 30 -88t65 -39q56 -6 112 48q3 2 9 4q10 2 10 -6
q0 -6 -11 -17q-68 -61 -136 -61q-70 -1 -112 45t-41 114h-72q-22 0 -15 15q8 15 29 15h61q1 11 7 33q1 2 2.5 7t2.5 7h-59q-22 0 -15 15q8 15 29 15h59q36 69 103.5 112t137.5 40q44 -7 56 -26z" />
    <glyph glyph-name="afii61289" unicode="&#x2113;" horiz-adv-x="341" 
d="M273 87l9 -15q-84 -86 -172 -86q-53 0 -72 28q-19 33 8 106l16 44l-64 -34l-3 19l77 43l31 86q32 87 54.5 125.5t58.5 65.5q43 34 87 34q38 0 47.5 -30.5t-5.5 -64.5q-21 -57 -71.5 -106t-131.5 -101l-19 -54q-44 -120 33 -120q51 0 117 60zM187 323l-33 -89
q113 88 144 172q11 25 8.5 49t-21.5 24q-24 0 -46 -36.5t-52 -119.5z" />
    <glyph glyph-name="trademark" unicode="&#x2122;" horiz-adv-x="725" 
d="M314 459l-20 -1q-11 41 -23 48.5t-63 7.5v-184q0 -34 7 -42t39 -10v-19h-139v19q30 2 37 10t7 42v184q-24 0 -34 -1t-21.5 -6t-17 -16.5t-10.5 -32.5h-20q5 70 6 91h14q5 -7 10 -8q4 -2 13 -2h175q12 0 22 10h13q0 -30 5 -90zM526 346l86 193h92v-19q-26 -2 -31.5 -9
t-4.5 -37l2 -142q1 -36 7 -44t33 -10v-19h-128v19q28 2 33.5 9.5t5.5 40.5l-1 167h-2l-98 -230h-15l-91 218h-3l-5 -105q-1 -25 -1 -61q0 -16 1.5 -22t10.5 -11t30 -6v-19h-116v19q29 1 35.5 15.5t12.5 90.5l5 79q1 9 1 22q0 21 -8 26t-34 7v21h98z" />
    <glyph glyph-name="Omega" unicode="&#x2126;" horiz-adv-x="640" 
d="M579 107l-62 -107h-208v17q88 71 126 114q53 61 75 122q28 72 18 116.5t-39 63.5t-75 19q-76 0 -140 -50.5t-101 -152.5q-6 -15 -9.5 -31t-5.5 -28t-1 -27.5t1.5 -24.5t5 -24.5t5.5 -21.5t7.5 -21.5t8 -18.5l9.5 -19l7 -16l-12 -17h-207l18 107h19q2 -35 10.5 -45.5
t35.5 -10.5h90q-16 14 -27.5 25t-25 31t-19.5 39.5t-5.5 48t11.5 59.5q36 100 130.5 161t204.5 61q113 0 161.5 -57.5t12.5 -156.5q-23 -62 -80 -111.5t-140 -99.5h95q28 0 42.5 9.5t42.5 46.5h21z" />
    <glyph glyph-name="estimated" unicode="&#x212e;" horiz-adv-x="688" 
d="M665 221h-438q-3 0 -3 -3v-132q0 -9 6 -15q68 -71 165 -71q105 0 174 79h39q-37 -43 -93.5 -68t-120.5 -25q-112 0 -190.5 70.5t-78.5 171.5t78.5 172t190.5 71t191.5 -71t79.5 -172v-7zM565 238v134q0 9 -6 15q-69 69 -164 69q-94 0 -165 -71q-6 -6 -6 -16v-131
q0 -4 3 -4h336q2 0 2 4z" />
    <glyph glyph-name="partialdiff" unicode="&#x2202;" horiz-adv-x="446" 
d="M255 300h1q32 0 60 -15t37 -41q19 39 31 71q23 60 18 111q-3 27 -24 47.5t-52 20.5q-57 0 -138 -50q-11 -1 -16.5 17.5t6.5 32.5q70 31 133 31q109 0 138 -98q18 -62 -16 -156q-37 -104 -105 -178q-100 -107 -212 -107q-70 0 -97.5 41t-4.5 107q25 69 91 115
q70 51 150 51zM266 268h-1q-58 0 -107 -40q-50 -43 -77 -116q-17 -43 -4.5 -72t50.5 -29q58 0 120 68q42 46 89 134q-4 19 -22.5 37t-47.5 18z" />
    <glyph glyph-name="Delta" unicode="&#x2206;" horiz-adv-x="534" 
d="M435 0h-474l7 19l378 447l40 10l56 -457zM356 36l-38 364l-299 -364h337z" />
    <glyph glyph-name="product" unicode="&#x220f;" horiz-adv-x="675" 
d="M652 477v-20q-52 -4 -62.5 -11t-10.5 -36v-392q0 -34 11 -42.5t61 -11.5v-20h-216v20q51 3 61 11t10 44v408q0 16 -5 19.5t-23 3.5h-180q-17 0 -21.5 -3.5t-4.5 -16.5v-411q0 -36 9 -44t56 -11v-20h-210v20q50 3 61 11.5t11 43.5v391q0 29 -11 36t-64 11v20h528z" />
    <glyph glyph-name="summation" unicode="&#x2211;" horiz-adv-x="566" 
d="M547 86l-36 -146h-388v21l182 237l-176 258v21h381q0 -2 10 -125l-21 -5q-12 58 -30 83q-8 12 -23.5 17t-58.5 5h-165l147 -217l-180 -237h223q53 0 69.5 13t44.5 81z" />
    <glyph glyph-name="minus" unicode="&#x2212;" 
d="M381 252q-28 -42 -98 -42q-31 0 -77 6q-87 12 -110 12q-21 0 -35 -8q-4 -2 -9 -2q-6 0 -6 3q0 8 22 24q25 20 75 20q19 0 35 -3q103 -15 140 -15q39 0 52 12q5 5 11 5q4 0 4 -4t-4 -8z" />
    <glyph glyph-name="uni2215" unicode="&#x2215;" horiz-adv-x="300" 
d="M403 510l-77.5 -97.5l-148 -187.5l-139.5 -183.5t-64 -100.5q0 -11 -7 -11q-8 0 -16 9.5t-8 22.5q0 2 2 10q2 9 43.5 65l104.5 138l119 154l110.5 141t56.5 72q5 5 8 5q8 0 13 -9.5t5 -18.5q0 -7 -2 -9z" />
    <glyph glyph-name="uni2219" unicode="&#x2219;" horiz-adv-x="174" 
d="M155 256q0 -8 -26 -22.5t-32 -14.5q-9 0 -22 19t-13 27q0 11 24.5 25t33.5 14t22 -20t13 -28z" />
    <glyph glyph-name="radical" unicode="&#x221a;" horiz-adv-x="544" 
d="M534 609l-132 -702l-18 -10l-179 380l-69 -36l-10 25l126 63l141 -310h2l108 598z" />
    <glyph glyph-name="infinity" unicode="&#x221e;" horiz-adv-x="629" 
d="M592 194q0 -55 -35.5 -88.5t-82.5 -33.5q-63 0 -137 87q-25 -28 -41.5 -43.5t-43.5 -29.5t-56 -14q-47 0 -81 34t-34 85q0 52 34.5 86.5t86.5 34.5q67 0 139 -87q1 1 11 12t11.5 12.5l11 11.5t12.5 12.5l12 10t14 10l14.5 7.5t16.5 6.5t16.5 3t18.5 1.5q50 0 81.5 -33
t31.5 -85zM201 113h1q10 0 19 2t18.5 8l16 10t17 14l14 13.5t14.5 15.5t12 13q-22 28 -33.5 41t-34.5 27.5t-47 14.5q-32 0 -52.5 -23.5t-20.5 -58.5q0 -32 21.5 -54.5t54.5 -22.5zM474 272q-14 0 -27 -5t-26 -15.5t-21.5 -18t-21.5 -22.5t-16 -18q40 -44 64 -62t50 -18
q33 0 52.5 24t19.5 54q0 37 -20.5 59t-53.5 22z" />
    <glyph glyph-name="integral" unicode="&#x222b;" horiz-adv-x="395" 
d="M229 10l-15 280q-5 85 3.5 145.5t26.5 91.5t39.5 44.5t47.5 13.5q17 0 32 -9.5t15 -24.5q0 -16 -9 -24.5t-23 -8.5q-13 0 -23 18.5t-18 18.5q-37 0 -31 -121l13 -270q16 -308 -118 -308q-20 0 -33.5 10.5t-14.5 25.5q0 13 12.5 24t27.5 11q10 0 19.5 -20t17.5 -20
q17 0 25.5 34.5t5.5 88.5z" />
    <glyph glyph-name="approxequal" unicode="&#x2248;" horiz-adv-x="492" 
d="M430 306l28 -29q-46 -69 -106 -69q-34 0 -94 31q-44 24 -72 24q-41 0 -83 -53l-28 28q18 31 49 50.5t66 19.5q9 0 18 -1.5t15.5 -3t15 -5.5l12.5 -6l13.5 -7l11.5 -6q49 -26 75 -26q42 0 79 53zM430 174l28 -29q-45 -69 -107 -69q-31 0 -93 31q-46 24 -72 24
q-42 0 -83 -54l-28 29q18 31 49 50t65 19q33 0 87 -28q3 -2 11.5 -6.5t12.5 -6t11 -5t12.5 -5t12.5 -2.5t15 -1q41 0 79 53z" />
    <glyph glyph-name="notequal" unicode="&#x2260;" horiz-adv-x="517" 
d="M390 357l-34 -71h121v-43h-141l-50 -105h191v-44h-211l-43 -90l-37 18l35 72h-116v44h136l50 105h-186v43h206l42 88z" />
    <glyph glyph-name="lessequal" unicode="&#x2264;" horiz-adv-x="541" 
d="M499 68l-366 163v46l366 162v-49l-316 -135v-1l316 -137v-49zM501 -4h-372v44h372v-44z" />
    <glyph glyph-name="greaterequal" unicode="&#x2265;" horiz-adv-x="539" 
d="M133 439l366 -162v-46l-366 -163v49l316 136v2l-316 135v49zM498 -4h-368v44h368v-44z" />
    <glyph glyph-name="lozenge" unicode="&#x25ca;" horiz-adv-x="560" 
d="M525 225l-169 -280h-50l-168 280l169 283h49zM472 225l-139 238h-3l-139 -237l140 -237h2z" />
    <glyph glyph-name="A.alt" unicode="&#xe000;" horiz-adv-x="851" 
d="M947 640q0 -6 -3.5 -10t-9.5 -1q-8 3 -13 3q-33 0 -70 -70q-76 -146 -124 -324q-1 -4 2 -5t14 0q40 2 62 8.5t30 25.5q3 7 7 7q8 0 8 -13q0 -22 -35 -40t-86 -19q-8 0 -9.5 -2.5t-3.5 -11.5q-20 -97 -20 -153q0 -72 32 -72q12 0 37 17q4 2 5 2q4 0 4 -5q0 -7 -6 -13
q-33 -30 -83 -30q-28 0 -45 12q-25 18 -25 71q0 51 32 177q1 4 -2 5t-8 1q-134 0 -210 5q-12 1 -21 -8q-76 -88 -140 -153.5t-134 -125t-135.5 -91t-121.5 -31.5q-26 0 -48 7q-28 9 -49.5 34.5t-21.5 59.5q0 16 6 34q4 15 14 15q11 0 13 -17q4 -36 33.5 -55.5t73.5 -19.5
q106 0 202 85q35 32 68 66.5t49.5 54l55.5 67.5l54 67q4 6 4 7q0 4 -17 4q-128 -5 -178.5 -31t-69.5 -102q-3 -10 -11 -10t-17 12q-8 11 -8 26q0 31 37.5 63.5t92.5 54.5q58 23 187 28q19 1 26 9l75 97t60.5 72.5t57.5 58t53 36.5t61.5 26t69.5 9q11 0 11 -8q0 -7 -10 -10
q-30 -8 -62 -30t-65.5 -57t-58 -63l-60.5 -72.5l-50 -61.5q-2 -3 0.5 -6t5.5 -3q120 -9 183 -10q12 0 16 11q34 110 93 226t127 178q20 17 43 17q16 0 22 -10q4 -8 4 -15z" />
    <glyph glyph-name="Aacute.alt" unicode="&#xe001;" horiz-adv-x="851" 
d="M931 791q-2 -14 -10 -18q-6 -3 -171 -91q-4 -2 -10 -2q-3 0 -3 3q0 5 5 10q30 29 86 76.5t74 59.5q4 2 6 2q9 -1 16 -14t7 -26zM947 640q0 -6 -3.5 -10t-9.5 -1q-8 3 -13 3q-33 0 -70 -70q-76 -146 -124 -324q-1 -4 2 -5t14 0q40 2 62 8.5t30 25.5q3 7 7 7q8 0 8 -13
q0 -22 -35 -40t-86 -19q-8 0 -9.5 -2.5t-3.5 -11.5q-20 -97 -20 -153q0 -72 32 -72q12 0 37 17q4 2 5 2q4 0 4 -5q0 -7 -6 -13q-33 -30 -83 -30q-28 0 -45 12q-25 18 -25 71q0 51 32 177q1 4 -2 5t-8 1q-134 0 -210 5q-12 1 -21 -8q-76 -88 -140 -153.5t-134 -125
t-135.5 -91t-121.5 -31.5q-26 0 -48 7q-28 9 -49.5 34.5t-21.5 59.5q0 16 6 34q4 15 14 15q11 0 13 -17q4 -36 33.5 -55.5t73.5 -19.5q106 0 202 85q35 32 68 66.5t49.5 54l55.5 67.5l54 67q4 6 4 7q0 4 -17 4q-128 -5 -178.5 -31t-69.5 -102q-3 -10 -11 -10t-17 12
q-8 11 -8 26q0 31 37.5 63.5t92.5 54.5q58 23 187 28q19 1 26 9l75 97t60.5 72.5t57.5 58t53 36.5t61.5 26t69.5 9q11 0 11 -8q0 -7 -10 -10q-30 -8 -62 -30t-65.5 -57t-58 -63l-60.5 -72.5l-50 -61.5q-2 -3 0.5 -6t5.5 -3q120 -9 183 -10q12 0 16 11q34 110 93 226t127 178
q20 17 43 17q16 0 22 -10q4 -8 4 -15z" />
    <glyph glyph-name="Acircumflex.alt" unicode="&#xe002;" horiz-adv-x="851" 
d="M970 693q2 -5 -4 -7q-4 -2 -8 4l-17 23l-15 21t-12.5 16.5t-12.5 14t-12 9.5t-13.5 6.5t-14.5 1.5q-37 0 -154 -76q-2 -1 -6 -1q-7 3 -7 5q1 2 4 5q122 113 169 113q27 -1 45.5 -27t50.5 -93q5 -10 7 -15zM947 640q0 -6 -3.5 -10t-9.5 -1q-8 3 -13 3q-33 0 -70 -70
q-76 -146 -124 -324q-1 -4 2 -5t14 0q40 2 62 8.5t30 25.5q3 7 7 7q8 0 8 -13q0 -22 -35 -40t-86 -19q-8 0 -9.5 -2.5t-3.5 -11.5q-20 -97 -20 -153q0 -72 32 -72q12 0 37 17q4 2 5 2q4 0 4 -5q0 -7 -6 -13q-33 -30 -83 -30q-28 0 -45 12q-25 18 -25 71q0 51 32 177
q1 4 -2 5t-8 1q-134 0 -210 5q-12 1 -21 -8q-76 -88 -140 -153.5t-134 -125t-135.5 -91t-121.5 -31.5q-26 0 -48 7q-28 9 -49.5 34.5t-21.5 59.5q0 16 6 34q4 15 14 15q11 0 13 -17q4 -36 33.5 -55.5t73.5 -19.5q106 0 202 85q35 32 68 66.5t49.5 54l55.5 67.5l54 67
q4 6 4 7q0 4 -17 4q-128 -5 -178.5 -31t-69.5 -102q-3 -10 -11 -10t-17 12q-8 11 -8 26q0 31 37.5 63.5t92.5 54.5q58 23 187 28q19 1 26 9l75 97t60.5 72.5t57.5 58t53 36.5t61.5 26t69.5 9q11 0 11 -8q0 -7 -10 -10q-30 -8 -62 -30t-65.5 -57t-58 -63l-60.5 -72.5
l-50 -61.5q-2 -3 0.5 -6t5.5 -3q120 -9 183 -10q12 0 16 11q34 110 93 226t127 178q20 17 43 17q16 0 22 -10q4 -8 4 -15z" />
    <glyph glyph-name="Adieresis.alt" unicode="&#xe003;" horiz-adv-x="851" 
d="M908 755q-1 -22 -14 -36t-27 -14q-21 0 -28 23q0 12 1 14q3 6 28 11.5t36 13.5q3 2 4 -3q1 -4 0 -9zM770 755q-1 -23 -13.5 -37t-27.5 -13q-19 0 -28 23q0 12 1 14q4 6 29 11.5t36 13.5q1 1 2 -2.5t1 -9.5zM947 640q0 -6 -3.5 -10t-9.5 -1q-8 3 -13 3q-33 0 -70 -70
q-76 -146 -124 -324q-1 -4 2 -5t14 0q40 2 62 8.5t30 25.5q3 7 7 7q8 0 8 -13q0 -22 -35 -40t-86 -19q-8 0 -9.5 -2.5t-3.5 -11.5q-20 -97 -20 -153q0 -72 32 -72q12 0 37 17q4 2 5 2q4 0 4 -5q0 -7 -6 -13q-33 -30 -83 -30q-28 0 -45 12q-25 18 -25 71q0 51 32 177
q1 4 -2 5t-8 1q-134 0 -210 5q-12 1 -21 -8q-76 -88 -140 -153.5t-134 -125t-135.5 -91t-121.5 -31.5q-26 0 -48 7q-28 9 -49.5 34.5t-21.5 59.5q0 16 6 34q4 15 14 15q11 0 13 -17q4 -36 33.5 -55.5t73.5 -19.5q106 0 202 85q35 32 68 66.5t49.5 54l55.5 67.5l54 67
q4 6 4 7q0 4 -17 4q-128 -5 -178.5 -31t-69.5 -102q-3 -10 -11 -10t-17 12q-8 11 -8 26q0 31 37.5 63.5t92.5 54.5q58 23 187 28q19 1 26 9l75 97t60.5 72.5t57.5 58t53 36.5t61.5 26t69.5 9q11 0 11 -8q0 -7 -10 -10q-30 -8 -62 -30t-65.5 -57t-58 -63l-60.5 -72.5
l-50 -61.5q-2 -3 0.5 -6t5.5 -3q120 -9 183 -10q12 0 16 11q34 110 93 226t127 178q20 17 43 17q16 0 22 -10q4 -8 4 -15z" />
    <glyph glyph-name="Agrave.alt" unicode="&#xe004;" horiz-adv-x="851" 
d="M818 666q-4 -4 -11 0q-78 41 -169 112q-3 2 -3 5q1 9 16.5 18t29.5 10q13 0 17 -7q5 -10 116 -126q7 -9 4 -12zM947 640q0 -6 -3.5 -10t-9.5 -1q-8 3 -13 3q-33 0 -70 -70q-76 -146 -124 -324q-1 -4 2 -5t14 0q40 2 62 8.5t30 25.5q3 7 7 7q8 0 8 -13q0 -22 -35 -40
t-86 -19q-8 0 -9.5 -2.5t-3.5 -11.5q-20 -97 -20 -153q0 -72 32 -72q12 0 37 17q4 2 5 2q4 0 4 -5q0 -7 -6 -13q-33 -30 -83 -30q-28 0 -45 12q-25 18 -25 71q0 51 32 177q1 4 -2 5t-8 1q-134 0 -210 5q-12 1 -21 -8q-76 -88 -140 -153.5t-134 -125t-135.5 -91t-121.5 -31.5
q-26 0 -48 7q-28 9 -49.5 34.5t-21.5 59.5q0 16 6 34q4 15 14 15q11 0 13 -17q4 -36 33.5 -55.5t73.5 -19.5q106 0 202 85q35 32 68 66.5t49.5 54l55.5 67.5l54 67q4 6 4 7q0 4 -17 4q-128 -5 -178.5 -31t-69.5 -102q-3 -10 -11 -10t-17 12q-8 11 -8 26q0 31 37.5 63.5
t92.5 54.5q58 23 187 28q19 1 26 9l75 97t60.5 72.5t57.5 58t53 36.5t61.5 26t69.5 9q11 0 11 -8q0 -7 -10 -10q-30 -8 -62 -30t-65.5 -57t-58 -63l-60.5 -72.5l-50 -61.5q-2 -3 0.5 -6t5.5 -3q120 -9 183 -10q12 0 16 11q34 110 93 226t127 178q20 17 43 17q16 0 22 -10
q4 -8 4 -15z" />
    <glyph glyph-name="Aring.alt" unicode="&#xe005;" horiz-adv-x="851" 
d="M897 759q0 -30 -21.5 -51.5t-51.5 -21.5t-51.5 21.5t-21.5 51.5t21.5 51.5t51.5 21.5t51.5 -21.5t21.5 -51.5zM877 759q0 22 -15 37.5t-38 15.5q-24 0 -38.5 -16.5t-14.5 -36.5q0 -24 16.5 -38.5t36.5 -14.5q24 0 38.5 16.5t14.5 36.5zM947 640q0 -6 -3.5 -10t-9.5 -1
q-8 3 -13 3q-33 0 -70 -70q-76 -146 -124 -324q-1 -4 2 -5t14 0q40 2 62 8.5t30 25.5q3 7 7 7q8 0 8 -13q0 -22 -35 -40t-86 -19q-8 0 -9.5 -2.5t-3.5 -11.5q-20 -97 -20 -153q0 -72 32 -72q12 0 37 17q4 2 5 2q4 0 4 -5q0 -7 -6 -13q-33 -30 -83 -30q-28 0 -45 12
q-25 18 -25 71q0 51 32 177q1 4 -2 5t-8 1q-134 0 -210 5q-12 1 -21 -8q-76 -88 -140 -153.5t-134 -125t-135.5 -91t-121.5 -31.5q-26 0 -48 7q-28 9 -49.5 34.5t-21.5 59.5q0 16 6 34q4 15 14 15q11 0 13 -17q4 -36 33.5 -55.5t73.5 -19.5q106 0 202 85q35 32 68 66.5
t49.5 54l55.5 67.5l54 67q4 6 4 7q0 4 -17 4q-128 -5 -178.5 -31t-69.5 -102q-3 -10 -11 -10t-17 12q-8 11 -8 26q0 31 37.5 63.5t92.5 54.5q58 23 187 28q19 1 26 9l75 97t60.5 72.5t57.5 58t53 36.5t61.5 26t69.5 9q11 0 11 -8q0 -7 -10 -10q-30 -8 -62 -30t-65.5 -57
t-58 -63l-60.5 -72.5l-50 -61.5q-2 -3 0.5 -6t5.5 -3q120 -9 183 -10q12 0 16 11q34 110 93 226t127 178q20 17 43 17q16 0 22 -10q4 -8 4 -15z" />
    <glyph glyph-name="Atilde.alt" unicode="&#xe006;" horiz-adv-x="851" 
d="M948 758q4 -4 -1 -11q-40 -48 -89 -48q-28 0 -60 15q-8 3 -30 14.5t-38 17.5t-26 6q-22 0 -35 -27q-3 -4 -6 -4q-10 2 -1 15q38 55 83 55q29 1 84 -29q47 -26 70 -26q24 0 42 21q1 2 3.5 2.5t3.5 -1.5zM947 640q0 -6 -3.5 -10t-9.5 -1q-8 3 -13 3q-33 0 -70 -70
q-76 -146 -124 -324q-1 -4 2 -5t14 0q40 2 62 8.5t30 25.5q3 7 7 7q8 0 8 -13q0 -22 -35 -40t-86 -19q-8 0 -9.5 -2.5t-3.5 -11.5q-20 -97 -20 -153q0 -72 32 -72q12 0 37 17q4 2 5 2q4 0 4 -5q0 -7 -6 -13q-33 -30 -83 -30q-28 0 -45 12q-25 18 -25 71q0 51 32 177
q1 4 -2 5t-8 1q-134 0 -210 5q-12 1 -21 -8q-76 -88 -140 -153.5t-134 -125t-135.5 -91t-121.5 -31.5q-26 0 -48 7q-28 9 -49.5 34.5t-21.5 59.5q0 16 6 34q4 15 14 15q11 0 13 -17q4 -36 33.5 -55.5t73.5 -19.5q106 0 202 85q35 32 68 66.5t49.5 54l55.5 67.5l54 67
q4 6 4 7q0 4 -17 4q-128 -5 -178.5 -31t-69.5 -102q-3 -10 -11 -10t-17 12q-8 11 -8 26q0 31 37.5 63.5t92.5 54.5q58 23 187 28q19 1 26 9l75 97t60.5 72.5t57.5 58t53 36.5t61.5 26t69.5 9q11 0 11 -8q0 -7 -10 -10q-30 -8 -62 -30t-65.5 -57t-58 -63l-60.5 -72.5
l-50 -61.5q-2 -3 0.5 -6t5.5 -3q120 -9 183 -10q12 0 16 11q34 110 93 226t127 178q20 17 43 17q16 0 22 -10q4 -8 4 -15z" />
    <glyph glyph-name="B.alt" unicode="&#xe007;" horiz-adv-x="783" 
d="M761 526q0 -46 -43 -90q-32 -32 -137 -77q62 -19 105 -70t43 -113q0 -84 -82 -153q-110 -92 -271 -92q-99 0 -302 46q-27 6 -28 6q-2 0 -6 -2q-8 -7 -16 -7q-7 0 -7 6q0 5 4 10q31 42 80 42q19 0 38 -6q21 -7 25 -7q5 0 19 11q33 28 66 96.5t100 230.5q15 38 24 59
q19 46 31.5 70.5t33 50t47.5 35t64 6.5q17 -1 17 -8q0 -10 -18 -10q-15 0 -34 -26q-18 -23 -96.5 -192t-113.5 -220q-61 -90 -108 -108q-4 -1 -4 -5t5 -5q119 -44 188 -44q90 0 163 52q87 62 87 156q0 58 -32 105.5t-77 60.5q-24 7 -50 7q-14 0 -20 -1q-5 -1 -5 4q0 6 8 17
t14 11q69 0 111 13.5t76 60.5q19 26 19 61q0 68 -68 122.5t-186 54.5q-149 0 -245 -87q-74 -66 -74 -142q0 -29 12 -54q3 -6 3 -11q0 -6 -5 -6q-8 0 -23 12q-35 27 -35 74q0 36 24 76t67 72q49 35 129 62.5t183 27.5q132 0 216 -55.5t84 -126.5z" />
    <glyph glyph-name="C.alt" unicode="&#xe008;" horiz-adv-x="615" 
d="M742 706q0 -6 -9 -18q-78 -101 -136 -257q-3 -7 -11 -7q-7 0 -12 5t-2 13q27 62 27 90q0 7 -2 25q-6 44 -65 44q-39 0 -82 -23q-138 -73 -222.5 -191.5t-84.5 -248.5q0 -28 2 -42q8 -66 51 -102t104 -36q67 0 134.5 38t102.5 98q14 24 25 24t11 -17q0 -13 -10 -30
q-36 -57 -135 -105t-192 -48q-106 0 -153 67q-36 50 -36 120q0 105 75 222.5t199.5 206t253.5 106.5q54 7 59 -13q1 -7 6 -7q6 0 13 13l14 27.5t13 23.5q5 8 10 10.5t13 4t15 5.5q12 6 18 6t6 -4z" />
    <glyph glyph-name="Ccedilla.alt" unicode="&#xe009;" horiz-adv-x="615" 
d="M742 706q0 -6 -9 -18q-78 -101 -136 -257q-3 -7 -11 -7q-7 0 -12 5t-2 13q27 62 27 90q0 7 -2 25q-6 44 -65 44q-39 0 -82 -23q-138 -73 -222.5 -191.5t-84.5 -248.5q0 -28 2 -42q8 -66 51 -102t104 -36q67 0 134.5 38t102.5 98q14 24 25 24t11 -17q0 -13 -10 -30
q-34 -54 -126 -100.5t-182 -51.5q-65 -14 -65 -27q0 -6 10 -10q41 -20 41 -50q0 -47 -114 -78q-6 -1 -6 3q0 1 2 3q71 51 71 86q0 12 -11 18q-40 21 -40 41q0 13 15 25q-47 16 -75 55q-36 50 -36 120q0 105 75 222.5t199.5 206t253.5 106.5q54 7 59 -13q1 -7 6 -7q6 0 13 13
l14 27.5t13 23.5q5 8 10 10.5t13 4t15 5.5q12 6 18 6t6 -4z" />
    <glyph glyph-name="D.alt" unicode="&#xe00a;" horiz-adv-x="832" 
d="M811 365q0 -84 -40.5 -166t-121.5 -148q-133 -110 -312 -110q-93 0 -245 30q-30 7 -35 4q-11 -6 -19 -6t-8 6q0 3 5 11q10 15 35 28t57 13q11 0 33 -4q14 -3 22 -3q13 0 22 9q11 9 22 23.5t24 38.5l24 45.5t28.5 61.5l30 69l36.5 85l40 93q15 34 31.5 56t51 37t83.5 11
q17 -1 17 -8q0 -4 -6 -7.5t-13 -3.5q-16 0 -34 -25q-19 -24 -99.5 -180t-114.5 -206q-59 -87 -108 -105q-4 -1 -4 -5t5 -5q124 -27 181 -27q107 0 203 79q57 47 90.5 126.5t33.5 165.5q0 62 -18.5 116t-55.5 99t-101 71t-147 26q-20 0 -31 -1q-115 -6 -214.5 -87t-99.5 -174
q0 -28 10 -52q4 -8 4 -14q0 -7 -6 -7q-9 0 -25 16q-34 33 -34 81q0 83 95.5 161t265.5 99q43 5 74 5q170 0 269 -93.5t99 -228.5z" />
    <glyph glyph-name="E.alt" unicode="&#xe00b;" horiz-adv-x="634" 
d="M758 702q0 -4 -3 -8l-23.5 -37l-24.5 -40q-19 -32 -20 -40q-2 -30 -25 -45q-18 -13 -26 -13q-7 0 -7 8q0 4 3 13q6 18 6 36q0 44 -28 60q-23 13 -50 13q-52 0 -95.5 -41.5t-43.5 -92.5q0 -55 40 -91.5t94 -27.5q27 4 27 -10q0 -8 -9.5 -15.5t-19.5 -4.5q-53 12 -100 12
q-137 0 -233 -80.5t-96 -178.5q0 -57 33 -102q50 -69 155 -69q73 0 141 35t99 92q14 27 29 27q11 0 11 -15t-13 -35q-33 -54 -132 -96.5t-197 -42.5q-101 0 -157 48q-58 51 -58 130q0 105 101.5 197t245.5 106q14 2 14 6q0 3 -11 11q-48 33 -48 86q0 57 55 107.5t144 64.5
q33 5 56 5q76 0 86 -36q2 -6 4 -6q3 0 6 8q6 13 13 37q2 9 9 14t17.5 8.5t14.5 5.5q6 3 9 3q7 0 7 -6z" />
    <glyph glyph-name="Eacute.alt" unicode="&#xe00c;" horiz-adv-x="634" 
d="M730 841q-2 -14 -10 -18q-6 -3 -171 -91q-4 -2 -10 -2q-3 0 -3 3q0 5 5 10q30 29 86 76.5t74 59.5q4 2 6 2q9 -1 16 -14t7 -26zM758 702q0 -4 -3 -8l-23.5 -37l-24.5 -40q-19 -32 -20 -40q-2 -30 -25 -45q-18 -13 -26 -13q-7 0 -7 8q0 4 3 13q6 18 6 36q0 44 -28 60
q-23 13 -50 13q-52 0 -95.5 -41.5t-43.5 -92.5q0 -55 40 -91.5t94 -27.5q27 4 27 -10q0 -8 -9.5 -15.5t-19.5 -4.5q-53 12 -100 12q-137 0 -233 -80.5t-96 -178.5q0 -57 33 -102q50 -69 155 -69q73 0 141 35t99 92q14 27 29 27q11 0 11 -15t-13 -35q-33 -54 -132 -96.5
t-197 -42.5q-101 0 -157 48q-58 51 -58 130q0 105 101.5 197t245.5 106q14 2 14 6q0 3 -11 11q-48 33 -48 86q0 57 55 107.5t144 64.5q33 5 56 5q76 0 86 -36q2 -6 4 -6q3 0 6 8q6 13 13 37q2 9 9 14t17.5 8.5t14.5 5.5q6 3 9 3q7 0 7 -6z" />
    <glyph glyph-name="Ecircumflex.alt" unicode="&#xe00d;" horiz-adv-x="634" 
d="M757 739q2 -5 -4 -7q-4 -2 -8 4l-17 23l-15 21t-12.5 16.5t-12.5 14t-12 9.5t-13.5 6.5t-14.5 1.5q-37 0 -154 -76q-2 -1 -6 -1q-7 3 -7 5q1 2 4 5q122 113 169 113q27 -1 45.5 -27t50.5 -93q5 -10 7 -15zM758 702q0 -4 -3 -8l-23.5 -37l-24.5 -40q-19 -32 -20 -40
q-2 -30 -25 -45q-18 -13 -26 -13q-7 0 -7 8q0 4 3 13q6 18 6 36q0 44 -28 60q-23 13 -50 13q-52 0 -95.5 -41.5t-43.5 -92.5q0 -55 40 -91.5t94 -27.5q27 4 27 -10q0 -8 -9.5 -15.5t-19.5 -4.5q-53 12 -100 12q-137 0 -233 -80.5t-96 -178.5q0 -57 33 -102q50 -69 155 -69
q73 0 141 35t99 92q14 27 29 27q11 0 11 -15t-13 -35q-33 -54 -132 -96.5t-197 -42.5q-101 0 -157 48q-58 51 -58 130q0 105 101.5 197t245.5 106q14 2 14 6q0 3 -11 11q-48 33 -48 86q0 57 55 107.5t144 64.5q33 5 56 5q76 0 86 -36q2 -6 4 -6q3 0 6 8q6 13 13 37q2 9 9 14
t17.5 8.5t14.5 5.5q6 3 9 3q7 0 7 -6z" />
    <glyph glyph-name="Edieresis.alt" unicode="&#xe00e;" horiz-adv-x="634" 
d="M736 813q-1 -22 -14 -36t-27 -14q-21 0 -28 23q0 13 1 14q3 6 28 11.5t36 13.5q3 2 4 -3q1 -4 0 -9zM598 813q-1 -23 -13.5 -37t-27.5 -13q-19 0 -28 23q0 13 1 14q4 6 29 11.5t36 13.5q1 1 2 -2.5t1 -9.5zM758 702q0 -4 -3 -8l-23.5 -37l-24.5 -40q-19 -32 -20 -40
q-2 -30 -25 -45q-18 -13 -26 -13q-7 0 -7 8q0 4 3 13q6 18 6 36q0 44 -28 60q-23 13 -50 13q-52 0 -95.5 -41.5t-43.5 -92.5q0 -55 40 -91.5t94 -27.5q27 4 27 -10q0 -8 -9.5 -15.5t-19.5 -4.5q-53 12 -100 12q-137 0 -233 -80.5t-96 -178.5q0 -57 33 -102q50 -69 155 -69
q73 0 141 35t99 92q14 27 29 27q11 0 11 -15t-13 -35q-33 -54 -132 -96.5t-197 -42.5q-101 0 -157 48q-58 51 -58 130q0 105 101.5 197t245.5 106q14 2 14 6q0 3 -11 11q-48 33 -48 86q0 57 55 107.5t144 64.5q33 5 56 5q76 0 86 -36q2 -6 4 -6q3 0 6 8q6 13 13 37q2 9 9 14
t17.5 8.5t14.5 5.5q6 3 9 3q7 0 7 -6z" />
    <glyph glyph-name="Egrave.alt" unicode="&#xe00f;" horiz-adv-x="634" 
d="M677 746q-4 -4 -11 0q-78 41 -169 112q-3 2 -3 5q1 9 16.5 18t29.5 10q13 0 17 -7q5 -10 116 -126q7 -9 4 -12zM758 702q0 -4 -3 -8l-23.5 -37l-24.5 -40q-19 -32 -20 -40q-2 -30 -25 -45q-18 -13 -26 -13q-7 0 -7 8q0 4 3 13q6 18 6 36q0 44 -28 60q-23 13 -50 13
q-52 0 -95.5 -41.5t-43.5 -92.5q0 -55 40 -91.5t94 -27.5q27 4 27 -10q0 -8 -9.5 -15.5t-19.5 -4.5q-53 12 -100 12q-137 0 -233 -80.5t-96 -178.5q0 -57 33 -102q50 -69 155 -69q73 0 141 35t99 92q14 27 29 27q11 0 11 -15t-13 -35q-33 -54 -132 -96.5t-197 -42.5
q-101 0 -157 48q-58 51 -58 130q0 105 101.5 197t245.5 106q14 2 14 6q0 3 -11 11q-48 33 -48 86q0 57 55 107.5t144 64.5q33 5 56 5q76 0 86 -36q2 -6 4 -6q3 0 6 8q6 13 13 37q2 9 9 14t17.5 8.5t14.5 5.5q6 3 9 3q7 0 7 -6z" />
    <glyph glyph-name="Eth.alt" unicode="&#xe010;" horiz-adv-x="832" 
d="M811 365q0 -84 -40.5 -166t-121.5 -148q-133 -110 -312 -110q-93 0 -245 30q-30 7 -35 4q-11 -6 -19 -6t-8 6q0 3 5 11q10 15 35 28t57 13q11 0 33 -4q14 -3 22 -3q13 0 22 9q41 36 120 218q-104 14 -131 -2q-13 -9 -20 -4q-1 1 -1 3q1 7 32 30q53 39 143 25l62 146
q15 34 31.5 56t51 37t83.5 11q17 -1 17 -8q0 -4 -6 -7.5t-13 -3.5q-16 0 -34 -25q-8 -10 -22 -34.5l-26.5 -48l-34.5 -65.5l-35 -67q101 -10 124 10q11 11 21 3q3 -5 -4 -12q-30 -35 -68 -48.5t-101 -5.5q-38 -75 -68 -118q-59 -87 -108 -105q-4 -1 -4 -5t5 -5
q124 -27 181 -27q107 0 203 79q57 47 90.5 126.5t33.5 165.5q0 62 -18.5 116t-55.5 99t-101 71t-147 26q-20 0 -31 -1q-115 -6 -214.5 -87t-99.5 -174q0 -28 10 -52q4 -8 4 -14q0 -7 -6 -7q-9 0 -25 16q-34 33 -34 81q0 83 95.5 161t265.5 99q43 5 74 5q170 0 269 -93.5
t99 -228.5z" />
    <glyph glyph-name="F.alt" unicode="&#xe011;" horiz-adv-x="743" 
d="M934 555q0 -14 -29 -31q-37 -21 -67 -21q-43 0 -146 38q-6 3 -7 3q-2 0 -8 -10q-10 -15 -23 -44l-33 -76.5t-35 -79.5q-2 -4 0.5 -6t8.5 -2q22 -1 56 -1q75 0 82 15q3 6 8 6q12 0 6 -20q-13 -46 -133 -46q-24 0 -38 1q-13 1 -16 -6q-183 -382 -374 -382q-25 0 -43 16.5
t-18 47.5q0 22 18 22q14 0 30 -19q26 -31 57 -31q54 0 120.5 87t131.5 252q5 13 4 14q-3 3 -54 3q-84 0 -104 -29q-11 -17 -24 -17q-7 0 -7 6t7 14q28 39 68 54t127 14q6 0 8 2.5t5 12.5q59 161 96 218q3 4 3 7q0 6 -9 9q-62 23 -145.5 42t-144.5 19q-18 0 -44 -4
q-106 -20 -156 -81t-50 -141q0 -73 36.5 -135.5t88.5 -79.5q12 -4 12 -10q0 -11 -21 -7q-74 15 -121.5 76t-47.5 138q0 88 69 164.5t211 113.5q49 13 98 13q45 0 94 -11.5t80 -23.5t70 -29q9 -4 13 -6q6 -3 9 -3q4 0 11 8q14 17 62.5 40.5t81.5 22.5q17 0 17 -6q0 -5 -20 -8
q-22 -3 -41.5 -16.5t-27 -23t-22.5 -30.5q-5 -6 -5 -10t7 -7q119 -45 157 -45q25 0 35 14q10 15 18 15t8 -10z" />
    <glyph glyph-name="G.alt" unicode="&#xe012;" horiz-adv-x="703" 
d="M774 710q0 -7 -10 -18q-80 -99 -142 -256q-3 -7 -11 -7q-7 0 -12.5 5t-2.5 12q29 65 29 92q0 6 -2 24q-3 20 -21 31.5t-45 11.5q-41 0 -86 -23q-155 -80 -252 -206t-97 -260q0 -132 114 -132q62 0 140 38t140 98q32 31 49 63l27.5 53t28.5 32q33 18 63 26q8 2 10 2
q11 0 11 -10q0 -7 -5 -9t-8 -3.5t-6 -5t-4.5 -5.5t-6.5 -10q-6 -9 -35.5 -73.5l-61.5 -130.5t-80.5 -135t-93.5 -96q-41 -25 -73 -25q-21 0 -34 11t-13 29q0 25 10 25q7 0 25 -13q17 -12 34 -12q43 0 83 49q49 60 105 215q4 10 -2 10q-3 0 -9 -6q-64 -66 -163 -119.5
t-181 -53.5q-83 0 -126 61q-33 47 -33 111q0 79 51 171t131 169t185 134t206 70q25 3 42.5 -1t19.5 -12q1 -7 6 -7q8 0 14 13q16 31 28 51q4 6 8.5 9t8 4t10 2.5t12.5 4.5q13 6 19 6t6 -4z" />
    <glyph glyph-name="H.alt" unicode="&#xe013;" horiz-adv-x="895" 
d="M1079 649q-2 -12 -13 -12q-7 0 -10 7q-5 11 -14 11q-7 0 -21 -11q-17 -13 -33.5 -31.5t-33.5 -45l-30.5 -48.5t-30.5 -57.5l-26 -54t-26 -56.5t-22 -48q-1 -2 0 -4.5t5 -4.5t9 -2q56 0 69 14q6 6 10 6q7 0 7 -7q0 -1 -2 -5q-25 -38 -103 -38q-11 0 -15 -10
q-63 -162 -63 -251q0 -35 21 -35q9 0 25 13q6 4 7 4q7 0 7 -7q0 -3 -2 -5q-28 -33 -65 -33q-18 0 -33 10.5t-21 28.5q-6 20 -6 47q0 81 50 227q3 9 -6 9q-46 0 -133.5 6t-132.5 6q-16 0 -22 -13q-149 -332 -331 -403q-36 -14 -68 -14q-31 0 -50 15t-16 39q4 28 18 28
q8 0 23 -15q27 -27 61 -27q62 0 134.5 92.5t141.5 276.5q2 5 -1 8.5t-11 2.5q-80 -6 -119 -55q-5 -6 -11 -6q-10 0 -5 9q17 39 54 66.5t91 31.5q25 2 28 8q34 80 76 196q2 6 2 7q0 9 -15 8q-178 -23 -268 -80q-87 -54 -87 -130q0 -25 10 -45q6 -12 6 -17q0 -4 -5 -4
q-8 0 -17 4q-54 23 -54 76q0 36 32.5 73.5t100.5 68.5q62 29 222.5 60.5t204.5 56.5q7 4 13 4t6 -4t-16 -20q-16 -15 -55 -97.5t-62 -143.5q-5 -13 6 -13q59 -1 145.5 -11t117.5 -11q10 0 14 11q54 149 100 227t104 111q58 32 100 32q18 0 27 -6t7 -20z" />
    <glyph glyph-name="I.alt" unicode="&#xe014;" horiz-adv-x="440" 
d="M643 642q0 -5 -9 -8q-32 -10 -70.5 -25.5t-50.5 -19.5q-44 -15 -89 -102.5t-121 -289.5q-26 -69 -77 -123t-110 -73q-6 -1 -6 -3t6 -2q80 10 140 10q44 0 75.5 -5t44.5 -12t13 -14q0 -5 -5 -8q-24 -16 -66 -37q-6 -3 -9 -3q-5 0 -5 4q0 3 6 7q8 5 8 10q0 7 -13 13.5
t-40.5 11t-63.5 4.5q-123 0 -291 -50q-10 -3 -17 -3q-9 0 -9 5t7 9q35 26 62 33q17 4 52.5 10.5t47.5 8.5q25 4 39 14q73 42 108 121q22 49 42.5 111t33 107.5t31 93.5t39.5 79t56 53.5t81 27.5q8 2 8 4q0 5 -16 6q-39 3 -72 3q-235 0 -246 -143q-1 -20 -10 -20q-6 0 -12 6
q-18 18 -18 41q0 33 31 59q95 81 313 81q36 0 55 -1q10 -1 27 -1q44 0 73 10q15 5 20 5q7 0 7 -5z" />
    <glyph glyph-name="Iacute.alt" unicode="&#xe015;" horiz-adv-x="440" 
d="M608 805q-2 -14 -10 -18q-6 -3 -171 -91q-4 -2 -10 -2q-3 0 -3 3q0 5 5 10q30 29 86 76.5t74 59.5q4 2 6 2q9 -1 16 -14t7 -26zM643 642q0 -5 -9 -8q-32 -10 -70.5 -25.5t-50.5 -19.5q-44 -15 -89 -102.5t-121 -289.5q-26 -69 -77 -123t-110 -73q-6 -1 -6 -3t6 -2
q80 10 140 10q44 0 75.5 -5t44.5 -12t13 -14q0 -5 -5 -8q-24 -16 -66 -37q-6 -3 -9 -3q-5 0 -5 4q0 3 6 7q8 5 8 10q0 7 -13 13.5t-40.5 11t-63.5 4.5q-123 0 -291 -50q-10 -3 -17 -3q-9 0 -9 5t7 9q35 26 62 33q17 4 52.5 10.5t47.5 8.5q25 4 39 14q73 42 108 121
q22 49 42.5 111t33 107.5t31 93.5t39.5 79t56 53.5t81 27.5q8 2 8 4q0 5 -16 6q-39 3 -72 3q-235 0 -246 -143q-1 -20 -10 -20q-6 0 -12 6q-18 18 -18 41q0 33 31 59q95 81 313 81q36 0 55 -1q10 -1 27 -1q44 0 73 10q15 5 20 5q7 0 7 -5z" />
    <glyph glyph-name="Icircumflex.alt" unicode="&#xe016;" horiz-adv-x="440" 
d="M612 693q2 -5 -4 -7q-4 -2 -8 4l-17 23l-15 21t-12.5 16.5t-12.5 14t-12 9.5t-13.5 6.5t-14.5 1.5q-37 0 -154 -76q-2 -1 -6 -1q-7 3 -7 5q1 2 4 5q122 113 169 113q27 -1 45.5 -27t50.5 -93q5 -10 7 -15zM643 642q0 -5 -9 -8q-32 -10 -70.5 -25.5t-50.5 -19.5
q-44 -15 -89 -102.5t-121 -289.5q-26 -69 -77 -123t-110 -73q-6 -1 -6 -3t6 -2q80 10 140 10q44 0 75.5 -5t44.5 -12t13 -14q0 -5 -5 -8q-24 -16 -66 -37q-6 -3 -9 -3q-5 0 -5 4q0 3 6 7q8 5 8 10q0 7 -13 13.5t-40.5 11t-63.5 4.5q-123 0 -291 -50q-10 -3 -17 -3q-9 0 -9 5
t7 9q35 26 62 33q17 4 52.5 10.5t47.5 8.5q25 4 39 14q73 42 108 121q22 49 42.5 111t33 107.5t31 93.5t39.5 79t56 53.5t81 27.5q8 2 8 4q0 5 -16 6q-39 3 -72 3q-235 0 -246 -143q-1 -20 -10 -20q-6 0 -12 6q-18 18 -18 41q0 33 31 59q95 81 313 81q36 0 55 -1
q10 -1 27 -1q44 0 73 10q15 5 20 5q7 0 7 -5z" />
    <glyph glyph-name="Idieresis.alt" unicode="&#xe017;" horiz-adv-x="440" 
d="M601 763q-1 -22 -14 -36t-27 -14q-21 0 -28 23q0 12 1 14q3 6 28 11.5t36 13.5q3 2 4 -3q1 -4 0 -9zM463 763q-1 -23 -13.5 -37t-27.5 -13q-19 0 -28 23q0 12 1 14q4 6 29 11.5t36 13.5q1 1 2 -2.5t1 -9.5zM643 642q0 -5 -9 -8q-32 -10 -70.5 -25.5t-50.5 -19.5
q-44 -15 -89 -102.5t-121 -289.5q-26 -69 -77 -123t-110 -73q-6 -1 -6 -3t6 -2q80 10 140 10q44 0 75.5 -5t44.5 -12t13 -14q0 -5 -5 -8q-24 -16 -66 -37q-6 -3 -9 -3q-5 0 -5 4q0 3 6 7q8 5 8 10q0 7 -13 13.5t-40.5 11t-63.5 4.5q-123 0 -291 -50q-10 -3 -17 -3q-9 0 -9 5
t7 9q35 26 62 33q17 4 52.5 10.5t47.5 8.5q25 4 39 14q73 42 108 121q22 49 42.5 111t33 107.5t31 93.5t39.5 79t56 53.5t81 27.5q8 2 8 4q0 5 -16 6q-39 3 -72 3q-235 0 -246 -143q-1 -20 -10 -20q-6 0 -12 6q-18 18 -18 41q0 33 31 59q95 81 313 81q36 0 55 -1
q10 -1 27 -1q44 0 73 10q15 5 20 5q7 0 7 -5z" />
    <glyph glyph-name="Igrave.alt" unicode="&#xe018;" horiz-adv-x="440" 
d="M540 698q-4 -4 -11 0q-78 41 -169 112q-3 2 -3 5q1 9 16.5 18t29.5 10q13 0 17 -7q5 -10 116 -126q7 -9 4 -12zM643 642q0 -5 -9 -8q-32 -10 -70.5 -25.5t-50.5 -19.5q-44 -15 -89 -102.5t-121 -289.5q-26 -69 -77 -123t-110 -73q-6 -1 -6 -3t6 -2q80 10 140 10
q44 0 75.5 -5t44.5 -12t13 -14q0 -5 -5 -8q-24 -16 -66 -37q-6 -3 -9 -3q-5 0 -5 4q0 3 6 7q8 5 8 10q0 7 -13 13.5t-40.5 11t-63.5 4.5q-123 0 -291 -50q-10 -3 -17 -3q-9 0 -9 5t7 9q35 26 62 33q17 4 52.5 10.5t47.5 8.5q25 4 39 14q73 42 108 121q22 49 42.5 111
t33 107.5t31 93.5t39.5 79t56 53.5t81 27.5q8 2 8 4q0 5 -16 6q-39 3 -72 3q-235 0 -246 -143q-1 -20 -10 -20q-6 0 -12 6q-18 18 -18 41q0 33 31 59q95 81 313 81q36 0 55 -1q10 -1 27 -1q44 0 73 10q15 5 20 5q7 0 7 -5z" />
    <glyph glyph-name="J.alt" unicode="&#xe019;" horiz-adv-x="621" 
d="M787 700q0 -2 -2 -6q-27 -36 -40 -42q-27 -12 -52 -47q-21 -29 -96 -229t-112 -261q-60 -99 -160 -172q-128 -95 -234 -95q-48 0 -83 22q-71 44 -71 129q0 83 60 143q6 6 14 6q7 0 7 -6q0 -5 -7 -15q-22 -29 -22 -81q0 -24 7 -45q19 -54 59.5 -81t91.5 -27q94 0 166 72
q64 64 115 176q29 62 64 165t66.5 176t68.5 112q9 9 9 12q0 2 -3 2t-12 -3q-112 -37 -169 -85t-57 -100q0 -33 23 -65q4 -5 4 -9q0 -6 -8 -6q-6 0 -10 2q-63 23 -63 75q0 27 17 54.5t42 44.5q57 39 128.5 71.5t120.5 51t56 24.5q2 1 16.5 12.5t28.5 21.5t18 12t7 2
q12 0 12 -11z" />
    <glyph glyph-name="K.alt" unicode="&#xe01a;" horiz-adv-x="803" 
d="M1074 665q0 -14 -8 -14q-3 0 -9 3t-8 3q-18 1 -40.5 -5.5t-55 -26t-59.5 -37.5t-77 -56.5l-83 -65l-101.5 -81.5l-111.5 -89q-12 -9 -7 -14q43 -48 142 -233q52 -96 104 -96q3 0 8.5 1.5t6.5 1.5q4 0 4 -4q0 -3 -4 -6q-40 -25 -75 -25q-74 0 -134 108q-45 82 -80.5 136
t-50.5 70.5t-21 17.5q-14 4 -15 4q-4 0 -7 -6q-61 -129 -138 -217q-61 -69 -124.5 -107t-117.5 -38q-25 0 -50 10q-18 7 -34 25.5t-16 36.5q0 38 18 38q13 0 31 -25q32 -44 83 -44q49 0 102.5 39t88.5 99q33 55 77 163.5t82.5 189t74.5 106.5q2 2 2 3q0 6 -17 4
q-78 -10 -104.5 -14.5t-67 -22t-70.5 -48.5q-44 -46 -44 -105q0 -66 56 -80q8 -2 8 -8q0 -11 -19 -7q-112 25 -112 103q0 52 51 103.5t123 69.5q53 13 126.5 26.5t113.5 24t68 28.5q5 3 9 3q11 0 11 -8q0 -3 -4 -6q-43 -28 -83 -98t-93 -186q0 -1 -1.5 -4t-1.5 -4q0 -4 4 -4
q2 0 6 2q8 4 24 11t18 8q15 -3 23 2q70 53 170 148t168.5 149.5t119.5 61.5q42 6 71 6q50 0 50 -20z" />
    <glyph glyph-name="L.alt" unicode="&#xe01b;" horiz-adv-x="764" 
d="M930 627q0 -18 -5 -33q-6 -17 -15 -17q-7 0 -9 11q-5 23 -19 39t-36 16q-19 0 -42 -13q-33 -19 -78.5 -86.5t-86.5 -145t-103.5 -173.5t-122.5 -159q-2 -2 -2 -3q0 -4 7 -8q220 -116 314 -116q34 0 45 15q6 9 13 9t7 -8q0 -6 -5 -11q-50 -54 -121 -54q-110 0 -301 117
q-6 4 -19 -9q-61 -58 -137.5 -88.5t-148.5 -30.5q-95 0 -141 48q-17 17 -17 48q0 46 43 89.5t129 62.5q62 14 104 14q72 0 182 -57q1 0 3 -1t3 -1q3 0 11 10q27 36 68.5 117.5l76 153.5t84.5 144t98 102q93 59 161 68q29 4 44.5 -10t15.5 -40zM327 25q0 3 -6 6
q-123 72 -208 72q-80 0 -121 -63q-20 -31 -20 -60q0 -35 31 -54t81 -19q57 0 118.5 25.5t108.5 73.5q16 16 16 19z" />
    <glyph glyph-name="Lslash.alt" unicode="&#xe01c;" horiz-adv-x="764" 
d="M930 627q0 -18 -5 -33q-6 -17 -15 -17q-7 0 -9 11q-5 23 -19 39t-36 16q-19 0 -42 -13q-33 -19 -70.5 -75t-95.5 -158l-12 -22q103 11 138 25q22 8 37 22q14 14 28 9q6 -4 -2 -13q-26 -34 -44 -50.5t-42 -26.5q-37 -15 -150 -26q-94 -160 -178 -249q-2 -2 -2 -3
q0 -4 7 -8q220 -116 314 -116q34 0 45 15q6 9 13 9t7 -8q0 -6 -5 -11q-50 -54 -121 -54q-110 0 -301 117q-6 4 -19 -9q-61 -58 -137.5 -88.5t-148.5 -30.5q-95 0 -141 48q-17 17 -17 48q0 46 43 89.5t129 62.5q62 14 104 14q72 0 182 -57q1 0 3 -1t3 -1q3 0 11 10
q33 45 117 215q-94 -8 -131 -19q-17 -5 -40 -21q-9 -6 -18 -5t-9 7t35 36q34 28 62 39q30 13 130 22q100 193 181 243q93 59 161 68q29 4 44.5 -10t15.5 -40zM327 25q0 3 -6 6q-123 72 -208 72q-80 0 -121 -63q-20 -31 -20 -60q0 -35 31 -54t81 -19q57 0 118.5 25.5
t108.5 73.5q16 16 16 19z" />
    <glyph glyph-name="M.alt" unicode="&#xe01d;" horiz-adv-x="1052" 
d="M1117 678q0 -14 -42 -38q-56 -127 -105.5 -293.5t-58.5 -280.5q-3 -44 6.5 -72.5t31.5 -28.5q16 0 33 13q12 9 17 9q6 0 6 -6q0 -5 -3 -9q-16 -20 -41.5 -33.5t-51.5 -13.5q-32 0 -57 19q-27 21 -27 91q0 150 103 420q6 16 -5 16q-3 0 -8 -5q-142 -128 -210.5 -204
t-100.5 -150q0 -1 -2 -15.5t-7 -34.5t-13 -37q-16 -33 -39 -52.5t-40 -16.5q-8 1 -8 16q0 28 27 88q5 11 6 29q4 56 -18.5 179t-26.5 165q-1 13 -6 13t-13 -17q-113 -273 -241 -417q-61 -69 -123.5 -107t-111.5 -35q-29 2 -47.5 18.5t-11.5 51.5q5 21 18 21t28 -23
q22 -31 54 -31q61 0 145.5 101t163.5 277l66 144l56 121q3 6 3 10q0 8 -22 7q-167 -7 -257 -73q-68 -51 -68 -119q0 -52 39 -94q7 -9 7 -15t-6 -6t-19 7q-75 44 -75 104q0 41 32.5 81t76.5 64q68 37 155.5 55.5t155 25.5t85.5 17q9 4 19 4q16 0 16 -7q0 -6 -8 -10
q-32 -17 -32 -82q0 -42 20 -151.5t21 -155.5q0 -16 4 -16q5 0 12 10q47 60 168.5 183.5t157.5 169.5q26 32 31 40q25 40 58 58q42 21 56 27q6 3 13 3q14 0 14 -9z" />
    <glyph glyph-name="N.alt" unicode="&#xe01e;" horiz-adv-x="841" 
d="M1089 671q0 -8 -5 -15t-11 -7t-9 6q-12 22 -33 22q-13 0 -32 -11q-71 -43 -148 -206t-162 -409q-4 -11 -4 -27q0 -12 3 -21q7 -20 -25 -54q-16 -17 -28 -17q-11 0 -11 12q0 3 4 12q4 10 4 21q0 16 -11 46q-107 298 -181 408q-9 12 -11 12q-4 0 -11 -18
q-77 -221 -135.5 -335t-116.5 -165q-73 -65 -148 -65q-35 0 -57.5 18.5t-24.5 54.5q-2 39 14 39q8 0 16.5 -8t10.5 -15q19 -55 74 -55q32 0 66 21.5t61 62.5q39 59 70.5 152t53 170.5t34.5 98.5q15 23 35 37t32.5 19.5t13.5 8.5q-83 90 -169 90q-73 0 -125.5 -57t-52.5 -119
q0 -23 9 -41q4 -8 4 -11q0 -7 -6 -7q-5 0 -11 7q-36 40 -36 85q0 46 33.5 85t92.5 60q100 36 164 36q70 0 125.5 -41.5t109.5 -144.5t108 -280q4 -13 6 -13l5 17q102 445 271 530q94 46 118 46q25 0 26 -35z" />
    <glyph glyph-name="Ntilde.alt" unicode="&#xe01f;" horiz-adv-x="841" 
d="M843 740q4 -4 -1 -11q-40 -48 -89 -48q-28 0 -60 15q-8 3 -30 14.5t-38 17.5t-26 6q-22 0 -35 -27q-3 -4 -6 -4q-10 2 -1 15q38 55 83 55q29 1 84 -29q47 -26 70 -26q24 0 42 21q1 2 3.5 2.5t3.5 -1.5zM1089 671q0 -8 -5 -15t-11 -7t-9 6q-12 22 -33 22q-13 0 -32 -11
q-71 -43 -148 -206t-162 -409q-4 -11 -4 -27q0 -12 3 -21q7 -20 -25 -54q-16 -17 -28 -17q-11 0 -11 12q0 3 4 12q4 10 4 21q0 16 -11 46q-107 298 -181 408q-9 12 -11 12q-4 0 -11 -18q-77 -221 -135.5 -335t-116.5 -165q-73 -65 -148 -65q-35 0 -57.5 18.5t-24.5 54.5
q-2 39 14 39q8 0 16.5 -8t10.5 -15q19 -55 74 -55q32 0 66 21.5t61 62.5q39 59 70.5 152t53 170.5t34.5 98.5q15 23 35 37t32.5 19.5t13.5 8.5q-83 90 -169 90q-73 0 -125.5 -57t-52.5 -119q0 -23 9 -41q4 -8 4 -11q0 -7 -6 -7q-5 0 -11 7q-36 40 -36 85q0 46 33.5 85
t92.5 60q100 36 164 36q70 0 125.5 -41.5t109.5 -144.5t108 -280q4 -13 6 -13l5 17q102 445 271 530q94 46 118 46q25 0 26 -35z" />
    <glyph glyph-name="O.alt" unicode="&#xe020;" horiz-adv-x="747" 
d="M780 469q0 -79 -39 -170t-116 -174q-119 -127 -296 -202q-47 -20 -96 -20q-70 0 -115 44.5t-45 119.5q0 107 92 237q-31 14 -49 44.5t-18 67.5q0 48 31 91q71 97 178 145t215 48q54 0 99 -12q78 -21 118.5 -79.5t40.5 -139.5zM703 439q0 91 -35 138q-72 95 -191 95
q-65 0 -133.5 -29t-114.5 -73q-69 -65 -69 -153q0 -55 29 -81q42 57 91.5 101t91 66t69 32.5t42.5 12.5q13 2 13 -7q0 -6 -19 -14q-114 -45 -234 -226q15 -11 27 -12q18 -3 18 -10q0 -9 -24 -9q-16 0 -36 5q-63 -105 -63 -189q0 -62 34 -98t91 -36q60 0 125 37
q118 66 191 167q97 133 97 283z" />
    <glyph glyph-name="Oacute.alt" unicode="&#xe021;" horiz-adv-x="747" 
d="M665 870q-2 -14 -10 -18q-6 -3 -171 -91q-4 -2 -10 -2q-3 0 -3 3q0 5 5 10q30 29 86 76.5t74 59.5q4 2 6 2q9 -1 16 -14t7 -26zM780 469q0 -79 -39 -170t-116 -174q-119 -127 -296 -202q-47 -20 -96 -20q-70 0 -115 44.5t-45 119.5q0 107 92 237q-31 14 -49 44.5
t-18 67.5q0 48 31 91q71 97 178 145t215 48q54 0 99 -12q78 -21 118.5 -79.5t40.5 -139.5zM703 439q0 91 -35 138q-72 95 -191 95q-65 0 -133.5 -29t-114.5 -73q-69 -65 -69 -153q0 -55 29 -81q42 57 91.5 101t91 66t69 32.5t42.5 12.5q13 2 13 -7q0 -6 -19 -14
q-114 -45 -234 -226q15 -11 27 -12q18 -3 18 -10q0 -9 -24 -9q-16 0 -36 5q-63 -105 -63 -189q0 -62 34 -98t91 -36q60 0 125 37q118 66 191 167q97 133 97 283z" />
    <glyph glyph-name="Ocircumflex.alt" unicode="&#xe022;" horiz-adv-x="747" 
d="M707 767q2 -5 -4 -7q-4 -2 -8 4l-17 23l-15 21t-12.5 16.5t-12.5 14t-12 9.5t-13.5 6.5t-14.5 1.5q-37 0 -154 -76q-2 -1 -6 -1q-7 3 -7 5q1 2 4 5q122 113 169 113q27 -1 45.5 -27t50.5 -93q5 -10 7 -15zM780 469q0 -79 -39 -170t-116 -174q-119 -127 -296 -202
q-47 -20 -96 -20q-70 0 -115 44.5t-45 119.5q0 107 92 237q-31 14 -49 44.5t-18 67.5q0 48 31 91q71 97 178 145t215 48q54 0 99 -12q78 -21 118.5 -79.5t40.5 -139.5zM703 439q0 91 -35 138q-72 95 -191 95q-65 0 -133.5 -29t-114.5 -73q-69 -65 -69 -153q0 -55 29 -81
q42 57 91.5 101t91 66t69 32.5t42.5 12.5q13 2 13 -7q0 -6 -19 -14q-114 -45 -234 -226q15 -11 27 -12q18 -3 18 -10q0 -9 -24 -9q-16 0 -36 5q-63 -105 -63 -189q0 -62 34 -98t91 -36q60 0 125 37q118 66 191 167q97 133 97 283z" />
    <glyph glyph-name="Odieresis.alt" unicode="&#xe023;" horiz-adv-x="747" 
d="M780 469q0 -79 -39 -170t-116 -174q-119 -127 -296 -202q-47 -20 -96 -20q-70 0 -115 44.5t-45 119.5q0 107 92 237q-31 14 -49 44.5t-18 67.5q0 48 31 91q71 97 178 145t215 48q54 0 99 -12q78 -21 118.5 -79.5t40.5 -139.5zM703 439q0 91 -35 138q-72 95 -191 95
q-65 0 -133.5 -29t-114.5 -73q-69 -65 -69 -153q0 -55 29 -81q42 57 91.5 101t91 66t69 32.5t42.5 12.5q13 2 13 -7q0 -6 -19 -14q-114 -45 -234 -226q15 -11 27 -12q18 -3 18 -10q0 -9 -24 -9q-16 0 -36 5q-63 -105 -63 -189q0 -62 34 -98t91 -36q60 0 125 37
q118 66 191 167q97 133 97 283zM685 821q-1 -22 -14 -36t-27 -14q-21 0 -28 23q0 12 1 14q3 6 28 11.5t36 13.5q3 2 4 -3q1 -4 0 -9zM547 821q-1 -23 -13.5 -37t-27.5 -13q-19 0 -28 23q0 12 1 14q4 6 29 11.5t36 13.5q1 1 2 -2.5t1 -9.5z" />
    <glyph glyph-name="Ograve.alt" unicode="&#xe024;" horiz-adv-x="747" 
d="M642 761q-4 -4 -11 0q-78 41 -169 112q-3 1 -3 5q1 9 16.5 18t29.5 10q13 0 17 -7q5 -10 116 -126q7 -9 4 -12zM780 469q0 -79 -39 -170t-116 -174q-119 -127 -296 -202q-47 -20 -96 -20q-70 0 -115 44.5t-45 119.5q0 107 92 237q-31 14 -49 44.5t-18 67.5q0 48 31 91
q71 97 178 145t215 48q54 0 99 -12q78 -21 118.5 -79.5t40.5 -139.5zM703 439q0 91 -35 138q-72 95 -191 95q-65 0 -133.5 -29t-114.5 -73q-69 -65 -69 -153q0 -55 29 -81q42 57 91.5 101t91 66t69 32.5t42.5 12.5q13 2 13 -7q0 -6 -19 -14q-114 -45 -234 -226
q15 -11 27 -12q18 -3 18 -10q0 -9 -24 -9q-16 0 -36 5q-63 -105 -63 -189q0 -62 34 -98t91 -36q60 0 125 37q118 66 191 167q97 133 97 283z" />
    <glyph glyph-name="Otilde.alt" unicode="&#xe025;" horiz-adv-x="747" 
d="M714 819q4 -4 -1 -11q-40 -48 -89 -48q-28 0 -60 15q-8 3 -30 14.5t-38 17.5t-26 6q-22 0 -35 -27q-3 -4 -6 -4q-10 2 -1 15q38 55 83 55q29 1 84 -29q47 -26 70 -26q24 0 42 21q1 2 3.5 2.5t3.5 -1.5zM780 469q0 -79 -39 -170t-116 -174q-119 -127 -296 -202
q-47 -20 -96 -20q-70 0 -115 44.5t-45 119.5q0 107 92 237q-31 14 -49 44.5t-18 67.5q0 48 31 91q71 97 178 145t215 48q54 0 99 -12q78 -21 118.5 -79.5t40.5 -139.5zM703 439q0 91 -35 138q-72 95 -191 95q-65 0 -133.5 -29t-114.5 -73q-69 -65 -69 -153q0 -55 29 -81
q42 57 91.5 101t91 66t69 32.5t42.5 12.5q13 2 13 -7q0 -6 -19 -14q-114 -45 -234 -226q15 -11 27 -12q18 -3 18 -10q0 -9 -24 -9q-16 0 -36 5q-63 -105 -63 -189q0 -62 34 -98t91 -36q60 0 125 37q118 66 191 167q97 133 97 283z" />
    <glyph glyph-name="P.alt" unicode="&#xe026;" horiz-adv-x="738" 
d="M810 477q0 -66 -48 -118q-58 -65 -136 -100t-140 -35q-45 0 -61 18q-8 10 -8 19q0 17 12 17q4 0 7 -3q28 -25 77 -25q52 0 105.5 30.5t89.5 89.5q21 34 21 79q0 85 -72.5 153t-198.5 68q-102 0 -190 -62q-63 -43 -102 -105t-39 -123q0 -39 12 -62q4 -8 4 -14q0 -7 -6 -7
q-10 0 -25 15q-36 36 -36 90q0 61 43.5 125.5t124.5 108.5q109 60 255 60q139 0 225 -65.5t86 -153.5zM562 546q0 -7 -13 -7q-28 0 -56.5 -43t-56.5 -111.5l-57.5 -142.5t-71 -147.5t-86.5 -114.5q-83 -75 -167 -75q-68 0 -79 61q-1 6 -1 16q0 18 13 18q7 0 16 -6.5
t11 -12.5q18 -48 64 -48q33 0 71.5 27.5t67.5 74.5q33 54 88 216.5t82 215.5q25 48 61.5 67.5t91.5 20.5q22 0 22 -9z" />
    <glyph glyph-name="Q.alt" unicode="&#xe027;" horiz-adv-x="740" 
d="M853 -155q0 -43 -30 -81q-7 -9 -14 -9q-6 0 -6 8q0 5 3 14q3 12 3 19q0 21 -9.5 41.5t-33 44t-74.5 38t-124 14.5q-103 0 -237 -29q-59 -36 -126 -36q-15 0 -21 2q-177 -52 -266 -83q-15 -6 -26 -6q-13 0 -13 8q0 4 8 14q19 20 62 55.5t59 43.5q14 7 44 7q19 0 19 -3
q0 -1 -3 -3q-3 -1 -14 -6t-15 -7l-13.5 -7t-15 -8.5t-13 -9t-13.5 -12t-11 -13.5q-4 -5 -4 -8t4 -3t14 4q31 12 82.5 29.5l65.5 22.5q-78 44 -78 156q0 116 92 247q-66 33 -66 111q0 49 31 92q71 96 179.5 144t216.5 48q54 0 98 -12q75 -20 112.5 -74.5t37.5 -133.5
q0 -132 -95 -280t-248 -234q120 22 206 22q121 0 176.5 -36.5t55.5 -90.5zM688 422q0 91 -35 138q-70 95 -194 95q-65 0 -130 -27t-115 -73q-70 -66 -70 -153q0 -55 29 -81q121 162 285 210q6 2 10 2q13 0 13 -7q0 -6 -19 -14q-113 -44 -235 -226q15 -10 27 -12
q19 -3 19 -10q0 -9 -25 -9q-16 0 -36 5q-64 -108 -64 -192q0 -63 34 -99t91 -36q59 0 128 39q77 44 135 102t90 118.5t47 118t15 111.5z" />
    <glyph glyph-name="R.alt" unicode="&#xe028;" horiz-adv-x="723" 
d="M746 473q0 -69 -59 -125q-81 -75 -201 -108q-6 -2 -6 -4q0 -1 2 -3q14 -13 30.5 -41.5t43.5 -83l44 -86.5q46 -84 91 -84q11 0 17 3q1 1 5.5 0t5.5 -2q2 -2 -3 -5q-44 -30 -85 -30q-69 0 -121 99q-70 134 -92.5 170t-38.5 41q-7 2 -11 1.5t-8 -1.5t-5 -1q-4 0 -4 5
q0 4 3 14q4 12 39.5 24t53.5 12q5 0 9 -3.5t11 -3.5q96 0 169 99q30 40 30 93q0 29 -11.5 59t-37.5 61t-78 51t-123 20q-59 0 -120 -25.5t-106 -65.5q-98 -86 -98 -182q0 -24 7 -44q2 -5 2 -12t-5 -7q-7 0 -23 16q-27 28 -27 72q0 102 120 189q115 82 292 82
q133 0 210.5 -57t77.5 -137zM546 535q0 -3 -12 -6q-33 -9 -74 -75.5t-76.5 -146.5t-92.5 -170.5t-115 -135.5q-85 -66 -162 -66q-64 0 -74 57q-2 14 -2 17q0 24 16 24q20 0 34 -28q21 -42 59 -42q61 0 131 89q42 54 106.5 203t87.5 189q33 58 68 77t83 19q23 0 23 -5z" />
    <glyph glyph-name="S.alt" unicode="&#xe029;" horiz-adv-x="608" 
d="M672 712q0 -5 -8 -16q-82 -112 -120 -227q-1 -5 -8 -5q-6 0 -11.5 5t-2.5 12q13 33 13 60q0 20 -10 45q-17 40 -78 40q-64 0 -92 -48q-13 -22 -13 -49q0 -30 21 -62.5t49 -57.5t63 -62t54 -68q28 -46 28 -89q0 -98 -118 -181q-117 -83 -241 -83q-70 0 -123 29
q-83 46 -83 127q0 48 26 91t64 63q7 4 13 4q3 0 3 -3q0 -5 -12 -18q-39 -44 -39 -96q0 -65 52.5 -116.5t133.5 -51.5q39 0 79 13q81 26 122.5 71.5t41.5 99.5q0 46 -29 90q-15 23 -65.5 71t-85.5 95t-35 91q0 31 19 62q58 89 197 109q7 1 22 1q25 0 46 -6.5t23 -14.5
q1 -7 6 -7q6 0 13 12q4 7 13 26.5t12 23.5q4 6 7.5 8.5t7 3.5t10 2.5t12.5 4.5q12 6 18 6q5 0 5 -5z" />
    <glyph glyph-name="Scaron.alt" unicode="&#xe02a;" horiz-adv-x="608" 
d="M672 712q0 -5 -8 -16q-82 -112 -120 -227q-1 -5 -8 -5q-6 0 -11.5 5t-2.5 12q13 33 13 60q0 20 -10 45q-17 40 -78 40q-64 0 -92 -48q-13 -22 -13 -49q0 -30 21 -62.5t49 -57.5t63 -62t54 -68q28 -46 28 -89q0 -98 -118 -181q-117 -83 -241 -83q-70 0 -123 29
q-83 46 -83 127q0 48 26 91t64 63q7 4 13 4q3 0 3 -3q0 -5 -12 -18q-39 -44 -39 -96q0 -65 52.5 -116.5t133.5 -51.5q39 0 79 13q81 26 122.5 71.5t41.5 99.5q0 46 -29 90q-15 23 -65.5 71t-85.5 95t-35 91q0 31 19 62q58 89 197 109q7 1 22 1q25 0 46 -6.5t23 -14.5
q1 -7 6 -7q6 0 13 12q4 7 13 26.5t12 23.5q4 6 7.5 8.5t7 3.5t10 2.5t12.5 4.5q12 6 18 6q5 0 5 -5zM659 836q-1 -2 -4 -5q-122 -113 -169 -113q-27 1 -45.5 27t-50.5 93q-5 10 -7 15t4 7q4 2 8 -4l17 -23l15 -21t12.5 -16.5t12.5 -14t12 -9.5t13.5 -6.5t14.5 -1.5
q37 0 154 76q2 1 6 1q7 -3 7 -5z" />
    <glyph glyph-name="T.alt" unicode="&#xe02b;" horiz-adv-x="712" 
d="M969 640q0 -9 -4 -18q-16 -34 -89 -53.5t-166 -19.5q-29 0 -43 1q-44 -14 -82.5 -89t-113.5 -275q-25 -68 -74 -120t-105 -70q-4 -1 -4 -4q1 -2 4 -1q77 10 135 10q41 0 71.5 -5t44.5 -12t14 -14q0 -4 -5 -7q-23 -16 -64 -36q-6 -3 -9 -3q-5 0 -5 4t5 7q8 5 8 9
q0 7 -12.5 13.5t-39.5 11t-63 4.5q-121 0 -280 -48q-12 -3 -18 -3q-7 0 -7 4t6 9q47 29 61 32l48 9.5l49 9.5q20 4 38 13q68 37 104 117q21 48 40.5 108t30.5 103.5t28 89t36 74t51.5 47.5t76.5 21q8 0 8 2t-14 5l-148.5 35.5t-144.5 33.5q-31 6 -60 6q-79 0 -130 -43
q-53 -45 -53 -115q0 -85 80 -158q9 -9 9 -14q0 -6 -8 -6t-26 8q-106 52 -106 146q0 47 26 90.5t67 73.5q99 71 211 71q55 0 108 -15q43 -12 156.5 -48.5t152.5 -43.5q19 -3 38 -3q92 0 132 68q8 12 17 12q7 0 12.5 -7t5.5 -17z" />
    <glyph glyph-name="Thorn.alt" unicode="&#xe02c;" horiz-adv-x="658" 
d="M677 357q-8 -68 -66 -127t-137 -72q-45 -9 -82 -9q-19 0 -45 6q-5 1 -8.5 5.5t-2.5 9.5q1 6 5.5 10t8.5 2q20 -5 36 -5q69 -1 123 56t62 122q5 44 -19.5 71.5t-85.5 24.5q-39 -2 -69 -21q-43 -95 -94 -233q-26 -69 -77 -123t-110 -73q-6 -1 -6 -3t6 -2q80 10 140 10
q44 0 75.5 -5t44.5 -12t13 -14q0 -5 -5 -8q-24 -16 -66 -37q-6 -3 -9 -3q-5 0 -5 4q0 3 6 7q8 5 8 10q0 7 -13 13.5t-40.5 11t-63.5 4.5q-123 0 -291 -50q-10 -3 -17 -3q-9 0 -9 5t7 9q35 26 62 33q17 4 52.5 10.5t47.5 8.5q25 4 39 14q73 42 108 121q22 49 42.5 111
t33 107.5t31 93.5t39.5 79t56 53.5t81 27.5q8 2 8 4q0 5 -16 6q-39 3 -72 3q-235 0 -246 -143q-1 -20 -10 -20q-6 0 -12 6q-18 18 -18 41q0 33 31 59q95 81 313 81q36 0 55 -1q10 -1 27 -1q44 0 73 10q15 5 20 5q7 0 7 -5t-9 -8q-32 -10 -70.5 -25.5t-50.5 -19.5
q-46 -16 -94 -112l92 3q95 3 134 -32t32 -91z" />
    <glyph glyph-name="U.alt" unicode="&#xe02d;" horiz-adv-x="890" 
d="M1026 645q0 -7 -2 -10q-32 -62 -135 -203q-31 -43 -51 -92q-86 -214 -86 -315q0 -56 26 -56q8 0 17 6q5 3 10 3q7 0 7 -5q0 -2 -7 -11q-26 -28 -66 -28q-34 0 -48 23q-14 22 -14 71q0 85 39 196q7 19 7 22q0 2 -2 2q-3 0 -11 -9q-278 -308 -391 -308q-25 0 -44 14
q-40 29 -40 92q0 162 237 490q3 3 -3 4h-2q-202 -29 -296 -91.5t-94 -135.5q0 -74 76 -120q5 -3 5 -8q0 -7 -12 -7q-52 1 -89 35t-37 83q0 34 22 71q80 129 378 195l67 14l76 14.5t66 12.5q7 1 7 -2q0 -5 -15 -20q-99 -99 -194.5 -260.5t-97.5 -265.5q-2 -54 39 -54
q33 0 85 41q91 71 152.5 135.5t141.5 167.5q15 19 23 37q108 237 167 295q17 15 37 15t36 -11.5t16 -26.5z" />
    <glyph glyph-name="Uacute.alt" unicode="&#xe02e;" horiz-adv-x="890" 
d="M906 772q-2 -14 -10 -18q-6 -3 -171 -91q-4 -2 -10 -2q-3 0 -3 3q0 5 5 10q30 29 86 76.5t74 59.5q4 2 6 2q9 -1 16 -14t7 -26zM1026 645q0 -7 -2 -10q-32 -62 -135 -203q-31 -43 -51 -92q-86 -214 -86 -315q0 -56 26 -56q8 0 17 6q5 3 10 3q7 0 7 -5q0 -2 -7 -11
q-26 -28 -66 -28q-34 0 -48 23q-14 22 -14 71q0 85 39 196q7 19 7 22q0 2 -2 2q-3 0 -11 -9q-278 -308 -391 -308q-25 0 -44 14q-40 29 -40 92q0 162 237 490q3 3 -3 4h-2q-202 -29 -296 -91.5t-94 -135.5q0 -74 76 -120q5 -3 5 -8q0 -7 -12 -7q-52 1 -89 35t-37 83
q0 34 22 71q80 129 378 195l67 14l76 14.5t66 12.5q7 1 7 -2q0 -5 -15 -20q-99 -99 -194.5 -260.5t-97.5 -265.5q-2 -54 39 -54q33 0 85 41q91 71 152.5 135.5t141.5 167.5q15 19 23 37q108 237 167 295q17 15 37 15t36 -11.5t16 -26.5z" />
    <glyph glyph-name="Ucircumflex.alt" unicode="&#xe02f;" horiz-adv-x="890" 
d="M916 709q2 -5 -4 -7q-4 -2 -8 4l-17 23l-15 21t-12.5 16.5t-12.5 14t-12 9.5t-13.5 6.5t-14.5 1.5q-37 0 -154 -76q-2 -1 -6 -1q-7 3 -7 5q1 2 4 5q122 113 169 113q27 -1 45.5 -27t50.5 -93q5 -10 7 -15zM1026 645q0 -7 -2 -10q-32 -62 -135 -203q-31 -43 -51 -92
q-86 -214 -86 -315q0 -56 26 -56q8 0 17 6q5 3 10 3q7 0 7 -5q0 -2 -7 -11q-26 -28 -66 -28q-34 0 -48 23q-14 22 -14 71q0 85 39 196q7 19 7 22q0 2 -2 2q-3 0 -11 -9q-278 -308 -391 -308q-25 0 -44 14q-40 29 -40 92q0 162 237 490q3 3 -3 4h-2q-202 -29 -296 -91.5
t-94 -135.5q0 -74 76 -120q5 -3 5 -8q0 -7 -12 -7q-52 1 -89 35t-37 83q0 34 22 71q80 129 378 195l67 14l76 14.5t66 12.5q7 1 7 -2q0 -5 -15 -20q-99 -99 -194.5 -260.5t-97.5 -265.5q-2 -54 39 -54q33 0 85 41q91 71 152.5 135.5t141.5 167.5q15 19 23 37
q108 237 167 295q17 15 37 15t36 -11.5t16 -26.5z" />
    <glyph glyph-name="Udieresis.alt" unicode="&#xe030;" horiz-adv-x="890" 
d="M897 749q-1 -22 -14 -36t-27 -14q-21 0 -28 23q0 12 1 14q3 6 28 11.5t36 13.5q3 2 4 -3q1 -4 0 -9zM759 749q-1 -23 -13.5 -37t-27.5 -13q-19 0 -28 23q0 12 1 14q4 6 29 11.5t36 13.5q1 1 2 -2.5t1 -9.5zM1026 645q0 -7 -2 -10q-32 -62 -135 -203q-31 -43 -51 -92
q-86 -214 -86 -315q0 -56 26 -56q8 0 17 6q5 3 10 3q7 0 7 -5q0 -2 -7 -11q-26 -28 -66 -28q-34 0 -48 23q-14 22 -14 71q0 85 39 196q7 19 7 22q0 2 -2 2q-3 0 -11 -9q-278 -308 -391 -308q-25 0 -44 14q-40 29 -40 92q0 162 237 490q3 3 -3 4h-2q-202 -29 -296 -91.5
t-94 -135.5q0 -74 76 -120q5 -3 5 -8q0 -7 -12 -7q-52 1 -89 35t-37 83q0 34 22 71q80 129 378 195l67 14l76 14.5t66 12.5q7 1 7 -2q0 -5 -15 -20q-99 -99 -194.5 -260.5t-97.5 -265.5q-2 -54 39 -54q33 0 85 41q91 71 152.5 135.5t141.5 167.5q15 19 23 37
q108 237 167 295q17 15 37 15t36 -11.5t16 -26.5z" />
    <glyph glyph-name="Ugrave.alt" unicode="&#xe031;" horiz-adv-x="890" 
d="M847 674q-4 -4 -11 0q-78 41 -169 112q-3 2 -3 5q1 9 16.5 18t29.5 10q13 0 17 -7q5 -10 116 -126q7 -9 4 -12zM1026 645q0 -7 -2 -10q-32 -62 -135 -203q-31 -43 -51 -92q-86 -214 -86 -315q0 -56 26 -56q8 0 17 6q5 3 10 3q7 0 7 -5q0 -2 -7 -11q-26 -28 -66 -28
q-34 0 -48 23q-14 22 -14 71q0 85 39 196q7 19 7 22q0 2 -2 2q-3 0 -11 -9q-278 -308 -391 -308q-25 0 -44 14q-40 29 -40 92q0 162 237 490q3 3 -3 4h-2q-202 -29 -296 -91.5t-94 -135.5q0 -74 76 -120q5 -3 5 -8q0 -7 -12 -7q-52 1 -89 35t-37 83q0 34 22 71
q80 129 378 195l67 14l76 14.5t66 12.5q7 1 7 -2q0 -5 -15 -20q-99 -99 -194.5 -260.5t-97.5 -265.5q-2 -54 39 -54q33 0 85 41q91 71 152.5 135.5t141.5 167.5q15 19 23 37q108 237 167 295q17 15 37 15t36 -11.5t16 -26.5z" />
    <glyph glyph-name="V.alt" unicode="&#xe032;" horiz-adv-x="697" 
d="M995 640q3 -10 -1 -15.5t-9 -5.5t-8 6q-7 18 -31 18q-78 0 -250 -165t-318 -412q-10 -18 -10 -57q0 -14 -71 -97q-6 -7 -13 -7q-10 0 -10 13q13 30 12 46q-3 105 -18 300t-15 202q0 13 -5 13t-10 -4q-103 -71 -155 -149t-52 -141q0 -37 24 -70q8 -11 8 -16q0 -4 -4 -4
t-11 4q-65 37 -65 104q0 61 43 113q38 47 87 90t134 109.5l111 87.5q6 4 9 4q11 0 11 -11q0 -8 -18 -21q-1 -1 -7 -3.5t-9 -6t-3 -10.5q-1 -15 -1 -49q0 -68 11 -205.5t11 -173.5q0 -9 4 -9q6 0 12 11q185 281 329 426t222 145q51 0 66 -60z" />
    <glyph glyph-name="W.alt" unicode="&#xe033;" horiz-adv-x="1038" 
d="M1095 547q0 -103 -71 -240t-217 -283q-85 -85 -164 -85q-56 0 -90.5 46t-34.5 130q0 41 9 90q1 10 -3 10t-9 -8q-82 -113 -157 -184.5t-125 -75.5q-27 -2 -43.5 22.5t-16.5 71.5q0 145 145 414q4 8 4 9q0 2 -3 2q-1 0 -4.5 -1.5t-6.5 -2.5q-263 -110 -263 -261
q0 -33 14 -72q0 -1 1 -3t1 -3q0 -4 -3 -4q-2 0 -7 3q-56 47 -56 112q0 76 78 130q57 40 186.5 103.5t182.5 102.5q5 3 8 3q5 0 9 -3.5t4 -8.5t-8 -10q-45 -24 -71 -82q-123 -281 -123 -403q0 -60 27 -60q9 0 15 6q46 37 106 110t96 124.5t39 59.5q34 93 65 137t69 66
q4 2 6 2q12 0 12 -12q0 -7 -7 -11q-11 -6 -18 -22q-75 -174 -75 -298q0 -78 29.5 -120.5t75.5 -42.5q48 0 97 47q116 112 174 240.5t58 230.5q0 58 -17 97t-47 52q-13 6 -13 11q0 6 11 7q61 7 96 -33.5t35 -109.5z" />
    <glyph glyph-name="X.alt" unicode="&#xe034;" horiz-adv-x="761" 
d="M988 636q2 -8 -2 -17.5t-8 -9.5q-2 0 -14 14q-17 21 -39 21q-12 0 -26 -8q-73 -39 -346 -353q-12 -12 -9 -21q52 -151 85.5 -223t73.5 -93q11 -6 26 -6q14 0 29 9q2 2 5.5 0t3.5 -5q0 -5 -9 -10q-44 -26 -87 -26q-41 0 -74 25q-56 42 -123 244q-2 10 -7 10q-3 0 -9 -6
l-108 -116t-89.5 -87t-93.5 -72t-84 -37q-30 -8 -54 -8q-36 0 -59 16.5t-23 47.5q0 14 13 14q18 0 34 -19q24 -29 63 -29q54 0 107 43q37 30 80.5 76t66 74l69.5 90t52 68q9 12 9 18l-2 8q-52 144 -82.5 198t-71.5 54q-13 0 -30 -6q-60 -22 -113.5 -77t-53.5 -110
q0 -39 30 -72q6 -6 6 -10t-5 -4q-3 0 -11 3q-77 29 -77 84q0 65 90 137t211 103q13 4 27 4q29 0 52.5 -17t41.5 -52t29 -64t27 -78q3 -9 4 -13q4 -13 6 -13q1 0 8 9q145 179 214 243.5t133 71.5q68 7 69 7q37 0 45 -30z" />
    <glyph glyph-name="Y.alt" unicode="&#xe035;" horiz-adv-x="764" 
d="M990 663q0 -6 -4.5 -11.5t-9.5 -5.5q-3 0 -15 12q-8 8 -17 8t-25 -16q-41 -43 -92.5 -139.5t-102 -204l-106 -215.5t-123 -196.5t-134.5 -125.5q-46 -25 -80 -25q-51 0 -54 53q-1 18 16 18q13 0 24 -12q17 -20 44 -20q49 0 102 64q36 43 91 151.5t91 196.5q7 17 4 20
q-4 4 -13 -9q-90 -118 -171.5 -185.5t-131.5 -67.5q-29 0 -51.5 27.5t-22.5 86.5q0 80 43 198t110 239q2 3 -3 3q-4 0 -20 -4q-163 -44 -238 -113q-57 -51 -57 -108q0 -69 72 -113q5 -3 5 -7q0 -6 -11 -6q-50 1 -85 30t-35 75q0 79 98 152q78 58 225 110q35 12 98.5 31
l85.5 26q5 2 5 -3q-1 -5 -11 -18q-70 -92 -135 -239t-65 -242q0 -68 40 -68q94 0 333 355q6 7 18 35q61 130 107.5 194t94.5 80q60 20 73 20q17 0 28 -16q5 -10 5 -15z" />
    <glyph glyph-name="Yacute.alt" unicode="&#xe036;" horiz-adv-x="764" 
d="M990 663q0 -6 -4.5 -11.5t-9.5 -5.5q-3 0 -15 12q-8 8 -17 8t-25 -16q-41 -43 -92.5 -139.5t-102 -204l-106 -215.5t-123 -196.5t-134.5 -125.5q-46 -25 -80 -25q-51 0 -54 53q-1 18 16 18q13 0 24 -12q17 -20 44 -20q49 0 102 64q36 43 91 151.5t91 196.5q7 17 4 20
q-4 4 -13 -9q-90 -118 -171.5 -185.5t-131.5 -67.5q-29 0 -51.5 27.5t-22.5 86.5q0 80 43 198t110 239q2 3 -3 3q-4 0 -20 -4q-163 -44 -238 -113q-57 -51 -57 -108q0 -69 72 -113q5 -3 5 -7q0 -6 -11 -6q-50 1 -85 30t-35 75q0 79 98 152q78 58 225 110q35 12 98.5 31
l85.5 26q5 2 5 -3q-1 -5 -11 -18q-70 -92 -135 -239t-65 -242q0 -68 40 -68q94 0 333 355q6 7 18 35q61 130 107.5 194t94.5 80q60 20 73 20q17 0 28 -16q5 -10 5 -15zM802 773q0 -15 -10 -19q-6 -3 -171 -91q-4 -2 -9 -2q-4 0 -4 4t5 9q30 28 85 75.5t71 57.5q7 5 10 5
q8 0 15.5 -13t7.5 -26z" />
    <glyph glyph-name="Ydieresis.alt" unicode="&#xe037;" horiz-adv-x="764" 
d="M779 726q-1 -22 -14 -36t-27 -14q-21 0 -28 23q0 13 1 14q3 6 28 11.5t36 13.5q3 2 4 -3q1 -4 0 -9zM641 726q-1 -23 -13.5 -37t-27.5 -13q-19 0 -28 23q0 13 1 14q4 6 29 11.5t36 13.5q1 1 2 -2.5t1 -9.5zM990 663q0 -6 -4.5 -11.5t-9.5 -5.5q-3 0 -15 12q-8 8 -17 8
t-25 -16q-41 -43 -92.5 -139.5t-102 -204l-106 -215.5t-123 -196.5t-134.5 -125.5q-46 -25 -80 -25q-51 0 -54 53q-1 18 16 18q13 0 24 -12q17 -20 44 -20q49 0 102 64q36 43 91 151.5t91 196.5q7 17 4 20q-4 4 -13 -9q-90 -118 -171.5 -185.5t-131.5 -67.5
q-29 0 -51.5 27.5t-22.5 86.5q0 80 43 198t110 239q2 3 -3 3q-4 0 -20 -4q-163 -44 -238 -113q-57 -51 -57 -108q0 -69 72 -113q5 -3 5 -7q0 -6 -11 -6q-50 1 -85 30t-35 75q0 79 98 152q78 58 225 110q35 12 98.5 31l85.5 26q5 2 5 -3q-1 -5 -11 -18q-70 -92 -135 -239
t-65 -242q0 -68 40 -68q94 0 333 355q6 7 18 35q61 130 107.5 194t94.5 80q60 20 73 20q17 0 28 -16q5 -10 5 -15z" />
    <glyph glyph-name="Z.alt" unicode="&#xe038;" horiz-adv-x="676" 
d="M844 660q0 -16 -15.5 -38t-40.5 -39q-51 -36 -106 -43l-235 -207q-15 -14 -1 -14q52 -1 107 -11q9 -2 13.5 -5t3.5 -6q-2 -8 -20 -8q-65 0 -141 -2q-16 0 -25 -8l-87 -76.5t-109 -93.5q-9 -7 0 -7q10 0 22.5 -2t29 -7.5t30.5 -11l36.5 -15t37 -16.5l41 -19l41.5 -19
q192 -87 276 -86q50 0 77 28q10 10 18 6q7 -4 -2 -17q-42 -59 -147 -57q-45 1 -65 2t-69.5 13t-111.5 37l-58.5 24t-64 25.5l-54.5 20t-56 16t-43 4.5q-39 0 -68 -23q-62 -54 -66 -54q-3 0 -5.5 4t-3.5 10t0 12q0 14 10 26q4 4 9.5 9l12 11t10.5 9q16 47 37 62t59 15
q10 0 19 9l173 157q7 7 5.5 9.5t-11.5 1.5q-86 -4 -93 -9q-14 -9 -16 0q0 4 7 11q31 29 54.5 34t97.5 4q7 0 14 5l228 198l9 9q0 2 -12 2h-69.5t-67.5 -0.5t-55 -2t-55.5 -4t-43.5 -7.5t-42 -12q-58 -23 -92 -77q-7 -11 -16 -11q-8 0 -12 6t0 13q13 24 67 79q17 18 50 83
q15 28 44 28q16 0 10 -10q-16 -27 -40 -59q-9 -11 -4 -10q2 0 7 3q70 41 145 41q18 0 42.5 -2.5t43.5 -5t57 -8.5t62 -9q14 -3 26 7q126 100 162 100q29 0 29 -22z" />
    <glyph glyph-name="Zcaron.alt" unicode="&#xe039;" horiz-adv-x="676" 
d="M844 660q0 -16 -15.5 -38t-40.5 -39q-51 -36 -106 -43l-235 -207q-15 -14 -1 -14q52 -1 107 -11q9 -2 13.5 -5t3.5 -6q-2 -8 -20 -8q-65 0 -141 -2q-16 0 -25 -8l-87 -76.5t-109 -93.5q-9 -7 0 -7q10 0 22.5 -2t29 -7.5t30.5 -11l36.5 -15t37 -16.5l41 -19l41.5 -19
q192 -87 276 -86q50 0 77 28q10 10 18 6q7 -4 -2 -17q-42 -59 -147 -57q-45 1 -65 2t-69.5 13t-111.5 37l-58.5 24t-64 25.5l-54.5 20t-56 16t-43 4.5q-39 0 -68 -23q-62 -54 -66 -54q-3 0 -5.5 4t-3.5 10t0 12q0 14 10 26q4 4 9.5 9l12 11t10.5 9q16 47 37 62t59 15
q10 0 19 9l173 157q7 7 5.5 9.5t-11.5 1.5q-86 -4 -93 -9q-14 -9 -16 0q0 4 7 11q31 29 54.5 34t97.5 4q7 0 14 5l228 198l9 9q0 2 -12 2h-69.5t-67.5 -0.5t-55 -2t-55.5 -4t-43.5 -7.5t-42 -12q-58 -23 -92 -77q-7 -11 -16 -11q-8 0 -12 6t0 13q13 24 67 79q17 18 50 83
q15 28 44 28q16 0 10 -10q-16 -27 -40 -59q-9 -11 -4 -10q2 0 7 3q70 41 145 41q18 0 42.5 -2.5t43.5 -5t57 -8.5t62 -9q14 -3 26 7q126 100 162 100q29 0 29 -22zM679 778q-1 -2 -4 -5q-122 -113 -169 -113q-27 1 -45.5 27t-50.5 93q-5 10 -7 15t4 7q4 2 8 -4l17 -23
l15 -21t12.5 -16.5t12.5 -14t12 -9.5t13.5 -6.5t14.5 -1.5q37 0 154 76q2 1 6 1q7 -3 7 -5z" />
    <glyph glyph-name="a.alt" unicode="&#xe03a;" horiz-adv-x="532" 
d="M564 146q0 -14 -13 -31q-54 -70 -127 -113.5t-132 -43.5q-40 0 -63.5 23t-23.5 69q0 29 10 65q1 3 -1 4q-49 -59 -103 -93t-76 -34q-46 0 -46 46q0 34 27 101.5t76 123.5q76 89 171 89q40 0 48 -21q1 -4 4 -4t8 5q23 23 73 32q4 1 6 -3t2 -9q0 -9 -8 -12
q-18 -6 -52.5 -67.5t-61.5 -150.5q-10 -31 -10 -58q0 -35 17 -54t46 -19q42 0 93.5 39.5t94.5 113.5q15 25 27 25q4 0 9 -6.5t5 -16.5zM291 308q0 19 -26 19q-58 0 -129 -104q-62 -95 -62 -153q0 -25 14 -25q10 0 26 12q29 23 59.5 60t47.5 63.5t39.5 66.5t24.5 43
q6 10 6 18z" />
    <glyph glyph-name="aacute.alt" unicode="&#xe03b;" horiz-adv-x="532" 
d="M430 517q-2 -14 -10 -18q-6 -3 -171 -91q-4 -2 -10 -2q-3 0 -3 3q0 5 5 10q30 29 86 76.5t74 59.5q4 2 6 2q9 -1 16 -14t7 -26zM564 146q0 -14 -13 -31q-54 -70 -127 -113.5t-132 -43.5q-40 0 -63.5 23t-23.5 69q0 29 10 65q1 3 -1 4q-49 -59 -103 -93t-76 -34
q-46 0 -46 46q0 34 27 101.5t76 123.5q76 89 171 89q40 0 48 -21q1 -4 4 -4t8 5q23 23 73 32q4 1 6 -3t2 -9q0 -9 -8 -12q-18 -6 -52.5 -67.5t-61.5 -150.5q-10 -31 -10 -58q0 -35 17 -54t46 -19q42 0 93.5 39.5t94.5 113.5q15 25 27 25q4 0 9 -6.5t5 -16.5zM291 308
q0 19 -26 19q-58 0 -129 -104q-62 -95 -62 -153q0 -25 14 -25q10 0 26 12q29 23 59.5 60t47.5 63.5t39.5 66.5t24.5 43q6 10 6 18z" />
    <glyph glyph-name="acircumflex.alt" unicode="&#xe03c;" horiz-adv-x="532" 
d="M452 402q2 -5 -4 -7q-4 -2 -8 4l-17 23l-15 21t-12.5 16.5t-12.5 14t-12 9.5t-13.5 6.5t-14.5 1.5q-37 0 -154 -76q-2 -1 -6 -1q-7 3 -7 5q1 2 4 5q122 113 169 113q27 -1 45.5 -27t50.5 -93q5 -10 7 -15zM564 146q0 -14 -13 -31q-54 -70 -127 -113.5t-132 -43.5
q-40 0 -63.5 23t-23.5 69q0 29 10 65q1 3 -1 4q-49 -59 -103 -93t-76 -34q-46 0 -46 46q0 34 27 101.5t76 123.5q76 89 171 89q40 0 48 -21q1 -4 4 -4t8 5q23 23 73 32q4 1 6 -3t2 -9q0 -9 -8 -12q-18 -6 -52.5 -67.5t-61.5 -150.5q-10 -31 -10 -58q0 -35 17 -54t46 -19
q42 0 93.5 39.5t94.5 113.5q15 25 27 25q4 0 9 -6.5t5 -16.5zM291 308q0 19 -26 19q-58 0 -129 -104q-62 -95 -62 -153q0 -25 14 -25q10 0 26 12q29 23 59.5 60t47.5 63.5t39.5 66.5t24.5 43q6 10 6 18z" />
    <glyph glyph-name="adieresis.alt" unicode="&#xe03d;" horiz-adv-x="532" 
d="M564 146q0 -14 -13 -31q-54 -70 -127 -113.5t-132 -43.5q-40 0 -63.5 23t-23.5 69q0 29 10 65q1 3 -1 4q-49 -59 -103 -93t-76 -34q-46 0 -46 46q0 34 27 101.5t76 123.5q76 89 171 89q40 0 48 -21q1 -4 4 -4t8 5q23 23 73 32q4 1 6 -3t2 -9q0 -9 -8 -12
q-18 -6 -52.5 -67.5t-61.5 -150.5q-10 -31 -10 -58q0 -35 17 -54t46 -19q42 0 93.5 39.5t94.5 113.5q15 25 27 25q4 0 9 -6.5t5 -16.5zM291 308q0 19 -26 19q-58 0 -129 -104q-62 -95 -62 -153q0 -25 14 -25q10 0 26 12q29 23 59.5 60t47.5 63.5t39.5 66.5t24.5 43
q6 10 6 18zM428 472q-1 -22 -14 -36t-27 -14q-21 0 -28 23q0 13 1 14q3 6 28 11.5t36 13.5q3 2 4 -3q1 -4 0 -9zM290 472q-1 -23 -13.5 -37t-27.5 -13q-19 0 -28 23q0 13 1 14q4 6 29 11.5t36 13.5q1 1 2 -2.5t1 -9.5z" />
    <glyph glyph-name="agrave.alt" unicode="&#xe03e;" horiz-adv-x="532" 
d="M333 404q-4 -4 -11 0q-78 41 -169 112q-3 2 -3 5q1 9 16.5 18t29.5 10q13 0 17 -7q5 -10 116 -126q7 -9 4 -12zM564 146q0 -14 -13 -31q-54 -70 -127 -113.5t-132 -43.5q-40 0 -63.5 23t-23.5 69q0 29 10 65q1 3 -1 4q-49 -59 -103 -93t-76 -34q-46 0 -46 46
q0 34 27 101.5t76 123.5q76 89 171 89q40 0 48 -21q1 -4 4 -4t8 5q23 23 73 32q4 1 6 -3t2 -9q0 -9 -8 -12q-18 -6 -52.5 -67.5t-61.5 -150.5q-10 -31 -10 -58q0 -35 17 -54t46 -19q42 0 93.5 39.5t94.5 113.5q15 25 27 25q4 0 9 -6.5t5 -16.5zM291 308q0 19 -26 19
q-58 0 -129 -104q-62 -95 -62 -153q0 -25 14 -25q10 0 26 12q29 23 59.5 60t47.5 63.5t39.5 66.5t24.5 43q6 10 6 18z" />
    <glyph glyph-name="ampersand.alt" unicode="&#xe03f;" horiz-adv-x="749" 
d="M785 266q-7 -12 -26.5 -20.5t-33.5 -8.5h-29.5h-37.5h-32q-10 0 -12 -5q-12 -23 -58.5 -120.5t-47.5 -100.5q-3 -6 -1.5 -7.5t7.5 2.5l16.5 11t19.5 14q15 11 15 2q1 -8 -14 -19l-128 -97q-9 -7 -18.5 -7t-10.5 8q-3 20 29 48q11 11 41 78q-49 -29 -117 -46.5t-132 -16.5
q-71 1 -124 34.5t-54 95.5q-1 79 88 148t215 79q10 1 11.5 3t-9.5 10q-41 25 -41 65q1 49 63.5 92t153.5 43q71 0 81 -31q3 -10 9 1q2 4 11 28q3 8 9 11.5t14.5 5t12.5 3.5q13 7 13 -1q0 -3 -2 -6q-8 -12 -22.5 -30.5t-20.5 -27.5q-16 -23 -17 -29q-2 -22 -22 -34
q-30 -18 -28 -3q0 3 2 8q9 22 4 41.5t-23 29.5q-20 11 -42 11q-50 2 -90 -34.5t-32 -77.5q7 -38 40.5 -56.5t80.5 -15.5q24 1 22 -9q-2 -7 -10.5 -13t-17.5 -5q-42 8 -77 8q-126 1 -215 -65t-75 -143q10 -52 54 -77.5t107 -25.5q67 1 129 28.5t84 69.5q25 50 56 121
q-1 4 -4 4h-53q-23 0 -7 13.5t31 14.5q7 1 23.5 1.5t24.5 0.5q4 0 6 5q23 44 35.5 58.5t35.5 23.5q29 11 47 16q14 4 14 -5q1 -8 -11 -14q-18 -8 -29 -22.5t-35 -60.5q-3 -4 -1 -4q11 0 95 -3q32 -1 41 8q11 12 18 5q4 -3 1 -8z" />
    <glyph glyph-name="aring.alt" unicode="&#xe040;" horiz-adv-x="532" 
d="M378 471q0 -30 -21.5 -51.5t-51.5 -21.5t-51.5 21.5t-21.5 51.5t21.5 51.5t51.5 21.5t51.5 -21.5t21.5 -51.5zM358 471q0 22 -15 37.5t-38 15.5q-24 0 -38.5 -16.5t-14.5 -36.5q0 -24 16.5 -38.5t36.5 -14.5q24 0 38.5 16.5t14.5 36.5zM564 146q0 -14 -13 -31
q-54 -70 -127 -113.5t-132 -43.5q-40 0 -63.5 23t-23.5 69q0 29 10 65q1 3 -1 4q-49 -59 -103 -93t-76 -34q-46 0 -46 46q0 34 27 101.5t76 123.5q76 89 171 89q40 0 48 -21q1 -4 4 -4t8 5q23 23 73 32q4 1 6 -3t2 -9q0 -9 -8 -12q-18 -6 -52.5 -67.5t-61.5 -150.5
q-10 -31 -10 -58q0 -35 17 -54t46 -19q42 0 93.5 39.5t94.5 113.5q15 25 27 25q4 0 9 -6.5t5 -16.5zM291 308q0 19 -26 19q-58 0 -129 -104q-62 -95 -62 -153q0 -25 14 -25q10 0 26 12q29 23 59.5 60t47.5 63.5t39.5 66.5t24.5 43q6 10 6 18z" />
    <glyph glyph-name="atilde.alt" unicode="&#xe041;" horiz-adv-x="532" 
d="M472 484q4 -4 -1 -11q-40 -48 -89 -48q-28 0 -60 15q-8 3 -30 14.5t-38 17.5t-26 6q-22 0 -35 -27q-3 -4 -6 -4q-10 2 -1 15q38 55 83 55q29 1 84 -29q47 -26 70 -26q24 0 42 21q1 2 3.5 2.5t3.5 -1.5zM564 146q0 -14 -13 -31q-54 -70 -127 -113.5t-132 -43.5
q-40 0 -63.5 23t-23.5 69q0 29 10 65q1 3 -1 4q-49 -59 -103 -93t-76 -34q-46 0 -46 46q0 34 27 101.5t76 123.5q76 89 171 89q40 0 48 -21q1 -4 4 -4t8 5q23 23 73 32q4 1 6 -3t2 -9q0 -9 -8 -12q-18 -6 -52.5 -67.5t-61.5 -150.5q-10 -31 -10 -58q0 -35 17 -54t46 -19
q42 0 93.5 39.5t94.5 113.5q15 25 27 25q4 0 9 -6.5t5 -16.5zM291 308q0 19 -26 19q-58 0 -129 -104q-62 -95 -62 -153q0 -25 14 -25q10 0 26 12q29 23 59.5 60t47.5 63.5t39.5 66.5t24.5 43q6 10 6 18z" />
    <glyph glyph-name="b.alt" unicode="&#xe042;" horiz-adv-x="377" 
d="M485 693q1 -12 -5.5 -19.5t-15.5 -7.5q-5 0 -10 5q-15 19 -30 19q-12 0 -31 -11q-35 -21 -69.5 -61.5t-66.5 -99t-54 -105.5l-52 -114q-9 -22 -14 -32q-7 -18 -17 -37q42 48 117.5 97.5t118.5 49.5q38 0 38 -43q0 -41 -30.5 -107.5t-86.5 -123.5q-53 -55 -116.5 -87.5
t-112.5 -25.5q-7 1 -16.5 3t-12.5 2q-9 3 -17 3t-20 -4q-13 -4 -13 4q0 1 4 9q8 9 30 74t54 151.5t72 177.5t96 167t115 105q95 46 118 46q24 0 27 -35zM309 303q1 21 -15 21t-43 -19q-70 -52 -112.5 -104t-84.5 -142q-8 -16 -8 -25q0 -18 36 -18q35 0 77 27.5t77 73.5
q67 86 73 186z" />
    <glyph glyph-name="c.alt" unicode="&#xe043;" horiz-adv-x="444" 
d="M562 228q0 -20 -19 -45q-71 -91 -177 -149q-118 -63 -231 -63q-66 0 -99.5 33t-33.5 86q0 59 39 123.5t105 107.5q61 39 110 39q24 0 39 -9.5t14 -25.5q-1 -26 -13.5 -41.5t-26.5 -15.5q-10 0 -16.5 8.5t-3.5 24.5q3 13 -3 19.5t-15 6.5q-34 0 -70 -47q-77 -97 -77 -178
q0 -51 28 -75t74 -24q80 0 172 59q102 65 165 171q11 19 18 19q21 0 21 -24z" />
    <glyph glyph-name="ccedilla.alt" unicode="&#xe044;" horiz-adv-x="444" 
d="M562 228q0 -20 -19 -45q-71 -91 -177 -149q-118 -63 -231 -63q-16 0 -23 1q-22 -6 -22 -13q0 -4 7 -8q31 -14 31 -37q0 -35 -85 -59q-5 -1 -5 3q1 1 1 2q54 40 54 64q0 10 -8 14q-30 15 -30 30q0 10 9 17q-62 30 -62 105q0 59 39 123.5t105 107.5q61 39 110 39
q24 0 39 -9.5t14 -25.5q-1 -26 -13.5 -41.5t-26.5 -15.5q-10 0 -16.5 8.5t-3.5 24.5q3 13 -3 19.5t-15 6.5q-34 0 -70 -47q-77 -97 -77 -178q0 -51 28 -75t74 -24q80 0 172 59q102 65 165 171q11 19 18 19q21 0 21 -24z" />
    <glyph glyph-name="d.alt" unicode="&#xe045;" horiz-adv-x="546" 
d="M704 693q1 -12 -6 -19.5t-15 -7.5t-16 12t-24 12q-12 0 -31 -11q-55 -32 -124 -148.5t-116 -227.5t-65 -178q-9 -31 -9 -56q0 -36 18 -56t47 -20q41 0 91.5 39t93.5 112q15 25 27 25q5 0 9.5 -6.5t4.5 -16.5q0 -14 -13 -31q-53 -69 -125 -112t-131 -43q-43 0 -68 25.5
t-25 76.5q0 22 4 44q5 18 5 29q0 4 -2 4q-4 0 -18 -17q-49 -61 -101 -94t-79 -36q-25 -3 -36.5 11t-11.5 40q0 33 26 100.5t74 124.5q79 91 173 91q40 0 47 -15q1 -2 3 -3t3 1q27 58 45 93t52.5 92.5t72 96.5t76.5 58q94 46 117 46q24 0 27 -35zM295 308q0 26 -32 26
q-56 0 -122 -97q-29 -43 -48 -89.5t-19 -75.5q0 -26 15 -26q8 0 26 13q58 47 108 116.5t70 120.5q2 4 2 12z" />
    <glyph glyph-name="dotlessi.alt" unicode="&#xe046;" horiz-adv-x="325" 
d="M373 147q0 -15 -13 -32q-53 -69 -127 -113t-131 -44q-39 0 -63.5 23.5t-24.5 69.5q0 28 9 64q8 30 38.5 93.5t35.5 86.5q5 25 -15 25q-13 0 -29 -5q-11 -3 -11 7q0 8 8 10q73 20 111 28q32 7 32 -21q0 -15 -9 -33q-64 -128 -87 -190q-13 -36 -13 -64q0 -30 15 -46t41 -16
q41 0 94 41t98 116q14 24 26 24q5 0 10 -7.5t5 -16.5z" />
    <glyph glyph-name="e.alt" unicode="&#xe047;" horiz-adv-x="454" 
d="M557 229q0 -18 -19 -41q-64 -83 -156 -138q-126 -77 -254 -77q-66 0 -99.5 33t-33.5 86q0 59 39 124t106 109q60 39 110 39q51 0 51 -33q-1 -101 -169 -152q-7 -2 -7 5q0 10 11 15q98 45 107 106q4 27 -18 27q-34 0 -70 -48q-41 -54 -60.5 -99.5t-15.5 -96.5
q4 -40 32 -60.5t72 -20.5q89 0 187 67q92 64 148 157l3 6l3 6t3 4t4 3t5 1q8 0 14.5 -5.5t6.5 -16.5z" />
    <glyph glyph-name="eacute.alt" unicode="&#xe048;" horiz-adv-x="454" 
d="M401 520q-2 -14 -10 -18q-6 -3 -171 -91q-4 -2 -10 -2q-3 0 -3 3q0 5 5 10q30 29 86 76.5t74 59.5q4 2 6 2q9 -1 16 -14t7 -26zM557 229q0 -18 -19 -41q-64 -83 -156 -138q-126 -77 -254 -77q-66 0 -99.5 33t-33.5 86q0 59 39 124t106 109q60 39 110 39q51 0 51 -33
q-1 -101 -169 -152q-7 -2 -7 5q0 10 11 15q98 45 107 106q4 27 -18 27q-34 0 -70 -48q-41 -54 -60.5 -99.5t-15.5 -96.5q4 -40 32 -60.5t72 -20.5q89 0 187 67q92 64 148 157l3 6l3 6t3 4t4 3t5 1q8 0 14.5 -5.5t6.5 -16.5z" />
    <glyph glyph-name="ecircumflex.alt" unicode="&#xe049;" horiz-adv-x="454" 
d="M364 388q2 -5 -4 -7q-4 -2 -8 4l-17 23l-15 21t-12.5 16.5t-12.5 14t-12 9.5t-13.5 6.5t-14.5 1.5q-37 0 -154 -76q-2 -1 -6 -1q-7 3 -7 5q1 2 4 5q122 113 169 113q27 -1 45.5 -27t50.5 -93q5 -10 7 -15zM557 229q0 -18 -19 -41q-64 -83 -156 -138q-126 -77 -254 -77
q-66 0 -99.5 33t-33.5 86q0 59 39 124t106 109q60 39 110 39q51 0 51 -33q-1 -101 -169 -152q-7 -2 -7 5q0 10 11 15q98 45 107 106q4 27 -18 27q-34 0 -70 -48q-41 -54 -60.5 -99.5t-15.5 -96.5q4 -40 32 -60.5t72 -20.5q89 0 187 67q92 64 148 157l3 6l3 6t3 4t4 3t5 1
q8 0 14.5 -5.5t6.5 -16.5z" />
    <glyph glyph-name="edieresis.alt" unicode="&#xe04a;" horiz-adv-x="454" 
d="M369 482q-1 -22 -14 -36t-27 -14q-21 0 -28 23q0 13 1 14q3 6 28 11.5t36 13.5q3 2 4 -3q1 -4 0 -9zM231 482q-1 -23 -13.5 -37t-27.5 -13q-19 0 -28 23q0 13 1 14q4 6 29 11.5t36 13.5q1 1 2 -2.5t1 -9.5zM557 229q0 -18 -19 -41q-64 -83 -156 -138q-126 -77 -254 -77
q-66 0 -99.5 33t-33.5 86q0 59 39 124t106 109q60 39 110 39q51 0 51 -33q-1 -101 -169 -152q-7 -2 -7 5q0 10 11 15q98 45 107 106q4 27 -18 27q-34 0 -70 -48q-41 -54 -60.5 -99.5t-15.5 -96.5q4 -40 32 -60.5t72 -20.5q89 0 187 67q92 64 148 157l3 6l3 6t3 4t4 3t5 1
q8 0 14.5 -5.5t6.5 -16.5z" />
    <glyph glyph-name="egrave.alt" unicode="&#xe04b;" horiz-adv-x="454" 
d="M333 404q-4 -4 -11 0q-78 41 -169 112q-3 2 -3 5q1 9 16.5 18t29.5 10q13 0 17 -7q5 -10 116 -126q7 -9 4 -12zM557 229q0 -18 -19 -41q-64 -83 -156 -138q-126 -77 -254 -77q-66 0 -99.5 33t-33.5 86q0 59 39 124t106 109q60 39 110 39q51 0 51 -33q-1 -101 -169 -152
q-7 -2 -7 5q0 10 11 15q98 45 107 106q4 27 -18 27q-34 0 -70 -48q-41 -54 -60.5 -99.5t-15.5 -96.5q4 -40 32 -60.5t72 -20.5q89 0 187 67q92 64 148 157l3 6l3 6t3 4t4 3t5 1q8 0 14.5 -5.5t6.5 -16.5z" />
    <glyph glyph-name="eight.alt" unicode="&#xe04c;" horiz-adv-x="407" 
d="M406 436q0 -80 -130 -161q-5 -3 -5 -6q0 -5 11 -12q86 -63 86 -131q0 -63 -72 -117q-61 -46 -140 -46q-38 0 -69 10q-35 11 -55 36.5t-20 59.5q0 44 35 88t108 80q15 9 9 14q-48 38 -48 82q0 40 38 74t107 52q10 3 16.5 -0.5t6.5 -8.5q0 -8 -23 -15q-30 -9 -51.5 -29
t-21.5 -45q0 -31 40 -68q5 -5 10 -5q4 0 10 5q98 75 106 149q1 8 1 20q0 21 -9.5 29.5t-35.5 8.5q-16 0 -16 12q0 6 5 11t14 5q30 0 57 -20.5t33 -47.5q3 -12 3 -24zM304 99q0 51 -105 119q-4 3 -8 3q-9 0 -19 -8q-85 -61 -85 -131q0 -31 19 -54t52 -32q12 -3 25 -3
q30 0 58.5 15t45.5 42t17 49z" />
    <glyph glyph-name="f.alt" unicode="&#xe04d;" horiz-adv-x="266" 
d="M489 646q0 -21 -18 -21q-13 0 -24 7q-18 10 -32 12.5t-27.5 -4t-22.5 -13.5t-25 -22q-36 -35 -124 -262q-2 -5 2 -5q21 -1 64.5 -4t44.5 -3q27 -1 40 9q17 15 24 6q3 -4 -2 -12q-19 -29 -61 -29h-122q-4 0 -7 -7q-100 -278 -157 -369q-38 -62 -89 -101.5t-130 -47.5
q-20 -2 -38.5 10t-16.5 26q0 6 5 14.5t12 7.5q8 -1 27 -15q15 -11 39 -11q42 -1 74.5 27.5t66.5 97.5q47 96 136 362q2 5 1 5.5t-5 0.5h-62q-13 0 -7 10q5 8 18 16t24 8h39q4 0 6 5q52 134 79 186t55 71q87 59 168 80q17 4 31 -5t14 -30z" />
    <glyph glyph-name="five.alt" unicode="&#xe04e;" horiz-adv-x="386" 
d="M379 357q-36 -66 -96 -66q-10 0 -28.5 2.5l-44 6t-36.5 4.5q-13 1 -19 -10l-47 -94q-2 -3 -2 -8q0 -10 12 -6q50 15 94 15q57 0 85.5 -27t28.5 -71q0 -58 -45 -118t-116 -83q-61 -20 -109 -20q-51 0 -78.5 20t-27.5 44q0 26 31 26q9 0 14.5 -4.5t12 -14t10.5 -13.5
q26 -26 60 -26q61 0 119.5 59t54.5 122q-2 38 -22.5 57.5t-52.5 19.5q-46 0 -91 -36q-2 -2 -5 -2q-10 0 -22 14t-10 28q52 105 95 177q9 15 13.5 18.5t19.5 2.5q28 -2 80 -10.5t71 -8.5q23 0 32 9q7 7 12 7q4 0 7 -4.5t0 -9.5z" />
    <glyph glyph-name="four.alt" unicode="&#xe04f;" horiz-adv-x="405" 
d="M389 140q0 -2 -3 -5q-17 -17 -24.5 -23t-24 -10.5t-44.5 -4.5q-8 0 -9 -3q-5 -13 -8.5 -26l-8 -28.5l-7.5 -25.5q-6 -22 -20 -28q-8 -3 -19.5 -8t-17.5 -8t-17.5 -9.5t-26.5 -16.5q-4 -2 -6 -2q-4 0 -4 5q0 10 11 18l6 6t5.5 8t5 9t5.5 11.5t5 13l6 17l6.5 19l8 23
t8.5 25.5q1 2 -3 3q-2 1 -8 1q-23 1 -98.5 4t-113.5 4q-2 0 1 9.5t8.5 20t9.5 13.5l80.5 59.5l134.5 97.5t126 85q8 4 11 4q14 0 9 -17q-10 -37 -36.5 -118t-37.5 -119q-1 -3 1 -5t10 -3q34 -2 38 -2q19 0 25 8q3 4 8 4q8 0 8 -6zM277 304q1 1 0.5 3t-1.5 3q-3 1 -7 -3
l-189 -144q-3 -3 -3 -4q0 -3 7 -4q31 -4 76.5 -7t55.5 -4q11 -1 13 7l25 81z" />
    <glyph glyph-name="g.alt" unicode="&#xe050;" horiz-adv-x="399" 
d="M455 374q0 -15 -27 -15q-20 0 -38 -25q-19 -27 -96.5 -225.5t-112.5 -255.5q-61 -100 -167 -173t-196 -73q-45 0 -76 20q-65 41 -65 119q0 77 55 132q6 6 13 6t7 -6t-7 -14q-20 -26 -20 -73q0 -25 6 -42q17 -50 54 -75t85 -25q87 0 153 66q22 23 44.5 56t37 58.5
t35.5 74.5t28.5 68t28.5 77t24 65l-4 2q-48 -56 -103 -90.5t-80 -34.5q-42 0 -42 45q0 13 3 28q11 49 36 99t60 92.5t82.5 69.5t97.5 27q41 0 48 -21q1 -3 4 -3q4 0 8 4q49 47 100 51q24 1 24 -9zM298 308q0 19 -26 19q-59 0 -127 -98.5t-68 -158.5q0 -25 15 -25q11 0 26 12
q20 15 41 37.5t36.5 42t33 46.5t26.5 42l22 38.5t15 26.5q6 10 6 18z" />
    <glyph glyph-name="h.alt" unicode="&#xe051;" horiz-adv-x="547" 
d="M587 144q0 -14 -14 -33q-54 -70 -128.5 -114t-133.5 -44q-88 0 -88 92q0 27 9 63q6 21 13.5 42t13.5 33.5l16.5 34t14.5 30.5q11 22 11 37q0 14 -13 14q-14 0 -39 -14q-51 -31 -114 -98t-95 -145q-1 -4 -3 -9l-3 -7.5t-2 -5.5q-7 -5 -34.5 -16t-37.5 -17q-4 -2 -6 -2
q-4 0 -4 4q0 6 12 18q8 7 30 71l54.5 151.5t73.5 178.5t98 168t116 106q95 46 117 46q24 0 27 -35q1 -12 -5.5 -19.5t-15.5 -7.5q-5 0 -10 5q-15 19 -30 19q-12 0 -31 -11q-20 -11 -40 -31t-35.5 -38.5t-35.5 -52l-32 -53.5t-32.5 -63l-28.5 -60l-30 -66l-27 -60
q-8 -17 -8 -22q0 -1 1 -1l12 8q47 35 102 65.5t94 40.5q13 4 27 4q40 0 40 -39q0 -16 -10 -41q-12 -27 -35.5 -73t-37.5 -85q-13 -36 -13 -63q0 -31 15.5 -47.5t41.5 -16.5q42 0 95.5 41t97.5 116q13 23 27 23q4 0 8.5 -6.5t4.5 -14.5z" />
    <glyph glyph-name="i.alt" unicode="&#xe052;" horiz-adv-x="325" 
d="M323 556q-25 -51 -71.5 -87.5t-81.5 -31.5q-10 1 -12 11q0 14 14.5 32t28.5 19q25 2 47.5 13.5t35.5 23.5t33 34q5 6 8 -1q2 -5 -2 -13zM373 147q0 -15 -13 -32q-53 -69 -126 -112.5t-131 -44.5q-42 0 -66 23.5t-23 72.5q0 26 9 61q8 30 38.5 93.5t35.5 86.5q4 18 -4 23
t-40 -3q-6 -1 -8.5 1.5t-1.5 6.5q0 10 27 16q18 3 48.5 10.5l42.5 10.5q29 6 32 -17q2 -14 -9 -37q-64 -128 -87 -190q-11 -30 -13 -61q-1 -33 15 -49.5t43 -15.5q42 1 94 42t96 115q21 35 32 21q9 -11 9 -21z" />
    <glyph glyph-name="iacute.alt" unicode="&#xe053;" horiz-adv-x="325" 
d="M307 517q-2 -14 -10 -18q-6 -3 -171 -91q-4 -2 -10 -2q-3 0 -3 3q0 5 5 10q30 29 86 76.5t74 59.5q4 2 6 2q9 -1 16 -14t7 -26zM373 147q0 -15 -13 -32q-53 -69 -127 -113t-131 -44q-39 0 -63.5 23.5t-24.5 69.5q0 28 9 64q8 30 38.5 93.5t35.5 86.5q5 25 -15 25
q-13 0 -29 -5q-11 -3 -11 7q0 8 8 10q73 20 111 28q32 7 32 -21q0 -15 -9 -33q-64 -128 -87 -190q-13 -36 -13 -64q0 -30 15 -46t41 -16q41 0 94 41t98 116q14 24 26 24q5 0 10 -7.5t5 -16.5z" />
    <glyph glyph-name="icircumflex.alt" unicode="&#xe054;" horiz-adv-x="325" 
d="M277 398q2 -5 -4 -7q-4 -2 -8 4l-17 23l-15 21t-12.5 16.5t-12.5 14t-12 9.5t-13.5 6.5t-14.5 1.5q-37 0 -154 -76q-2 -1 -6 -1q-7 3 -7 5q1 2 4 5q122 113 169 113q27 -1 45.5 -27t50.5 -93q5 -10 7 -15zM373 147q0 -15 -13 -32q-53 -69 -127 -113t-131 -44
q-39 0 -63.5 23.5t-24.5 69.5q0 28 9 64q8 30 38.5 93.5t35.5 86.5q5 25 -15 25q-13 0 -29 -5q-11 -3 -11 7q0 8 8 10q73 20 111 28q32 7 32 -21q0 -15 -9 -33q-64 -128 -87 -190q-13 -36 -13 -64q0 -30 15 -46t41 -16q41 0 94 41t98 116q14 24 26 24q5 0 10 -7.5t5 -16.5z
" />
    <glyph glyph-name="idieresis.alt" unicode="&#xe055;" horiz-adv-x="325" 
d="M265 474q-1 -22 -14 -36t-27 -14q-21 0 -28 23q0 13 1 14q3 6 28 11.5t36 13.5q3 2 4 -3q1 -4 0 -9zM127 474q-1 -23 -13.5 -37t-27.5 -13q-19 0 -28 23q0 13 1 14q4 6 29 11.5t36 13.5q1 1 2 -2.5t1 -9.5zM373 147q0 -15 -13 -32q-53 -69 -127 -113t-131 -44
q-39 0 -63.5 23.5t-24.5 69.5q0 28 9 64q8 30 38.5 93.5t35.5 86.5q5 25 -15 25q-13 0 -29 -5q-11 -3 -11 7q0 8 8 10q73 20 111 28q32 7 32 -21q0 -15 -9 -33q-64 -128 -87 -190q-13 -36 -13 -64q0 -30 15 -46t41 -16q41 0 94 41t98 116q14 24 26 24q5 0 10 -7.5t5 -16.5z
" />
    <glyph glyph-name="igrave.alt" unicode="&#xe056;" horiz-adv-x="325" 
d="M205 411q-4 -4 -11 0q-78 41 -169 112q-3 1 -3 5q1 9 16.5 18t29.5 10q13 0 17 -7q5 -10 116 -126q7 -9 4 -12zM373 147q0 -15 -13 -32q-53 -69 -127 -113t-131 -44q-39 0 -63.5 23.5t-24.5 69.5q0 28 9 64q8 30 38.5 93.5t35.5 86.5q5 25 -15 25q-13 0 -29 -5
q-11 -3 -11 7q0 8 8 10q73 20 111 28q32 7 32 -21q0 -15 -9 -33q-64 -128 -87 -190q-13 -36 -13 -64q0 -30 15 -46t41 -16q41 0 94 41t98 116q14 24 26 24q5 0 10 -7.5t5 -16.5z" />
    <glyph glyph-name="j.alt" unicode="&#xe057;" horiz-adv-x="201" 
d="M323 556q-25 -51 -71 -86.5t-82 -32.5q-11 1 -11 13q1 14 15 31t27 18q25 2 47.5 13.5t35.5 23.5t33 34q5 6 8 -1q2 -5 -2 -13zM258 383q0 -14 -18 -15q-24 -2 -51 -39q-15 -20 -46.5 -104l-65 -172t-88 -181t-112.5 -135q-135 -98 -230 -98q-78 0 -111 57t-9 122
q3 9 7.5 14t8.5 4q12 -2 8 -27q-7 -46 34 -88.5t99 -43.5q81 -2 155 63q47 41 87.5 124.5t65 164t59.5 162.5t71 119q8 9 7.5 11.5t-13.5 -1.5q-1 0 -21.5 -7.5t-33.5 -11.5q-14 -3 -14 8q-2 10 11 14q15 5 84.5 31.5t98.5 35.5q17 5 17 -7z" />
    <glyph glyph-name="k.alt" unicode="&#xe058;" horiz-adv-x="466" 
d="M493 693q1 -11 -6 -19t-15 -8q-4 0 -20 16q-6 8 -21 8q-11 0 -30 -11q-56 -34 -107.5 -115.5t-138.5 -270.5l-1 -5q1 1 8 6q115 94 186 93q42 0 44 -35q2 -18 -10 -38q-25 -40 -85.5 -79t-106.5 -47q-21 -3 -11 -18q107 -156 190 -161q31 -1 56 18q7 5 12.5 7.5t8.5 2
t4 -3.5q2 -6 -9 -14q-69 -55 -126 -55q-49 0 -91.5 34.5t-88.5 99.5q-34 48 -37 48t-6 -6q-43 -95 -43 -105q0 -9 -6 -11q-3 -1 -22.5 -10l-37.5 -17t-20 -8q-7 0 -5 7q0 6 8 14q13 12 38 77.5l58.5 151t74.5 175t97 164.5t115 104q97 47 119 46t25 -35zM321 313
q0 23 -25 25q-59 2 -145 -107q-5 -6 1 -11.5t13 -4.5q76 10 116.5 40t39.5 58z" />
    <glyph glyph-name="l.alt" unicode="&#xe059;" horiz-adv-x="328" 
d="M490 693q1 -11 -5 -18.5t-14 -8.5q-9 0 -21 15q-15 20 -51 -2q-55 -32 -124.5 -148.5t-116 -227.5t-65.5 -178q-8 -27 -8 -53q-1 -39 17 -59.5t49 -19.5q40 1 91 41.5t92 109.5q21 35 33 22q18 -22 -5 -51q-53 -69 -124 -111.5t-129 -43.5q-45 -1 -71.5 26t-24.5 82
q0 12 6 46q14 70 70 193t130.5 236.5t126.5 138.5q96 47 119 46q22 -1 25 -35z" />
    <glyph glyph-name="lslash.alt" unicode="&#xe05a;" horiz-adv-x="380" 
d="M542 693q1 -11 -5 -18.5t-14 -8.5q-9 0 -21 15q-8 11 -19 10.5t-32 -12.5q-88 -52 -210 -311q82 22 123 43q29 15 39 30q10 14 19 12q8 -4 3 -12q-34 -63 -55 -79q-27 -19 -155 -53q-50 -113 -70 -184q-6 -25 -8 -53q0 -39 17.5 -59.5t48.5 -19.5q40 1 91 41.5t92 109.5
q21 35 33 22q18 -22 -5 -51q-53 -69 -124 -111.5t-129 -43.5q-45 -1 -71 26t-25 82q1 20 6 46q15 68 62 173q-50 -13 -62 -18q-26 -12 -47 -34q-8 -7 -12.5 -5.5t-5.5 7.5q-2 8 21 37q25 31 45 42q32 17 90 32q59 120 123.5 215.5t112.5 118.5q96 47 119 46q22 -1 25 -35z
" />
    <glyph glyph-name="m.alt" unicode="&#xe05b;" horiz-adv-x="791" 
d="M830 147q0 -14 -14 -32q-54 -70 -127.5 -113.5t-132.5 -43.5q-88 0 -88 92q0 26 9 64q5 21 13 42.5t12 31t17 35.5t15 29q11 22 11 36q0 15 -14 15q-17 0 -39 -14q-53 -33 -111 -94t-96 -149l-10 -22q-5 -3 -73 -30q-12 -5 -12 7q0 3 2 13q8 30 54.5 124.5t52.5 113.5
q7 20 7 33q0 15 -11 15t-38 -16q-62 -36 -104.5 -92t-79.5 -146l-7 -22q-8 -5 -34 -15.5t-36 -16.5q-9 -5 -9 4q0 7 3 18q4 17 56.5 133t55.5 151q1 22 -20 22q-9 0 -31 -5q-13 -3 -13 8q0 7 9 10q64 19 121 30q11 2 17.5 -5t2.5 -24q-7 -34 -24 -73q-5 -13 -5 -14q1 0 9 6
q101 73 166 96q15 5 24 5q33 0 33 -41q0 -19 -9 -42q-7 -18 -9 -27q92 78 196 107q10 3 26 3q41 0 41 -38q0 -16 -10 -41q-12 -29 -35.5 -75.5t-36.5 -81.5q-14 -39 -14 -65q0 -31 15.5 -47.5t41.5 -16.5q42 0 95.5 41t97.5 116q13 23 27 23q4 0 8.5 -5.5t4.5 -16.5z" />
    <glyph glyph-name="n.alt" unicode="&#xe05c;" horiz-adv-x="577" 
d="M616 147q0 -14 -14 -32q-54 -70 -127.5 -113.5t-132.5 -43.5q-41 0 -64.5 23t-23.5 69q0 28 9 64l9.5 32t11.5 31t11 24l13.5 27t11.5 24q11 22 11 36q0 15 -14 15q-13 0 -38 -14q-52 -31 -115 -98t-94 -145l-8 -22q-8 -5 -36 -16t-38 -17q-3 -2 -5 1t-2 7q0 3 2 11
q5 16 59 134.5t57 154.5q3 23 -14 23q-8 0 -24 -7q-11 -5 -14 -5q-7 0 -7 5q0 4 6 7q19 11 76 34q14 6 27 6q23 0 23 -31q0 -28 -19 -78q-4 -9 -4 -13q0 -1 1 -1q4 0 10 5q110 83 195 107q10 3 26 3q41 0 41 -38q0 -16 -10 -41q-11 -27 -34.5 -73.5t-37.5 -85.5
q-13 -36 -13 -63q0 -31 15.5 -47.5t41.5 -16.5q42 0 95.5 41t97.5 116q14 23 26 23q4 0 8.5 -6t4.5 -16z" />
    <glyph glyph-name="nine.alt" unicode="&#xe05d;" horiz-adv-x="418" 
d="M400 248q0 -113 -116 -235q-54 -57 -133.5 -94t-128.5 -37q-15 0 -23 5q-12 7 -12 23q0 12 8.5 21t25.5 7q1 0 19.5 -3.5t26.5 -3.5q50 0 99 31.5t89 83.5q72 93 72 185q0 76 -59 111q-20 13 -45 13q-50 0 -90 -46t-40 -93q0 -34 22 -57t52 -23q45 0 90 45q18 18 26 18
q4 0 4 -5q0 -8 -17 -30q-61 -73 -153 -73q-42 0 -66.5 26t-24.5 67q0 50 37 102t108 86q45 22 90 22q61 0 100 -40.5t39 -105.5z" />
    <glyph glyph-name="ntilde.alt" unicode="&#xe05e;" horiz-adv-x="577" 
d="M431 466q4 -4 -1 -11q-40 -48 -89 -48q-28 0 -60 15q-8 3 -30 14.5t-38 17.5t-26 6q-22 0 -35 -27q-3 -4 -6 -4q-10 2 -1 15q38 55 83 55q29 1 84 -29q47 -26 70 -26q24 0 42 21q1 2 3.5 2.5t3.5 -1.5zM616 147q0 -14 -14 -32q-54 -70 -127.5 -113.5t-132.5 -43.5
q-41 0 -64.5 23t-23.5 69q0 28 9 64l9.5 32t11.5 31t11 24l13.5 27t11.5 24q11 22 11 36q0 15 -14 15q-13 0 -38 -14q-52 -31 -115 -98t-94 -145l-8 -22q-8 -5 -36 -16t-38 -17q-3 -2 -5 1t-2 7q0 3 2 11q5 16 59 134.5t57 154.5q3 23 -14 23q-8 0 -24 -7q-11 -5 -14 -5
q-7 0 -7 5q0 4 6 7q19 11 76 34q14 6 27 6q23 0 23 -31q0 -28 -19 -78q-4 -9 -4 -13q0 -1 1 -1q4 0 10 5q110 83 195 107q10 3 26 3q41 0 41 -38q0 -16 -10 -41q-11 -27 -34.5 -73.5t-37.5 -85.5q-13 -36 -13 -63q0 -31 15.5 -47.5t41.5 -16.5q42 0 95.5 41t97.5 116
q14 23 26 23q4 0 8.5 -6t4.5 -16z" />
    <glyph glyph-name="o.alt" unicode="&#xe05f;" horiz-adv-x="390" 
d="M391 285q0 -84 -65 -172.5t-178 -136.5q-27 -12 -52 -12q-37 0 -61.5 25.5t-24.5 67.5q0 60 50 136q-29 15 -29 53q0 43 39 90q34 41 82 62.5t97 21.5q29 0 56 -8q42 -12 64 -46t22 -81zM332 256q0 52 -18 80q-32 51 -97 51q-69 0 -118 -55q-32 -37 -32 -80q0 -27 15 -40
q56 80 135 106q6 1 10.5 -2t4.5 -7t-7 -7q-55 -23 -111 -112q2 -1 6.5 -3.5t6.5 -3.5q10 -3 10 -4q0 -4 -12 -4t-17 2q-23 -40 -23 -78q0 -35 19 -57t49 -22q25 0 50 15q68 41 98.5 101t30.5 120z" />
    <glyph glyph-name="oacute.alt" unicode="&#xe060;" horiz-adv-x="390" 
d="M386 571q-2 -14 -10 -18q-6 -3 -171 -91q-4 -2 -10 -2q-3 0 -3 3q0 5 5 10q30 29 86 76.5t74 59.5q4 2 6 2q9 -1 16 -14t7 -26zM391 285q0 -84 -65 -172.5t-178 -136.5q-27 -12 -52 -12q-37 0 -61.5 25.5t-24.5 67.5q0 60 50 136q-29 15 -29 53q0 43 39 90q34 41 82 62.5
t97 21.5q29 0 56 -8q42 -12 64 -46t22 -81zM332 256q0 52 -18 80q-32 51 -97 51q-69 0 -118 -55q-32 -37 -32 -80q0 -27 15 -40q56 80 135 106q6 1 10.5 -2t4.5 -7t-7 -7q-55 -23 -111 -112q2 -1 6.5 -3.5t6.5 -3.5q10 -3 10 -4q0 -4 -12 -4t-17 2q-23 -40 -23 -78
q0 -35 19 -57t49 -22q25 0 50 15q68 41 98.5 101t30.5 120z" />
    <glyph glyph-name="ocircumflex.alt" unicode="&#xe061;" horiz-adv-x="390" 
d="M407 442q2 -5 -4 -7q-4 -2 -8 4l-17 23l-15 21t-12.5 16.5t-12.5 14t-12 9.5t-13.5 6.5t-14.5 1.5q-37 0 -154 -76q-2 -1 -6 -1q-7 3 -7 5q1 2 4 5q122 113 169 113q27 -1 45.5 -27t50.5 -93q5 -10 7 -15zM391 285q0 -84 -65 -172.5t-178 -136.5q-27 -12 -52 -12
q-37 0 -61.5 25.5t-24.5 67.5q0 60 50 136q-29 15 -29 53q0 43 39 90q34 41 82 62.5t97 21.5q29 0 56 -8q42 -12 64 -46t22 -81zM332 256q0 52 -18 80q-32 51 -97 51q-69 0 -118 -55q-32 -37 -32 -80q0 -27 15 -40q56 80 135 106q6 1 10.5 -2t4.5 -7t-7 -7
q-55 -23 -111 -112q2 -1 6.5 -3.5t6.5 -3.5q10 -3 10 -4q0 -4 -12 -4t-17 2q-23 -40 -23 -78q0 -35 19 -57t49 -22q25 0 50 15q68 41 98.5 101t30.5 120z" />
    <glyph glyph-name="odieresis.alt" unicode="&#xe062;" horiz-adv-x="390" 
d="M391 285q0 -84 -65 -172.5t-178 -136.5q-27 -12 -52 -12q-37 0 -61.5 25.5t-24.5 67.5q0 60 50 136q-29 15 -29 53q0 43 39 90q34 41 82 62.5t97 21.5q29 0 56 -8q42 -12 64 -46t22 -81zM332 256q0 52 -18 80q-32 51 -97 51q-69 0 -118 -55q-32 -37 -32 -80q0 -27 15 -40
q56 80 135 106q6 1 10.5 -2t4.5 -7t-7 -7q-55 -23 -111 -112q2 -1 6.5 -3.5t6.5 -3.5q10 -3 10 -4q0 -4 -12 -4t-17 2q-23 -40 -23 -78q0 -35 19 -57t49 -22q25 0 50 15q68 41 98.5 101t30.5 120zM377 522q-1 -22 -14 -36t-27 -14q-21 0 -28 23q0 13 1 14q3 6 28 11.5
t36 13.5q3 2 4 -3q1 -4 0 -9zM239 522q-1 -23 -13.5 -37t-27.5 -13q-19 0 -28 23q0 13 1 14q4 6 29 11.5t36 13.5q1 1 2 -2.5t1 -9.5z" />
    <glyph glyph-name="ograve.alt" unicode="&#xe063;" horiz-adv-x="390" 
d="M335 467q-4 -4 -11 0q-78 41 -169 112q-3 1 -3 5q1 9 16.5 18t29.5 10q13 0 17 -7q5 -10 116 -126q7 -9 4 -12zM391 285q0 -84 -65 -172.5t-178 -136.5q-27 -12 -52 -12q-37 0 -61.5 25.5t-24.5 67.5q0 60 50 136q-29 15 -29 53q0 43 39 90q34 41 82 62.5t97 21.5
q29 0 56 -8q42 -12 64 -46t22 -81zM332 256q0 52 -18 80q-32 51 -97 51q-69 0 -118 -55q-32 -37 -32 -80q0 -27 15 -40q56 80 135 106q6 1 10.5 -2t4.5 -7t-7 -7q-55 -23 -111 -112q2 -1 6.5 -3.5t6.5 -3.5q10 -3 10 -4q0 -4 -12 -4t-17 2q-23 -40 -23 -78q0 -35 19 -57
t49 -22q25 0 50 15q68 41 98.5 101t30.5 120z" />
    <glyph glyph-name="one.alt" unicode="&#xe064;" horiz-adv-x="271" 
d="M255 384q0 -4 -3 -12q-87 -257 -112 -343q-6 -22 -19 -28l-24.5 -9t-29 -12.5t-30.5 -19.5q-4 -2 -5 -2q-5 0 -5 7q0 8 9 16t19 27.5t23 54l25 69l31.5 92.5l36.5 105q2 6 -1 6t-10 -4q-83 -41 -96 -87q-3 -9 -9 -9q-12 0 -12 20q0 24 29 48q11 9 30.5 20.5t37 20l48 24
l48.5 24.5q5 3 10 3q9 0 9 -11z" />
    <glyph glyph-name="orn.001" unicode="&#xe065;" horiz-adv-x="846" 
d="M797 468q0 -54 -34 -108q-8 -13 -36 -50t-37 -57q-19 -41 -19 -70q0 -13 4 -24.5t8 -18t4 -7.5q0 -8 -10 -13t-21 -5q-12 0 -14 5q-36 60 -97 87q-53 22 -137 24q-49 1 -89 29.5t-40 74.5q0 40 35 90q20 29 58 49.5t83 25.5q24 3 24 10t-26 13q-23 5 -42 5
q-86 0 -150.5 -69.5t-64.5 -166.5q0 -43 15 -88q35 7 69 7q79 0 120.5 -39t41.5 -84q0 -26 -13 -39t-15 -13q-5 0 -5 20q0 40 -41 86t-103 46q-22 0 -44 -7q18 -61 104.5 -117.5t150.5 -56.5q21 0 36 9q1 1 3 2l3 1.5t2 0.5q4 0 4 -5q0 -12 -15 -27q-1 -2 -5.5 -6t-6 -6
t-5.5 -6t-6.5 -6t-6.5 -4.5t-7 -4t-6.5 -2.5t-7.5 -1q-88 2 -172 64t-115 150q-56 -15 -81 -59t-25 -99q0 -15 -5 -15q-4 0 -8 8q-11 22 -11 42q0 43 33.5 85.5t85.5 61.5q-9 48 -9 88q0 182 170 257q53 23 103 23q78 0 135 -57q37 -36 57 -87t20 -101q0 -16 -1 -23
q-1 -21 -9 -21q-7 0 -9 19q-1 12 -7.5 37t-27.5 70t-52 80q-1 -2 -3 -5.5t-3 -6t-3 -5t-4 -4.5t-5 -3t-7 -1q-27 18 -65 18q-68 0 -103 -50q-20 -30 -20 -65q0 -48 38 -63t106.5 -19t102.5 -18q47 -19 66 -37l13 1q2 17 16 45t37 66.5t32 57.5q16 31 16 64q0 48 -27.5 86
t-67.5 38t-83 -44q-2 -2 -6 -2q-8 0 -8 9q0 10 15 24q38 35 95 35q48 0 91.5 -30t43.5 -98z" />
    <glyph glyph-name="orn.002" unicode="&#xe066;" horiz-adv-x="759" 
d="M634 471q-4 -37 -11.5 -63.5t-23.5 -52t-46.5 -36.5t-74.5 -6q5 59 45.5 111t110.5 47zM686 170q1 -7 -4 -3q-74 62 -190 62q-105 0 -198 -48q-129 -67 -154 -176q-2 -9 -4 -9l-4 8q-7 19 -26 32q-24 20 -22 36q2 21 14.5 39t36.5 34t44 26.5t55.5 27l53.5 25.5
q37 19 56.5 53.5t19.5 70.5q1 41 -20.5 67t-56.5 18q-8 -2 -8 3q0 4 11 7q62 14 104 -18.5t42 -85.5q0 -37 -23 -72q32 8 75 8q72 -1 129 -29t69 -76z" />
    <glyph glyph-name="orn.003" unicode="&#xe067;" horiz-adv-x="1815" 
d="M1752 243q0 -61 -57 -110q-8 -8 -12 -8t-4 5q0 3 5 10q16 20 16 52q0 31 -17 62.5t-51 60.5t-93.5 47t-135.5 18q-138 0 -315 -60q-558 -187 -700 -187q-60 0 -72 28q-3 6 -3 14q0 19 25 19q6 0 11 -9t16 -15q17 -9 46 -9q64 0 183.5 32.5t293.5 90.5t230 75
q188 56 335 56q145 0 222 -50.5t77 -121.5zM1439 322q0 -10 -12 -7q-13 3 -33 3q-63 0 -198 -41.5l-324 -101t-336 -88.5q-87 -18 -171 -18q-144 0 -226.5 52.5t-82.5 126.5q0 41 28 79t81 67q10 5 17 5q6 0 6 -4q0 -3 -6 -8q-59 -38 -59 -103q0 -69 75 -122t215 -53
q84 0 195 24q122 27 295.5 80.5t298 88.5t186.5 35q27 0 41 -5q10 -3 10 -10z" />
    <glyph glyph-name="otilde.alt" unicode="&#xe068;" horiz-adv-x="390" 
d="M424 529q4 -4 -1 -11q-40 -48 -89 -48q-28 0 -60 15q-8 3 -30 14.5t-38 17.5t-26 6q-22 0 -35 -27q-3 -4 -6 -4q-10 2 -1 15q38 55 83 55q29 1 84 -29q47 -26 70 -26q24 0 42 21q1 2 3.5 2.5t3.5 -1.5zM391 285q0 -84 -65 -172.5t-178 -136.5q-27 -12 -52 -12
q-37 0 -61.5 25.5t-24.5 67.5q0 60 50 136q-29 15 -29 53q0 43 39 90q34 41 82 62.5t97 21.5q29 0 56 -8q42 -12 64 -46t22 -81zM332 256q0 52 -18 80q-32 51 -97 51q-69 0 -118 -55q-32 -37 -32 -80q0 -27 15 -40q56 80 135 106q6 1 10.5 -2t4.5 -7t-7 -7
q-55 -23 -111 -112q2 -1 6.5 -3.5t6.5 -3.5q10 -3 10 -4q0 -4 -12 -4t-17 2q-23 -40 -23 -78q0 -35 19 -57t49 -22q25 0 50 15q68 41 98.5 101t30.5 120z" />
    <glyph glyph-name="p.alt" unicode="&#xe069;" horiz-adv-x="405" 
d="M393 299q-27 -127 -137 -227q-87 -79 -163 -79q-31 0 -34 11q-1 4 -6 -3.5t-8 -15.5q-78 -179 -218 -267q-109 -69 -192 -67q-80 1 -114.5 56.5t-7.5 121.5q3 8 7 12.5t7 3.5q11 -2 10 -30q-2 -42 39 -83t103 -41q70 0 144 57q52 40 98.5 126t75 168t61 161.5t58.5 106.5
q6 6 7.5 8t0 3t-11.5 -3l-13.5 -5.5t-20.5 -9.5t-19 -9q-6 -3 -11 0.5t-4 9.5q0 8 9 12l78.5 37t86.5 39q15 6 17 -6q1 -6 -3.5 -10.5t-13.5 -5.5q-15 -2 -65 -111q-9 -21 -12 -31q39 46 109 93.5t111 47.5q47 0 32 -70zM314 298q1 11 -3.5 15.5t-11.5 3.5q-14 -1 -36 -18
q-67 -52 -107.5 -102.5t-78.5 -135.5q-13 -27 -2 -35q10 -7 25 -7q28 2 64 26t69 64q77 95 81 189z" />
    <glyph glyph-name="q.alt" unicode="&#xe06a;" horiz-adv-x="378" 
d="M407 359q-2 -13 -11 -13q-26 0 -131 -241t-138 -339q136 135 197 133q22 -1 20 -20q-3 -23 -14 -46q-5 -11 -10 -9q-7 2 -4 10q3 9 -0.5 14t-14.5 4q-34 -3 -103.5 -54.5t-156.5 -157.5q-9 -10 -15 -10q-7 0 -9 13q-4 26 23 57q9 10 41.5 94.5l71.5 188.5t54 139
q-21 -33 -84.5 -81.5t-102.5 -48.5t-39 45q0 39 33.5 117.5t94.5 133.5q76 70 169 62q18 -2 24 -19q3 -8 12 1q25 25 85 38q4 1 6 -2.5t2 -8.5zM276 290q7 13 5 23t-12 12q-51 13 -120 -72q-32 -41 -58 -95.5t-26 -87.5q0 -25 13 -25q12 0 27 12q29 23 59.5 60t47.5 63.5
t39.5 66.5t24.5 43z" />
    <glyph glyph-name="r.alt" unicode="&#xe06b;" horiz-adv-x="308" 
d="M422 322q0 -6 -8.5 -14t-23.5 -14q-15 -5 -27 -5q-26 0 -55 34q-13 14 -15 14q-5 0 -14 -6q-91 -58 -208 -286l-8 -21q-9 -6 -28 -14l-19 -7q-26 -13 -28 -13q-4 0 -4 7q0 6 3 17q4 16 58.5 134.5t57.5 154.5q1 22 -19 22q-9 0 -31 -5q-13 -3 -13 8q0 9 8 11
q79 20 122 29q21 4 21 -16q0 -24 -37 -105q-4 -10 2 -10q2 0 3 2q76 110 145 166q11 10 28 10q23 0 34 -21l9 -17.5t9.5 -19t9 -15.5t10 -12t9.5 -4q9 0 9 -4z" />
    <glyph glyph-name="s.alt" unicode="&#xe06c;" horiz-adv-x="253" 
d="M229 374q0 -10 -9.5 -17.5t-27.5 -7.5q-35 0 -35 -32q0 -21 12 -45q22 -46 37 -91q5 -14 5 -35q0 -82 -86.5 -161.5t-165.5 -79.5q-30 0 -51 15q-17 13 -17 33q0 17 13 26q8 5 16 5q3 0 6.5 -1t7 -4t6 -5.5t8 -7.5t8.5 -8q14 -13 39 -13q47 0 90.5 41t43.5 102
q0 14 -3 29q-10 49 -33 110q-9 24 -9 45q0 44 48 88q41 37 70 37q12 0 19.5 -7t7.5 -16z" />
    <glyph glyph-name="scaron.alt" unicode="&#xe06d;" horiz-adv-x="253" 
d="M229 374q0 -10 -9.5 -17.5t-27.5 -7.5q-35 0 -35 -32q0 -21 12 -45q22 -46 37 -91q5 -14 5 -35q0 -82 -86.5 -161.5t-165.5 -79.5q-30 0 -51 15q-17 13 -17 33q0 17 13 26q8 5 16 5q3 0 6.5 -1t7 -4t6 -5.5t8 -7.5t8.5 -8q14 -13 39 -13q47 0 90.5 41t43.5 102
q0 14 -3 29q-10 49 -33 110q-9 24 -9 45q0 44 48 88q41 37 70 37q12 0 19.5 -7t7.5 -16zM359 555q-1 -2 -4 -5q-122 -113 -169 -113q-27 1 -45.5 27t-50.5 93q-5 10 -7 15t4 7q4 2 8 -4l17 -23l15 -21t12.5 -16.5t12.5 -14t12 -9.5t13.5 -6.5t14.5 -1.5q37 0 154 76q2 1 6 1
q7 -3 7 -5z" />
    <glyph glyph-name="seven.alt" unicode="&#xe06e;" horiz-adv-x="341" 
d="M358 367q0 -7 -7 -18l-59 -92.5l-68.5 -108l-56 -93.5t-48.5 -90.5t-21 -58.5q-3 -13 -5 -15q-14 -11 -25 -11q-21 0 -21 28q0 12 6 29q16 42 53 101.5t93 139t76 110.5q3 4 3 8q0 5 -9 5q-42 0 -95.5 3t-66.5 3q-43 0 -52 -15q-7 -12 -16 -12q-7 0 -7 9t6 19
q49 77 127 71q91 -7 114 -7q34 0 55 3q24 4 24 -8z" />
    <glyph glyph-name="six.alt" unicode="&#xe06f;" horiz-adv-x="433" 
d="M444 455q0 -13 -9 -22.5t-25 -7.5q-39 6 -44 6q-59 0 -120.5 -49.5t-100.5 -121.5t-39 -135q0 -71 53 -105q19 -12 43 -12q48 0 88 45q41 47 41 97q0 33 -19 55t-49 22q-42 0 -88 -46q-18 -18 -25 -18q-4 0 -4 5q0 11 18 31q28 30 53.5 45.5t66.5 24.5q15 3 29 3
q40 0 62 -24.5t22 -63.5q0 -51 -37.5 -104.5t-108.5 -88.5q-44 -22 -86 -22q-57 0 -93.5 38.5t-36.5 100.5q0 116 120 242q52 55 131.5 93t124.5 38q14 0 22 -5q11 -6 11 -21z" />
    <glyph glyph-name="t.alt" unicode="&#xe070;" horiz-adv-x="253" 
d="M357 342q0 -4 -3 -9q-19 -28 -60 -28h-115q-8 0 -11 -7l-38 -94l-37 -93.5t-19 -46.5q0 -1 -1 -3t-1 -3q0 -8 6 -4q182 104 210 155q6 10 11 10t5 -8q0 -6 -5 -18q-12 -29 -162.5 -134t-160.5 -119q-8 -11 -19 -11q-15 0 -15 15q0 22 33 61q9 11 28 54.5t50.5 123.5
l46.5 117q1 4 -4 5.5t-22 1.5h-50q-8 0 -8 4q0 7 16.5 17.5t30.5 10.5h49q4 0 6 5q53 121 73 147q8 11 16 17q15 11 38 19t28 10q8 4 14 4t6 -4q0 -6 -10 -12q-29 -17 -95 -182q-2 -5 2 -5q19 -1 54.5 -3.5l50.5 -3.5q23 -3 39 10q9 8 16 8t7 -7z" />
    </font>
</defs>
</svg>
