<?xml version="1.0" standalone="no"?>
<!DOCTYPE svg PUBLIC "-//W3C//DTD SVG 1.1//EN" "http://www.w3.org/Graphics/SVG/1.1/DTD/svg11.dtd" >
<svg xmlns="http://www.w3.org/2000/svg" xmlns:xlink="http://www.w3.org/1999/xlink" version="1.1">
<metadata>
Created by FontForge 20170731 at Sun Dec 11 17:05:08 2011
 By Aleksey,,,
cheese FR
</metadata>
<defs>
<font id="cheeseFR-Semi-expandedBold" horiz-adv-x="817" >
  <font-face 
    font-family="cheese FR"
    font-weight="400"
    font-stretch="semi-expanded"
    units-per-em="2048"
    panose-1="2 6 3 0 2 0 0 2 0 4"
    ascent="1638"
    descent="-410"
    x-height="976"
    cap-height="1225"
    bbox="-168 -286 2064 1638"
    underline-thickness="81"
    underline-position="-283"
    unicode-range="U+0020-2122"
  />
<missing-glyph horiz-adv-x="1209" 
 />
    <glyph glyph-name=".notdef" horiz-adv-x="1209" 
 />
    <glyph glyph-name=".null" horiz-adv-x="0" 
 />
    <glyph glyph-name="nonmarkingreturn" horiz-adv-x="1209" 
 />
    <glyph glyph-name="uni0020" unicode=" " horiz-adv-x="604" 
 />
    <glyph glyph-name="exclam" unicode="!" horiz-adv-x="387" 
d="M319 1263q0 -147 -4 -403q-7 -327 -8 -403q2 1 5 12l-224 3l16 791h215zM210 167q-57 0 -99.5 23t-42.5 59q0 32 44 56q41 22 94 22q54 0 98 -24t44 -58t-41.5 -56t-96.5 -22z" />
    <glyph glyph-name="quotedbl" unicode="&#x22;" horiz-adv-x="571" 
d="M499 1201q-11 -458 -9 -460l-144 -1q1 73 3 249l2 215zM223 1201q-4 -211 -4 -460l-147 -1l8 463z" />
    <glyph glyph-name="numbersign" unicode="#" horiz-adv-x="1200" 
d="M1160 991l-63 -168h-196l-58 -167h202l-61 -168h-201l-103 -286h-183l102 286h-172l-103 -286h-182l101 286h-200l63 168h197l60 167h-207l63 168h204l103 286h183l-102 -286h172l103 286h182l-101 -286h197zM722 823h-179l-60 -168h179z" />
    <glyph glyph-name="dollar" unicode="$" horiz-adv-x="924" 
d="M773 1005q-21 -32 -96 -108q-30 21 -60 37q-71 38 -128 39q1 -36 1 -212q152 -37 220 -95t68 -151q0 -96 -78.5 -153t-208.5 -57q-8 -53 -8 -114q-11 1 -22 3h-33q6 111 -3 112q-168 21 -273 110q20 24 101 102q41 -39 111 -58q34 -8 68 -15q8 225 3 219q-40 15 -106 38
q-182 67 -182 206q0 102 113 163q89 47 168 41q13 0 16 26q2 18 1 54q-2 35 -1 39l55 2q2 -41 4 -83q2 -36 11 -36q66 -5 142.5 -37.5t116.5 -71.5zM436 975q-136 0 -136 -82q0 -31 62 -74q56 -41 73 -41zM526 636q-5 2 -37 12l-1 -206l24 -1q112 0 112 87q0 73 -98 108z
" />
    <glyph glyph-name="percent" unicode="%" horiz-adv-x="1220" 
d="M524 977q0 -92 -52 -167q-64 -94 -177 -94q-134 0 -202 88q-54 71 -54 177q0 103 58 181q71 95 202 95q112 0 175 -106q50 -82 50 -174zM1034 1247q0 -4 -2 -6l-702 -1019l-142 -6q-4 3 -4 6v4l2 2l703 1029l141 -3q4 -4 4 -7zM1171 473q0 -90 -53 -166q-65 -93 -178 -93
q-134 0 -202 87q-54 71 -54 177q0 103 58 181q71 94 202 94q112 0 176 -105q51 -82 51 -175zM408 973q0 48 -28 90q-35 50 -95 50q-61 0 -96 -50q-29 -43 -29 -90q0 -50 28 -91q36 -53 97 -53q60 0 95 53q28 41 28 91zM1055 470q0 49 -28 90q-35 52 -95 52q-61 0 -95 -52
q-28 -41 -28 -90q0 -50 28 -90q34 -53 95 -53t95 53q28 40 28 90z" />
    <glyph glyph-name="ampersand" unicode="&#x26;" horiz-adv-x="1105" 
d="M922 609q92 -90 92 -98q0 -6 -56 -57q-16 -13 -42 -37.5t-26 -33.5q0 -19 52 -57q11 -7 29 -22q4 -2 8 -5v-1q-27 -32 -88 -92l-8 7q-1 1 -36 32q-55 48 -72 48q-15 0 -28 -6q-144 -95 -310 -95q-133 0 -218 73q-82 71 -82 179q0 192 192 273q23 9 23 29q0 9 -7 16
q-132 137 -132 246q0 282 368 282q146 0 242 -69q100 -72 100 -185q0 -180 -316 -353q-17 -9 -17 -24q0 -16 10 -25q23 -20 79 -71q75 -67 96 -67q14 0 23 4q50 27 124 109zM583 1107q-63 0 -115 -27q-80 -40 -80 -126t58 -141q14 -14 33 -14q7 0 11 2l5 1q67 25 138 72
q91 59 91 100q0 46 -44 89.5t-97 43.5zM630 458q-23 20 -82 71q-76 65 -96 66q-10 0 -14 -2q-44 -11 -73.5 -48t-29.5 -73q0 -48 36.5 -77t95.5 -29q79 0 156 46q18 10 18 24q0 13 -11 22z" />
    <glyph glyph-name="quotesingle" unicode="'" horiz-adv-x="268" 
d="M211 1201l-10 -473q1 1 2 13l-145 -1l7 464z" />
    <glyph glyph-name="parenleft" unicode="(" horiz-adv-x="369" 
d="M325 1260q-100 -245 -100 -519q0 -109 40.5 -327t40.5 -191l-122 -3q-57 93 -88 260q-26 140 -26 272q0 333 128 503q28 -6 127 5z" />
    <glyph glyph-name="parenright" unicode=")" horiz-adv-x="369" 
d="M201 1286q125 -184 125 -534q0 -119 -57 -359q-28 -104 -56 -209l-116 3q73 248 73 554q0 286 -94 541z" />
    <glyph glyph-name="asterisk" unicode="*" horiz-adv-x="699" 
d="M597 654q-16 -35 -59 -112q-24 26 -41 42q-62 62 -86 62q-42 0 -42 -32q0 -1 5 -23q11 -43 27 -128h-114q11 45 33 134l1 6q1 5 1 9q0 33 -42 33q-28 0 -88 -68l-30 -33q-51 85 -62 110q27 9 138 48q23 7 23 29t-26 31l-134 44q17 36 65 114l86 -88q12 -12 32 -12
q42 0 42 33q0 20 -32 154q19 -7 119 -10q-9 -43 -36 -117q-5 -16 -5 -26q0 -33 42 -33q28 0 86 67l29 32l40 -67q11 -18 28 -47l-136 -44q-26 -8 -26 -31q0 -21 25 -29z" />
    <glyph glyph-name="plus" unicode="+" horiz-adv-x="1192" 
d="M1018 595h-347v-344h-173v344h-349v171h349v343h173v-343h347v-171z" />
    <glyph glyph-name="comma" unicode="," horiz-adv-x="393" 
d="M152 118q1 12 19 46.5t18 48.5t-16 18q-13 1 -39 6q-87 25 -87 83v3q0 36 44 62q41 24 94 24q55 0 98 -26q45 -27 45 -64q0 -130 -176 -201z" />
    <glyph glyph-name="hyphen" unicode="-" horiz-adv-x="776" 
d="M707 759q0 -177 4 -167h-641v92v75h637z" />
    <glyph glyph-name="period" unicode="." horiz-adv-x="393" 
d="M187 208q-57 0 -97 28q-43 29 -43 73q0 39 44 66q41 25 94 25q55 0 99 -27.5t44 -68.5t-43 -68.5t-98 -27.5z" />
    <glyph glyph-name="slash" unicode="/" horiz-adv-x="657" 
d="M590 1243q-3 -9 -30 -80l-326 -866q-4 -11 -15 -42q-2 -9 -4 -23l-168 -5q4 12 32 87l43 112l283 770q3 10 11 34q2 5 2 16z" />
    <glyph glyph-name="zero" unicode="0" horiz-adv-x="1020" 
d="M534 165q-262 0 -395 175q-110 144 -110 365q0 215 118 376q141 193 395 193q160 0 277 -121q94 -96 138 -241q30 -99 30 -213q0 -191 -107 -346q-129 -188 -346 -188zM515 984q-126 0 -197 -111q-54 -86 -54 -182q0 -95 54 -182q71 -113 197 -113t196 113q53 86 53 182
t-53 181q-70 112 -196 112z" />
    <glyph glyph-name="one" unicode="1" horiz-adv-x="370" 
d="M325 1252l-24 -1044q2 2 3 12l-240 -5l14 1041z" />
    <glyph glyph-name="two" unicode="2" horiz-adv-x="883" 
d="M22 1118q63 82 170 139q116 61 233 61q417 0 417 -342q0 -206 -261 -327q-68 -28 -187 -82q-97 -48 -97 -102q0 -32 42 -32h445v-220h-763q0 1 2 28q2 23 1 40l1 99q0 305 378 433q37 11 109 40q76 38 76 85q0 42 -35.5 66.5t-90.5 24.5q-109 0 -280 -121q-6 11 -160 210
z" />
    <glyph glyph-name="three" unicode="3" horiz-adv-x="852" 
d="M2 1131q64 76 172 126q113 51 226 51q159 0 289 -93.5t130 -211.5q0 -148 -141 -248q-14 -9 -14 -24q0 -11 13 -22q142 -103 142 -232q0 -304 -419 -304q-112 0 -226 53q-111 49 -174 125q22 23 80 90q31 35 83 93q90 -56 127 -73q80 -36 149 -36q53 0 89.5 24t36.5 64
q0 64 -61 97q-52 28 -134 28q-26 0 -69 -1v205q28 -1 48 -1q87 0 144 26q72 33 72 100q0 39 -37 61q-33 18 -81 18q-131 0 -283 -102z" />
    <glyph glyph-name="four" unicode="4" horiz-adv-x="912" 
d="M879 645v-202q1 1 1 12h-64q-42 0 -42 -32l-2 -206l-244 -8v37q2 36 2 55v78v44q0 32 -42 32h-517q51 103 183 369l206 419l420 6l-4 -572q0 -32 42 -32h61zM530 945q0 32 -42 32q-27 0 -38 -20l-96 -188q-43 -84 -43 -92q0 -32 40 -32h139q40 0 40 32v268z" />
    <glyph glyph-name="five" unicode="5" horiz-adv-x="914" 
d="M776 1089h-408q-42 0 -42 -31l-2 -136q-1 -31 42 -31h5q111 10 107 10q205 0 302 -123q80 -102 80 -276q0 -143 -116 -241q-120 -100 -305 -100q-112 0 -225 53q-107 49 -172 125q19 29 162 180q135 -92 246 -92q70 0 116 39.5t46 90.5q0 183 -306 183q-99 0 -228 -23
l-2 561h700v-189z" />
    <glyph glyph-name="six" unicode="6" horiz-adv-x="938" 
d="M756 1017q-40 2 -71 2q-161 0 -270.5 -66t-141.5 -185q-13 -47 -13 -75q0 -34 42 -34q16 0 28 7q155 94 300 94q127 0 205 -78q72 -74 72 -177q0 -149 -101 -234q-104 -88 -297 -88q-240 0 -377 162q-118 141 -118 340q0 269 171 428q184 172 530 174zM548 634
q-131 0 -242 -87q-11 -9 -11 -21q0 -7 4 -15q68 -112 226 -112q71 0 117 32.5t46 86.5q0 46 -37 80q-40 36 -103 36z" />
    <glyph glyph-name="seven" unicode="7" horiz-adv-x="797" 
d="M796 1238q-9 -23 -32 -78l-42 -103l-309 -751q-6 -14 -21 -48q-4 -13 -11 -32l-245 -5q9 24 49 121l230 553q7 17 26 60q24 55 24 61q0 32 -42 32h-399l1 190h771z" />
    <glyph glyph-name="eight" unicode="8" horiz-adv-x="879" 
d="M597 206q-86 -27 -162 -27q-169 0 -287.5 87t-118.5 213q0 132 143 230q14 10 14 23q0 14 -14 24q-143 97 -143 228q0 128 118.5 215.5t287.5 87.5q79 0 160 -27q249 -80 249 -276q0 -129 -145 -228q-15 -10 -15 -24q0 -13 15 -24q145 -99 145 -229q0 -193 -247 -273z
M435 1055q-65 0 -118 -24q-65 -30 -65 -84q0 -52 65 -82q53 -26 118 -26t119 26q64 30 64 82q0 54 -65 84q-52 24 -118 24zM435 647q-65 0 -118 -26q-65 -30 -65 -82q0 -54 65 -84q53 -24 118 -24q66 0 118 24q65 30 65 84q0 52 -64 82q-54 26 -119 26z" />
    <glyph glyph-name="nine" unicode="9" horiz-adv-x="920" 
d="M186 450q62 -4 81 -4q145 0 246 56q107 58 140 163q13 42 13 72q0 32 -42 32q-17 0 -27 -6q-155 -94 -303 -94q-127 0 -203 79q-71 72 -71 176q0 143 97 246q107 117 281 117q240 0 376 -164q117 -142 117 -340q0 -241 -163 -396q-182 -173 -507 -168zM626 917
q-68 113 -228 113q-71 0 -115.5 -31.5t-44.5 -86.5q0 -46 37 -79q40 -36 103 -36q60 0 149 32q102 36 102 75q1 8 -3 13z" />
    <glyph glyph-name="colon" unicode=":" horiz-adv-x="393" 
d="M191 660q-57 0 -97 23q-43 24 -43 62q0 33 44 56q41 22 94 22q56 0 99.5 -24t43.5 -59t-43 -57.5t-98 -22.5zM191 208q-57 0 -97 23q-43 27 -43 64q0 32 44 56q41 23 94 23q55 0 99 -25t44 -60q0 -33 -43 -57t-98 -24z" />
    <glyph glyph-name="semicolon" unicode=";" horiz-adv-x="393" 
d="M189 668q-57 0 -97 24q-43 25 -43 63q0 32 44 55q41 22 94 22q56 0 99.5 -23.5t43.5 -58.5t-43 -58.5t-98 -23.5zM152 118q1 12 19 46.5t18 48.5t-16 18q-13 1 -39 6q-87 25 -87 83v3q0 36 44 62q41 24 94 24q55 0 98 -26q45 -27 45 -64q0 -130 -176 -201z" />
    <glyph glyph-name="less" unicode="&#x3c;" horiz-adv-x="1071" 
d="M913 267l-729 331v160l729 332v-173l-528 -239l528 -237v-174z" />
    <glyph glyph-name="equal" unicode="=" horiz-adv-x="1131" 
d="M968 734h-834v168h834v-168zM968 409h-834v167h834v-167z" />
    <glyph glyph-name="greater" unicode="&#x3e;" horiz-adv-x="1071" 
d="M194 441l528 237l-528 239v173l729 -332v-160l-729 -331v174z" />
    <glyph glyph-name="question" unicode="?" horiz-adv-x="920" 
d="M31 1122q66 84 171 139q114 60 231 60q417 0 417 -339q0 -82 -63 -167q-36 -51 -135 -147q-115 -112 -148 -201h-268q6 117 173 260q46 38 125 109q62 61 62 107q0 42 -35.5 66.5t-90.5 24.5q-94 0 -203 -68q-59 -37 -70 -51zM372 161q-57 0 -99 23.5t-42 60.5
q0 32 43 53.5t96 21.5q55 0 98.5 -23t43.5 -57t-43 -56.5t-97 -22.5z" />
    <glyph glyph-name="at" unicode="@" horiz-adv-x="1701" 
d="M1576 766q0 -247 -199 -397q-110 -83 -256 -83q-84 0 -126 28.5t-45 87.5q-44 -60 -98 -87.5t-131 -27.5q-127 0 -192 63.5t-65 187.5q0 176 109 293.5t272 117.5q59 0 104 -22.5t74 -66.5l40 67h160l-119 -443v-5q-3 -16 -3 -19q0 -43 49 -43q121 0 199 122
q68 105 68 226q0 174 -139 284t-363 110q-232 0 -392 -107q-250 -167 -250 -458q0 -231 170 -361q157 -120 410 -120q259 0 462 136l75 -99q-120 -84 -254 -126q-138 -43 -283 -43q-303 0 -500 141q-121 87 -181 204.5t-60 262.5q0 248 162 435q235 271 642 271
q134 0 249 -33q253 -72 359 -274q52 -100 52 -222zM978 717q-7 55 -38.5 84t-85.5 29q-96 0 -154 -107q-48 -90 -48 -189q0 -126 104 -126q69 0 120 47q45 44 63 111z" />
    <glyph glyph-name="A" unicode="A" horiz-adv-x="943" 
d="M685 1235l228 -1030q9 -43 14 -46l-264 3q-2 25 -11 85q-8 51 -17 113q-5 27 -42 27h-248q-36 0 -41 -27t-18 -98q-5 -31 -12 -71l-259 -2l238 1046h432zM518 997q-5 27 -40 27q-36 0 -41 -27l-81 -390q0 -32 40 -32h152q40 0 40 35z" />
    <glyph glyph-name="B" unicode="B" horiz-adv-x="897" 
d="M43 1260q14 0 55 1t65 1q312 0 473 -54q224 -76 224 -270q0 -121 -141 -218q-14 -10 -14 -24t14 -25q143 -97 143 -218q0 -193 -224 -269q-160 -54 -473 -54q-23 0 -64.5 1t-55.5 1zM361 1083q-42 0 -42 -31l3 -259q0 -31 44 -31q27 0 75 8q190 33 190 148q0 87 -86 130
q-71 35 -184 35zM441 621q-50 9 -75 9q-44 0 -44 -32v-259q0 -31 42 -31q111 0 182 37q85 44 85 131q0 114 -190 145z" />
    <glyph glyph-name="C" unicode="C" horiz-adv-x="945" 
d="M899 268q-106 -107 -327 -107q-267 0 -412 166q-125 145 -125 363q0 276 170 434q182 169 529 169h3l39 -268q-83 3 -79 3q-198 0 -311 -99q-105 -93 -105 -242q0 -117 69 -188q80 -83 235 -83q141 0 272 78q42 -209 42 -226z" />
    <glyph glyph-name="D" unicode="D" horiz-adv-x="895" 
d="M43 1260q374 0 586 -133q231 -146 231 -431q0 -283 -229 -430q-212 -133 -586 -135zM355 993q-42 0 -42 -32v-529q0 -32 42 -32q127 0 194 114q51 86 51 182q0 97 -51 184q-67 113 -194 113z" />
    <glyph glyph-name="E" unicode="E" horiz-adv-x="796" 
d="M752 395l2 -188h-704q1 -17 1 455v587h701v-190h-411q-42 0 -42 -30v-182q0 -30 42 -30h321v-190h-323q-42 0 -42 -32l-2 -168q0 -32 42 -32h415z" />
    <glyph glyph-name="F" unicode="F" horiz-adv-x="780" 
d="M750 1214l5 -189l-414 4q-44 1 -44 -31l-2 -181q0 -31 42 -31l320 -3q2 -84 2 -104q0 -17 1 -52q1 -27 1 -35l-328 3q-42 1 -42 -31v-78v-135q0 -191 1 -174l-247 2q1 159 2 587l1 454z" />
    <glyph glyph-name="G" unicode="G" horiz-adv-x="946" 
d="M901 269q-50 -49 -149 -77q-91 -27 -186 -27q-265 0 -408 165q-123 143 -123 360q0 276 170 433q182 169 530 169h2l39 -268q-48 4 -68 4q-205 0 -321 -101q-108 -95 -108 -250q0 -107 46 -175q63 -95 202 -95q29 0 75 11q56 15 55 33l-4 134q-1 30 -44 30l-113 -3l1 71
q-1 23 -1 57l389 26z" />
    <glyph glyph-name="H" unicode="H" horiz-adv-x="926" 
d="M883 1252l-2 -1030l-248 -10q-1 12 0 59q1 59 1 90l1 187q0 32 -42 32h-258q-40 0 -40 -32l-2 -326l-240 -10l-2 1041l252 -1l-4 -450q0 -32 42 -32h252q42 0 42 31q0 6 -1 90q-1 124 -1 160t-3 125q-1 65 -1 77z" />
    <glyph glyph-name="I" unicode="I" horiz-adv-x="370" 
d="M317 1221q-20 -858 -22 -1032l-240 -5l14 1041z" />
    <glyph glyph-name="J" unicode="J" horiz-adv-x="928" 
d="M880 1199l-14 -592q-10 -439 -416 -439q-403 0 -403 409q0 47 1 76q0 -3 -2 45l254 -26q-1 -11 -1 -78q0 -194 157 -194q160 0 162 235l7 577z" />
    <glyph glyph-name="K" unicode="K" horiz-adv-x="948" 
d="M913 1186q-47 -69 -158 -236q-151 -227 -151 -236q0 -8 15 -35q4 -8 16 -29l140 -250q73 -130 112 -203l-289 -12l-184 394q-9 22 -38 22q-20 0 -40 -10q-23 -11 -23 -25v-183q0 -40 1 -91q1 -46 1 -56l-264 -16q-6 50 -10 991l278 2l-4 -405q0 -32 44 -32q27 0 38 19
l236 398z" />
    <glyph glyph-name="L" unicode="L" horiz-adv-x="766" 
d="M727 398v-203q-474 13 -686 13l-8 1013l248 5l2 -796q0 -32 42 -32h402z" />
    <glyph glyph-name="M" unicode="M" horiz-adv-x="1157" 
d="M1070 1228q39 -995 45 -1072v0q0 8 -2 58l-218 -15l-12 601q-1 31 -44 31q-33 0 -40 -24l-161 -574h-125q-21 74 -74 265l-87 309q-7 24 -42 24q-39 0 -40 -31q-1 -89 -5 -326l-5 -275l-219 9l42 1020l267 -1q23 -73 85 -265l100 -308q8 -24 42 -24q31 0 39 24l186 573z
" />
    <glyph glyph-name="N" unicode="N" horiz-adv-x="926" 
d="M881 1218l-4 -1032l-238 -10q-35 78 -130 284l-152 328q-10 22 -39 22q-41 0 -42 -32l-6 -592l-219 -10l-2 1043l242 -1l284 -610q10 -22 40 -22q42 0 42 32l-2 601z" />
    <glyph glyph-name="O" unicode="O" horiz-adv-x="1020" 
d="M534 134q-262 0 -395 175q-110 144 -110 364q0 216 118 377q141 193 395 193q160 0 277 -121q94 -97 138 -241q30 -99 30 -214q0 -190 -107 -346q-129 -187 -346 -187zM515 953q-126 0 -197 -111q-54 -87 -54 -182t54 -182q71 -112 197 -112t196 112q53 87 53 182
q0 96 -53 181q-70 112 -196 112z" />
    <glyph glyph-name="P" unicode="P" horiz-adv-x="862" 
d="M43 1285q202 0 351 -21q236 -31 336 -129q95 -94 95 -283q0 -139 -85 -242q-91 -109 -257 -150q-44 -11 -135 -19q-38 -3 -39 -29q0 -36 -1 -128q1 -42 1 -99l-262 -18zM359 1029q-41 0 -42 -31l-4 -334q0 -31 44 -31q23 0 73 12q180 41 180 179q0 91 -62 146
q-67 59 -189 59z" />
    <glyph glyph-name="Q" unicode="Q" horiz-adv-x="1035" 
d="M920 29l-294 -13q-9 15 -31 50l-45 67q-11 17 -35 18q-45 3 -135 17q-184 49 -274 212q-73 130 -73 308q0 215 118 375q142 192 395 192q158 0 275 -119q93 -94 138 -236q32 -102 32 -218q0 -268 -192 -438q-11 -9 -11 -21q0 -8 25 -44q37 -49 107 -150zM519 967
q-126 0 -196 -113q-55 -85 -55 -181q0 -94 55 -180q70 -111 196 -111t196 111q53 85 53 180q0 96 -53 181q-70 113 -196 113z" />
    <glyph glyph-name="R" unicode="R" horiz-adv-x="914" 
d="M59 1235q79 17 227 17q307 0 435 -146q94 -107 94 -247q0 -200 -175 -336q-2 -1 -7 -5q-6 -8 -6 -16q0 -12 42 -69q24 -31 87 -113q7 -8 127 -151l-278 -10l-211 286q-13 18 -37 18q-41 0 -42 -31l-2 -254l-250 -16zM437 981q-35 10 -71 10q-42 0 -42 -31l-5 -311
q0 -32 40 -32q93 -1 157 66q57 60 57 129q0 127 -136 169z" />
    <glyph glyph-name="S" unicode="S" horiz-adv-x="923" 
d="M872 1070q-22 -25 -81 -93q-28 -33 -82 -94q-149 104 -288 104q-48 0 -80 -20q-36 -22 -36 -59q0 -46 100 -88q61 -22 191 -74q264 -113 264 -296q0 -304 -421 -304q-111 0 -225 53q-109 50 -173 125q22 25 81 90q28 31 84 94q92 -56 128 -72q79 -36 148 -36
q126 0 126 85q0 52 -101 89q-61 19 -192 63q-264 97 -264 307q0 116 130.5 209.5t288.5 93.5q115 0 228 -51q109 -49 174 -126z" />
    <glyph glyph-name="T" unicode="T" horiz-adv-x="820" 
d="M797 1182q0 -169 5 -190h-211q-42 0 -42 -32l6 -791l-250 -5v796q0 32 -42 32h-237l1 190h770z" />
    <glyph glyph-name="U" unicode="U" horiz-adv-x="928" 
d="M878 1172l-14 -589q-10 -439 -417 -439q-402 0 -402 425q0 125 8 607l256 -14q0 -17 -1 -50l-1 -65q-10 -391 -10 -405v-50q0 -218 157 -218q107 0 143 97q18 47 19 140l6 554z" />
    <glyph glyph-name="V" unicode="V" horiz-adv-x="928" 
d="M895 1241l-228 -1001h-432l-216 1006l256 -5q0 -1 59 -356l68 -412q4 -28 39 -28q37 0 42 28q22 112 83 412l69 355z" />
    <glyph glyph-name="W" unicode="W" horiz-adv-x="1141" 
d="M1115 1217l-78 -1035l-276 -12l-156 450q-8 23 -41 23q-31 0 -39 -23q-22 -67 -82 -244l-68 -206l-259 11q-12 133 -46 492l-53 553q31 -4 212 -4q4 -75 18 -282l25 -383q3 -31 40 -31q38 0 44 27q18 81 67 300l56 256h173l118 -556q6 -27 44 -27t40 31l50 671z" />
    <glyph glyph-name="X" unicode="X" horiz-adv-x="871" 
d="M838 1228q-18 -33 -135 -232q-146 -247 -146 -264q0 -6 135 -251l142 -255l-237 -9q-16 29 -57 103l-71 126q-11 21 -38 21q-29 0 -40 -21l-71 -126q-24 -44 -57 -103l-236 9l142 255q136 245 136 251q0 8 -136 248q-50 89 -155 248h267q12 -26 47 -92l63 -114
q11 -20 40 -20q27 0 38 20q18 32 63 113q37 66 52 93h254z" />
    <glyph glyph-name="Y" unicode="Y" horiz-adv-x="968" 
d="M943 1179q-33 -73 -134 -279l-164 -337q-6 -11 -20 -40q-19 -37 -19 -44l4 -299l-273 -6q0 8 2 53q2 51 2 82l1 170q0 6 -17 44l-19 42q-43 94 -152 337q-96 216 -122 281l271 -4l134 -435q7 -24 41 -24q33 0 41 23q23 64 83 236q30 89 69 200h272z" />
    <glyph glyph-name="Z" unicode="Z" horiz-adv-x="895" 
d="M846 420q0 -224 4 -253l-795 10l-8 268q0 -3 209 198l275 264q10 9 10 19q0 32 -42 32l-444 11l-7 241l798 1v-280l-480 -461q-10 -9 -10 -21q0 -31 42 -31z" />
    <glyph glyph-name="bracketleft" unicode="[" horiz-adv-x="536" 
d="M487 186l6 -165h-438l-2 1344l434 1v-164h-175q-41 0 -42 -31l-6 -953q0 -32 42 -32h181z" />
    <glyph glyph-name="backslash" unicode="\" horiz-adv-x="657" 
d="M47 1243q3 -9 29 -80l326 -866q5 -11 16 -42q2 -9 4 -23l168 -5q-4 12 -32 87l-43 112l-283 770q-3 10 -11 34q-2 5 -2 16z" />
    <glyph glyph-name="bracketright" unicode="]" horiz-adv-x="536" 
d="M53 186l-5 -165h437l2 1344l-434 1v-164h175q42 0 42 -31l6 -953q1 -32 -42 -32h-181z" />
    <glyph glyph-name="asciicircum" unicode="^" horiz-adv-x="1209" 
d="M1036 865h-180l-235 248l-237 -248h-180l318 409h196z" />
    <glyph glyph-name="underscore" unicode="_" horiz-adv-x="803" 
d="M803 -140h-803v174h803v-174z" />
    <glyph glyph-name="grave" unicode="`" horiz-adv-x="587" 
d="M247 1252q8 -21 87 -131q90 -127 90 -128q1 2 1 3l-54 -55q-32 40 -213 235q13 10 46 37q17 15 43 39z" />
    <glyph glyph-name="a" unicode="a" horiz-adv-x="774" 
d="M99 727q98 225 308 225q316 0 316 -270q0 -76 -8 -287q-10 -243 -19 -279l-161 -1q0 8 3 32q3 20 3 32q0 32 -42 32q-7 0 -13 -2l-4 -1q-90 -31 -184 -31q-267 0 -267 214q0 119 120 183q107 58 278 58q17 0 50 -4t48 -4q38 0 42 44v36q0 49 -36 87q-42 45 -110 45
q-100 0 -140 -84zM499 513q-15 2 -54 2q-78 0 -128 -32q-55 -34 -55 -95q0 -111 161 -111q28 0 72 10q53 13 54 29l10 161q2 31 -60 36z" />
    <glyph glyph-name="b" unicode="b" horiz-adv-x="811" 
d="M27 1262l228 1q-1 -43 -2 -154l1 -194q0 -31 42 -31q7 0 17 1l18 3q23 3 37 3q185 0 299 -114q105 -107 105 -255q0 -139 -78 -240q-91 -118 -255 -118q-56 0 -115 27q-10 5 -24 5q-43 0 -42 -32l4 -88l-197 4zM300 654q-44 0 -44 -32v-258q0 -15 45 -29q38 -12 63 -12
q86 0 128 51q34 40 34 102q0 81 -58 127q-60 51 -168 51z" />
    <glyph glyph-name="c" unicode="c" horiz-adv-x="591" 
d="M554 342l-7 -171q-1 -7 -39 -5q-60 5 -48 5q-191 0 -309 99q-114 97 -114 246q0 175 85 288q102 137 303 137q114 0 114 -9v-267q-23 20 -59 20q-238 0 -238 -186q0 -167 234 -167q19 0 45 4q32 6 33 6z" />
    <glyph glyph-name="d" unicode="d" horiz-adv-x="826" 
d="M790 1255q-20 -366 -58 -1181l-204 -1q0 1 5 45q8 75 -43 75q-11 0 -21 -4q-52 -25 -110 -25q-162 0 -253 117q-77 99 -77 237q0 152 101 258q112 117 301 117q15 0 41.5 -5.5t38.5 -5.5q41 0 42 30q1 54 5 194q1 67 3 155zM503 653q-231 0 -231 -180q0 -150 163 -150
q26 0 61 10q42 12 43 27l6 261q1 32 -42 32z" />
    <glyph glyph-name="e" unicode="e" horiz-adv-x="651" 
d="M458 150q-207 0 -321 120q-102 108 -102 275q0 163 58 293q82 184 250 184q267 0 267 -349q0 -31 -9 -86q-11 -68 -27 -86l-330 11q-43 2 -43 -34q0 -23 17 -64q54 -127 217 -127q76 0 175 33q6 -62 6 -145q-9 -25 -158 -25zM370 827q-84 0 -133 -84q-38 -65 -38 -137
q0 -35 43 -33l192 6q26 1 45 50q15 38 15 65q0 133 -124 133z" />
    <glyph glyph-name="f" unicode="f" horiz-adv-x="550" 
d="M31 804q16 -3 69 -6q45 -5 45 31q0 24 -3 74t-3 75q0 64 8 102q25 125 108 200q94 85 244 85q86 0 105 -6v-226q-44 3 -54 3q-219 0 -228 -163l-9 -143q-1 -30 40 -32l149 -9q-1 -29 -2 -95v-78l-129 7q-18 1 -30.5 -9t-12.5 -22l4 -516l-203 1l16 553q1 30 -40 32l-62 2
q-7 45 -12 140z" />
    <glyph glyph-name="g" unicode="g" horiz-adv-x="796" 
d="M532 1024l218 -2q0 -23 -1 -79l1 -113q0 -218 -9 -482q-8 -286 -40 -381q-78 -233 -333 -233q2 0 -35 -3q-31 -1 -48 0q-25 2 -25 9v227q50 -5 54 -5q106 0 167.5 43.5t61.5 123.5v111q0 32 -42 32q-10 0 -28 -5q-75 -17 -97 -17q-169 0 -263 114q-80 97 -80 239
q0 148 95 245q105 107 289 107q13 0 38 -4.5t38 -4.5q47 0 42 55q-1 7 -3 23zM537 705q-1 31 -42 31q-105 0 -164 -53q-55 -49 -55 -126q0 -147 180 -147q25 0 38 2q45 5 45 32z" />
    <glyph glyph-name="h" unicode="h" horiz-adv-x="805" 
d="M53 1366h206q-1 -60 -2 -219l1 -266q0 -31 42 -31q17 0 40 18q11 9 34 26q53 35 119 35q267 0 267 -396q0 -290 -15 -428l-200 13l4 415q0 69 -25 124q-35 77 -107 77q-117 0 -154 -81l-3 -9l4 -512l-207 -4z" />
    <glyph glyph-name="i" unicode="i" horiz-adv-x="387" 
d="M200 914q-61 0 -103 41q-40 41 -40 93q0 53 38 90q41 42 101 42q61 0 103 -42q39 -38 39 -91q0 -52 -38 -92q-41 -41 -100 -41zM317 765q-5 -194 -12 -627l-219 -1l5 635q11 -4 226 -7z" />
    <glyph glyph-name="j" unicode="j" horiz-adv-x="406" 
d="M212 956q-60 0 -102 43q-38 40 -38 91t38 89q40 42 100 42q61 0 102 -42q38 -39 38 -90t-38 -90q-41 -43 -100 -43zM319 790q0 -318 -8 -522q-2 -90 -22 -269q-25 -125 -105 -199q-93 -86 -242 -86q-89 0 -110 7v225q55 -4 56 -4q103 0 165.5 43.5t61.5 120.5l-8 685z
" />
    <glyph glyph-name="k" unicode="k" horiz-adv-x="782" 
d="M715 936q-26 -57 -91 -191l-108 -224q-3 -5 -10 -18q-8 -18 -8 -25q0 -11 45 -70q21 -28 91 -118q9 -9 132 -160l-238 -11l-201 220q-13 14 -33 14q-40 0 -42 -30q0 -2 4 -81q3 -53 6 -159l-204 10l16 1162l218 8l-42 -661q22 -27 42 -27q28 0 38 20l170 342
q24 -3 215 -1z" />
    <glyph glyph-name="l" unicode="l" horiz-adv-x="355" 
d="M303 1216l-5 -1033l-230 -8v1041h235z" />
    <glyph glyph-name="m" unicode="m" horiz-adv-x="1330" 
d="M43 996l204 3l-3 -35q-5 -67 44 -67q20 0 32 12q53 52 76 68q52 36 105 36q131 0 198 -105q3 -5 28 -51q11 -19 36 -19t52 33q49 63 79 85q52 39 127 39q267 0 267 -419q0 -301 -12 -387l-207 14q-1 25 1 65q3 53 3 65q4 160 4 267q0 65 -24 120q-35 77 -106 77
q-156 0 -179 -141v-32q0 -233 -10 -405l-197 -5l-2 390q0 72 -25 130q-36 82 -109 82q-135 0 -170 -120q-1 -2 -1 -7l12 -463l-211 -8q0 99 -4 364z" />
    <glyph glyph-name="n" unicode="n" 
d="M257 1002q-1 -9 -3 -26q-6 -59 42 -59q18 0 42 22q12 10 38 31q58 42 129 42q267 0 267 -403q0 -163 -12 -414l-203 11q4 292 4 404q0 70 -24 125q-35 79 -108 79q-135 0 -173 -119v-4l6 -464l-207 -3l-4 778h206z" />
    <glyph glyph-name="o" unicode="o" horiz-adv-x="731" 
d="M396 195q-186 0 -280 115q-81 98 -81 256q0 168 58 277q78 148 250 148q185 0 280 -131q77 -106 77 -269q0 -150 -63 -258q-81 -138 -241 -138zM361 741q-75 0 -120 -71q-36 -58 -36 -122q0 -158 150 -158q80 0 123 71q34 55 34 122q0 58 -30 101q-39 57 -121 57z" />
    <glyph glyph-name="p" unicode="p" horiz-adv-x="826" 
d="M278 1036q0 -4 -1 -11t-1 -10q0 -31 42 -31q8 0 19 1l19 4q25 4 40 4q92 0 169 -30q232 -91 232 -339q0 -140 -77 -241q-91 -117 -254 -117q-64 0 -117 26q-10 5 -24 5q-43 0 -42 -32l4 -417l-195 5l-40 1181zM321 755q-43 0 -42 -32l2 -258q0 -16 45 -29q39 -12 64 -12
q86 0 129 52q34 40 34 101q0 82 -62 130t-170 48z" />
    <glyph glyph-name="q" unicode="q" horiz-adv-x="831" 
d="M788 1038q-20 -365 -58 -1178l-199 -1l10 399q0 32 -42 32q-12 0 -22 -3q-52 -24 -107 -24q-162 0 -253 117q-78 98 -78 237q0 151 102 257q113 117 300 117q16 0 41 -4l19 -3q11 -3 18 -3q44 0 41 40q-1 7 -1 8q0 29 -1 18zM505 750q-108 0 -168 -51q-56 -48 -56 -128
q0 -62 35 -101q44 -50 129 -50q26 0 60 10q41 12 42 28l8 260q1 32 -50 32z" />
    <glyph glyph-name="r" unicode="r" horiz-adv-x="594" 
d="M553 1006q6 -268 6 -196q-202 0 -286 -125q-4 -6 -4 -38q0 -154 29 -450l-211 -3l-39 858h212q0 -18 4 -113q2 -31 34 -31q14 0 43 20q110 78 199 78q16 0 13 0z" />
    <glyph glyph-name="s" unicode="s" horiz-adv-x="711" 
d="M676 896q-1 -1 -59 -70q-25 -29 -63 -71q-134 81 -227 81q-42 0 -71 -18q-33 -20 -33 -55q0 -40 83 -76q49 -19 155 -60q211 -88 211 -236q0 -238 -329 -238q-86 0 -173.5 40t-136.5 98q16 18 60 68q20 23 61 67q141 -83 222 -83q46 0 77.5 20.5t31.5 57.5q0 46 -83 78
q-49 15 -154 52q-209 77 -209 241q0 93 102 167.5t227 74.5q85 0 173 -41q85 -39 135 -97z" />
    <glyph glyph-name="t" unicode="t" horiz-adv-x="542" 
d="M502 876q0 -54 -1 -96q1 -31 1 -78l-129 6q-17 1 -31 -8t-14 -24l4 -520l-201 2l14 556q1 30 -40 32l-62 3q-6 40 -10 137l69 -3q18 0 31 10t12 22l-5 220l191 -1l-16 -220q0 -29 38 -31z" />
    <glyph glyph-name="u" unicode="u" 
d="M766 957l5 -778h-206q1 9 3 26q6 58 -43 58q-18 0 -42 -21q-12 -11 -37 -32q-57 -42 -128 -42q-271 0 -271 402q0 98 16 414l199 -12l-4 -402q0 -71 24 -126q34 -79 106 -79q126 0 168 109q7 11 7 16l-6 462z" />
    <glyph glyph-name="v" unicode="v" horiz-adv-x="843" 
d="M823 973q-4 -15 -14 -45l-174 -640q-3 -13 -12 -46q-1 -5 -4 -26h-398q1 4 -6 34l-168 671q-6 19 -15 55l226 -3q14 -73 52 -265l63 -308q6 -28 42 -28q35 0 41 25l139 575z" />
    <glyph glyph-name="w" unicode="w" horiz-adv-x="1094" 
d="M218 987l42 -509q3 -29 42 -29q32 0 39 25l121 425h170q13 -52 49 -193l63 -231q7 -26 43 -26q38 0 40 29q7 76 24 280l19 232l199 -8q-22 -234 -67 -771l-269 -9l-147 338q-9 23 -40 23q-29 0 -39 -23l-145 -337l-247 8l-93 774z" />
    <glyph glyph-name="x" unicode="x" horiz-adv-x="826" 
d="M794 979q-23 -33 -124 -172q-138 -187 -138 -205t138 -209q33 -46 92 -130q5 -6 42 -46l-235 -7q-56 81 -122 175q-12 19 -36 19q-25 0 -37 -19q-19 -27 -68 -96q-38 -55 -55 -78l-218 6l131 189q129 186 129 196t-129 193l-131 184h234q18 -27 107 -158q12 -18 37 -18
q24 0 37 18l112 161q20 -3 234 -3z" />
    <glyph glyph-name="y" unicode="y" horiz-adv-x="803" 
d="M758 1049q0 5 0 -15q0 -387 -6 -637q-2 -87 -4 -175q-4 -103 -19 -177q-25 -124 -106 -197q-93 -86 -243 -86q-74 0 -110 7v227q56 -6 57 -6q226 0 226 165v126q0 32 -42 32q-18 0 -42 -22q-12 -10 -37 -30q-56 -39 -128 -39q-267 0 -267 393q0 98 16 409l199 -12
l-4 -396q0 -70 24 -123q34 -79 106 -79q130 0 169 111q4 10 0 526z" />
    <glyph glyph-name="z" unicode="z" horiz-adv-x="770" 
d="M717 373l2 -179l-674 7q-2 17 -2 196l60 53q39 34 146 124q220 186 220 206q0 31 -41 32l-383 7q-3 25 -2 171l674 1v-210l-60 -53q-39 -33 -147 -123q-219 -184 -219 -203q0 -32 42 -32z" />
    <glyph glyph-name="braceleft" unicode="{" horiz-adv-x="1024" 
d="M893 -89q14 0 -41 -2h-41q-207 0 -299 36q-70 28 -93 89q-13 36 -13 115v186q0 97 -49 136t-169 39h-18q-27 -1 -18 -1v176q-7 0 18 -2h18q124 0 173 45q45 40 45 132v185q0 99 24 141q41 72 203 91q74 10 180 10h39q54 -2 41 -2v-176q8 0 -21 1h-20q-98 0 -132 -25.5
t-34 -106.5v-174q0 -104 -45 -146.5t-166 -60.5q126 -19 171 -66q40 -42 40 -140v-175q0 -77 29 -102q33 -29 135 -29q-7 0 22 1h21v-175z" />
    <glyph glyph-name="bar" unicode="|" horiz-adv-x="1024" 
d="M633 -140h-240v1489h240v-1489z" />
    <glyph glyph-name="braceright" unicode="}" horiz-adv-x="1027" 
d="M874 509q7 0 -18 1h-18q-123 0 -172 -43q-45 -41 -45 -132v-186q0 -80 -14 -116q-22 -62 -93 -89q-49 -20 -111.5 -27.5t-179.5 -7.5h-45q-61 2 -45 2v175h23q28 -1 20 -1q102 0 135 29q29 25 29 102v175q0 103 46 145.5t165 60.5q-126 19 -171 67q-40 42 -40 140v174
q0 82 -33 107t-127 25h-22q-32 -1 -25 -1v176q-13 0 41 2h39q209 0 301 -36q70 -28 93 -89q14 -38 14 -117v-185q0 -92 44 -132q50 -45 173 -45h18q25 2 18 2v-176z" />
    <glyph glyph-name="asciitilde" unicode="~" horiz-adv-x="1200" 
d="M1002 622q-123 -100 -230 -100q-24 0 -53.5 6.5t-51.5 14.5q-6 2 -23 9q-157 66 -233 66q-98 0 -233 -115v185q134 104 236 104q38 0 77.5 -9t102.5 -33q8 -3 31 -12q100 -42 151 -42q100 0 226 111v-185z" />
    <glyph glyph-name="uni00A0" unicode="&#xa0;" horiz-adv-x="2048" 
 />
    <glyph glyph-name="currency" unicode="&#xa4;" horiz-adv-x="1088" 
d="M206 1192l153 -149q77 51 186 51q110 0 182 -51l153 149l104 -101l-154 -151q53 -77 53 -171q0 -46 -14 -87.5t-39 -82.5l154 -148l-104 -105l-153 151q-83 -52 -182 -52t-186 52l-153 -151l-104 105l154 148q-51 76 -51 173q0 91 51 168l-154 151zM733 769
q0 37 -15.5 70t-41.5 58t-60 39.5t-71 14.5q-38 0 -73.5 -14.5t-61.5 -39.5t-41.5 -58t-15.5 -70q0 -38 15.5 -71t41.5 -57.5t61.5 -38.5t73.5 -14q37 0 71 14.5t60 39.5t41.5 58t15.5 69z" />
    <glyph glyph-name="brokenbar" unicode="&#xa6;" horiz-adv-x="500" 
d="M397 707v-570h-295v570h295zM397 1402v-570h-295v570h295z" />
    <glyph glyph-name="section" unicode="&#xa7;" horiz-adv-x="868" 
d="M295 375l-6 6q-12 10 -30.5 21t-39.5 25t-42 33.5t-37.5 47t-27 63.5t-10.5 85q0 72 39 120.5t105 80.5q-23 14 -48.5 33t-46.5 48t-35 69.5t-14 98.5q0 64 34 111.5t90 78.5t128.5 46t149.5 15q98 0 180 -46l-113 -115l11 -6q7 -6 24 -15t37 -23t42 -34t40 -49.5
t29.5 -68.5t11.5 -88q0 -64 -39 -114t-102 -82q21 -14 45.5 -34t45.5 -50t35.5 -71.5t14.5 -97.5q0 -60 -33.5 -106.5t-89.5 -78.5t-128 -49.5t-148 -17.5q-87 0 -185 45z" />
    <glyph glyph-name="copyright" unicode="&#xa9;" horiz-adv-x="1537" 
d="M1341 747q0 -109 -43 -208q-87 -205 -313 -293q-107 -42 -222 -42q-113 0 -219 42q-223 87 -315 294q-43 95 -43 207q0 162 98.5 301.5t256.5 202.5q103 39 222 39q120 0 224.5 -40.5t187.5 -117.5q166 -156 166 -385zM1237 747q0 185 -137 314q-138 132 -335 132
q-198 0 -333 -130q-141 -135 -141 -316q0 -133 81.5 -245.5t213.5 -163.5q87 -34 179 -34q140 0 262.5 75.5t174.5 196.5q35 81 35 171zM1055 655q-5 -104 -83.5 -167.5t-203.5 -63.5q-153 0 -237 89q-82 85 -82 230t80 234q85 93 237 93q113 0 191 -52q85 -57 92 -159h-165
q-12 102 -121 102q-63 0 -99.5 -56.5t-36.5 -155.5q0 -207 144 -207q107 0 117 113h167z" />
    <glyph glyph-name="guillemotleft" unicode="&#xab;" horiz-adv-x="831" 
d="M726 251q-154 120 -326 254q-1 -5 -7 63q-8 85 -8 119q0 -4 155 136l184 165q35 -53 42 -67q-9 -9 -37 -43q-23 -27 -90 -106q-135 -160 -135 -174q0 -15 44 -61q22 -23 86 -88q120 -119 120 -126q0 -6 -28 -72zM405 248q-29 26 -175 133q-126 92 -152 124q0 29 -7 91
q-5 60 -5 91q0 -4 154 136l184 165q31 -45 39 -68l-133 -160q-126 -152 -126 -162q0 -15 44 -61q22 -23 87 -88q119 -119 119 -126q0 -3 -29 -75z" />
    <glyph glyph-name="logicalnot" unicode="&#xac;" horiz-adv-x="1223" 
d="M102 680v179h1018v-335h-241v156h-777z" />
    <glyph glyph-name="registered" unicode="&#xae;" horiz-adv-x="1597" 
d="M797 1321q83 0 159.5 -20t143 -56.5t121 -88.5t93 -114t60 -133t21.5 -147t-22 -147t-62 -133t-95.5 -112.5t-122 -87.5t-141.5 -57.5t-155 -20.5q-79 0 -154 20.5t-141 57.5t-121.5 88t-95 113t-61.5 133t-22 146q0 74 21.5 144t59.5 132t92.5 114t120.5 90t142.5 58.5
t158.5 20.5zM1273 765q0 90 -39 170.5t-105 141t-151.5 96t-178.5 35.5q-66 0 -126 -16t-113 -45t-96.5 -69.5t-74.5 -90t-48 -106t-17 -116.5t17 -116.5t48.5 -106t75 -90.5t96 -71t113 -46t125.5 -16q61 0 120.5 16t112 44.5t97 69t77 90.5t50 107t17.5 119zM541 1077h264
q140 0 212 -43.5t72 -133.5q0 -58 -33.5 -99.5t-96.5 -62.5l140 -265h-221l-116 232h-19v-232h-202v604zM775 960h-32v-144h43q94 0 94 74q0 70 -105 70z" />
    <glyph glyph-name="degree" unicode="&#xb0;" horiz-adv-x="784" 
d="M102 1118q0 44 23 81.5t62.5 66.5t92 45t111.5 16q61 0 114.5 -16t92.5 -45t61.5 -66.5t22.5 -81.5t-22.5 -82t-61.5 -66.5t-92.5 -45t-114.5 -16.5t-113.5 16.5t-91.5 45t-61.5 66.5t-22.5 82z" />
    <glyph glyph-name="plusminus" unicode="&#xb1;" horiz-adv-x="889" 
d="M357 1150h155v-230h256v-163h-256v-229h-155v229h-255v163h255v230zM102 424h666v-162h-666v162z" />
    <glyph glyph-name="uni00B5" unicode="&#xb5;" horiz-adv-x="1192" 
d="M255 1021h310l-62 -458q-1 -15 -2 -24t-1 -15q0 -98 92 -98q59 0 91 38t44 119l62 438h308l-117 -810h-271l16 99q-51 -102 -139 -102q-91 0 -129 93l-53 -404h-302z" />
    <glyph glyph-name="paragraph" unicode="&#xb6;" horiz-adv-x="1002" 
d="M889 1313v-108h-80v-994h-137v994h-149v-994h-140v584q-64 3 -116 22.5t-88.5 53.5t-56.5 80t-20 101q0 59 22 107t62 82t96.5 53t125.5 19h481z" />
    <glyph glyph-name="uni2219" unicode="&#xb7;" horiz-adv-x="696" 
d="M102 618v312h492v-312h-492z" />
    <glyph glyph-name="uni2219" unicode="&#x2219;" horiz-adv-x="696" 
d="M102 618v312h492v-312h-492z" />
    <glyph glyph-name="guillemotright" unicode="&#xbb;" horiz-adv-x="831" 
d="M421 247q-2 14 -13 45.5t-11 30.5q0 7 120 126q31 32 86 88q44 46 44 61q0 10 -125 162l-134 160q9 22 39 68l184 -165q155 -140 155 -136q0 -31 -6 -91q-6 -62 -6 -91q-1 0 -163 -127zM105 251q-27 66 -27 72q0 7 119 126q32 32 87 88q44 46 44 61q0 14 -136 174
l-89 106q-18 19 -37 43q6 14 42 67l184 -165q154 -140 154 -136q0 -34 -8 -119q-6 -68 -6 -63q-18 -15 -327 -254z" />
    <glyph glyph-name="Agrave" unicode="&#xc0;" horiz-adv-x="943" 
d="M685 1235l228 -1030q9 -43 14 -46l-264 3q-2 25 -11 85q-8 51 -17 113q-5 27 -42 27h-248q-36 0 -41 -27t-18 -98q-5 -31 -12 -71l-259 -2l238 1046h432zM518 997q-5 27 -40 27q-36 0 -41 -27l-81 -390q0 -32 40 -32h152q40 0 40 35zM570 1359l170 75l-377 197l-133 -148
z" />
    <glyph glyph-name="Agrave" unicode="&#x410;" horiz-adv-x="943" 
d="M685 1235l228 -1030q9 -43 14 -46l-264 3q-2 25 -11 85q-8 51 -17 113q-5 27 -42 27h-248q-36 0 -41 -27t-18 -98q-5 -31 -12 -71l-259 -2l238 1046h432zM518 997q-5 27 -40 27q-36 0 -41 -27l-81 -390q0 -32 40 -32h152q40 0 40 35zM570 1359l170 75l-377 197l-133 -148
z" />
    <glyph glyph-name="Aacute" unicode="&#xc1;" horiz-adv-x="943" 
d="M685 1235l228 -1030q9 -43 14 -46l-264 3q-2 25 -11 85q-8 51 -17 113q-5 27 -42 27h-248q-36 0 -41 -27t-18 -98q-5 -31 -12 -71l-259 -2l238 1046h432zM518 997q-5 27 -40 27q-36 0 -41 -27l-81 -390q0 -32 40 -32h152q40 0 40 35zM740 1483l-133 148l-377 -197
l170 -75z" />
    <glyph glyph-name="Aacute" unicode="&#x411;" horiz-adv-x="943" 
d="M685 1235l228 -1030q9 -43 14 -46l-264 3q-2 25 -11 85q-8 51 -17 113q-5 27 -42 27h-248q-36 0 -41 -27t-18 -98q-5 -31 -12 -71l-259 -2l238 1046h432zM518 997q-5 27 -40 27q-36 0 -41 -27l-81 -390q0 -32 40 -32h152q40 0 40 35zM740 1483l-133 148l-377 -197
l170 -75z" />
    <glyph glyph-name="Acircumflex" unicode="&#xc2;" horiz-adv-x="943" 
d="M685 1235l228 -1030q9 -43 14 -46l-264 3q-2 25 -11 85q-8 51 -17 113q-5 27 -42 27h-248q-36 0 -41 -27t-18 -98q-5 -31 -12 -71l-259 -2l238 1046h432zM518 997q-5 27 -40 27q-36 0 -41 -27l-81 -390q0 -32 40 -32h152q40 0 40 35zM622 1369l181 81l-345 170l-311 -238
l172 -44l147 88z" />
    <glyph glyph-name="Acircumflex" unicode="&#x412;" horiz-adv-x="943" 
d="M685 1235l228 -1030q9 -43 14 -46l-264 3q-2 25 -11 85q-8 51 -17 113q-5 27 -42 27h-248q-36 0 -41 -27t-18 -98q-5 -31 -12 -71l-259 -2l238 1046h432zM518 997q-5 27 -40 27q-36 0 -41 -27l-81 -390q0 -32 40 -32h152q40 0 40 35zM622 1369l181 81l-345 170l-311 -238
l172 -44l147 88z" />
    <glyph glyph-name="Atilde" unicode="&#xc3;" horiz-adv-x="943" 
d="M685 1235l228 -1030q9 -43 14 -46l-264 3q-2 25 -11 85q-8 51 -17 113q-5 27 -42 27h-248q-36 0 -41 -27t-18 -98q-5 -31 -12 -71l-259 -2l238 1046h432zM518 997q-5 27 -40 27q-36 0 -41 -27l-81 -390q0 -32 40 -32h152q40 0 40 35zM100 1380l86 -22q117 160 290.5 47
t319.5 129l-221 80q-10 -154 -215 -84t-260 -150z" />
    <glyph glyph-name="Atilde" unicode="&#x413;" horiz-adv-x="943" 
d="M685 1235l228 -1030q9 -43 14 -46l-264 3q-2 25 -11 85q-8 51 -17 113q-5 27 -42 27h-248q-36 0 -41 -27t-18 -98q-5 -31 -12 -71l-259 -2l238 1046h432zM518 997q-5 27 -40 27q-36 0 -41 -27l-81 -390q0 -32 40 -32h152q40 0 40 35zM100 1380l86 -22q117 160 290.5 47
t319.5 129l-221 80q-10 -154 -215 -84t-260 -150z" />
    <glyph glyph-name="Adieresis" unicode="&#xc4;" horiz-adv-x="943" 
d="M685 1235l228 -1030q9 -43 14 -46l-264 3q-2 25 -11 85q-8 51 -17 113q-5 27 -42 27h-248q-36 0 -41 -27t-18 -98q-5 -31 -12 -71l-259 -2l238 1046h432zM518 997q-5 27 -40 27q-36 0 -41 -27l-81 -390q0 -32 40 -32h152q40 0 40 35zM90 1469l50 -129l217 35l-38 145z
M501 1543l28 -155l212 9l2 153z" />
    <glyph glyph-name="Adieresis" unicode="&#x414;" horiz-adv-x="943" 
d="M685 1235l228 -1030q9 -43 14 -46l-264 3q-2 25 -11 85q-8 51 -17 113q-5 27 -42 27h-248q-36 0 -41 -27t-18 -98q-5 -31 -12 -71l-259 -2l238 1046h432zM518 997q-5 27 -40 27q-36 0 -41 -27l-81 -390q0 -32 40 -32h152q40 0 40 35zM90 1469l50 -129l217 35l-38 145z
M501 1543l28 -155l212 9l2 153z" />
    <glyph glyph-name="Aring" unicode="&#xc5;" horiz-adv-x="943" 
d="M550 1581.5q-62 39.5 -150 39.5q-89 0 -151 -39.5t-62 -94.5t62 -94.5t151 -39.5q88 0 150 39.5t62 94.5t-62 94.5zM685 1235l228 -1030q9 -43 14 -46l-264 3q-2 25 -11 85q-8 51 -17 113q-5 27 -42 27h-248q-36 0 -41 -27t-18 -98q-5 -31 -12 -71l-259 -2l238 1046h432z
M518 997q-5 27 -40 27q-36 0 -41 -27l-81 -390q0 -32 40 -32h152q40 0 40 35zM492 1478q0 -29 -33 -50.5t-79 -21.5t-79 21.5t-33 50.5q0 30 33 51.5t79 21.5t79 -21.5t33 -51.5z" />
    <glyph glyph-name="Aring" unicode="&#x415;" horiz-adv-x="943" 
d="M550 1581.5q-62 39.5 -150 39.5q-89 0 -151 -39.5t-62 -94.5t62 -94.5t151 -39.5q88 0 150 39.5t62 94.5t-62 94.5zM685 1235l228 -1030q9 -43 14 -46l-264 3q-2 25 -11 85q-8 51 -17 113q-5 27 -42 27h-248q-36 0 -41 -27t-18 -98q-5 -31 -12 -71l-259 -2l238 1046h432z
M518 997q-5 27 -40 27q-36 0 -41 -27l-81 -390q0 -32 40 -32h152q40 0 40 35zM492 1478q0 -29 -33 -50.5t-79 -21.5t-79 21.5t-33 50.5q0 30 33 51.5t79 21.5t79 -21.5t33 -51.5z" />
    <glyph glyph-name="AE" unicode="&#xc6;" horiz-adv-x="1166" 
d="M561 997q-5 27 -46 27q-36 0 -41 -27l-105 -393q0 -32 40 -32l111 -1q40 0 40 35zM572 1235v1h577v-190h-287q-42 0 -42 -30v-193q0 -30 42 -30h197v-190h-199q-42 0 -42 -32l-2 -195q0 -32 42 -32h291l2 -188h-442l-158 -3q-2 24 -8 210q-5 27 -42 27l-174 1l-70 -211
l-242 -7l327 1062h230z" />
    <glyph glyph-name="AE" unicode="&#x416;" horiz-adv-x="1166" 
d="M561 997q-5 27 -46 27q-36 0 -41 -27l-105 -393q0 -32 40 -32l111 -1q40 0 40 35zM572 1235v1h577v-190h-287q-42 0 -42 -30v-193q0 -30 42 -30h197v-190h-199q-42 0 -42 -32l-2 -195q0 -32 42 -32h291l2 -188h-442l-158 -3q-2 24 -8 210q-5 27 -42 27l-174 1l-70 -211
l-242 -7l327 1062h230z" />
    <glyph glyph-name="Ccedilla" unicode="&#xc7;" horiz-adv-x="945" 
d="M785 195q25 -34 37 -86q20 -231 -478 -209l-21 123q338 0 213 112q-186 -12 -179 59q-117 41 -197 133q-125 145 -125 363q0 276 170 434q182 169 529 169h3l39 -268q-83 3 -79 3q-198 0 -311 -99q-105 -93 -105 -242q0 -117 69 -188q80 -83 235 -83q141 0 272 78
q42 -209 42 -226q-46 -47 -114 -73z" />
    <glyph glyph-name="Ccedilla" unicode="&#x417;" horiz-adv-x="945" 
d="M785 195q25 -34 37 -86q20 -231 -478 -209l-21 123q338 0 213 112q-186 -12 -179 59q-117 41 -197 133q-125 145 -125 363q0 276 170 434q182 169 529 169h3l39 -268q-83 3 -79 3q-198 0 -311 -99q-105 -93 -105 -242q0 -117 69 -188q80 -83 235 -83q141 0 272 78
q42 -209 42 -226q-46 -47 -114 -73z" />
    <glyph glyph-name="Egrave" unicode="&#xc8;" horiz-adv-x="796" 
d="M752 395l2 -188h-704q1 -17 1 455v587h701v-190h-411q-42 0 -42 -30v-182q0 -30 42 -30h321v-190h-323q-42 0 -42 -32l-2 -168q0 -32 42 -32h415zM475 1348l170 73l-377 197l-133 -147z" />
    <glyph glyph-name="Egrave" unicode="&#x418;" horiz-adv-x="796" 
d="M752 395l2 -188h-704q1 -17 1 455v587h701v-190h-411q-42 0 -42 -30v-182q0 -30 42 -30h321v-190h-323q-42 0 -42 -32l-2 -168q0 -32 42 -32h415zM475 1348l170 73l-377 197l-133 -147z" />
    <glyph glyph-name="Eacute" unicode="&#xc9;" horiz-adv-x="796" 
d="M752 395l2 -188h-704q1 -17 1 455v587h701v-190h-411q-42 0 -42 -30v-182q0 -30 42 -30h321v-190h-323q-42 0 -42 -32l-2 -168q0 -32 42 -32h415zM628 1452l-133 148l-377 -197l170 -75z" />
    <glyph glyph-name="Eacute" unicode="&#x419;" horiz-adv-x="796" 
d="M752 395l2 -188h-704q1 -17 1 455v587h701v-190h-411q-42 0 -42 -30v-182q0 -30 42 -30h321v-190h-323q-42 0 -42 -32l-2 -168q0 -32 42 -32h415zM628 1452l-133 148l-377 -197l170 -75z" />
    <glyph glyph-name="Ecircumflex" unicode="&#xca;" horiz-adv-x="796" 
d="M752 395l2 -188h-704q1 -17 1 455v587h701v-190h-411q-42 0 -42 -30v-182q0 -30 42 -30h321v-190h-323q-42 0 -42 -32l-2 -168q0 -32 42 -32h415zM553 1369l181 81l-345 170l-311 -238l172 -44l147 88z" />
    <glyph glyph-name="Ecircumflex" unicode="&#x41a;" horiz-adv-x="796" 
d="M752 395l2 -188h-704q1 -17 1 455v587h701v-190h-411q-42 0 -42 -30v-182q0 -30 42 -30h321v-190h-323q-42 0 -42 -32l-2 -168q0 -32 42 -32h415zM553 1369l181 81l-345 170l-311 -238l172 -44l147 88z" />
    <glyph glyph-name="Edieresis" unicode="&#xcb;" horiz-adv-x="796" 
d="M752 395l2 -188h-704q1 -17 1 455v587h701v-190h-411q-42 0 -42 -30v-182q0 -30 42 -30h321v-190h-323q-42 0 -42 -32l-2 -168q0 -32 42 -32h415zM38 1476l50 -129l217 35l-38 145zM449 1550l28 -156l212 10l2 153z" />
    <glyph glyph-name="Edieresis" unicode="&#x41b;" horiz-adv-x="796" 
d="M752 395l2 -188h-704q1 -17 1 455v587h701v-190h-411q-42 0 -42 -30v-182q0 -30 42 -30h321v-190h-323q-42 0 -42 -32l-2 -168q0 -32 42 -32h415zM38 1476l50 -129l217 35l-38 145zM449 1550l28 -156l212 10l2 153z" />
    <glyph glyph-name="Igrave" unicode="&#xcc;" horiz-adv-x="432" 
d="M343 1221q-20 -858 -22 -1032l-240 -5l14 1041zM285 1310l138 73l-306 197l-108 -147z" />
    <glyph glyph-name="Igrave" unicode="&#x41c;" horiz-adv-x="432" 
d="M343 1221q-20 -858 -22 -1032l-240 -5l14 1041zM285 1310l138 73l-306 197l-108 -147z" />
    <glyph glyph-name="Iacute" unicode="&#xcd;" horiz-adv-x="518" 
d="M377 1221q-20 -858 -22 -1032l-240 -5l14 1041zM500 1464l-127 148l-359 -198l162 -73z" />
    <glyph glyph-name="Iacute" unicode="&#x41d;" horiz-adv-x="518" 
d="M377 1221q-20 -858 -22 -1032l-240 -5l14 1041zM500 1464l-127 148l-359 -198l162 -73z" />
    <glyph glyph-name="Icircumflex" unicode="&#xce;" horiz-adv-x="639" 
d="M447 1221q-20 -858 -22 -1032l-240 -5l14 1041zM475 1388l181 82l-345 168l-311 -238l172 -44l147 89z" />
    <glyph glyph-name="Icircumflex" unicode="&#x41e;" horiz-adv-x="639" 
d="M447 1221q-20 -858 -22 -1032l-240 -5l14 1041zM475 1388l181 82l-345 168l-311 -238l172 -44l147 89z" />
    <glyph glyph-name="Idieresis" unicode="&#xcf;" horiz-adv-x="690" 
d="M472 1221q-20 -858 -22 -1032l-240 -5l14 1041zM20 1501l50 -129l217 35l-38 145zM431 1575l28 -155l212 9l2 153z" />
    <glyph glyph-name="Idieresis" unicode="&#x41f;" horiz-adv-x="690" 
d="M472 1221q-20 -858 -22 -1032l-240 -5l14 1041zM20 1501l50 -129l217 35l-38 145zM431 1575l28 -155l212 9l2 153z" />
    <glyph glyph-name="Eth" unicode="&#xd0;" horiz-adv-x="1042" 
d="M460 620v-188q0 -32 42 -32q127 0 194 114q51 86 51 182q0 97 -51 184q-67 113 -194 113q-42 0 -42 -32v-216l58 3l8 -125zM191 731l-1 529q374 0 586 -133q231 -146 231 -431q0 -283 -229 -430q-212 -133 -586 -135l-1 478l-139 -6l-18 120z" />
    <glyph glyph-name="Eth" unicode="&#x420;" horiz-adv-x="1042" 
d="M460 620v-188q0 -32 42 -32q127 0 194 114q51 86 51 182q0 97 -51 184q-67 113 -194 113q-42 0 -42 -32v-216l58 3l8 -125zM191 731l-1 529q374 0 586 -133q231 -146 231 -431q0 -283 -229 -430q-212 -133 -586 -135l-1 478l-139 -6l-18 120z" />
    <glyph glyph-name="Ntilde" unicode="&#xd1;" horiz-adv-x="926" 
d="M881 1218l-4 -1032l-238 -10q-35 78 -130 284l-152 328q-10 22 -39 22q-41 0 -42 -32l-6 -592l-219 -10l-2 1043l242 -1l284 -610q10 -22 40 -22q42 0 42 32l-2 601zM134 1380l86 -22q117 160 290.5 47t319.5 129l-221 80q-10 -154 -215 -84t-260 -150z" />
    <glyph glyph-name="Ntilde" unicode="&#x421;" horiz-adv-x="926" 
d="M881 1218l-4 -1032l-238 -10q-35 78 -130 284l-152 328q-10 22 -39 22q-41 0 -42 -32l-6 -592l-219 -10l-2 1043l242 -1l284 -610q10 -22 40 -22q42 0 42 32l-2 601zM134 1380l86 -22q117 160 290.5 47t319.5 129l-221 80q-10 -154 -215 -84t-260 -150z" />
    <glyph glyph-name="Ograve" unicode="&#xd2;" horiz-adv-x="1002" 
d="M605 1366l170 75l-377 196l-133 -147zM534 134q-262 0 -395 175q-110 144 -110 364q0 216 118 377q141 193 395 193q160 0 277 -121q94 -97 138 -241q30 -99 30 -214q0 -190 -107 -346q-129 -187 -346 -187zM515 953q-126 0 -197 -111q-54 -87 -54 -182t54 -182
q71 -112 197 -112t196 112q53 87 53 182q0 96 -53 181q-70 112 -196 112z" />
    <glyph glyph-name="Ograve" unicode="&#x422;" horiz-adv-x="1002" 
d="M605 1366l170 75l-377 196l-133 -147zM534 134q-262 0 -395 175q-110 144 -110 364q0 216 118 377q141 193 395 193q160 0 277 -121q94 -97 138 -241q30 -99 30 -214q0 -190 -107 -346q-129 -187 -346 -187zM515 953q-126 0 -197 -111q-54 -87 -54 -182t54 -182
q71 -112 197 -112t196 112q53 87 53 182q0 96 -53 181q-70 112 -196 112z" />
    <glyph glyph-name="Oacute" unicode="&#xd3;" horiz-adv-x="1045" 
d="M844 1489l-133 147l-377 -196l170 -75zM534 134q-262 0 -395 175q-110 144 -110 364q0 216 118 377q141 193 395 193q160 0 277 -121q94 -97 138 -241q30 -99 30 -214q0 -190 -107 -346q-129 -187 -346 -187zM515 953q-126 0 -197 -111q-54 -87 -54 -182t54 -182
q71 -112 197 -112t196 112q53 87 53 182q0 96 -53 181q-70 112 -196 112z" />
    <glyph glyph-name="Oacute" unicode="&#x423;" horiz-adv-x="1045" 
d="M844 1489l-133 147l-377 -196l170 -75zM534 134q-262 0 -395 175q-110 144 -110 364q0 216 118 377q141 193 395 193q160 0 277 -121q94 -97 138 -241q30 -99 30 -214q0 -190 -107 -346q-129 -187 -346 -187zM515 953q-126 0 -197 -111q-54 -87 -54 -182t54 -182
q71 -112 197 -112t196 112q53 87 53 182q0 96 -53 181q-70 112 -196 112z" />
    <glyph glyph-name="Ocircumflex" unicode="&#xd4;" horiz-adv-x="1036" 
d="M622 1369l181 81l-345 170l-311 -238l172 -44l147 88zM534 134q-262 0 -395 175q-110 144 -110 364q0 216 118 377q141 193 395 193q160 0 277 -121q94 -97 138 -241q30 -99 30 -214q0 -190 -107 -346q-129 -187 -346 -187zM515 953q-126 0 -197 -111q-54 -87 -54 -182
t54 -182q71 -112 197 -112t196 112q53 87 53 182q0 96 -53 181q-70 112 -196 112z" />
    <glyph glyph-name="Ocircumflex" unicode="&#x424;" horiz-adv-x="1036" 
d="M622 1369l181 81l-345 170l-311 -238l172 -44l147 88zM534 134q-262 0 -395 175q-110 144 -110 364q0 216 118 377q141 193 395 193q160 0 277 -121q94 -97 138 -241q30 -99 30 -214q0 -190 -107 -346q-129 -187 -346 -187zM515 953q-126 0 -197 -111q-54 -87 -54 -182
t54 -182q71 -112 197 -112t196 112q53 87 53 182q0 96 -53 181q-70 112 -196 112z" />
    <glyph glyph-name="Otilde" unicode="&#xd5;" horiz-adv-x="1028" 
d="M169 1374l86 -22q117 160 290.5 47.5t319.5 128.5l-221 80q-10 -154 -215 -84t-260 -150zM534 134q-262 0 -395 175q-110 144 -110 364q0 216 118 377q141 193 395 193q160 0 277 -121q94 -97 138 -241q30 -99 30 -214q0 -190 -107 -346q-129 -187 -346 -187zM515 953
q-126 0 -197 -111q-54 -87 -54 -182t54 -182q71 -112 197 -112t196 112q53 87 53 182q0 96 -53 181q-70 112 -196 112z" />
    <glyph glyph-name="Otilde" unicode="&#x425;" horiz-adv-x="1028" 
d="M169 1374l86 -22q117 160 290.5 47.5t319.5 128.5l-221 80q-10 -154 -215 -84t-260 -150zM534 134q-262 0 -395 175q-110 144 -110 364q0 216 118 377q141 193 395 193q160 0 277 -121q94 -97 138 -241q30 -99 30 -214q0 -190 -107 -346q-129 -187 -346 -187zM515 953
q-126 0 -197 -111q-54 -87 -54 -182t54 -182q71 -112 197 -112t196 112q53 87 53 182q0 96 -53 181q-70 112 -196 112z" />
    <glyph glyph-name="Odieresis" unicode="&#xd6;" horiz-adv-x="1036" 
d="M176 1462l50 -129l217 35l-38 145zM587 1537l28 -155l212 9l2 152zM534 134q-262 0 -395 175q-110 144 -110 364q0 216 118 377q141 193 395 193q160 0 277 -121q94 -97 138 -241q30 -99 30 -214q0 -190 -107 -346q-129 -187 -346 -187zM515 953q-126 0 -197 -111
q-54 -87 -54 -182t54 -182q71 -112 197 -112t196 112q53 87 53 182q0 96 -53 181q-70 112 -196 112z" />
    <glyph glyph-name="Odieresis" unicode="&#x426;" horiz-adv-x="1036" 
d="M176 1462l50 -129l217 35l-38 145zM587 1537l28 -155l212 9l2 152zM534 134q-262 0 -395 175q-110 144 -110 364q0 216 118 377q141 193 395 193q160 0 277 -121q94 -97 138 -241q30 -99 30 -214q0 -190 -107 -346q-129 -187 -346 -187zM515 953q-126 0 -197 -111
q-54 -87 -54 -182t54 -182q71 -112 197 -112t196 112q53 87 53 182q0 96 -53 181q-70 112 -196 112z" />
    <glyph glyph-name="multiply" unicode="&#xd7;" horiz-adv-x="828" 
d="M777 861l-173 125l-191 -156l-198 156l-155 -101l223 -161l-205 -158l112 -76l220 142l220 -160l121 94l-198 155z" />
    <glyph glyph-name="multiply" unicode="&#x427;" horiz-adv-x="828" 
d="M777 861l-173 125l-191 -156l-198 156l-155 -101l223 -161l-205 -158l112 -76l220 142l220 -160l121 94l-198 155z" />
    <glyph glyph-name="Oslash" unicode="&#xd8;" horiz-adv-x="1020" 
d="M652 909q-57 44 -137 44q-126 0 -197 -111q-54 -87 -54 -182q0 -70 29 -135zM391 402q53 -36 124 -36q126 0 196 112q53 87 53 182q0 55 -18 107zM930 955q15 -35 27 -74q30 -99 30 -214q0 -190 -107 -346q-129 -187 -346 -187q-191 0 -313 92l-109 -111l-138 69l144 154
q-89 138 -89 335q0 216 118 377q141 193 395 193q160 0 277 -121l16 -18l107 115l146 -101z" />
    <glyph glyph-name="Oslash" unicode="&#x428;" horiz-adv-x="1020" 
d="M652 909q-57 44 -137 44q-126 0 -197 -111q-54 -87 -54 -182q0 -70 29 -135zM391 402q53 -36 124 -36q126 0 196 112q53 87 53 182q0 55 -18 107zM930 955q15 -35 27 -74q30 -99 30 -214q0 -190 -107 -346q-129 -187 -346 -187q-191 0 -313 92l-109 -111l-138 69l144 154
q-89 138 -89 335q0 216 118 377q141 193 395 193q160 0 277 -121l16 -18l107 115l146 -101z" />
    <glyph glyph-name="Ugrave" unicode="&#xd9;" horiz-adv-x="928" 
d="M878 1172l-14 -589q-10 -439 -417 -439q-402 0 -402 425q0 125 8 607l256 -14q0 -17 -1 -50l-1 -65q-10 -391 -10 -405v-50q0 -218 157 -218q107 0 143 97q18 47 19 140l6 554zM570 1334l170 75l-377 196l-133 -147z" />
    <glyph glyph-name="Ugrave" unicode="&#x429;" horiz-adv-x="928" 
d="M878 1172l-14 -589q-10 -439 -417 -439q-402 0 -402 425q0 125 8 607l256 -14q0 -17 -1 -50l-1 -65q-10 -391 -10 -405v-50q0 -218 157 -218q107 0 143 97q18 47 19 140l6 554zM570 1334l170 75l-377 196l-133 -147z" />
    <glyph glyph-name="Uacute" unicode="&#xda;" horiz-adv-x="928" 
d="M878 1172l-14 -589q-10 -439 -417 -439q-402 0 -402 425q0 125 8 607l256 -14q0 -17 -1 -50l-1 -65q-10 -391 -10 -405v-50q0 -218 157 -218q107 0 143 97q18 47 19 140l6 554zM740 1452l-133 148l-377 -197l170 -75z" />
    <glyph glyph-name="Uacute" unicode="&#x42a;" horiz-adv-x="928" 
d="M878 1172l-14 -589q-10 -439 -417 -439q-402 0 -402 425q0 125 8 607l256 -14q0 -17 -1 -50l-1 -65q-10 -391 -10 -405v-50q0 -218 157 -218q107 0 143 97q18 47 19 140l6 554zM740 1452l-133 148l-377 -197l170 -75z" />
    <glyph glyph-name="Ucircumflex" unicode="&#xdb;" horiz-adv-x="928" 
d="M878 1172l-14 -589q-10 -439 -417 -439q-402 0 -402 425q0 125 8 607l256 -14q0 -17 -1 -50l-1 -65q-10 -391 -10 -405v-50q0 -218 157 -218q107 0 143 97q18 47 19 140l6 554zM622 1345l181 81l-345 169l-311 -239l172 -43l147 88z" />
    <glyph glyph-name="Ucircumflex" unicode="&#x42b;" horiz-adv-x="928" 
d="M878 1172l-14 -589q-10 -439 -417 -439q-402 0 -402 425q0 125 8 607l256 -14q0 -17 -1 -50l-1 -65q-10 -391 -10 -405v-50q0 -218 157 -218q107 0 143 97q18 47 19 140l6 554zM622 1345l181 81l-345 169l-311 -239l172 -43l147 88z" />
    <glyph glyph-name="Udieresis" unicode="&#xdc;" horiz-adv-x="928" 
d="M878 1172l-14 -589q-10 -439 -417 -439q-402 0 -402 425q0 125 8 607l256 -14q0 -17 -1 -50l-1 -65q-10 -391 -10 -405v-50q0 -218 157 -218q107 0 143 97q18 47 19 140l6 554zM124 1449l50 -128l217 35l-38 146zM535 1525l28 -156l212 10l2 152z" />
    <glyph glyph-name="Udieresis" unicode="&#x42c;" horiz-adv-x="928" 
d="M878 1172l-14 -589q-10 -439 -417 -439q-402 0 -402 425q0 125 8 607l256 -14q0 -17 -1 -50l-1 -65q-10 -391 -10 -405v-50q0 -218 157 -218q107 0 143 97q18 47 19 140l6 554zM124 1449l50 -128l217 35l-38 146zM535 1525l28 -156l212 10l2 152z" />
    <glyph glyph-name="Yacute" unicode="&#xdd;" horiz-adv-x="968" 
d="M943 1179q-33 -73 -134 -279l-164 -337q-6 -11 -20 -40q-19 -37 -19 -44l4 -299l-273 -6q0 8 2 53q2 51 2 82l1 170q0 6 -17 44l-19 42q-43 94 -152 337q-96 216 -122 281l271 -4l134 -435q7 -24 41 -24q33 0 41 23q23 64 83 236q30 89 69 200h272zM766 1464l-133 148
l-377 -198l170 -73z" />
    <glyph glyph-name="Yacute" unicode="&#x42d;" horiz-adv-x="968" 
d="M943 1179q-33 -73 -134 -279l-164 -337q-6 -11 -20 -40q-19 -37 -19 -44l4 -299l-273 -6q0 8 2 53q2 51 2 82l1 170q0 6 -17 44l-19 42q-43 94 -152 337q-96 216 -122 281l271 -4l134 -435q7 -24 41 -24q33 0 41 23q23 64 83 236q30 89 69 200h272zM766 1464l-133 148
l-377 -198l170 -73z" />
    <glyph glyph-name="Thorn" unicode="&#xde;" horiz-adv-x="862" 
d="M317 704l6 144l187 -11q251 -133 -20 -274l-171 -3zM605 410q508 313 38 609l-317 22l2 240h-268v-1136l259 14l2 245z" />
    <glyph glyph-name="Thorn" unicode="&#x42e;" horiz-adv-x="862" 
d="M317 704l6 144l187 -11q251 -133 -20 -274l-171 -3zM605 410q508 313 38 609l-317 22l2 240h-268v-1136l259 14l2 245z" />
    <glyph glyph-name="germandbls" unicode="&#xdf;" horiz-adv-x="897" 
d="M867 471q8 -169 -87.5 -266t-243.5 -94q-87 0 -157.5 38.5t-107.5 160.5l112 81q34 -43 49 -59t59 -30q51 -4 77.5 11t47.5 47q16 33 20.5 60.5t-13.5 81.5q-41 55 -100.5 88t-203.5 45l14 216q111 9 155.5 37.5t68.5 69.5q6 29 2 52t-33 44q-27 17 -42 21t-54 10
q-34 1 -56.5 -1t-65.5 -22q-37 -31 -49.5 -59t-15.5 -96l9 -789l-226 3v785q0 95 30.5 159t85.5 108t129 65t157 21q165 -7 257 -74t96 -204q0 -77 -42.5 -133t-118.5 -109v1q105 -18 178 -102t69 -167z" />
    <glyph glyph-name="germandbls" unicode="&#x42f;" horiz-adv-x="897" 
d="M867 471q8 -169 -87.5 -266t-243.5 -94q-87 0 -157.5 38.5t-107.5 160.5l112 81q34 -43 49 -59t59 -30q51 -4 77.5 11t47.5 47q16 33 20.5 60.5t-13.5 81.5q-41 55 -100.5 88t-203.5 45l14 216q111 9 155.5 37.5t68.5 69.5q6 29 2 52t-33 44q-27 17 -42 21t-54 10
q-34 1 -56.5 -1t-65.5 -22q-37 -31 -49.5 -59t-15.5 -96l9 -789l-226 3v785q0 95 30.5 159t85.5 108t129 65t157 21q165 -7 257 -74t96 -204q0 -77 -42.5 -133t-118.5 -109v1q105 -18 178 -102t69 -167z" />
    <glyph glyph-name="agrave" unicode="&#xe0;" horiz-adv-x="774" 
d="M99 727q98 225 308 225q316 0 316 -270q0 -76 -8 -287q-10 -243 -19 -279l-161 -1q0 8 3 32q3 20 3 32q0 32 -42 32q-7 0 -13 -2l-4 -1q-90 -31 -184 -31q-267 0 -267 214q0 119 120 183q107 58 278 58q17 0 50 -4t48 -4q38 0 42 44v36q0 49 -36 87q-42 45 -110 45
q-100 0 -140 -84zM499 513q-15 2 -54 2q-78 0 -128 -32q-55 -34 -55 -95q0 -111 161 -111q28 0 72 10q53 13 54 29l10 161q2 31 -60 36zM484 1097l170 73l-377 198l-133 -148z" />
    <glyph glyph-name="agrave" unicode="&#x430;" horiz-adv-x="774" 
d="M99 727q98 225 308 225q316 0 316 -270q0 -76 -8 -287q-10 -243 -19 -279l-161 -1q0 8 3 32q3 20 3 32q0 32 -42 32q-7 0 -13 -2l-4 -1q-90 -31 -184 -31q-267 0 -267 214q0 119 120 183q107 58 278 58q17 0 50 -4t48 -4q38 0 42 44v36q0 49 -36 87q-42 45 -110 45
q-100 0 -140 -84zM499 513q-15 2 -54 2q-78 0 -128 -32q-55 -34 -55 -95q0 -111 161 -111q28 0 72 10q53 13 54 29l10 161q2 31 -60 36zM484 1097l170 73l-377 198l-133 -148z" />
    <glyph glyph-name="aacute" unicode="&#xe1;" horiz-adv-x="774" 
d="M99 727q98 225 308 225q316 0 316 -270q0 -76 -8 -287q-10 -243 -19 -279l-161 -1q0 8 3 32q3 20 3 32q0 32 -42 32q-7 0 -13 -2l-4 -1q-90 -31 -184 -31q-267 0 -267 214q0 119 120 183q107 58 278 58q17 0 50 -4t48 -4q38 0 42 44v36q0 49 -36 87q-42 45 -110 45
q-100 0 -140 -84zM499 513q-15 2 -54 2q-78 0 -128 -32q-55 -34 -55 -95q0 -111 161 -111q28 0 72 10q53 13 54 29l10 161q2 31 -60 36zM662 1207l-133 147l-377 -196l170 -75z" />
    <glyph glyph-name="aacute" unicode="&#x431;" horiz-adv-x="774" 
d="M99 727q98 225 308 225q316 0 316 -270q0 -76 -8 -287q-10 -243 -19 -279l-161 -1q0 8 3 32q3 20 3 32q0 32 -42 32q-7 0 -13 -2l-4 -1q-90 -31 -184 -31q-267 0 -267 214q0 119 120 183q107 58 278 58q17 0 50 -4t48 -4q38 0 42 44v36q0 49 -36 87q-42 45 -110 45
q-100 0 -140 -84zM499 513q-15 2 -54 2q-78 0 -128 -32q-55 -34 -55 -95q0 -111 161 -111q28 0 72 10q53 13 54 29l10 161q2 31 -60 36zM662 1207l-133 147l-377 -196l170 -75z" />
    <glyph glyph-name="acircumflex" unicode="&#xe2;" horiz-adv-x="774" 
d="M99 727q98 225 308 225q316 0 316 -270q0 -76 -8 -287q-10 -243 -19 -279l-161 -1q0 8 3 32q3 20 3 32q0 32 -42 32q-7 0 -13 -2l-4 -1q-90 -31 -184 -31q-267 0 -267 214q0 119 120 183q107 58 278 58q17 0 50 -4t48 -4q38 0 42 44v36q0 49 -36 87q-42 45 -110 45
q-100 0 -140 -84zM499 513q-15 2 -54 2q-78 0 -128 -32q-55 -34 -55 -95q0 -111 161 -111q28 0 72 10q53 13 54 29l10 161q2 31 -60 36zM544 1080l181 82l-345 168l-311 -238l172 -44l147 88z" />
    <glyph glyph-name="acircumflex" unicode="&#x432;" horiz-adv-x="774" 
d="M99 727q98 225 308 225q316 0 316 -270q0 -76 -8 -287q-10 -243 -19 -279l-161 -1q0 8 3 32q3 20 3 32q0 32 -42 32q-7 0 -13 -2l-4 -1q-90 -31 -184 -31q-267 0 -267 214q0 119 120 183q107 58 278 58q17 0 50 -4t48 -4q38 0 42 44v36q0 49 -36 87q-42 45 -110 45
q-100 0 -140 -84zM499 513q-15 2 -54 2q-78 0 -128 -32q-55 -34 -55 -95q0 -111 161 -111q28 0 72 10q53 13 54 29l10 161q2 31 -60 36zM544 1080l181 82l-345 168l-311 -238l172 -44l147 88z" />
    <glyph glyph-name="atilde" unicode="&#xe3;" horiz-adv-x="774" 
d="M99 727q98 225 308 225q316 0 316 -270q0 -76 -8 -287q-10 -243 -19 -279l-161 -1q0 8 3 32q3 20 3 32q0 32 -42 32q-7 0 -13 -2l-4 -1q-90 -31 -184 -31q-267 0 -267 214q0 119 120 183q107 58 278 58q17 0 50 -4t48 -4q38 0 42 44v36q0 49 -36 87q-42 45 -110 45
q-100 0 -140 -84zM499 513q-15 2 -54 2q-78 0 -128 -32q-55 -34 -55 -95q0 -111 161 -111q28 0 72 10q53 13 54 29l10 161q2 31 -60 36zM66 1060l86 -21q117 159 290.5 46.5t319.5 128.5l-221 80q-10 -154 -215 -84t-260 -150z" />
    <glyph glyph-name="atilde" unicode="&#x433;" horiz-adv-x="774" 
d="M99 727q98 225 308 225q316 0 316 -270q0 -76 -8 -287q-10 -243 -19 -279l-161 -1q0 8 3 32q3 20 3 32q0 32 -42 32q-7 0 -13 -2l-4 -1q-90 -31 -184 -31q-267 0 -267 214q0 119 120 183q107 58 278 58q17 0 50 -4t48 -4q38 0 42 44v36q0 49 -36 87q-42 45 -110 45
q-100 0 -140 -84zM499 513q-15 2 -54 2q-78 0 -128 -32q-55 -34 -55 -95q0 -111 161 -111q28 0 72 10q53 13 54 29l10 161q2 31 -60 36zM66 1060l86 -21q117 159 290.5 46.5t319.5 128.5l-221 80q-10 -154 -215 -84t-260 -150z" />
    <glyph glyph-name="adieresis" unicode="&#xe4;" horiz-adv-x="774" 
d="M99 727q98 225 308 225q316 0 316 -270q0 -76 -8 -287q-10 -243 -19 -279l-161 -1q0 8 3 32q3 20 3 32q0 32 -42 32q-7 0 -13 -2l-4 -1q-90 -31 -184 -31q-267 0 -267 214q0 119 120 183q107 58 278 58q17 0 50 -4t48 -4q38 0 42 44v36q0 49 -36 87q-42 45 -110 45
q-100 0 -140 -84zM499 513q-15 2 -54 2q-78 0 -128 -32q-55 -34 -55 -95q0 -111 161 -111q28 0 72 10q53 13 54 29l10 161q2 31 -60 36zM73 1167l50 -128l217 34l-38 146zM484 1242l28 -156l212 10l2 153z" />
    <glyph glyph-name="adieresis" unicode="&#x434;" horiz-adv-x="774" 
d="M99 727q98 225 308 225q316 0 316 -270q0 -76 -8 -287q-10 -243 -19 -279l-161 -1q0 8 3 32q3 20 3 32q0 32 -42 32q-7 0 -13 -2l-4 -1q-90 -31 -184 -31q-267 0 -267 214q0 119 120 183q107 58 278 58q17 0 50 -4t48 -4q38 0 42 44v36q0 49 -36 87q-42 45 -110 45
q-100 0 -140 -84zM499 513q-15 2 -54 2q-78 0 -128 -32q-55 -34 -55 -95q0 -111 161 -111q28 0 72 10q53 13 54 29l10 161q2 31 -60 36zM73 1167l50 -128l217 34l-38 146zM484 1242l28 -156l212 10l2 153z" />
    <glyph glyph-name="aring" unicode="&#xe5;" horiz-adv-x="774" 
d="M99 727q98 225 308 225q316 0 316 -270q0 -76 -8 -287q-10 -243 -19 -279l-161 -1q0 8 3 32q3 20 3 32q0 32 -42 32q-7 0 -13 -2l-4 -1q-90 -31 -184 -31q-267 0 -267 214q0 119 120 183q107 58 278 58q17 0 50 -4t48 -4q38 0 42 44v36q0 49 -36 87q-42 45 -110 45
q-100 0 -140 -84zM499 513q-15 2 -54 2q-78 0 -128 -32q-55 -34 -55 -95q0 -111 161 -111q28 0 72 10q53 13 54 29l10 161q2 31 -60 36zM533 1298.5q-62 39.5 -150 39.5q-89 0 -151 -39.5t-62 -94.5t62 -94.5t151 -39.5q88 0 150 39.5t62 94.5t-62 94.5zM475 1196
q0 -30 -33 -51t-79 -21t-79 21t-33 51t33 51.5t79 21.5t79 -21.5t33 -51.5z" />
    <glyph glyph-name="aring" unicode="&#x435;" horiz-adv-x="774" 
d="M99 727q98 225 308 225q316 0 316 -270q0 -76 -8 -287q-10 -243 -19 -279l-161 -1q0 8 3 32q3 20 3 32q0 32 -42 32q-7 0 -13 -2l-4 -1q-90 -31 -184 -31q-267 0 -267 214q0 119 120 183q107 58 278 58q17 0 50 -4t48 -4q38 0 42 44v36q0 49 -36 87q-42 45 -110 45
q-100 0 -140 -84zM499 513q-15 2 -54 2q-78 0 -128 -32q-55 -34 -55 -95q0 -111 161 -111q28 0 72 10q53 13 54 29l10 161q2 31 -60 36zM533 1298.5q-62 39.5 -150 39.5q-89 0 -151 -39.5t-62 -94.5t62 -94.5t151 -39.5q88 0 150 39.5t62 94.5t-62 94.5zM475 1196
q0 -30 -33 -51t-79 -21t-79 21t-33 51t33 51.5t79 21.5t79 -21.5t33 -51.5z" />
    <glyph glyph-name="ae" unicode="&#xe6;" horiz-adv-x="893" 
d="M80 727q70 225 219 225q226 0 226 -270q0 -76 -6 -287q135 -248 32 -222.5t-148 38.5l-53 -16q-61 -18 -128 -18q-191 0 -191 214q0 119 86 183q76 58 198 58q12 0 35.5 -4t34.5 -4q27 0 30 44v36q0 49 -26 87q-30 45 -78 45q-72 0 -100 -84zM365 513q-11 2 -38 2
q-56 0 -92 -32q-39 -34 -39 -95q0 -111 115 -111q20 0 51 10q38 13 39 29l7 161q1 31 -43 36zM740 156q-238 -16 -250 70q-81 108 -81 276q0 162 57 316q54 160 186 153q211 7 211 -341q0 -31 -7 -87q-9 -67 -21 -86l-261 12q-34 2 -34 -34q0 -23 14 -64q35 -105 168 -79
q60 0 138 33q5 -62 5 -144q-7 -25 -125 -25zM671 773q-75 -5 -102 -74q-30 -65 -30 -136q0 -35 34 -33l151 6q21 1 36 49q12 39 12 65q-11 128 -101 123z" />
    <glyph glyph-name="ae" unicode="&#x436;" horiz-adv-x="893" 
d="M80 727q70 225 219 225q226 0 226 -270q0 -76 -6 -287q135 -248 32 -222.5t-148 38.5l-53 -16q-61 -18 -128 -18q-191 0 -191 214q0 119 86 183q76 58 198 58q12 0 35.5 -4t34.5 -4q27 0 30 44v36q0 49 -26 87q-30 45 -78 45q-72 0 -100 -84zM365 513q-11 2 -38 2
q-56 0 -92 -32q-39 -34 -39 -95q0 -111 115 -111q20 0 51 10q38 13 39 29l7 161q1 31 -43 36zM740 156q-238 -16 -250 70q-81 108 -81 276q0 162 57 316q54 160 186 153q211 7 211 -341q0 -31 -7 -87q-9 -67 -21 -86l-261 12q-34 2 -34 -34q0 -23 14 -64q35 -105 168 -79
q60 0 138 33q5 -62 5 -144q-7 -25 -125 -25zM671 773q-75 -5 -102 -74q-30 -65 -30 -136q0 -35 34 -33l151 6q21 1 36 49q12 39 12 65q-11 128 -101 123z" />
    <glyph glyph-name="ccedilla" unicode="&#xe7;" horiz-adv-x="591" 
d="M168 258q-8 5 -17 12q-114 97 -114 246q0 175 85 288q102 137 303 137q114 0 114 -9v-267q-23 20 -59 20q-238 0 -238 -186q0 -167 234 -167q19 0 45 4q32 6 33 6l-7 -171q-1 -7 -39 -5q-60 5 -48 5h-7q2 -7 4 -15q13 -149 -306 -135l-13 79q216 0 136 72
q-117 -8 -106 86z" />
    <glyph glyph-name="ccedilla" unicode="&#x437;" horiz-adv-x="591" 
d="M168 258q-8 5 -17 12q-114 97 -114 246q0 175 85 288q102 137 303 137q114 0 114 -9v-267q-23 20 -59 20q-238 0 -238 -186q0 -167 234 -167q19 0 45 4q32 6 33 6l-7 -171q-1 -7 -39 -5q-60 5 -48 5h-7q2 -7 4 -15q13 -149 -306 -135l-13 79q216 0 136 72
q-117 -8 -106 86z" />
    <glyph glyph-name="egrave" unicode="&#xe8;" horiz-adv-x="651" 
d="M458 150q-207 0 -321 120q-102 108 -102 275q0 163 58 293q82 184 250 184q267 0 267 -349q0 -31 -9 -86q-11 -68 -27 -86l-330 11q-43 2 -43 -34q0 -23 17 -64q54 -127 217 -127q76 0 175 33q6 -62 6 -145q-9 -25 -158 -25zM370 827q-84 0 -133 -84q-38 -65 -38 -137
q0 -35 43 -33l192 6q26 1 45 50q15 38 15 65q0 133 -124 133zM398 1115l170 74l-377 196l-133 -147z" />
    <glyph glyph-name="egrave" unicode="&#x438;" horiz-adv-x="651" 
d="M458 150q-207 0 -321 120q-102 108 -102 275q0 163 58 293q82 184 250 184q267 0 267 -349q0 -31 -9 -86q-11 -68 -27 -86l-330 11q-43 2 -43 -34q0 -23 17 -64q54 -127 217 -127q76 0 175 33q6 -62 6 -145q-9 -25 -158 -25zM370 827q-84 0 -133 -84q-38 -65 -38 -137
q0 -35 43 -33l192 6q26 1 45 50q15 38 15 65q0 133 -124 133zM398 1115l170 74l-377 196l-133 -147z" />
    <glyph glyph-name="eacute" unicode="&#xe9;" horiz-adv-x="651" 
d="M458 150q-207 0 -321 120q-102 108 -102 275q0 163 58 293q82 184 250 184q267 0 267 -349q0 -31 -9 -86q-11 -68 -27 -86l-330 11q-43 2 -43 -34q0 -23 17 -64q54 -127 217 -127q76 0 175 33q6 -62 6 -145q-9 -25 -158 -25zM370 827q-84 0 -133 -84q-38 -65 -38 -137
q0 -35 43 -33l192 6q26 1 45 50q15 38 15 65q0 133 -124 133zM568 1238l-133 147l-377 -196l170 -74z" />
    <glyph glyph-name="eacute" unicode="&#x439;" horiz-adv-x="651" 
d="M458 150q-207 0 -321 120q-102 108 -102 275q0 163 58 293q82 184 250 184q267 0 267 -349q0 -31 -9 -86q-11 -68 -27 -86l-330 11q-43 2 -43 -34q0 -23 17 -64q54 -127 217 -127q76 0 175 33q6 -62 6 -145q-9 -25 -158 -25zM370 827q-84 0 -133 -84q-38 -65 -38 -137
q0 -35 43 -33l192 6q26 1 45 50q15 38 15 65q0 133 -124 133zM568 1238l-133 147l-377 -196l170 -74z" />
    <glyph glyph-name="ecircumflex" unicode="&#xea;" horiz-adv-x="651" 
d="M458 150q-207 0 -321 120q-102 108 -102 275q0 163 58 293q82 184 250 184q267 0 267 -349q0 -31 -9 -86q-11 -68 -27 -86l-330 11q-43 2 -43 -34q0 -23 17 -64q54 -127 217 -127q76 0 175 33q6 -62 6 -145q-9 -25 -158 -25zM370 827q-84 0 -133 -84q-38 -65 -38 -137
q0 -35 43 -33l192 6q26 1 45 50q15 38 15 65q0 133 -124 133zM458 1118l164 81l-313 170l-283 -238l156 -44l134 88z" />
    <glyph glyph-name="ecircumflex" unicode="&#x43a;" horiz-adv-x="651" 
d="M458 150q-207 0 -321 120q-102 108 -102 275q0 163 58 293q82 184 250 184q267 0 267 -349q0 -31 -9 -86q-11 -68 -27 -86l-330 11q-43 2 -43 -34q0 -23 17 -64q54 -127 217 -127q76 0 175 33q6 -62 6 -145q-9 -25 -158 -25zM370 827q-84 0 -133 -84q-38 -65 -38 -137
q0 -35 43 -33l192 6q26 1 45 50q15 38 15 65q0 133 -124 133zM458 1118l164 81l-313 170l-283 -238l156 -44l134 88z" />
    <glyph glyph-name="edieresis" unicode="&#xeb;" horiz-adv-x="651" 
d="M458 150q-207 0 -321 120q-102 108 -102 275q0 163 58 293q82 184 250 184q267 0 267 -349q0 -31 -9 -86q-11 -68 -27 -86l-330 11q-43 2 -43 -34q0 -23 17 -64q54 -127 217 -127q76 0 175 33q6 -62 6 -145q-9 -25 -158 -25zM370 827q-84 0 -133 -84q-38 -65 -38 -137
q0 -35 43 -33l192 6q26 1 45 50q15 38 15 65q0 133 -124 133zM4 1218l50 -129l217 35l-38 145zM380 1287l28 -156l212 9l2 152z" />
    <glyph glyph-name="edieresis" unicode="&#x43b;" horiz-adv-x="651" 
d="M458 150q-207 0 -321 120q-102 108 -102 275q0 163 58 293q82 184 250 184q267 0 267 -349q0 -31 -9 -86q-11 -68 -27 -86l-330 11q-43 2 -43 -34q0 -23 17 -64q54 -127 217 -127q76 0 175 33q6 -62 6 -145q-9 -25 -158 -25zM370 827q-84 0 -133 -84q-38 -65 -38 -137
q0 -35 43 -33l192 6q26 1 45 50q15 38 15 65q0 133 -124 133zM4 1218l50 -129l217 35l-38 145zM380 1287l28 -156l212 9l2 152z" />
    <glyph glyph-name="igrave" unicode="&#xec;" horiz-adv-x="387" 
d="M317 765q-5 -194 -12 -627l-219 -1l5 635q11 -4 226 -7zM267 852l138 74l-306 197l-108 -147z" />
    <glyph glyph-name="igrave" unicode="&#x43c;" horiz-adv-x="387" 
d="M317 765q-5 -194 -12 -627l-219 -1l5 635q11 -4 226 -7zM267 852l138 74l-306 197l-108 -147z" />
    <glyph glyph-name="iacute" unicode="&#xed;" horiz-adv-x="387" 
d="M317 765q-5 -194 -12 -627l-219 -1l5 635q11 -4 226 -7zM491 987l-127 148l-359 -197l162 -74z" />
    <glyph glyph-name="iacute" unicode="&#x43d;" horiz-adv-x="387" 
d="M317 765q-5 -194 -12 -627l-219 -1l5 635q11 -4 226 -7zM491 987l-127 148l-359 -197l162 -74z" />
    <glyph glyph-name="icircumflex" unicode="&#xee;" horiz-adv-x="387" 
d="M317 765q-5 -194 -12 -627l-219 -1l5 635q11 -4 226 -7zM325 905l150 81l-286 170l-258 -239l143 -43l122 87z" />
    <glyph glyph-name="icircumflex" unicode="&#x43e;" horiz-adv-x="387" 
d="M317 765q-5 -194 -12 -627l-219 -1l5 635q11 -4 226 -7zM325 905l150 81l-286 170l-258 -239l143 -43l122 87z" />
    <glyph glyph-name="idieresis" unicode="&#xef;" horiz-adv-x="387" 
d="M317 765q-5 -194 -12 -627l-219 -1l5 635q11 -4 226 -7zM-75 1042l41 -128l177 35l-31 146zM260 1118l23 -156l173 10l2 152z" />
    <glyph glyph-name="idieresis" unicode="&#x43f;" horiz-adv-x="387" 
d="M317 765q-5 -194 -12 -627l-219 -1l5 635q11 -4 226 -7zM-75 1042l41 -128l177 35l-31 146zM260 1118l23 -156l173 10l2 152z" />
    <glyph glyph-name="eth" unicode="&#xf0;" horiz-adv-x="731" 
d="M361 741q-75 0 -120 -71q-36 -58 -36 -122q0 -158 150 -158q80 0 123 71q34 55 34 122q0 58 -30 101q-39 57 -121 57zM677 754q23 -73 23 -163q0 -150 -63 -258q-81 -138 -241 -138q-186 0 -280 115q-81 98 -81 256q0 168 58 277q78 148 250 148q58 0 107 -13l-4 52
q-72 82 -277 12l-50 65l123 56q80 17 142 19q-3 1 -6 3q-127 61 -231 10l-42 48q139 89 254 25.5t222 15.5l59 -56q-71 -55 -140 -64q26 -11 44 -29q111 -139 133 -381z" />
    <glyph glyph-name="eth" unicode="&#x440;" horiz-adv-x="731" 
d="M361 741q-75 0 -120 -71q-36 -58 -36 -122q0 -158 150 -158q80 0 123 71q34 55 34 122q0 58 -30 101q-39 57 -121 57zM677 754q23 -73 23 -163q0 -150 -63 -258q-81 -138 -241 -138q-186 0 -280 115q-81 98 -81 256q0 168 58 277q78 148 250 148q58 0 107 -13l-4 52
q-72 82 -277 12l-50 65l123 56q80 17 142 19q-3 1 -6 3q-127 61 -231 10l-42 48q139 89 254 25.5t222 15.5l59 -56q-71 -55 -140 -64q26 -11 44 -29q111 -139 133 -381z" />
    <glyph glyph-name="ntilde" unicode="&#xf1;" 
d="M257 1002q-1 -9 -3 -26q-6 -59 42 -59q18 0 42 22q12 10 38 31q58 42 129 42q267 0 267 -403q0 -163 -12 -414l-203 11q4 292 4 404q0 70 -24 125q-35 79 -108 79q-135 0 -173 -119v-4l6 -464l-207 -3l-4 778h206zM66 1161l86 -23q117 160 290.5 47t319.5 129l-221 80
q-10 -154 -215 -84t-260 -149z" />
    <glyph glyph-name="ntilde" unicode="&#x441;" 
d="M257 1002q-1 -9 -3 -26q-6 -59 42 -59q18 0 42 22q12 10 38 31q58 42 129 42q267 0 267 -403q0 -163 -12 -414l-203 11q4 292 4 404q0 70 -24 125q-35 79 -108 79q-135 0 -173 -119v-4l6 -464l-207 -3l-4 778h206zM66 1161l86 -23q117 160 290.5 47t319.5 129l-221 80
q-10 -154 -215 -84t-260 -149z" />
    <glyph glyph-name="ograve" unicode="&#xf2;" horiz-adv-x="731" 
d="M396 195q-186 0 -280 115q-81 98 -81 256q0 168 58 277q78 148 250 148q185 0 280 -131q77 -106 77 -269q0 -150 -63 -258q-81 -138 -241 -138zM361 741q-75 0 -120 -71q-36 -58 -36 -122q0 -158 150 -158q80 0 123 71q34 55 34 122q0 58 -30 101q-39 57 -121 57z
M467 1146l170 74l-377 197l-133 -148z" />
    <glyph glyph-name="ograve" unicode="&#x442;" horiz-adv-x="731" 
d="M396 195q-186 0 -280 115q-81 98 -81 256q0 168 58 277q78 148 250 148q185 0 280 -131q77 -106 77 -269q0 -150 -63 -258q-81 -138 -241 -138zM361 741q-75 0 -120 -71q-36 -58 -36 -122q0 -158 150 -158q80 0 123 71q34 55 34 122q0 58 -30 101q-39 57 -121 57z
M467 1146l170 74l-377 197l-133 -148z" />
    <glyph glyph-name="oacute" unicode="&#xf3;" horiz-adv-x="731" 
d="M396 195q-186 0 -280 115q-81 98 -81 256q0 168 58 277q78 148 250 148q185 0 280 -131q77 -106 77 -269q0 -150 -63 -258q-81 -138 -241 -138zM361 741q-75 0 -120 -71q-36 -58 -36 -122q0 -158 150 -158q80 0 123 71q34 55 34 122q0 58 -30 101q-39 57 -121 57z
M645 1294l-133 148l-377 -197l170 -75z" />
    <glyph glyph-name="oacute" unicode="&#x443;" horiz-adv-x="731" 
d="M396 195q-186 0 -280 115q-81 98 -81 256q0 168 58 277q78 148 250 148q185 0 280 -131q77 -106 77 -269q0 -150 -63 -258q-81 -138 -241 -138zM361 741q-75 0 -120 -71q-36 -58 -36 -122q0 -158 150 -158q80 0 123 71q34 55 34 122q0 58 -30 101q-39 57 -121 57z
M645 1294l-133 148l-377 -197l170 -75z" />
    <glyph glyph-name="ocircumflex" unicode="&#xf4;" horiz-adv-x="731" 
d="M396 195q-186 0 -280 115q-81 98 -81 256q0 168 58 277q78 148 250 148q185 0 280 -131q77 -106 77 -269q0 -150 -63 -258q-81 -138 -241 -138zM361 741q-75 0 -120 -71q-36 -58 -36 -122q0 -158 150 -158q80 0 123 71q34 55 34 122q0 58 -30 101q-39 57 -121 57z
M527 1143l181 82l-345 169l-311 -238l172 -44l147 87z" />
    <glyph glyph-name="ocircumflex" unicode="&#x444;" horiz-adv-x="731" 
d="M396 195q-186 0 -280 115q-81 98 -81 256q0 168 58 277q78 148 250 148q185 0 280 -131q77 -106 77 -269q0 -150 -63 -258q-81 -138 -241 -138zM361 741q-75 0 -120 -71q-36 -58 -36 -122q0 -158 150 -158q80 0 123 71q34 55 34 122q0 58 -30 101q-39 57 -121 57z
M527 1143l181 82l-345 169l-311 -238l172 -44l147 87z" />
    <glyph glyph-name="otilde" unicode="&#xf5;" horiz-adv-x="731" 
d="M396 195q-186 0 -280 115q-81 98 -81 256q0 168 58 277q78 148 250 148q185 0 280 -131q77 -106 77 -269q0 -150 -63 -258q-81 -138 -241 -138zM361 741q-75 0 -120 -71q-36 -58 -36 -122q0 -158 150 -158q80 0 123 71q34 55 34 122q0 58 -30 101q-39 57 -121 57z
M30 1130l86 -23q117 160 290.5 47t319.5 129l-221 80q-10 -154 -215 -84t-260 -149z" />
    <glyph glyph-name="otilde" unicode="&#x445;" horiz-adv-x="731" 
d="M396 195q-186 0 -280 115q-81 98 -81 256q0 168 58 277q78 148 250 148q185 0 280 -131q77 -106 77 -269q0 -150 -63 -258q-81 -138 -241 -138zM361 741q-75 0 -120 -71q-36 -58 -36 -122q0 -158 150 -158q80 0 123 71q34 55 34 122q0 58 -30 101q-39 57 -121 57z
M30 1130l86 -23q117 160 290.5 47t319.5 129l-221 80q-10 -154 -215 -84t-260 -149z" />
    <glyph glyph-name="odieresis" unicode="&#xf6;" horiz-adv-x="731" 
d="M396 195q-186 0 -280 115q-81 98 -81 256q0 168 58 277q78 148 250 148q185 0 280 -131q77 -106 77 -269q0 -150 -63 -258q-81 -138 -241 -138zM361 741q-75 0 -120 -71q-36 -58 -36 -122q0 -158 150 -158q80 0 123 71q34 55 34 122q0 58 -30 101q-39 57 -121 57z
M38 1249l50 -128l217 35l-38 145zM449 1324l28 -156l212 10l2 152z" />
    <glyph glyph-name="odieresis" unicode="&#x446;" horiz-adv-x="731" 
d="M396 195q-186 0 -280 115q-81 98 -81 256q0 168 58 277q78 148 250 148q185 0 280 -131q77 -106 77 -269q0 -150 -63 -258q-81 -138 -241 -138zM361 741q-75 0 -120 -71q-36 -58 -36 -122q0 -158 150 -158q80 0 123 71q34 55 34 122q0 58 -30 101q-39 57 -121 57z
M38 1249l50 -128l217 35l-38 145zM449 1324l28 -156l212 10l2 152z" />
    <glyph glyph-name="divide" unicode="&#xf7;" horiz-adv-x="711" 
d="M72 659l9 -90l558 2l-8 92zM417 848q26 -21 26 -50t-26 -50t-63 -21t-63 21t-26 50t26 50t63 21t63 -21zM438.5 465q30.5 -24 30.5 -59t-30.5 -60t-74.5 -25q-43 0 -73.5 25t-30.5 60t30.5 59t73.5 24q44 0 74.5 -24z" />
    <glyph glyph-name="divide" unicode="&#x447;" horiz-adv-x="711" 
d="M72 659l9 -90l558 2l-8 92zM417 848q26 -21 26 -50t-26 -50t-63 -21t-63 21t-26 50t26 50t63 21t63 -21zM438.5 465q30.5 -24 30.5 -59t-30.5 -60t-74.5 -25q-43 0 -73.5 25t-30.5 60t30.5 59t73.5 24q44 0 74.5 -24z" />
    <glyph glyph-name="oslash" unicode="&#xf8;" horiz-adv-x="878" 
d="M310 397q41 -25 107 -25q95 0 147 84q40 66 40 146q0 29 -5 54zM249 477l285 258q-44 41 -118 41q-85 0 -137 -81q-41 -65 -41 -138q0 -46 11 -80zM727 776q30 -80 30 -181q0 -151 -63 -259q-81 -138 -241 -138q-171 0 -264 97l-86 -76l-67 52l103 93q-47 85 -47 206
q0 167 58 277q78 148 250 148q185 0 280 -131q2 -4 5 -7l86 78l67 -59z" />
    <glyph glyph-name="oslash" unicode="&#x448;" horiz-adv-x="878" 
d="M310 397q41 -25 107 -25q95 0 147 84q40 66 40 146q0 29 -5 54zM249 477l285 258q-44 41 -118 41q-85 0 -137 -81q-41 -65 -41 -138q0 -46 11 -80zM727 776q30 -80 30 -181q0 -151 -63 -259q-81 -138 -241 -138q-171 0 -264 97l-86 -76l-67 52l103 93q-47 85 -47 206
q0 167 58 277q78 148 250 148q185 0 280 -131q2 -4 5 -7l86 78l67 -59z" />
    <glyph glyph-name="ugrave" unicode="&#xf9;" 
d="M766 957l5 -778h-206q1 9 3 26q6 58 -43 58q-18 0 -42 -21q-12 -11 -37 -32q-57 -42 -128 -42q-271 0 -271 402q0 98 16 414l199 -12l-4 -402q0 -71 24 -126q34 -79 106 -79q126 0 168 109q7 11 7 16l-6 462zM510 1121l170 74l-377 196l-133 -147z" />
    <glyph glyph-name="ugrave" unicode="&#x449;" 
d="M766 957l5 -778h-206q1 9 3 26q6 58 -43 58q-18 0 -42 -21q-12 -11 -37 -32q-57 -42 -128 -42q-271 0 -271 402q0 98 16 414l199 -12l-4 -402q0 -71 24 -126q34 -79 106 -79q126 0 168 109q7 11 7 16l-6 462zM510 1121l170 74l-377 196l-133 -147z" />
    <glyph glyph-name="uacute" unicode="&#xfa;" 
d="M766 957l5 -778h-206q1 9 3 26q6 58 -43 58q-18 0 -42 -21q-12 -11 -37 -32q-57 -42 -128 -42q-271 0 -271 402q0 98 16 414l199 -12l-4 -402q0 -71 24 -126q34 -79 106 -79q126 0 168 109q7 11 7 16l-6 462zM714 1276l-133 147l-377 -196l170 -74z" />
    <glyph glyph-name="uacute" unicode="&#x44a;" 
d="M766 957l5 -778h-206q1 9 3 26q6 58 -43 58q-18 0 -42 -21q-12 -11 -37 -32q-57 -42 -128 -42q-271 0 -271 402q0 98 16 414l199 -12l-4 -402q0 -71 24 -126q34 -79 106 -79q126 0 168 109q7 11 7 16l-6 462zM714 1276l-133 147l-377 -196l170 -74z" />
    <glyph glyph-name="ucircumflex" unicode="&#xfb;" 
d="M766 957l5 -778h-206q1 9 3 26q6 58 -43 58q-18 0 -42 -21q-12 -11 -37 -32q-57 -42 -128 -42q-271 0 -271 402q0 98 16 414l199 -12l-4 -402q0 -71 24 -126q34 -79 106 -79q126 0 168 109q7 11 7 16l-6 462zM579 1194l181 81l-345 170l-311 -239l172 -43l147 88z" />
    <glyph glyph-name="ucircumflex" unicode="&#x44b;" 
d="M766 957l5 -778h-206q1 9 3 26q6 58 -43 58q-18 0 -42 -21q-12 -11 -37 -32q-57 -42 -128 -42q-271 0 -271 402q0 98 16 414l199 -12l-4 -402q0 -71 24 -126q34 -79 106 -79q126 0 168 109q7 11 7 16l-6 462zM579 1194l181 81l-345 170l-311 -239l172 -43l147 88z" />
    <glyph glyph-name="udieresis" unicode="&#xfc;" 
d="M766 957l5 -778h-206q1 9 3 26q6 58 -43 58q-18 0 -42 -21q-12 -11 -37 -32q-57 -42 -128 -42q-271 0 -271 402q0 98 16 414l199 -12l-4 -402q0 -71 24 -126q34 -79 106 -79q126 0 168 109q7 11 7 16l-6 462zM72 1275l50 -129l217 35l-38 145zM483 1350l28 -156l212 9
l2 153z" />
    <glyph glyph-name="udieresis" unicode="&#x44c;" 
d="M766 957l5 -778h-206q1 9 3 26q6 58 -43 58q-18 0 -42 -21q-12 -11 -37 -32q-57 -42 -128 -42q-271 0 -271 402q0 98 16 414l199 -12l-4 -402q0 -71 24 -126q34 -79 106 -79q126 0 168 109q7 11 7 16l-6 462zM72 1275l50 -129l217 35l-38 145zM483 1350l28 -156l212 9
l2 153z" />
    <glyph glyph-name="yacute" unicode="&#xfd;" horiz-adv-x="803" 
d="M758 1049q0 5 0 -15q0 -387 -6 -637q-2 -87 -4 -175q-4 -103 -19 -177q-25 -124 -106 -197q-93 -86 -243 -86q-74 0 -110 7v227q56 -6 57 -6q226 0 226 165v126q0 32 -42 32q-18 0 -42 -22q-12 -10 -37 -30q-56 -39 -128 -39q-267 0 -267 393q0 98 16 409l199 -12
l-4 -396q0 -70 24 -123q34 -79 106 -79q130 0 169 111q4 10 0 526zM696 1283l-133 147l-377 -197l170 -74z" />
    <glyph glyph-name="yacute" unicode="&#x44d;" horiz-adv-x="803" 
d="M758 1049q0 5 0 -15q0 -387 -6 -637q-2 -87 -4 -175q-4 -103 -19 -177q-25 -124 -106 -197q-93 -86 -243 -86q-74 0 -110 7v227q56 -6 57 -6q226 0 226 165v126q0 32 -42 32q-18 0 -42 -22q-12 -10 -37 -30q-56 -39 -128 -39q-267 0 -267 393q0 98 16 409l199 -12
l-4 -396q0 -70 24 -123q34 -79 106 -79q130 0 169 111q4 10 0 526zM696 1283l-133 147l-377 -197l170 -74z" />
    <glyph glyph-name="thorn" unicode="&#xfe;" horiz-adv-x="826" 
d="M273 1310q5 -278 4 -285t-1 -10q-13 -89 61 -30l19 4q25 4 40 4q92 0 169 -30q232 -91 232 -339q0 -140 -77 -241q-91 -117 -254 -117q-64 0 -117 26q-10 5 -24 5q-43 0 -42 -32v-329l-195 7l-41 1354zM321 755q-43 0 -42 -32l2 -258q0 -16 45 -29q39 -12 64 -12
q86 0 129 52q34 40 34 101q0 82 -62 130t-170 48z" />
    <glyph glyph-name="thorn" unicode="&#x44e;" horiz-adv-x="826" 
d="M273 1310q5 -278 4 -285t-1 -10q-13 -89 61 -30l19 4q25 4 40 4q92 0 169 -30q232 -91 232 -339q0 -140 -77 -241q-91 -117 -254 -117q-64 0 -117 26q-10 5 -24 5q-43 0 -42 -32v-329l-195 7l-41 1354zM321 755q-43 0 -42 -32l2 -258q0 -16 45 -29q39 -12 64 -12
q86 0 129 52q34 40 34 101q0 82 -62 130t-170 48z" />
    <glyph glyph-name="ydieresis" unicode="&#xff;" horiz-adv-x="803" 
d="M758 1049q0 5 0 -15q0 -387 -6 -637q-2 -87 -4 -175q-4 -103 -19 -177q-25 -124 -106 -197q-93 -86 -243 -86q-74 0 -110 7v227q56 -6 57 -6q226 0 226 165v126q0 32 -42 32q-18 0 -42 -22q-12 -10 -37 -30q-56 -39 -128 -39q-267 0 -267 393q0 98 16 409l199 -12
l-4 -396q0 -70 24 -123q34 -79 106 -79q130 0 169 111q4 10 0 526zM72 1339l50 -129l217 35l-38 145zM483 1414l28 -156l212 9l2 153z" />
    <glyph glyph-name="ydieresis" unicode="&#x44f;" horiz-adv-x="803" 
d="M758 1049q0 5 0 -15q0 -387 -6 -637q-2 -87 -4 -175q-4 -103 -19 -177q-25 -124 -106 -197q-93 -86 -243 -86q-74 0 -110 7v227q56 -6 57 -6q226 0 226 165v126q0 32 -42 32q-18 0 -42 -22q-12 -10 -37 -30q-56 -39 -128 -39q-267 0 -267 393q0 98 16 409l199 -12
l-4 -396q0 -70 24 -123q34 -79 106 -79q130 0 169 111q4 10 0 526zM72 1339l50 -129l217 35l-38 145zM483 1414l28 -156l212 9l2 153z" />
    <glyph glyph-name="afii10023" unicode="&#x401;" horiz-adv-x="796" 
d="M752 395l2 -188h-704q1 -17 1 455v587h701v-190h-411q-42 0 -42 -30v-182q0 -30 42 -30h321v-190h-323q-42 0 -42 -32l-2 -168q0 -32 42 -32h415zM583 1342q-60 0 -102 34q-38 31 -38 72q0 40 38 71q40 32 100 32q61 0 102 -33q38 -31 38 -72q0 -39 -38 -70
q-41 -34 -100 -34zM197 1336q-50 0 -84 28q-31 25 -31 59q0 33 31 58q33 27 82 27q50 0 83 -28q32 -25 32 -58t-32 -58q-33 -28 -81 -28z" />
    <glyph glyph-name="afii10071" unicode="&#x451;" horiz-adv-x="651" 
d="M458 150q-207 0 -321 120q-102 108 -102 275q0 163 58 293q82 184 250 184q267 0 267 -349q0 -31 -9 -86q-11 -68 -27 -86l-330 11q-43 2 -43 -34q0 -23 17 -64q54 -127 217 -127q76 0 175 33q6 -62 6 -145q-9 -25 -158 -25zM370 827q-84 0 -133 -84q-38 -65 -38 -137
q0 -35 43 -33l192 6q26 1 45 50q15 38 15 65q0 133 -124 133zM150 1118q-30 0 -51 14.5t-21 33.5q0 20 21 34t51 14t51.5 -14t21.5 -34q0 -19 -21.5 -33.5t-51.5 -14.5zM448 1150q-39 0 -66.5 25.5t-27.5 61.5t27.5 61.5t66.5 25.5t67 -25.5t28 -61.5t-28 -61.5t-67 -25.5z
" />
    <glyph glyph-name="endash" unicode="&#x2013;" horiz-adv-x="981" 
d="M911 699l2 -221h-843q0 36 1 122q0 41 1 99h839z" />
    <glyph glyph-name="emdash" unicode="&#x2014;" horiz-adv-x="1364" 
d="M1404 699l3 -221h-1454q0 36 1 122v99h1450z" />
    <glyph glyph-name="quoteleft" unicode="&#x2018;" horiz-adv-x="584" 
d="M481 929v-201h-379v285q0 32 17.5 59.5t47 49.5t68 40t80 30t83 18.5t77.5 6.5v-195h-96v-93h102z" />
    <glyph glyph-name="quoteright" unicode="&#x2019;" horiz-adv-x="580" 
d="M102 1013v201h375v-287q0 -45 -36 -82.5t-90.5 -64.5t-119.5 -41.5t-122 -14.5v194h94v95h-101z" />
    <glyph glyph-name="quotesinglbase" unicode="&#x201a;" horiz-adv-x="393" 
d="M201 140q10 26 10 44v10q0 32 -33 40q-12 1 -34 6q-93 25 -93 84q0 35 43 61t95 26q57 0 99 -27t42 -66q0 -117 -129 -178z" />
    <glyph glyph-name="quotedblleft" unicode="&#x201c;" horiz-adv-x="795" 
d="M573 1110q-10 -26 -10 -44v-10q0 -32 34 -40l33 -6q93 -26 93 -84q0 -36 -42.5 -61.5t-95.5 -25.5q-57 0 -99 26.5t-42 66.5q0 117 129 178zM191 1051q1 -28 33 -35l33 -6q93 -25 93 -84q0 -36 -42.5 -61.5t-95.5 -25.5q-56 0 -98 26.5t-42 66.5q0 114 127 177
q-10 -30 -8 -58z" />
    <glyph glyph-name="quotedblright" unicode="&#x201d;" horiz-adv-x="795" 
d="M222 854q9 27 9 44v11q0 32 -33 39q-11 1 -34 7q-92 24 -92 84q0 35 42.5 60.5t95.5 25.5q56 0 98 -27t42 -66q0 -117 -128 -178zM604 914q-2 27 -33 34q-11 1 -34 7q-93 23 -93 84q0 35 43 60.5t96 25.5q56 0 98 -27t42 -66q0 -115 -128 -177q11 30 9 59z" />
    <glyph glyph-name="quotedblbase" unicode="&#x201e;" horiz-adv-x="743" 
d="M201 140q10 26 10 44v10q0 32 -33 40q-12 1 -34 6q-93 25 -93 84q0 35 43 61t95 26q57 0 99 -27t42 -66q0 -117 -129 -178zM567 140q10 26 10 44v10q0 32 -34 40q-11 1 -33 6q-93 25 -93 84q0 35 42.5 61t95.5 26q56 0 98 -27t42 -66q0 -117 -128 -178z" />
    <glyph glyph-name="dagger" unicode="&#x2020;" horiz-adv-x="1311" 
d="M471 1284h369v-269h368v-246h-368v-558h-369v558h-369v246h369v269z" />
    <glyph glyph-name="bullet" unicode="&#x2022;" horiz-adv-x="784" 
d="M102 769q0 44 23 82t62.5 66.5t92 45t111.5 16.5q61 0 114.5 -16.5t92.5 -45t61.5 -66.5t22.5 -82q0 -43 -22.5 -81t-61.5 -67t-92.5 -45t-114.5 -16t-113.5 16t-91.5 45t-61.5 67t-22.5 81z" />
    <glyph glyph-name="ellipsis" unicode="&#x2026;" horiz-adv-x="1194" 
d="M1007 208q-57 0 -99 28.5t-42 72.5q0 39 44 66q41 25 95 25t98 -27.5t44 -68.5t-43 -68.5t-97 -27.5zM597 208q-57 0 -98.5 28.5t-41.5 72.5q0 39 43 66q42 25 95 25q55 0 98.5 -27.5t43.5 -68.5t-43 -68.5t-97 -27.5zM187 208q-57 0 -97 28q-43 29 -43 73q0 39 44 66
q41 25 94 25q55 0 99 -27.5t44 -68.5t-43 -68.5t-98 -27.5z" />
    <glyph glyph-name="perthousand" unicode="&#x2030;" horiz-adv-x="2167" 
d="M1296 1327l-886 -1116h-246l887 1116h245zM1485 421q0 44 23 82t62.5 67t92 45.5t111.5 16.5q61 0 114 -16.5t92 -45.5t61.5 -67t22.5 -82q0 -43 -22.5 -81.5t-61.5 -67t-92 -45t-114 -16.5t-113.5 16.5t-91.5 45t-61.5 67t-22.5 81.5zM102 1118q0 44 23 81.5t62.5 66.5
t92 45t111.5 16q61 0 114.5 -16t92.5 -45t61.5 -66.5t22.5 -81.5t-22.5 -82t-61.5 -66.5t-92.5 -45t-114.5 -16.5t-113.5 16.5t-91.5 45t-61.5 66.5t-22.5 82zM778 421q0 44 23 82t62.5 67t92 45.5t111.5 16.5q61 0 114.5 -16.5t92.5 -45.5t61.5 -67t22.5 -82
q0 -43 -22.5 -81.5t-61.5 -67t-92.5 -45t-114.5 -16.5t-113.5 16.5t-91.5 45t-61.5 67t-22.5 81.5z" />
    <glyph glyph-name="guilsinglleft" unicode="&#x2039;" 
d="M102 769l613 386v-354h-183v-63h183v-354z" />
    <glyph glyph-name="guilsinglright" unicode="&#x203a;" 
d="M715 769l-613 -385v354h183v63h-183v354z" />
    <glyph glyph-name="trademark" unicode="&#x2122;" horiz-adv-x="1295" 
d="M1105 875h-111v284l-105 -284h-46l-108 284v-284h-111v400h160l81 -220l82 220h158v-400zM548 1183h-118v-308h-125v308h-117v92h360v-92z" />
    </font>
</defs>
</svg>
