<svg xmlns="http://www.w3.org/2000/svg" x="0px" y="0px" width="640" height="440" viewBox="25 200 658.583 441.89">
    <path fill-rule="evenodd" clip-rule="evenodd" fill="#fff"
          d="M505.316,267.378h5.087v5.043h4.689v-5.043h5.087v15.262h-5.087   v-5.088h-4.645v5.088h-5.132V267.378L505.316,267.378z M526.904,272.466h-4.49v-5.087h14.09v5.087h-4.512v10.175h-5.087V272.466   L526.904,272.466z M538.738,267.378h5.331l3.274,5.375l3.273-5.375h5.331v15.262h-5.087v-7.565l-3.561,5.486l-3.561-5.486v7.565   l-4.999,0V267.378L538.738,267.378z M558.468,267.378h5.088v10.219h7.211v5.043h-12.298V267.378z M558.468,267.378L558.468,267.378   L558.468,267.378z"/>
</svg>