<svg xmlns="http://www.w3.org/2000/svg" x="0px" y="0px"
	 width="700" height="600" viewBox="87 115 550 610" >
<path fill-rule="evenodd" clip-rule="evenodd" fill="#FFA196" d="M439.745,661.385c-7.814,16.191-27.279,22.982-43.468,15.169
	c-16.195-7.813-22.988-27.273-15.173-43.47c12.534-25.971,32.211-47.857,56.478-63.102c23.653-14.854,51.499-23.442,81.205-23.442
	c29.711,0,57.557,8.587,81.21,23.442c24.269,15.245,43.944,37.131,56.475,63.102c7.813,16.197,1.02,35.657-15.168,43.47
	c-16.194,7.813-35.652,1.022-43.471-15.169c-7.216-14.96-18.541-27.56-32.511-36.33c-13.366-8.397-29.308-13.251-46.535-13.251
	c-17.224,0-33.166,4.854-46.532,13.251C458.286,633.826,446.96,646.426,439.745,661.385L439.745,661.385z M521.431,393.958
	c7.815-16.191,27.279-22.982,43.468-15.169c16.195,7.813,22.988,27.273,15.173,43.47c-12.534,25.971-32.211,47.857-56.478,63.102
	c-23.653,14.854-51.499,23.442-81.205,23.442c-29.71,0-57.557-8.587-81.209-23.442c-24.269-15.245-43.944-37.131-56.475-63.102
	c-7.813-16.197-1.021-35.657,15.168-43.47c16.194-7.813,35.652-1.022,43.471,15.169c7.216,14.96,18.541,27.56,32.511,36.33
	c13.365,8.397,29.308,13.251,46.535,13.251c17.224,0,33.167-4.854,46.533-13.251C502.89,421.518,514.217,408.918,521.431,393.958
	L521.431,393.958z M54.036,304.569c22.397,0,40.555,18.157,40.555,40.556c0,22.397-18.158,40.551-40.555,40.551
	c-22.399,0-40.552-18.154-40.552-40.551C13.484,322.726,31.636,304.569,54.036,304.569L54.036,304.569z M302.267,208.552h8.33
	c21.18,0,38.352-17.172,38.352-38.352c0-21.179-17.172-38.349-38.352-38.349h-8.33c-89.68,0-162.466,72.78-162.466,162.46v9.324
	v32.166v9.324c0,47.342-38.418,85.759-85.765,85.759h-8.33c-21.18,0-38.352,17.172-38.352,38.352
	c0,21.179,17.172,38.349,38.352,38.349h8.33c89.68,0,162.466-72.78,162.466-162.46v-9.324v-32.166v-9.324
	C216.502,246.97,254.919,208.552,302.267,208.552L302.267,208.552z M544.821,114.768c-3.49,17.583-19.004,30.843-37.616,30.843
	h-87.326c-18.612,0-34.126-13.26-37.616-30.843H544.821L544.821,114.768z M160.888,569.236c21.18,0,38.352,17.17,38.352,38.355
	c0,21.174-17.172,38.346-38.352,38.346H73.562c-21.18,0-38.352-17.172-38.352-38.346c0-21.184,17.172-38.355,38.352-38.355H160.888
	L160.888,569.236z M15.681,141.691v-26.922h76.701v26.922v87.326c0,21.18-17.172,38.352-38.346,38.352
	c-21.184,0-38.355-17.172-38.355-38.352V141.691L15.681,141.691z M630.424,427.781v87.326c0,21.18,17.17,38.352,38.355,38.352
	c21.174,0,38.346-17.172,38.346-38.352v-87.326v-87.326c0-21.18-17.172-38.352-38.346-38.352c-21.184,0-38.355,17.172-38.355,38.352
	V427.781L630.424,427.781z M263.322,610.513c0,47.348-38.418,85.765-85.759,85.765H71.187c-18.611,0-34.126,13.26-37.616,30.844
	h257.064c30.449-29.535,49.388-70.871,49.388-116.609v-8.33c0-21.18-17.17-38.352-38.349-38.352
	c-21.18,0-38.352,17.172-38.352,38.352V610.513L263.322,610.513z M480.741,343.115c0-47.348,38.418-85.765,85.759-85.765h106.376
	c21.18,0,38.352-17.172,38.352-38.346c0-21.185-17.172-38.355-38.352-38.355H566.5c-89.68,0-162.46,72.786-162.46,162.466v8.33
	c0,21.18,17.17,38.352,38.349,38.352c21.18,0,38.352-17.172,38.352-38.352V343.115L480.741,343.115z M203.312,491.98
	c0-22.398,18.157-40.55,40.556-40.55c22.397,0,40.551,18.152,40.551,40.55c0,22.398-18.154,40.557-40.551,40.557
	C221.469,532.537,203.312,514.379,203.312,491.98L203.312,491.98z M491.954,727.122h53.669c8.413-7.431,13.721-18.297,13.721-30.405
	c0-22.396-18.159-40.551-40.556-40.551c-22.398,0-40.551,18.154-40.551,40.551C478.237,708.824,483.543,719.69,491.954,727.122
	L491.954,727.122z M302.267,253.761c22.398,0,40.551,18.157,40.551,40.557c0,22.397-18.153,40.55-40.551,40.55
	c-22.398,0-40.556-18.154-40.556-40.55C261.711,271.918,279.869,253.761,302.267,253.761z"/>
</svg>
