<svg xmlns="http://www.w3.org/2000/svg" x="0px" y="0px" width="640" height="440" viewBox="25 200 658.583 441.89">
    <path fill-rule="evenodd" clip-rule="evenodd" fill="#fff"
          d="M260.557,248.722L260.557,248.722  c-0.461,0.255-0.627,0.836-0.372,1.296l2.109,3.805c-3.8,2.169-6.334,6.047-6.34,10.473h26.697c-0.006-4.426-2.54-8.305-6.34-10.473  l2.109-3.805c0.255-0.461,0.089-1.041-0.372-1.296l0,0c-0.461-0.255-1.041-0.089-1.296,0.372l-2.162,3.902  c-1.621-0.647-3.409-1.005-5.287-1.005c-1.879,0-3.666,0.359-5.287,1.005l-2.163-3.902  C261.598,248.634,261.017,248.467,260.557,248.722L260.557,248.722z M288.874,265.717c-0.543-0.543-1.291-0.879-2.116-0.879v0.002  c-0.826,0-1.574,0.335-2.116,0.877c-0.543,0.543-0.879,1.291-0.879,2.116v12.468h0.002c0,0.826,0.335,1.574,0.876,2.116  c0.542,0.542,1.29,0.877,2.116,0.877l0,0.002c0.825,0,1.573-0.336,2.116-0.879c0.541-0.541,0.877-1.289,0.877-2.116h0.002v-12.468  h-0.002C289.751,267.006,289.416,266.258,288.874,265.717L288.874,265.717z M282.651,265.354v19.348  c0,1.782-1.445,3.227-3.227,3.227h-2.14v6.601h-0.002c0,0.826-0.335,1.574-0.876,2.116c-0.542,0.542-1.29,0.876-2.116,0.876v0.002  c-0.825,0-1.573-0.336-2.116-0.879c-0.542-0.541-0.876-1.289-0.876-2.116h-0.002v-6.601h-3.985l0,6.601h-0.002  c0,0.826-0.335,1.574-0.876,2.116c-0.543,0.543-1.291,0.879-2.116,0.879v-0.002c-0.826,0-1.575-0.335-2.116-0.876  c-0.541-0.541-0.876-1.289-0.876-2.116h-0.002v-6.601h-2.14c-1.782,0-3.227-1.445-3.227-3.227v-19.348H282.651L282.651,265.354z   M276.252,257.51c0.202,0.202,0.327,0.48,0.327,0.788c0,0.308-0.125,0.586-0.327,0.788c-0.202,0.202-0.48,0.327-0.788,0.327  c-0.308,0-0.587-0.125-0.788-0.327c-0.202-0.202-0.327-0.48-0.327-0.788c0-0.308,0.125-0.587,0.327-0.788  c0.202-0.202,0.481-0.327,0.788-0.327C275.771,257.183,276.05,257.308,276.252,257.51L276.252,257.51z M263.93,257.51  c0.202,0.202,0.327,0.48,0.327,0.788c0,0.308-0.125,0.586-0.327,0.788c-0.202,0.202-0.48,0.327-0.788,0.327  c-0.308,0-0.587-0.125-0.788-0.327c-0.202-0.202-0.326-0.48-0.326-0.788c0-0.308,0.125-0.587,0.326-0.788  c0.202-0.202,0.48-0.327,0.788-0.327C263.449,257.183,263.728,257.308,263.93,257.51L263.93,257.51z M253.963,265.717  c-0.543-0.543-1.291-0.879-2.116-0.879v0.002c-0.826,0-1.575,0.335-2.116,0.877c-0.543,0.543-0.879,1.291-0.879,2.116v12.468h0.002  c0,0.826,0.335,1.574,0.876,2.116c0.541,0.542,1.29,0.877,2.116,0.877l0,0.002c0.825,0,1.573-0.336,2.116-0.879  c0.541-0.541,0.876-1.289,0.876-2.116h0.002l0-12.468h-0.002C254.839,267.006,254.504,266.258,253.963,265.717z"/>

</svg>