<svg xmlns="http://www.w3.org/2000/svg" width="120" height="70" viewBox="305 395 105.583 51.89">
<path  fill="#fff" d="M310.926,392.827c15.684,0.002,31.369-0.001,47.053,0.001  c0,15.672,0.001,31.343,0,47.015c-15.685-0.001-31.37-0.001-47.054,0C310.927,424.171,310.924,408.499,310.926,392.827  L310.926,392.827z M312.487,446.096c-0.059-1.309,0.911-2.58,2.179-2.896c1.282-0.421,2.763,0.227,3.425,1.381  c-0.493,0.343-1.053,0.579-1.538,0.935c-0.232-0.26-0.486-0.56-0.855-0.61c-0.605-0.116-1.267,0.326-1.354,0.944  c-0.094,0.308,0.051,0.611,0.137,0.903c0.5,0.682,1.629,0.649,2.067-0.086c0.511,0.32,1.046,0.598,1.557,0.918  c-0.555,0.912-1.585,1.566-2.676,1.466C313.848,449.137,312.42,447.658,312.487,446.096L312.487,446.096z M406.15,447.41  c0.158,0.001,0.319,0.008,0.481,0.019c0.107,0.385,0.18,0.78,0.289,1.165c0.089-0.397,0.174-0.793,0.294-1.181  c0.146,0.003,0.294,0.005,0.444,0.009c-0.001,0.525-0.001,1.051,0,1.578c-0.075,0-0.226,0.001-0.301,0.003  c0.004-0.422-0.013-0.844-0.012-1.264c-0.063,0.428-0.165,0.849-0.279,1.267c-0.113-0.004-0.227-0.007-0.339-0.008  c-0.061-0.417-0.132-0.832-0.252-1.236c-0.031,0.414-0.018,0.829-0.015,1.244c-0.08-0.001-0.238-0.005-0.317-0.008  C406.147,448.468,406.143,447.939,406.15,447.41L406.15,447.41z M404.68,447.424c0.418,0,0.836-0.021,1.254,0.001  c0.027,0.065,0.081,0.192,0.109,0.256c-0.186,0.01-0.37,0.019-0.553,0.028c0.001,0.427,0.001,0.854,0.004,1.281  c-0.089,0.005-0.266,0.013-0.355,0.017c-0.004-0.436-0.003-0.871-0.001-1.306c-0.152-0.001-0.304-0.003-0.456-0.003  C404.681,447.63,404.681,447.492,404.68,447.424L404.68,447.424z M391.847,448.985c0.001-1.923-0.008-3.847,0.005-5.77  c0.884,0.01,1.769,0.003,2.654,0.005c0.511,0.003,1.033-0.037,1.53,0.113c0.747,0.293,1.359,1.029,1.33,1.86  c0.064,0.78-0.436,1.499-1.107,1.852c0.343,0.662,0.761,1.282,1.125,1.934c-0.716,0.012-1.432-0.004-2.148,0.01  c-0.289-0.566-0.573-1.134-0.862-1.7c-0.2-0.004-0.398-0.005-0.597-0.008c-0.002,0.568-0.001,1.135-0.001,1.703  C393.132,448.982,392.49,448.981,391.847,448.985L391.847,448.985z M393.776,444.891c-0.001,0.324,0,0.646,0.001,0.97  c0.516-0.024,1.051,0.075,1.549-0.101c0.129-0.28,0.185-0.703-0.165-0.842C394.702,444.86,394.236,444.902,393.776,444.891  L393.776,444.891z M378.389,443.22c0.649,0,1.298-0.001,1.948,0c0.201,0.818,0.273,1.661,0.488,2.477  c0.312-0.767,0.639-1.528,0.935-2.301c0.365,0.76,0.616,1.571,1.007,2.319c0.053-0.846,0.344-1.654,0.423-2.497  c0.649,0.004,1.298,0.004,1.947,0c-0.316,1.928-0.747,3.838-1.069,5.763c-0.529,0.004-1.058-0.001-1.587,0.007  c-0.276-0.499-0.461-1.041-0.717-1.551c-0.217,0.516-0.45,1.025-0.655,1.546c-0.532,0.001-1.064,0-1.596,0.001  C379.1,447.071,378.785,445.138,378.389,443.22L378.389,443.22z M372.159,444.891c0.001-0.557,0.001-1.113,0.001-1.671  c1.928-0.001,3.856,0.003,5.783-0.001c0.001,0.558,0.003,1.117,0,1.677c-0.604-0.008-1.208-0.004-1.811-0.005  c0.003,1.365-0.003,2.73,0.003,4.093c-0.724-0.003-1.447,0-2.17-0.001c0.001-1.363-0.002-2.727,0.001-4.091  C373.365,444.891,372.762,444.892,372.159,444.891L372.159,444.891z M366.486,443.22c1.681-0.001,3.36,0,5.041,0  c-0.001,0.558,0,1.115-0.001,1.673c-1.034-0.004-2.069-0.001-3.104-0.001c-0.001,0.123-0.001,0.369-0.003,0.492  c0.884,0.002,1.769,0,2.652,0.001c-0.001,0.482-0.001,0.965,0,1.448c-0.883-0.001-1.767-0.001-2.649,0  c-0.001,0.195-0.003,0.39-0.001,0.586c1.035,0.001,2.07,0.001,3.105-0.001c0.001,0.522,0,1.044,0.001,1.566  c-1.681-0.001-3.362,0-5.041-0.001C366.488,447.062,366.486,445.141,366.486,443.22L366.486,443.22z M359.911,443.221  c0.654-0.002,1.308,0,1.962-0.002c0.638,0.789,1.256,1.594,1.91,2.368c0.006-0.788,0-1.578,0.003-2.366  c0.639-0.002,1.276-0.001,1.914-0.001c-0.001,1.921,0.001,3.843-0.001,5.765c-0.632-0.003-1.263-0.004-1.895,0  c-0.666-0.761-1.273-1.57-1.904-2.359c-0.02,0.786-0.007,1.571-0.01,2.355c-0.659,0.003-1.32,0.003-1.979,0.001  C359.913,447.062,359.911,445.141,359.911,443.221L359.911,443.221z M350.302,448.991c-0.001-1.924-0.001-3.848,0-5.772  c0.636,0.011,1.272-0.017,1.908,0.01c0.702,0.729,1.277,1.584,1.936,2.357c-0.014-0.788,0.004-1.576-0.027-2.363  c0.643-0.005,1.289-0.003,1.934-0.003c0,1.924-0.001,3.847,0.001,5.77c-0.63,0-1.258-0.001-1.885,0.001  c-0.657-0.796-1.293-1.608-1.936-2.413c-0.016,0.804-0.004,1.607-0.007,2.411C351.586,448.99,350.943,448.987,350.302,448.991  L350.302,448.991z M331.235,444.902c-0.001-0.562,0-1.123,0-1.683c1.928,0.002,3.858,0.001,5.787,0c0,0.56,0,1.121,0,1.681  c-0.598-0.004-1.198-0.001-1.797-0.004c0,1.365-0.001,2.73,0.001,4.096c-0.719-0.003-1.436-0.001-2.154-0.003  c0.003-1.363,0-2.728,0.002-4.092C332.46,444.898,331.847,444.895,331.235,444.902L331.235,444.902z M325.215,443.221  c1.209,0.007,2.418-0.021,3.625,0.013c1.234,0.013,2.215,1.356,1.844,2.535c-0.141,0.573-0.566,1.023-1.068,1.311  c0.411,0.623,0.76,1.285,1.17,1.909c-0.72,0.004-1.438-0.004-2.157,0.004c-0.322-0.555-0.569-1.151-0.89-1.707  c-0.196,0.006-0.394,0.012-0.59,0.019c0.002,0.561,0,1.122,0.003,1.684c-0.647,0-1.293,0.003-1.938-0.001  C325.217,447.066,325.215,445.143,325.215,443.221L325.215,443.221z M327.15,444.9c0,0.319,0.002,0.639,0.002,0.96  c0.445-0.005,0.89,0.019,1.335-0.01c0.402-0.145,0.444-0.693,0.093-0.921C328.106,444.861,327.627,444.91,327.15,444.9L327.15,444.9  z M319.956,443.226c0.965-0.017,1.93,0.003,2.896-0.011c0.434,1.147,0.732,2.341,1.127,3.501c0.279,0.746,0.426,1.535,0.729,2.272  c-0.696,0.005-1.393-0.001-2.09,0.005c-0.089-0.331-0.149-0.672-0.286-0.987c-0.592,0.016-1.186,0.007-1.778,0.008  c-0.118,0.322-0.23,0.647-0.33,0.978c-0.679-0.003-1.355-0.003-2.033,0C318.75,447.062,319.423,445.163,319.956,443.226  L319.956,443.226z M321.48,444.816c-0.275,0.552-0.316,1.179-0.566,1.741c0.334,0,0.669,0,1.003,0  C321.816,445.964,321.535,445.417,321.48,444.816L321.48,444.816z M397.961,443.22c0.644-0.001,1.286,0,1.931-0.001  c0.003,0.613-0.005,1.225,0.004,1.838c0.499-0.592,0.936-1.233,1.419-1.84c0.829,0.005,1.659,0,2.49,0.002  c-0.767,0.909-1.481,1.862-2.261,2.758c0.782,0.982,1.505,2.007,2.277,2.998c-0.834,0.015-1.667,0.002-2.499,0.008  c-0.467-0.724-0.95-1.436-1.431-2.151c0,0.717,0,1.434,0.003,2.151c-0.645-0.001-1.289,0-1.932-0.001  C397.962,447.062,397.961,445.141,397.961,443.22L397.961,443.22z M387.459,443.206c1.716-0.583,3.76,0.804,3.801,2.626  c0.133,1.093-0.42,2.196-1.341,2.783c-0.684,0.485-1.561,0.495-2.36,0.391c-1.005-0.238-1.838-1.041-2.15-2.019  c-0.154-0.614-0.151-1.266,0.022-1.875C385.76,444.208,386.516,443.444,387.459,443.206L387.459,443.206z M387.845,445.118  c-0.76,0.281-0.841,1.475-0.146,1.872c0.65,0.505,1.718-0.082,1.639-0.904C389.401,445.342,388.49,444.749,387.845,445.118  L387.845,445.118z M345.934,443.208c1.559-0.515,3.404,0.57,3.724,2.176c0.363,1.329-0.351,2.843-1.604,3.416  c-0.593,0.317-1.289,0.271-1.936,0.222c-0.995-0.178-1.844-0.94-2.193-1.881C343.292,445.573,344.279,443.599,345.934,443.208  L345.934,443.208z M346.005,445.319c-0.675,0.565-0.241,1.82,0.64,1.848c0.377,0.069,0.685-0.162,0.96-0.383  c0.132-0.315,0.325-0.666,0.157-1.006C347.58,445.031,346.534,444.759,346.005,445.319L346.005,445.319z M339.711,443.144  c-1.035,0.172-1.931,0.945-2.276,1.932c-0.249,0.833-0.209,1.782,0.236,2.544c0.393,0.656,1.037,1.161,1.775,1.369  c0.899,0.152,1.913,0.108,2.642-0.507c1.299-0.933,1.558-2.952,0.576-4.202C342,443.39,340.803,442.907,339.711,443.144  L339.711,443.144z M339.778,445.147c0.537-0.347,1.336,0.01,1.496,0.612c0.138,0.336,0.003,0.686-0.128,0.998  c-0.385,0.414-1.076,0.596-1.53,0.187C339.002,446.528,339.084,445.443,339.778,445.147L339.778,445.147z M361.321,396.194  c4.48-0.005,8.961,0.01,13.442-0.009c4.522,5.572,8.967,11.209,13.471,16.794c0.009-5.597-0.003-11.193,0.005-16.79  c4.479,0.009,8.957,0.008,13.436,0.001c0.007,13.439,0.005,26.88,0.001,40.319c-4.487-0.008-8.973,0-13.46-0.004  c-4.387-5.495-8.799-10.971-13.181-16.47c-0.086-0.099-0.175-0.194-0.268-0.285c0.027,5.585,0.005,11.169,0.01,16.753  c-4.487,0.008-8.973,0.001-13.46,0.002C361.321,423.067,361.317,409.63,361.321,396.194L361.321,396.194z M330.764,395.969  c-5.092,1.209-9.649,4.457-12.521,8.826c-2.714,4.101-3.949,9.186-3.314,14.069c0.562,4.893,2.948,9.544,6.574,12.877  c3.495,3.239,8.112,5.267,12.876,5.533c1.576,0.152,3.158-0.009,4.724-0.187c0.68-0.169,1.382-0.242,2.051-0.456  c5.387-1.384,10.112-5.058,12.87-9.877c-1.66-0.917-3.295-1.881-4.946-2.812c-2.233-1.297-4.501-2.538-6.716-3.864  c-0.644,1.062-1.497,2.009-2.562,2.661c-1.963,1.26-4.52,1.526-6.695,0.674c-2.924-1.067-5.034-4.106-4.862-7.237  c-0.051-3.565,2.884-6.827,6.393-7.287c1.21-0.147,2.472-0.103,3.622,0.329c1.717,0.583,3.182,1.832,4.093,3.394  c0.574-0.37,1.18-0.689,1.775-1.026c3.303-1.87,6.586-3.776,9.893-5.636c-1.54-2.687-3.674-5.035-6.217-6.806  C342.935,395.696,336.547,394.493,330.764,395.969z"/>
</svg>