<?xml version="1.0" encoding="utf-8"?>
<!-- Generator: Adobe Illustrator 17.0.1, SVG Export Plug-In . SVG Version: 6.00 Build 0)  -->
<!DOCTYPE svg PUBLIC "-//W3C//DTD SVG 1.1//EN" "http://www.w3.org/Graphics/SVG/1.1/DTD/svg11.dtd">
<svg version="1.1" id="Layer_1" xmlns="http://www.w3.org/2000/svg" xmlns:xlink="http://www.w3.org/1999/xlink" x="0px" y="0px"
	 width="37.187px" height="37.188px" viewBox="0 0 37.187 37.188" enable-background="new 0 0 37.187 37.188" xml:space="preserve">
<path fill-rule="evenodd" clip-rule="evenodd" fill="#fff" d="M18.593,0c-5.05,0-5.681,0.022-7.665,0.112
	C4.175,0.422,0.423,4.169,0.113,10.927C0.022,12.912,0,13.544,0,18.594c0,5.05,0.022,5.683,0.112,7.667
	c0.31,6.753,4.057,10.505,10.815,10.815c1.985,0.089,2.617,0.112,7.667,0.112l0.782,0V24.912h-4.591v-5.317h4.591v-3.921
	c0-4.55,2.779-7.028,6.839-7.028c1.944,0,3.616,0.145,4.103,0.21v4.756l-2.816,0.001c-2.207,0-2.635,1.049-2.635,2.589v3.394h5.265
	l-0.686,5.317h-4.58v12.222c0.441-0.015,0.871-0.034,1.394-0.058c6.746-0.31,10.508-4.056,10.813-10.815
	c0.091-1.983,0.113-2.617,0.113-7.667c0-5.05-0.022-5.682-0.112-7.665C36.771,4.182,33.02,0.424,26.262,0.114
	C24.277,0.022,23.643,0.001,18.593,0L18.593,0z"/>
</svg>
