<svg version="1.1" id="Layer_1" xmlns="http://www.w3.org/2000/svg" x="0px" y="0px"
     width="312.001px" height="186.001px" viewBox="0 0 312.001 186.001">
    <path fill-rule="evenodd" clip-rule="evenodd" d="M158.371,75.23c0,2.02-2.513,1.9-2.513,1.9h-2.514v-3.65h2.514
						C158.446,73.465,158.371,75.23,158.371,75.23L158.371,75.23L158.371,75.23z M153.344,67.915h1.915
						c1.99,0.105,1.915,1.586,1.915,1.586c0,1.84-2.199,1.87-2.199,1.87h-1.63L153.344,67.915L153.344,67.915L153.344,67.915z
						 M157.907,72.088c0,0,1.72-0.733,1.706-2.678c0,0,0.262-3.186-3.961-3.575h-4.686v13.359h5.371c0,0,4.488,0.015,4.488-3.77
						C160.825,75.424,160.929,72.852,157.907,72.088L157.907,72.088L157.907,72.088z M145.782,63.217v18.588h19.725V63.217H145.782z
						"/>

    <path fill-rule="evenodd" clip-rule="evenodd" d="M135.624,75.23c0,2.02-2.514,1.9-2.514,1.9h-2.513v-3.65h2.513
						C135.699,73.465,135.624,75.23,135.624,75.23L135.624,75.23L135.624,75.23z M130.598,67.915h1.915
						c1.99,0.105,1.915,1.586,1.915,1.586c0,1.84-2.199,1.87-2.199,1.87h-1.63L130.598,67.915L130.598,67.915L130.598,67.915z
						 M135.161,72.088c0,0,1.72-0.733,1.705-2.678c0,0,0.262-3.186-3.96-3.575h-4.686v13.359h5.371c0,0,4.488,0.015,4.488-3.77
						C138.078,75.424,138.183,72.852,135.161,72.088L135.161,72.088L135.161,72.088z M123.035,63.217v18.588h19.725V63.217H123.035z
						"/>

    <path fill-rule="evenodd" clip-rule="evenodd" d="M184.229,66.793v2.468c0,0-2.409-1.481-5.072-1.511
						c0,0-4.967-0.097-5.191,4.761c0,0-0.179,4.469,5.131,4.723c0,0,2.229,0.269,5.251-1.66v2.558c0,0-4.054,2.408-8.752,0.553
						c0,0-3.949-1.443-4.099-6.174c0,0-0.165-4.866,5.102-6.482c0,0,1.406-0.539,3.935-0.299
						C180.534,65.731,182.045,65.88,184.229,66.793L184.229,66.793L184.229,66.793z M168.528,81.806h19.725V63.217h-19.725V81.806z"
    />

    <path fill-rule="evenodd" clip-rule="evenodd" d="M81.179,110.225l-3.171-1.92c-1.989-1.21-3.404-2.403-4.245-3.578
				c-0.842-1.175-1.262-2.528-1.262-4.058c0-2.295,0.796-4.158,2.389-5.591c1.593-1.432,3.661-2.149,6.207-2.149
				c2.434,0,4.666,0.682,6.697,2.045v4.736c-2.1-2.017-4.36-3.025-6.78-3.025c-1.363,0-2.483,0.317-3.359,0.949
				c-0.876,0.633-1.314,1.443-1.314,2.43c0,0.876,0.32,1.697,0.96,2.462s1.676,1.565,3.108,2.399l3.192,1.877
				c3.56,2.114,5.341,4.812,5.341,8.095c0,2.336-0.782,4.235-2.347,5.695c-1.565,1.46-3.599,2.191-6.102,2.191
				c-2.879,0-5.501-0.883-7.865-2.649v-5.299c2.253,2.851,4.861,4.277,7.823,4.277c1.307,0,2.396-0.365,3.265-1.095
				c0.869-0.73,1.304-1.645,1.304-2.743C85.018,113.493,83.739,111.81,81.179,110.225L81.179,110.225z"/>
    <polygon fill-rule="evenodd" clip-rule="evenodd" points="90.563,93.263 114.909,93.263 114.909,96.977 104.749,96.977
				104.749,122.45 100.556,122.45 100.556,96.977 90.563,96.977 			"/>
    <path fill-rule="evenodd" clip-rule="evenodd" d="M138.671,93.305h4.193v16.544c0,2.239-0.164,3.929-0.49,5.07
				c-0.327,1.14-0.73,2.09-1.21,2.848c-0.48,0.758-1.068,1.436-1.763,2.034c-2.309,1.989-5.327,2.983-9.054,2.983
				c-3.797,0-6.843-0.988-9.138-2.963c-0.695-0.612-1.283-1.297-1.763-2.055c-0.48-0.758-0.876-1.686-1.189-2.785
				c-0.313-1.099-0.469-2.824-0.469-5.174V93.305h4.193v16.544c0,2.74,0.313,4.645,0.939,5.716s1.579,1.93,2.858,2.577
				c1.28,0.647,2.789,0.97,4.527,0.97c2.476,0,4.492-0.647,6.05-1.94c0.821-0.695,1.412-1.516,1.773-2.462
				c0.362-0.946,0.543-2.566,0.543-4.861V93.305z"/>
    <path fill-rule="evenodd" clip-rule="evenodd" d="M148.112,122.408V93.305h9.826c3.964,0,7.1,0.595,9.409,1.784
				c2.309,1.189,4.145,2.938,5.508,5.247c1.363,2.309,2.044,4.826,2.044,7.552c0,1.947-0.376,3.811-1.126,5.591
				c-0.751,1.78-1.822,3.345-3.213,4.694c-1.419,1.391-3.067,2.441-4.944,3.15c-1.099,0.431-2.107,0.72-3.025,0.866
				c-0.918,0.146-2.67,0.219-5.257,0.219H148.112L148.112,122.408z M157.5,97.019h-5.215v21.676h5.341
				c2.086,0,3.707-0.143,4.861-0.428c1.155-0.285,2.118-0.647,2.89-1.085c0.772-0.438,1.478-0.977,2.117-1.617
				c2.059-2.086,3.087-4.722,3.088-7.907c0-3.129-1.057-5.682-3.171-7.657c-0.779-0.737-1.672-1.342-2.681-1.815
				c-1.008-0.473-1.964-0.786-2.868-0.939C160.957,97.095,159.503,97.019,157.5,97.019L157.5,97.019z"/>
    <rect x="179.543" y="93.305" fill-rule="evenodd" clip-rule="evenodd" width="4.173" height="29.145"/>
    <path fill-rule="evenodd" clip-rule="evenodd" d="M204.056,92.888c4.506,0,8.258,1.426,11.255,4.277
				c2.997,2.851,4.496,6.426,4.496,10.723c0,4.298-1.513,7.855-4.538,10.671c-3.025,2.817-6.839,4.225-11.443,4.225
				c-4.395,0-8.056-1.408-10.984-4.225c-2.928-2.816-4.392-6.346-4.392-10.588c0-4.354,1.474-7.956,4.423-10.807
				C195.822,94.313,199.549,92.888,204.056,92.888L204.056,92.888z M204.223,96.852c-3.338,0-6.081,1.043-8.23,3.13
				c-2.149,2.086-3.223,4.75-3.223,7.99c0,3.143,1.078,5.758,3.234,7.844c2.156,2.086,4.854,3.129,8.095,3.129
				c3.255,0,5.97-1.064,8.147-3.192c2.177-2.128,3.265-4.777,3.265-7.949c0-3.087-1.088-5.685-3.265-7.792
				C210.068,97.905,207.394,96.852,204.223,96.852z"/>
    <path fill-rule="evenodd" clip-rule="evenodd" d="M231.74,110.225l-3.171-1.92c-1.989-1.21-3.404-2.403-4.245-3.578
				c-0.842-1.175-1.262-2.528-1.262-4.058c0-2.295,0.796-4.158,2.389-5.591c1.592-1.432,3.661-2.149,6.207-2.149
				c2.434,0,4.666,0.682,6.697,2.045v4.736c-2.1-2.017-4.361-3.025-6.781-3.025c-1.363,0-2.483,0.317-3.359,0.949
				c-0.876,0.633-1.314,1.443-1.314,2.43c0,0.876,0.32,1.697,0.96,2.462s1.676,1.565,3.108,2.399l3.192,1.877
				c3.561,2.114,5.341,4.812,5.341,8.095c0,2.336-0.782,4.235-2.347,5.695c-1.565,1.46-3.599,2.191-6.102,2.191
				c-2.879,0-5.501-0.883-7.865-2.649v-5.299c2.253,2.851,4.861,4.277,7.824,4.277c1.307,0,2.396-0.365,3.265-1.095
				c0.869-0.73,1.304-1.645,1.304-2.743C235.578,113.493,234.298,111.81,231.74,110.225L231.74,110.225z"/>

</svg>
