<svg xmlns="http://www.w3.org/2000/svg" x="0px" y="0px"
     width="312.001px" height="186.001px" viewBox="0 0 312.001 186.001">
    <path fill-rule="evenodd" clip-rule="evenodd" fill="#100F0D" d="M119.188,142.292c-4.605,0-7.56-3.542-7.56-8.819
			c0-5.314,2.954-8.819,7.56-8.819c4.646,0,7.6,3.542,7.6,8.819C126.787,138.751,123.833,142.292,119.188,142.292L119.188,142.292
			L119.188,142.292z M119.188,123.081c-5.787,0-9.525,4.214-9.525,10.393c0,6.142,3.738,10.396,9.488,10.396
			c5.784,0,9.565-4.254,9.565-10.396C128.716,127.294,124.934,123.081,119.188,123.081L119.188,123.081L119.188,123.081z
			 M104.068,117.567v23.898l5.787,0.395v1.222H96.154v-1.222l5.828-0.395v-11.73H86.626v11.73l5.831,0.395v1.222H78.755v-1.222
			l5.744-0.395v-23.898l-5.744-0.432v-1.222h13.701v1.222l-5.831,0.395v10.629h15.356V117.53l-5.828-0.395v-1.222h13.702v1.222
			L104.068,117.567L104.068,117.567z M86.589,43.905h8.739c3.859,0,6.222,2.481,6.222,6.182c0,3.741-2.046,6.574-5.903,6.574h-9.058
			L86.589,43.905L86.589,43.905L86.589,43.905z M92.69,68.276l-6.101-0.395v-9.646h9.329c4.885,0,7.718-3.461,7.718-8.107
			c0-4.568-2.995-7.799-7.911-7.799h-16.97v1.219l5.706,0.435v23.898l-5.706,0.395v1.222H92.69L92.69,68.276L92.69,68.276
			L92.69,68.276z M128.837,105.128v1.138h11.139v-1.101l-4.487-0.395V92.724c1.614-2.715,4.447-4.724,7.56-4.724
			c3.107,0,4.839,2.009,4.839,5.159v11.612l-4.565,0.395v1.101h10.747v-1.138l-4.211-0.395v-11.77c0-3.585-1.735-6.658-6.418-6.658
			c-3.343,0-6.28,1.882-7.992,4.45v-4.211l-1.104-0.314c-1.614,1.77-3.738,2.559-6.297,2.559v0.827
			c1.888,0.352,3.896,0.314,5.473-0.475v15.592L128.837,105.128L128.837,105.128L128.837,105.128z M86.589,80.717h9.174
			c3.896,0,6.378,2.36,6.378,5.983c0,3.623-2.087,6.222-6.3,6.222h-9.251V80.717L86.589,80.717z M92.69,105.045l-6.101-0.389V94.534
			h8.107l5.753,11.733h7.202v-1.222l-5.865-0.588l-4.882-9.923c4.608-0.236,7.323-3.542,7.323-7.833c0-4.41-3.072-7.557-7.796-7.557
			H78.755v1.219l5.744,0.432v23.861l-5.744,0.389v1.222H92.69V105.045L92.69,105.045z M229.034,67.958V56.191
			c0-3.585-1.732-6.695-6.416-6.695c-3.308,0-6.245,1.885-7.957,4.487v-4.251l-1.098-0.314c-1.617,1.77-3.741,2.597-6.306,2.556
			v0.868c1.893,0.354,3.902,0.314,5.476-0.473v15.589l-4.683,0.398v1.141h11.139v-1.104l-4.485-0.395V55.952
			c1.611-2.718,4.447-4.764,7.517-4.764c3.112,0,4.842,2.046,4.842,5.199v11.612l-4.565,0.395v1.104h10.747v-1.141L229.034,67.958
			L229.034,67.958L229.034,67.958z M164.309,132.413c-2.562-0.631-5.787-1.499-5.787-4.294c0-1.85,1.334-3.504,4.727-3.504
			c3.029,0,4.603,1.34,6.024,3.821l1.257,2.202l0.986-0.193l-1.262-7.441h-1.066l-0.035,3.265c-1.104-1.77-3.072-3.188-6.182-3.188
			c-3.937,0-6.3,2.205-6.3,5.078c0,3.977,4.531,5.196,7.246,5.908c3.7,0.942,6.219,1.85,6.219,4.525c0,2.363-2.006,3.778-5.04,3.778
			c-3.147,0-5.116-1.574-7.047-4.724l-1.222-2.006l-1.023,0.196l1.3,7.678h1.104l-0.118-3.701c1.495,2.479,3.778,4.055,7.243,4.055
			c4.018,0,6.655-2.127,6.655-5.433C171.984,134.617,168.641,133.513,164.309,132.413L164.309,132.413L164.309,132.413z
			 M228.953,92.802c0-3.58-1.493-6.496-5.669-6.496c-3.188,0-5.692,1.692-7.361,4.291c-0.542-2.398-2.124-4.291-5.395-4.291
			c-2.874,0-5.571,1.844-7.208,4.334v-4.095l-1.098-0.314c-1.651,1.77-3.781,2.559-6.303,2.559v0.827
			c1.853,0.352,3.902,0.271,5.476-0.513v15.629l-4.683,0.395v1.138h10.278v-1.101l-3.626-0.395v-12.24
			c1.496-2.6,3.975-4.531,6.692-4.531c3.15,0,4.173,2.13,4.173,5.358v11.413l-3.856,0.395v1.101h9.724v-1.101l-3.896-0.395V93.121
			c0-0.239,0-0.513-0.043-0.793c1.654-2.793,3.94-4.329,6.617-4.329c3.19,0,4.211,2.165,4.211,5.314v11.456l-3.582,0.395v1.101
			h9.842v-1.101l-4.291-0.432L228.953,92.802L228.953,92.802L228.953,92.802z M195.058,68.356v1.141h11.22v-1.141l-4.565-0.398
			V49.772l-1.107-0.354c-1.689,1.77-3.859,2.597-6.335,2.556v0.867c1.847,0.355,3.894,0.277,5.47-0.51v15.626L195.058,68.356
			L195.058,68.356L195.058,68.356z M176.947,131.583c0.588-4.214,3.266-6.928,7.127-6.928c3.188,0,6.415,2.089,6.531,6.928H176.947
			L176.947,131.583z M184.109,123.081c-5.548,0-9.211,4.251-9.211,10.393c0,6.142,3.701,10.396,9.566,10.396
			c4.294,0,6.773-2.009,7.756-5.041l-1.216-0.432c-1.112,2.539-3.092,3.896-6.303,3.896c-4.954,0-7.874-3.424-7.874-8.779v-0.395
			h15.635c0.038-0.277,0.038-0.905,0.038-1.257C192.498,127.53,189.781,123.081,184.109,123.081L184.109,123.081L184.109,123.081z
			 M185.524,105.48c-4.603,0-7.557-3.542-7.557-8.816c0-5.317,2.954-8.782,7.557-8.782c4.652,0,7.603,3.505,7.603,8.782
			C193.127,101.938,190.176,105.48,185.524,105.48L185.524,105.48L185.524,105.48z M185.524,86.306
			c-5.779,0-9.523,4.176-9.523,10.358c0,6.139,3.744,10.393,9.488,10.393c5.784,0,9.568-4.254,9.568-10.393
			C195.058,90.482,191.274,86.306,185.524,86.306L185.524,86.306L185.524,86.306z M150.253,123.317l-1.104-0.314
			c-1.692,1.77-3.859,2.597-6.338,2.556v0.865c1.847,0.357,3.856,0.32,5.43-0.47v11.693c-1.651,2.603-4.484,4.571-7.557,4.571
			c-3.069,0-4.805-2.049-4.805-5.162v-13.739l-1.061-0.314c-1.654,1.769-3.349,2.597-5.79,2.556v0.865
			c1.654,0.357,3.464,0.32,4.882-0.349v11.099c0,3.545,1.692,6.695,6.456,6.695c3.346,0,6.231-1.867,7.917-4.372l0.037,3.98
			l0.118,0.075l6.142-0.591V141.9h-4.329V123.317L150.253,123.317L150.253,123.317z M172.416,52.485v11.108
			c0,3.542,1.692,6.692,6.456,6.692c3.346,0,6.237-1.865,7.92-4.369l0.032,3.974l0.121,0.078l6.142-0.591v-1.061h-4.329V49.732
			l-1.104-0.314c-1.692,1.77-3.856,2.597-6.338,2.556v0.868c1.85,0.354,3.856,0.314,5.43-0.473v11.693
			c-1.652,2.6-4.484,4.568-7.554,4.568c-3.073,0-4.807-2.049-4.807-5.159V49.732l-1.066-0.314c-1.649,1.77-3.343,2.597-5.784,2.556
			v0.867C169.186,53.196,170.999,53.156,172.416,52.485L172.416,52.485L172.416,52.485z M128.402,52.369v15.589l-4.686,0.398v1.141
			h11.142v-1.104l-4.488-0.395V55.952c1.614-2.718,4.45-4.764,7.554-4.764c3.116,0,4.848,2.046,4.848,5.199v11.612l-4.571,0.395
			v1.104h10.753v-1.141l-4.213-0.398V56.191c0-3.585-1.732-6.695-6.419-6.695c-3.349,0-6.28,1.885-7.989,4.487v-4.251l-1.107-0.314
			c-1.611,1.77-3.741,2.597-6.297,2.557v0.867C124.819,53.196,126.825,53.156,128.402,52.369L128.402,52.369L128.402,52.369z
			 M169.82,101.07c-0.986,2.798-3.424,4.41-6.459,4.41c-4.447,0-7.087-3.384-7.087-8.739c0-5.236,2.957-8.859,7.485-8.859
			c2.637,0,4.917,1.34,6.061,3.545V101.07L169.82,101.07L169.82,101.07z M163.52,86.305L163.52,86.305
			c2.674,0,4.879,1.104,6.3,3.032v-9.603c-1.3,0.907-3.476,1.317-5.352,0.905v-0.867c2.438,0.04,4.534-1.135,6.257-3.346
			l1.064,0.314v28.348h4.447v1.061l-6.219,0.591l-0.118-0.078l-0.037-3.387c-1.288,2.383-3.822,3.781-6.81,3.781
			c-5.479,0-8.742-4.133-8.742-10.24C154.309,90.597,158.009,86.305,163.52,86.305L163.52,86.305z M155.606,69.102L155.606,69.102
			c-2.83,0.473-4.329,2.165-4.329,3.937c0,2.36,2.519,4.133,6.928,4.133c4.92,0,7.364-1.85,7.364-4.251
			c0-1.732-1.418-3.049-6.026-3.467L155.606,69.102L155.606,69.102z M152.378,56.859c0-3.19,2.401-5.831,5.986-5.831
			c3.461,0,5.827,2.64,5.827,5.908c0,3.072-2.245,5.747-5.949,5.747C154.897,62.684,152.378,60.047,152.378,56.859L152.378,56.859
			L152.378,56.859z M149.464,73.16c0,3.029,2.876,5.551,8.698,5.551c6.104,0,9.295-2.559,9.295-5.949
			c0-3.738-4.372-4.73-8.663-5.078c-3.188-0.274-6.142-0.392-6.142-1.968c0-0.787,0.79-1.536,4.294-1.536h1.297
			c4.727,0,7.759-3.228,7.759-7.401c0-1.891-0.709-3.66-1.931-4.96c0.277-3.583,3.427-1.81,3.427-3.66
			c0-0.79-0.47-1.182-1.262-1.182c-1.813,0-3.185,1.807-3.421,3.781c-1.182-0.79-2.637-1.263-4.332-1.263
			c-4.804,0-7.914,3.228-7.914,7.283c0,2.954,1.496,5.196,3.657,6.378c-2.121,0.199-3.265,1.303-3.265,2.796
			c0,1.064,0.671,2.087,2.438,2.678C151.118,69.22,149.464,71.071,149.464,73.16L149.464,73.16L149.464,73.16z M121.47,102.292
			c-1.378,1.536-4.095,3.188-7.006,3.188c-2.326,0-4.251-1.101-4.251-3.343c0-2.796,2.401-5.395,11.257-5.554V102.292
			L121.47,102.292z M108.282,102.136L108.282,102.136c0-4.49,4.764-6.891,13.188-6.972v-2.202c0-3.389-1.891-5.081-5.038-5.081
			c-2.798,0-3.818,0.908-4.49,2.087c-0.55,1.023-0.669,1.931-1.614,1.931c-0.709,0-1.182-0.473-1.182-1.144
			c0-0.55,0.317-1.455,1.381-2.441c1.219-1.101,2.991-2.009,6.061-2.009c5.237,0,6.851,2.917,6.851,6.853v8.545
			c0,2.519,0.631,3.225,2.012,3.225c1.06,0,1.649-0.669,1.968-1.888l0.905,0.392c-0.395,2.046-1.614,3.035-3.464,3.035
			c-1.695,0-2.925-0.882-3.268-2.6c-1.597,1.591-4.217,3.188-7.442,3.188C110.565,107.056,108.282,105.088,108.282,102.136
			L108.282,102.136z M200.649,45.519c0.943,0,1.729-0.75,1.729-1.695c0-0.942-0.787-1.692-1.729-1.692
			c-0.948,0-1.698,0.75-1.698,1.692C198.952,44.769,199.701,45.519,200.649,45.519L200.649,45.519L200.649,45.519z M113.401,51.069
			c3.188,0,6.415,2.086,6.536,6.928h-13.661C106.864,53.787,109.542,51.069,113.401,51.069L113.401,51.069L113.401,51.069z
			 M113.795,70.284c4.289,0,6.77-2.009,7.753-5.041l-1.219-0.432c-1.11,2.539-3.09,3.896-6.3,3.896c-4.96,0-7.874-3.424-7.874-8.779
			v-0.392h15.629c0.04-0.277,0.04-0.905,0.04-1.262c0-4.332-2.715-8.779-8.384-8.779c-5.554,0-9.214,4.251-9.214,10.393
			C104.227,66.03,107.931,70.284,113.795,70.284L113.795,70.284z M113.795,70.284L113.795,70.284L113.795,70.284z"/>
    <polygon fill-rule="evenodd" clip-rule="evenodd" fill="#FF7B30" points="51.549,143.08 53.633,143.08 53.633,92.644
		53.633,42.266 51.549,42.266 51.549,92.69 	"/>
    <polygon fill-rule="evenodd" clip-rule="evenodd" fill="#FF7B30" points="258.365,143.08 260.452,143.08 260.452,92.644
		260.452,42.266 258.365,42.266 258.365,92.69 	"/>
</svg>
