<svg xmlns="http://www.w3.org/2000/svg" x="0px" y="0px"
     width="312.001px" height="186.001px" viewBox="0 0 312.001 186.001">
    <path fill-rule="evenodd" clip-rule="evenodd" d="M147.426,113.767c0,0-0.579,0.847-1.112,1.438
						c-0.534,0.587-0.701,0.896-0.322,1.112c0.375,0.216,0.697,0.473,1.504,1.011c-0.22,1.279-1.129,3.239-1.724,4.409
						c-0.595,1.166-1.291,2.392-1.878,2.983c-0.587,0.591-1.94,1.756-2.799,2.612c-0.86,0.856-1.854,1.483-2.445,1.585
						c-1.072,0.175-1.402-0.632-1.544-0.432c-0.66,0.904-0.314,1.837,0.913,2.005c0.408,0.057,0.656,0.477,1.41,0.799
						c0.754,0.318,1.891,0.049,2.526-0.269c0.636-0.322,2.042-1.161,3.064-1.687c1.023-0.526,2.07-0.485,3.247-0.587
						c0.982-0.081,1.084-1.744,0.729-2.559c-0.522-1.231-0.114-2.135,0.501-3.594c0.615-1.455,2.213-3.044,2.213-3.044
						s0.428-0.216,1.149,0.302c0.689,0.497,0.831-0.298,1.72-1.361c0.721-0.855,1.491-1.785,1.039-2.196
						c-0.538-0.493-0.395-0.701-0.395-0.701s0.534-0.688,1.088-1.128L147.426,113.767z"/>
    <path fill-rule="evenodd" clip-rule="evenodd" d="M175.754,93.67c0,0,6.776-5.036,9.413-19.241
						c1.589-8.581,0.921-16.885-2.885-25.141c-5.599-12.147-19.086-20.691-31.999-22.077c21.539-4.885,40.934,7.738,48.338,23.589
						c7.204,15.423,6.585,31.575-4.56,46.659c-2.302,3.113-15.537,18.185-39.023,17.395c-1.658,0.293-5.757-0.522-7.025-1.007
						c0,0-2.127-0.811-4.706-1.936c-2.616-1.137-8.765-4.503-12.346-7.775c3.003,1.785,8.39,3.733,13.495,4.189
						C147.671,107.944,164.548,104.973,175.754,93.67z"/>
    <path fill-rule="evenodd" clip-rule="evenodd" d="M167.189,80.525c0.192-0.481-1.223,0.175-1.487,0.31
							c-0.831,0.42-1.389-0.273-1.259-0.652c0.163-0.46,0.053-0.766-0.289-0.717c-0.281,0.041-0.342-0.334-0.187-0.546
							c-0.285,0-0.412-0.216-0.477-0.367c0.411-0.155,0.037-0.587-0.13-0.652c-0.167-0.065-0.534-0.134-0.566-0.432
							c-0.033-0.297,0.269-0.68,0.57-0.876c0.302-0.196,0.424-0.542,0.086-1.157c-0.281-0.518-0.432-1.439-0.167-1.769
							c-0.603,0.07-0.901,0.795-0.901,0.795c-0.403-0.725-0.167-1.455-0.037-1.813c-0.2,0.195-0.534,0.79-0.534,0.79
							c0.436-3.83,4.939-5.431,6.14-5.697c2.229-0.489,5.713-0.595,5.175,1.157c0,0,0.705-1.385-0.599-1.748
							c0.738-0.033,1.337,0.79,1.035,1.32c0.367-0.232,1.039-0.395,1.267-0.065c-0.367,0.037-1.1,0.428-1.137,0.725
							c0.668-0.13,1.357,0.261,1.87,2.51c0.232,1.023,0.635,4.327-0.803,5.415c0,0,0.065-0.196,0.102-0.46c0,0-0.2,0.79-1.304,0.79
							c0,0-0.09,0.346-0.02,0.542c0,0,1.324-0.509,1.858-0.313c0,0-0.603,1.19-0.872,1.65c0.872,0,3.492,1.691,3.663,5.615
							c0.403,0.66,0.868,4.474,0.403,6.189c-3.708,11.788-30.695,18.564-35.307,17.077c0,0-1.3-0.99-0.22-1.589
							c0.363-0.2,0.11,0.11,0.897,0.326c0.522,0.143,0.917-0.008,1.544-0.355c0.693-0.383,2.094-0.709,3.064-1.402
							c0.97-0.693,1.712-0.848,2.742-2.783c0.216-0.407,0.338-0.966,0.42-1.654c0.016-0.143-0.069-0.077-1.023-0.424
							c-0.546-0.2-0.97,0.061-0.97-0.901c0-0.962,0.387-2.489,0.489-2.864c0.106-0.371,0.448-0.424,1.422-0.371
							c0.416-0.892,0.774-2.478,1.031-3.345c0,0-0.269,0.053-0.868,0.053c-0.615,0-0.872,0.428-1.87,0.758
							c-1.003,0.33-1.54,0.236-1.736-0.395c-0.265-0.86-0.265-1.255-0.534-1.85c-0.196-0.436-0.868-0.395-0.733-0.86
							c0.134-0.465,0.334-0.66,0.603-0.79c0.334-0.33,1.137-0.265,1.87-0.925c0.734-0.66,1.165,0.037,1.402,0.529
							c0.204,0.416,0.277,0.473,0.738,1.055c0.232,0.297,1.068,0.098,1.601,0l0.469-1.915c-0.334-0.065-1.736-0.33-3.276-1.125
							c-1.536-0.791-2.673-1.52-3.276-1.451c-2.148,0.232-1.593-0.167-2.604-1.72c-0.603-0.925-0.468-0.99-1.202-1.32
							c-0.954-0.428-0.334-1.385,0.065-1.32c0.395,0.065,1.068-0.33,1.671-0.46c-0.191-0.941,0.078-1.483,0.933-1.39
							c-0.2,0.595,0.668,1.85,1.671,2.18c1.002,0.33,1.406,1.98,1.406,2.31c0.933,0.925,5.289,0.86,6.222,0.86
							c0.481-0.742,0.648-0.945,2.477-0.945c1.157,0,2.111,0.277,2.974,1.291c0.815,0.257,0.143-0.485,1.544-0.64
							c1.398-0.155,2.082-0.762,2.677-0.925c0.595-0.167,0.587-0.517,1.019-0.884c0.253-0.212,0.464-0.709,0.815-0.884
							c0.354-0.175,0.314-1.316,0.444-1.536L167.189,80.525L167.189,80.525z M155.397,101.726c0,0-0.314,1.528-0.016,2.836
							c0.856-0.216,1.532-0.901,2.18-1.169c0.648-0.265,2.424-0.709,3.631-1.304c0,0,0.012-0.228-0.416-0.872
							c-0.322-0.477-1.023-2.812-1.699-5.317c0,0-0.253-1.764-0.513-1.65c-0.179,0.077-0.244,2.16-0.326,3.06
							c-0.106,1.104-0.053,0.729-0.053,0.729s0.693,0.11,0.591,0.481c-0.135,0.465-0.607,3.076-0.778,3.512
							c-0.139,0.342-0.2,0.203-0.815,0.077C156.428,101.954,155.397,101.726,155.397,101.726L155.397,101.726L155.397,101.726z
							 M167.009,94.868c0.346-0.566,0.241-0.778,0.416-1.911c0.069-1.593-0.481-2.824-0.481-2.824l-2.535,0.717
							C165.164,91.881,166.056,93.976,167.009,94.868z"/>
    <path fill-rule="evenodd" clip-rule="evenodd" d="M101.488,51.55c15.3,1.854,48.045,30.474,48.338,39.048l-1.17,0.196
						c-3.606-12.864-38.2-37.907-47.169-37.813V51.55z"/>
    <path fill-rule="evenodd" clip-rule="evenodd" d="M149.415,93.067c0.106,0.229,0.546,1.365,0.583,1.561
						c0.037,0.195,1.316,0.424,1.047-0.489c-0.269-0.909-0.595-1.622-0.595-1.622L149.415,93.067z"/>
    <rect x="102.189" y="52.402" fill-rule="evenodd" clip-rule="evenodd" width="1.393" height="80.104"/>
    <path fill-rule="evenodd" clip-rule="evenodd" d="M212.899,142.748c-0.587,0.294-1.322,0.367-2.276,0.367h-0.441v-4.478
					c0-0.808,0.073-0.954,1.395-0.954c1.175,0,3.083,0.808,3.083,2.643C214.661,141.206,214.147,142.161,212.899,142.748
					L212.899,142.748L212.899,142.748z M248.8,141.5l-0.661-0.22c-1.982-0.514-3.157-1.101-3.157-2.055
					c0-0.954,1.101-1.689,2.716-1.689c2.423,0,3.524,1.395,4.185,2.716l1.322-0.147c-0.367-1.321-0.587-2.276-0.661-3.01
					c-0.44-0.073-0.881-0.147-1.615-0.294c-0.881-0.147-1.909-0.22-2.863-0.22c-4.845,0-7.342,1.762-7.342,3.964
					c0,2.056,2.863,3.084,5.433,3.818l0.441,0.147c1.909,0.514,3.083,1.175,3.083,2.349c0,1.248-1.248,1.909-2.863,1.909
					c-3.01,0-4.846-2.129-5.506-3.304l-1.395,0.22c0.367,1.175,0.661,2.129,0.954,2.937c-1.028-0.147-1.835-0.441-3.303-1.689
					c-1.909-1.615-3.891-3.451-5.8-5.286c1.248-0.954,2.79-1.982,4.405-2.937c1.542-0.954,2.496-1.248,4.258-1.322l0-0.587h-8.149
					v0.587l1.175,0.073c0.808,0.073,0.514,0.587,0.073,0.954c-1.762,1.468-3.598,2.936-5.8,4.479v-3.01
					c0-2.129,0.22-2.349,2.276-2.496v-0.587h-9.471v0.587c2.129,0.147,2.349,0.367,2.349,2.496v6.46
					c0,1.248-0.073,1.909-0.587,2.202c-0.734,0.367-1.175,0.147-1.762-0.294c-0.514-0.367-1.174-1.175-2.202-2.202
					c-0.881-0.881-2.056-2.202-2.423-2.79c2.276-0.587,3.964-1.542,3.964-3.304c0-1.175-0.881-2.056-2.129-2.496
					c-1.175-0.514-2.79-0.661-5.139-0.661h-9.691l0.147,0.587c2.056,0.147,2.129,0.367,2.129,2.496v6.46
					c0,2.129-0.22,2.349-2.423,2.496v0.587h9.838v-0.587c-2.129-0.147-2.349-0.367-2.349-2.496v-2.349h0.441
					c0.587,0,1.028,0.294,1.322,0.661c0.734,1.101,1.615,2.276,2.569,3.157c1.248,1.175,2.202,1.835,6.461,1.762
					c0.294,0,1.542-0.073,1.835-0.147h7.415v-0.587c-2.129-0.147-2.496-0.367-2.423-2.496v-3.083h0.074
					c2.202,2.129,5.359,4.992,6.534,6.24l6.975,0v-0.367c0.367,0.074,0.881,0.22,1.615,0.367c0.808,0.147,2.129,0.294,3.304,0.294
					c4.772,0,7.856-1.762,7.856-4.111C254.086,143.336,251.663,142.308,248.8,141.5z"/>
    <path fill-rule="evenodd" clip-rule="evenodd" d="M195.132,148.768c-3.01,0-5.139-2.569-5.139-6.094
					c0-3.377,1.982-5.139,4.405-5.139c2.717,0,4.919,2.129,4.919,6.094C199.317,147.153,197.848,148.768,195.132,148.768
					L195.132,148.768L195.132,148.768z M121.495,144.804l1.835-3.744l0.074,0l1.909,3.744L121.495,144.804L121.495,144.804z
					 M95.358,143.042c-0.587,0.294-1.322,0.367-2.276,0.367h-0.44v-4.552c0-0.808,0.073-0.954,1.321-0.954
					c1.175,0,3.01,0.734,3.01,2.643C97.047,141.5,96.606,142.381,95.358,143.042L95.358,143.042L95.358,143.042z M71.644,148.401
					c-2.056,0-3.01-0.587-3.01-2.936v-10.132c0-0.661,0.074-1.248,0.22-1.322c0.294-0.147,0.881-0.22,1.835-0.22
					c3.671,0,8.37,1.615,8.37,7.268C79.059,145.758,75.315,148.401,71.644,148.401L71.644,148.401L71.644,148.401z M205.117,142.969
					c0-3.818-4.405-6.461-10.132-6.461c-4.479,0-7.489,1.322-9.177,3.084c1.028-1.982,1.689-3.23,1.835-3.451
					c1.468-2.349,1.835-2.57,4.258-2.79v-0.881h-10.205v0.881l1.615,0.073c1.835,0.147,1.982,0.514,1.395,2.055
					c-0.587,1.615-2.202,5.359-3.671,8.443l-0.073-0.147l-6.461-11.379h-3.01l-5.58,11.379l-0.073,0.147l-4.038-8.957
					c-0.514-1.101-0.367-1.395,1.175-1.542l1.322-0.073v-0.881h-13.362v0.881c1.982,0.147,2.716,0.367,3.891,2.643l0.514,1.028
					l-6.387,0l-4.772,7.782l-5.433-7.782h-7.342v0.587c2.496,0.147,2.716,0.514,2.496,3.01l-0.367,3.965
					c-0.147,1.762-0.367,2.863-0.514,3.451c-0.073,0.22-0.073,0.441-0.294,0.514c-0.22,0.073-0.661-0.734-1.101-1.395
					c-1.175-1.982-2.423-4.332-3.744-6.681l-2.056-3.744l-2.056,0.294l-6.02,10.205c-0.073,0.147-0.147,0.22-0.22,0.294
					c-0.22,0.294-0.44,0.661-0.661,0.881c-0.661,0.441-2.423,0.587-3.597,0.587c-0.954,0-1.615,0-2.129-0.147
					c-0.514-0.147-0.587-0.808-0.587-1.835v-3.23l1.542,0c2.643,0,2.716,0.073,3.01,1.835h1.322v-4.699h-1.321
					c-0.294,1.468-0.367,1.615-3.01,1.615l-1.395,0v-3.818c0-0.734,0.073-0.808,1.248-0.808h0.514c1.615,0,2.643,0.147,3.084,0.441
					c0.514,0.294,0.808,1.028,1.101,1.982l1.322-0.074c-0.147-1.468-0.294-2.936-0.367-3.23h-14.389v0.587
					c2.055,0.147,2.276,0.367,2.276,2.496v6.534c0,1.835-0.22,2.202-1.835,2.349c-0.294-0.147-0.587-0.294-0.808-0.514
					c-0.44-0.367-1.101-1.028-2.129-2.129c-0.881-0.881-1.982-2.276-2.423-2.79c2.203-0.587,3.891-1.615,3.891-3.304
					c0-1.175-0.881-2.056-2.129-2.57c-1.175-0.514-2.716-0.661-5.066-0.661h-9.177c-0.661-0.881-1.542-1.615-2.496-2.203
					c-2.863-1.689-7.268-2.349-12.554-2.349H58.209v1.028c2.79,0.147,3.157,0.367,3.157,3.23v8.663c0,2.863-0.367,3.157-3.524,3.377
					v0.881h11.086c9.911,0,18.061-2.863,18.061-9.398c0-0.954-0.294-1.762-0.734-2.569c1.468,0.147,1.615,0.587,1.615,2.496v6.534
					c0,2.129-0.22,2.423-2.349,2.496v0.587h9.471v-0.587c-2.056-0.147-2.276-0.44-2.276-2.496v-2.423h0.367
					c0.587,0,0.954,0.294,1.248,0.734c0.734,1.101,1.615,2.349,2.496,3.157c1.175,1.175,2.202,1.762,6.461,1.762
					c0.587,0,1.028-0.073,1.248-0.147h10.499h3.45h3.524v-0.587l-0.881-0.074c-1.395-0.073-1.395-0.44-0.954-1.321l0.881-1.909
					h4.919l1.101,1.982c0.367,0.734,0.294,1.028-0.808,1.175l-0.881,0.073v0.587h5.506h3.891h3.818v-0.587
					c-2.055-0.073-2.716-0.44-2.863-1.175c-0.147-0.587-0.147-1.542-0.073-3.23l0.22-4.405h0.073l5.727,9.177h1.689l6.02-9.911
					h0.147l0.073,6.974c0,2.203-0.073,2.423-2.423,2.496v0.587h9.764v-0.587c-2.202-0.147-2.276-0.367-2.423-2.496l-0.294-6.607
					c-0.074-1.835,0-2.202,1.542-2.349l6.314,12.334l3.304,0l5.726-10.865h0.074l6.314,10.865h3.304
					c1.248-2.643,2.423-5.139,3.524-7.268c0,0.22,0,0.367,0,0.587c0,3.597,4.111,6.461,10.352,6.461
					C200.565,149.723,205.117,147.153,205.117,142.969z"/>
    <path fill-rule="evenodd" clip-rule="evenodd" d="M146.97,155.156c0.22,0.44,0.881,1.248,1.909,1.248
				c0.514,0,0.954-0.22,0.954-0.734c0-0.441-0.44-0.661-1.101-0.881l-0.147-0.073c-0.881-0.294-1.835-0.661-1.835-1.395
				c0-0.807,0.881-1.468,2.496-1.468c0.367,0,0.661,0,0.954,0.073c0.22,0.073,0.44,0.073,0.587,0.073
				c0.074,0.294,0.147,0.661,0.22,1.174l-0.441,0.073c-0.22-0.44-0.587-0.954-1.468-0.954c-0.514,0-0.881,0.294-0.881,0.66
				c0,0.367,0.367,0.587,1.101,0.808l0.22,0.074c0.954,0.294,1.835,0.661,1.835,1.542s-1.028,1.542-2.717,1.542
				c-0.44,0-0.881-0.073-1.101-0.147c-0.294-0.073-0.514-0.147-0.661-0.147c-0.073-0.367-0.22-0.734-0.367-1.248L146.97,155.156
				L146.97,155.156z"/>
    <path fill-rule="evenodd" clip-rule="evenodd" d="M154.018,155.449c0,0.808,0.073,0.808,0.808,0.881v0.294h-3.304v-0.294
				c0.661-0.073,0.808-0.073,0.808-0.881V153.1c0-0.807-0.073-0.807-0.808-0.881v-0.294h3.304v0.294
				c-0.734,0-0.808,0.073-0.808,0.881v1.175c0.734-0.587,1.395-1.175,2.056-1.688c0.147-0.147,0.22-0.294,0-0.294h-0.441v-0.294
				h2.863v0.294c-0.587,0-0.954,0.073-1.468,0.44c-0.587,0.367-1.101,0.734-1.542,1.101c0.661,0.734,1.321,1.395,2.056,1.982
				c0.587,0.514,0.734,0.587,1.175,0.661v0.294h-2.496c-0.441-0.441-1.395-1.542-2.202-2.349l0,0V155.449L154.018,155.449z"/>
    <path fill-rule="evenodd" clip-rule="evenodd" d="M164.076,153.32c-0.294-0.954-1.175-1.174-1.909-1.174
				c-1.101,0-2.056,0.734-2.056,1.982c0,1.101,0.734,2.202,2.129,2.202c0.294,0,0.441-0.073,0.441-0.367v-0.734
				c0-0.514-0.073-0.514-1.175-0.587v-0.367h3.524v0.367c-0.514,0.074-0.587,0.074-0.587,0.587v0.514c0,0.294,0,0.514,0.073,0.661
				c-0.661,0.147-1.542,0.294-2.423,0.294c-2.496,0-4.038-0.954-4.038-2.423c0-1.688,1.909-2.496,4.185-2.496
				c0.807,0,1.688,0.147,2.055,0.22c0.073,0.22,0.073,0.587,0.147,1.321H164.076L164.076,153.32z"/>
    <rect x="57.768" y="153.981" fill-rule="evenodd" clip-rule="evenodd" width="86.852" height="0.661"/>
    <polygon fill-rule="evenodd" clip-rule="evenodd" points="166.426,153.981 253.278,153.981 253.278,154.641 166.426,154.641
				166.426,153.981 			"/>
    <path fill-rule="evenodd" clip-rule="evenodd" d="M165.838,157.431v1.689h0.294v-0.66h0.22c0.147,0,0.294,0,0.294,0.073
					c0.147,0.074,0.147,0.22,0.147,0.367v0.147v0.073l0,0l0,0h0.294l0,0v-0.073c0,0,0-0.073,0-0.147v-0.147
					c0-0.073-0.073-0.147-0.073-0.294c-0.073-0.073-0.147-0.147-0.294-0.147c0.147,0,0.22-0.073,0.22-0.073
					c0.073-0.073,0.147-0.147,0.147-0.294c0-0.22-0.073-0.367-0.294-0.441c-0.073,0-0.22-0.073-0.441-0.073L165.838,157.431
					L165.838,157.431L165.838,157.431z M166.866,157.945c0,0.147-0.073,0.22-0.22,0.22c-0.073,0-0.147,0.073-0.294,0.073l-0.294,0
					v-0.587l0.22,0c0.147,0,0.294,0,0.367,0.073C166.793,157.725,166.866,157.872,166.866,157.945L166.866,157.945L166.866,157.945z
					 M167.967,158.313L167.967,158.313c0,0.367-0.147,0.734-0.441,1.101c-0.294,0.294-0.661,0.441-1.101,0.441
					c-0.44,0-0.808-0.147-1.101-0.441c-0.294-0.294-0.44-0.66-0.44-1.101c0-0.367,0.147-0.734,0.44-1.028
					c0.294-0.294,0.661-0.441,1.101-0.441c0.441,0,0.808,0.147,1.101,0.441C167.821,157.505,167.967,157.946,167.967,158.313
					L167.967,158.313z M166.426,156.991c0.367,0,0.661,0.147,0.955,0.367c0.22,0.22,0.367,0.587,0.367,0.881
					c0,0.367-0.147,0.661-0.367,0.954c-0.22,0.22-0.587,0.367-0.955,0.367c-0.367,0-0.661-0.147-0.954-0.367
					c-0.22-0.22-0.367-0.587-0.367-0.954s0.147-0.661,0.367-0.881C165.765,157.138,166.059,156.991,166.426,156.991z"/>
</svg>
