<svg version="1.1" id="Layer_1" xmlns="http://www.w3.org/2000/svg"  x="0px" y="0px"
	 width="312.001px" height="186.001px" viewBox="0 0 312.001 186.001" >
<path fill-rule="evenodd" clip-rule="evenodd" fill="#F03F1E" d="M173.914,59.966L192.6,91.663l-19.899,34.426h20.418l9.164-16.641
	l9.164,16.641h20.754l-19.544-34.426l17.993-31.751h-20.159l-7.873,13.89l-7.947-13.836H173.914L173.914,59.966z M120.633,77.605
	l-1.384-17.64h-39.45v66.086h18.687V104.08l17.65,0.174V86.608H98.142v-9.003H120.633L120.633,77.605z M151.457,60.999
	c17.669,0,32.003,14.341,32.003,32.011c0,17.667-14.334,31.998-32.003,31.998c-17.675,0-32.006-14.331-32.006-31.998
	C119.452,75.333,133.783,60.999,151.457,60.999L151.457,60.999z M150.977,74.664c-2.592,0-4.714,1.857-4.714,4.155v28.375
	c0,2.286,2.121,4.147,4.714,4.147h0.975c2.599,0,4.701-1.862,4.701-4.147V78.819c0-2.298-2.102-4.155-4.701-4.155H150.977z"/>
</svg>
