<svg xmlns="http://www.w3.org/2000/svg" x="0px" y="0px"
     width="312.001px" height="186.001px" viewBox="0 0 312.001 186.001">
    <path fill-rule="evenodd" clip-rule="evenodd" fill="#004292" d="M159.096,54.254L141.9,43.375
				c-0.469-0.269-0.761-0.44-1.119-0.44c-0.427,0-0.54,0.315-0.54,0.859v68.664c0,0.552,0.113,0.866,0.54,0.866
				c0.357,0,0.65-0.171,1.119-0.44l17.196-10.877c0.915-0.604,1.261-0.762,1.261-1.829V56.079
				C160.357,55.013,160.011,54.858,159.096,54.254z"/>
    <path fill-rule="evenodd" clip-rule="evenodd" fill="#004292" d="M128.319,54.267L91.276,44.003
				c-0.759-0.207-1.348,0.056-1.348,0.97v66.176c0,0.93,0.589,1.185,1.348,0.972l37.043-10.255c1.326-0.384,1.847-0.979,1.847-2.178
				V56.443C130.166,55.246,129.645,54.647,128.319,54.267z"/>
    <path fill-rule="evenodd" clip-rule="evenodd" fill="#004292" d="M190.064,54.116l-8.277-11.559
				c-0.34-0.462-0.475-0.624-0.826-0.624c-0.277,0-0.475,0.215-0.475,0.688v71.241c0,0.484,0.198,0.698,0.475,0.698
				c0.35,0,0.486-0.164,0.826-0.628l8.277-11.552c0.481-0.686,0.481-0.993,0.481-1.93V56.041
				C190.545,55.097,190.545,54.8,190.064,54.116z"/>
    <path fill-rule="evenodd" clip-rule="evenodd" fill="#004292" d="M223.032,42.935c-0.355,0-0.535,0.26-0.65,0.691l-2.887,11.565
				v46.006l2.887,11.559c0.116,0.438,0.295,0.697,0.65,0.697c0.273,0,0.486-0.214,0.486-0.686V43.621
				C223.519,43.144,223.305,42.935,223.032,42.935z"/>
    <path fill-rule="evenodd" clip-rule="evenodd" fill="#004292" d="M51.549,130.151h1.863v-1.785
				C53.438,126.527,53.8,125,56.831,125c0.411,0,0.879,0.018,1.294,0.044v1.865c-0.211,0-0.468-0.022-0.673-0.022
				c-1.814,0-1.814,0.617-1.814,1.577v1.688h2.486v2.016h-2.486v11.545h-2.227v-11.545h-1.863V130.151z"/>
    <path fill-rule="evenodd" clip-rule="evenodd" fill="#004292" d="M60.934,130.151h2.172v2.638
				c0.777-3.029,2.999-3.002,4.165-3.002c0.262,0,0.83,0.027,1.245,0.08v2.096c-0.335,0-0.67,0-1.008,0c-1.268,0-4.347,0-4.347,4.21
				v7.54h-2.227V130.151z"/>
    <path fill-rule="evenodd" clip-rule="evenodd" fill="#004292" d="M72.604,134.343c0-1.998,0.409-2.735,3.306-2.735
				c2.227,0,3.111,0.302,3.111,2.105c0,0.4,0,1.563-0.777,1.661c-7.14,0.933-8.33,1.923-8.33,4.636c0,2.687,1.163,4.059,4.525,4.059
				c3.131,0,3.985-1.004,4.736-2.043c0.311,1.323,0.775,1.705,2.48,1.705c0.318,0,0.622-0.018,0.935-0.018v-1.687
				c-0.828,0-1.292-0.018-1.292-1.164v-6.678c0-3.232-1.372-4.396-5.073-4.396c-5.771,0-5.771,2.673-5.771,4.556H72.604
				L72.604,134.343z M74.904,142.264c-1.552,0-2.691-0.471-2.691-2.02c0-1.474,0.106-2.309,3.828-2.802
				c0.828-0.107,1.787-0.253,3.03-0.675v1.607C79.096,141.043,77.622,142.264,74.904,142.264z"/>
    <path fill-rule="evenodd" clip-rule="evenodd" fill="#004292" d="M85.02,130.151h2.229v2.096c0.458-1.061,1.292-2.46,4.341-2.46
				c4.454,0,4.556,2.718,4.556,4.68v9.245h-2.227v-8.619c0-2.047-0.18-3.446-2.744-3.446c-2.067,0-3.926,0.857-3.926,4.196v7.868
				H85.02V130.151z"/>
    <path fill-rule="evenodd" clip-rule="evenodd" fill="#004292" d="M108.747,134.396c-0.231-1.323-0.704-2.789-3.515-2.789
				c-3.055,0-4.245,1.616-4.245,5.426c0,3.41,0.93,5.231,4.214,5.231c3.315,0,3.441-1.714,3.625-3.242h2.203
				c0,1.79-0.777,5.045-5.904,5.045c-3.048,0-6.417-1.088-6.417-7.087c0-5.098,2.38-7.193,6.601-7.193
				c4.625,0,5.508,2.718,5.635,4.609H108.747z"/>
    <path fill-rule="evenodd" clip-rule="evenodd" fill="#004292" d="M125.546,137.682c0-0.346,0.026-0.702,0.026-1.039
				c0-6.883-4.323-6.856-5.926-6.856c-4.405,0-6.656,1.967-6.656,7.478c0,5.018,2.564,6.803,6.372,6.803
				c4.76,0,5.795-2.3,5.948-4.423h-2.094c-0.311,1.732-1.088,2.619-3.73,2.619c-3.901,0-4.141-2.619-4.141-4.583H125.546
				L125.546,137.682z M123.217,135.87h-7.871c0.24-2.203,0.757-4.263,4.065-4.263C122.593,131.607,123.217,133.312,123.217,135.87z"
    />
    <path fill-rule="evenodd" clip-rule="evenodd" fill="#004292" d="M129.362,130.151h1.79v-4.294h3.597v4.294h2.22v2.38h-2.22
				v7.007c0,0.671,0,0.986,0.227,1.217c0.213,0.204,0.524,0.204,0.835,0.204h1.159v2.753h-2.094c-0.981,0-2.304-0.027-3.006-0.675
				c-0.69-0.648-0.717-1.918-0.717-2.735v-7.771h-1.79V130.151z"/>
    <path fill-rule="evenodd" clip-rule="evenodd" fill="#004292" d="M146.378,128.677l2.691-3.988h-3.048l-1.35,3.988H146.378
				L146.378,128.677z M152.044,138.063c0.211-3.898-0.515-8.277-6.492-8.277c-5.045,0-6.758,2.873-6.758,7.193
				c0,4.734,1.969,7.087,6.6,7.087c5.384,0,6.135-2.691,6.417-4.369h-3.522c-0.229,0.799-0.386,1.66-2.611,1.66
				c-2.562,0-3.315-1.115-3.315-3.295H152.044L152.044,138.063z M148.341,135.555h-5.899c0.184-1.372,0.337-3.024,3.266-3.024
				C148.037,132.531,148.341,133.978,148.341,135.555z"/>
    <rect x="154.633" y="125" fill-rule="evenodd" clip-rule="evenodd" fill="#004292" width="3.605" height="18.712"/>
    <path fill-rule="evenodd" clip-rule="evenodd" fill="#004292" d="M168.609,128.677l2.689-3.988h-3.05l-1.346,3.988H168.609
				L168.609,128.677z M174.276,138.063c0.209-3.898-0.518-8.277-6.494-8.277c-5.045,0-6.75,2.873-6.75,7.193
				c0,4.734,1.958,7.087,6.592,7.087c5.384,0,6.134-2.691,6.419-4.369h-3.517c-0.236,0.799-0.389,1.66-2.616,1.66
				c-2.564,0-3.308-1.115-3.308-3.295H174.276L174.276,138.063z M170.577,135.555h-5.9c0.185-1.372,0.338-3.024,3.259-3.024
				C170.264,132.531,170.577,133.978,170.577,135.555z"/>
    <polygon fill-rule="evenodd" clip-rule="evenodd" fill="#004292" points="175.632,130.151 179.549,130.151 182.311,139.777
				185.06,130.151 188.865,130.151 183.971,143.712 180.556,143.712 			"/>
    <path fill-rule="evenodd" clip-rule="evenodd" fill="#004292" d="M190.907,130.151h3.597v13.561h-3.597V130.151L190.907,130.151z
				 M190.907,125h3.597v3.384h-3.597V125z"/>
    <path fill-rule="evenodd" clip-rule="evenodd" fill="#004292" d="M197.004,138.894h3.395c0.1,1.314,0,2.464,2.871,2.464
				c1.372,0,2.639,0,2.639-1.66c0-1.27-1.039-1.119-3.674-1.705c-3.364-0.697-4.782-1.687-4.782-4.059
				c0-3.277,2.608-4.147,5.662-4.147c5.797,0,5.721,3.65,5.797,4.609h-3.393c-0.1-1.243-0.309-1.936-2.454-1.936
				c-1.039,0-2.154,0.168-2.154,1.234c0,1.092,0.804,1.114,4.063,1.789c2.924,0.644,4.476,1.727,4.476,4.263
				c0,2.97-2.166,4.321-6.234,4.321C197.266,144.067,197.004,140.39,197.004,138.894z"/>
    <path fill-rule="evenodd" clip-rule="evenodd" fill="#004292" d="M211.955,130.151h3.594v13.561h-3.594V130.151L211.955,130.151z
				 M211.955,125h3.594v3.384h-3.594V125z"/>
    <path fill-rule="evenodd" clip-rule="evenodd" fill="#004292" d="M224.702,144.067c5.153,0,6.861-2.9,6.861-7.167
				c0-4.92-2.203-7.114-6.73-7.114c-3.932,0-6.883,1.581-6.883,7.247C217.95,141.918,220.25,144.067,224.702,144.067
				L224.702,144.067z M227.968,136.585c0,3.113-0.467,4.791-3.395,4.791c-2.22,0-3.021-1.288-3.021-4.503
				c0-3.517,0.979-4.369,3.41-4.369C227.186,132.504,227.968,133.818,227.968,136.585z"/>
    <path fill-rule="evenodd" clip-rule="evenodd" fill="#004292" d="M233.923,130.151h3.466v1.829
				c0.262-0.826,0.575-2.193,3.623-2.193c3.138,0,4.785,1.083,4.785,4.325v9.6h-3.595v-8.978c0-1.35-0.515-2.127-2.38-2.127
				c-1.503,0-2.298,0.493-2.298,2.358v8.747h-3.601V130.151z"/>
    <path fill-rule="evenodd" clip-rule="evenodd" fill="#004292" d="M248.003,138.894h3.395c0.1,1.314,0,2.464,2.869,2.464
				c1.374,0,2.64,0,2.64-1.66c0-1.27-1.03-1.119-3.67-1.705c-3.366-0.697-4.787-1.687-4.787-4.059c0-3.277,2.609-4.147,5.664-4.147
				c5.797,0,5.719,3.65,5.797,4.609h-3.39c-0.109-1.243-0.311-1.936-2.458-1.936c-1.037,0-2.152,0.168-2.152,1.234
				c0,1.092,0.804,1.114,4.067,1.789c2.922,0.644,4.474,1.727,4.474,4.263c0,2.97-2.178,4.321-6.237,4.321
				C248.266,144.067,248.003,140.39,248.003,138.894z"/>
</svg>
