<svg xmlns="http://www.w3.org/2000/svg" x="0px" y="0px"
     width="312.001px" height="186.001px" viewBox="0 0 312.001 186.001" enable-background="new 0 0 312.001 186.001">

    <path fill-rule="evenodd" clip-rule="evenodd" fill="#F57C14" d="M152.006,66.292h-1.559v4.366H149.5v-4.366h-1.557v-0.806h4.063
		V66.292L152.006,66.292L152.006,66.292z M153.277,65.407h-0.155v5.251h0.942V67.4l1.62,1.937h0.184l1.607-1.937v3.258h0.954v-5.251
		h-0.154l-2.495,2.8L153.277,65.407z"/>
    <path fill-rule="evenodd" clip-rule="evenodd" fill="#F57C14" d="M96.267,80.632c6.592,0,12.208,2.322,16.849,6.962
		c4.641,4.582,6.962,10.184,6.962,16.805v21.86h-18.047v-21.505c0-2.542-0.562-4.715-1.685-6.518
		c-1.124-1.802-2.483-2.705-4.08-2.705c-1.567,0-2.912,0.903-4.035,2.705c-1.124,1.803-1.685,3.976-1.685,6.518v21.506H72.501
		v-21.861c0-6.621,2.32-12.223,6.962-16.805C84.073,82.952,89.675,80.632,96.267,80.632z"/>
    <path fill-rule="evenodd" clip-rule="evenodd" fill="#F57C14" d="M137.452,77.04c-1.922,1.892-2.912,3.296-2.971,4.213v0.089
		c0,0.947,0.843,2.247,2.527,3.903l1.996,1.996c1.774,1.803,2.661,3.961,2.661,6.474v32.547l-18.224-0.001V93.712
		c0-2.542,0.887-4.701,2.661-6.474l2.04-1.996c1.655-1.655,2.483-2.972,2.483-3.947v-0.089c-0.089-0.887-1.079-2.276-2.971-4.168
		l-2.173-2.218c-1.98-1.951-2.971-4.315-2.971-7.095c0-2.778,0.99-5.128,2.971-7.05c1.921-1.98,4.271-2.971,7.051-2.971
		c2.808,0,5.173,0.976,7.095,2.927c1.98,1.951,2.971,4.316,2.971,7.095c0,2.809-0.991,5.173-2.971,7.095L137.452,77.04z"/>
    <path fill-rule="evenodd" clip-rule="evenodd" fill="#F57C14" d="M171.835,112.067c0.798-1.508,1.315-3.281,1.552-5.321h18.003
		c-0.503,5.705-2.779,10.552-6.829,14.544v0.045c-4.612,4.641-10.17,6.961-16.672,6.961h-0.222c-6.534,0-12.105-2.321-16.717-6.961
		v-0.045c-4.641-4.581-6.962-10.139-6.962-16.672v-0.222c0-6.532,2.32-12.09,6.962-16.672c4.611-4.641,10.214-6.962,16.805-6.962
		c6.563,0,12.164,2.321,16.806,6.962c4.05,4.021,6.325,8.868,6.828,14.544l-18.002,0c-0.237-2.04-0.753-3.813-1.552-5.321
		c-1.153-2.069-2.513-3.104-4.08-3.104c-1.567,0-2.912,1.035-4.035,3.104c-1.124,2.1-1.685,4.627-1.685,7.582
		c0,2.927,0.561,5.439,1.685,7.539c1.123,2.069,2.468,3.119,4.035,3.148C169.323,115.187,170.683,114.136,171.835,112.067z"/>
    <path fill-rule="evenodd" clip-rule="evenodd" fill="#F57C14" d="M229.213,106.394l9.134,13.967
		c0.769,1.153,1.153,2.188,1.153,3.104c0,0.385-0.059,0.74-0.177,1.064c-0.414,1.152-1.301,1.73-2.661,1.73l-14.899,0l-9.401-14.41
		v14.367h-18.047V89.633c0-2.483,0.887-4.611,2.661-6.386c1.744-1.744,3.858-2.616,6.341-2.616c2.512,0,4.641,0.873,6.385,2.616
		c1.774,1.774,2.66,3.902,2.66,6.386v9.756l8.159-14.589c1.271-2.158,3.118-3.547,5.543-4.169c0.799-0.207,1.581-0.31,2.35-0.31
		c1.567,0,3.06,0.415,4.479,1.241c2.158,1.301,3.547,3.164,4.168,5.587c0.207,0.769,0.31,1.537,0.31,2.305
		c0,1.568-0.429,3.06-1.286,4.479L229.213,106.394z"/>
</svg>
