<svg xmlns="http://www.w3.org/2000/svg" xmlns:xlink="http://www.w3.org/1999/xlink" x="0px" y="0px"
     width="312.001px" height="186.001px" viewBox="0 0 312.001 186.001">
    <path fill-rule="evenodd" clip-rule="evenodd" fill="#FFFFFF" d="M154.382,58.373c19.311,0.003,38.624-0.001,57.936,0.002
		c0,19.297,0.001,38.593,0,57.889c-19.313-0.002-38.626-0.002-57.937,0C154.383,96.967,154.378,77.67,154.382,58.373z"/>
    <path fill-rule="evenodd" clip-rule="evenodd" fill="#010101" d="M96.449,58.384c19.311,0.003,38.624-0.002,57.935,0.002
		c0,19.297,0.002,38.592,0,57.889c-19.313-0.002-38.626-0.002-57.937,0C96.451,96.978,96.446,77.682,96.449,58.384z"/>
    <path fill-rule="evenodd" clip-rule="evenodd" fill="#FEFEFE" d="M120.875,62.254c7.121-1.817,14.986-0.337,20.982,3.907
		c3.131,2.181,5.758,5.072,7.654,8.38c-4.072,2.29-8.115,4.638-12.181,6.939c-0.732,0.416-1.479,0.808-2.186,1.264
		c-1.121-1.924-2.926-3.461-5.04-4.179c-1.417-0.532-2.971-0.586-4.46-0.405c-4.32,0.567-7.934,4.584-7.872,8.972
		c-0.211,3.855,2.386,7.597,5.986,8.911c2.678,1.05,5.826,0.721,8.244-0.829c1.311-0.804,2.362-1.97,3.154-3.277
		c2.727,1.633,5.52,3.159,8.269,4.757c2.033,1.147,4.046,2.333,6.09,3.463c-3.396,5.934-9.214,10.458-15.847,12.162
		c-0.824,0.262-1.689,0.353-2.526,0.561c-1.928,0.219-3.876,0.418-5.816,0.23c-5.866-0.327-11.552-2.824-15.855-6.813
		c-4.465-4.103-7.402-9.83-8.094-15.855c-0.782-6.012,0.738-12.273,4.08-17.323C108.994,67.741,114.606,63.742,120.875,62.254z"/>
    <path fill-rule="evenodd" clip-rule="evenodd" fill="#010101" d="M158.5,62.53c5.516-0.007,11.034,0.013,16.551-0.011
		c5.567,6.86,11.041,13.801,16.587,20.679c0.011-6.892-0.003-13.782,0.006-20.674c5.515,0.011,11.03,0.01,16.544,0.002
		c0.008,16.548,0.007,33.097,0.002,49.644c-5.524-0.01-11.049,0-16.573-0.005c-5.402-6.766-10.834-13.509-16.23-20.28
		c-0.107-0.122-0.216-0.238-0.331-0.351c0.033,6.876,0.007,13.752,0.013,20.628c-5.524,0.009-11.049,0.002-16.573,0.003
		C158.5,95.619,158.495,79.074,158.5,62.53z"/>
    <path fill-rule="evenodd" clip-rule="evenodd" fill="#010101" d="M98.371,123.974c-0.073-1.612,1.121-3.176,2.683-3.566
		c1.579-0.518,3.402,0.279,4.217,1.701c-0.607,0.422-1.296,0.713-1.893,1.152c-0.286-0.321-0.599-0.689-1.053-0.751
		c-0.745-0.143-1.56,0.402-1.668,1.163c-0.116,0.38,0.063,0.753,0.168,1.112c0.616,0.84,2.006,0.799,2.544-0.106
		c0.629,0.394,1.288,0.737,1.917,1.131c-0.683,1.123-1.952,1.928-3.296,1.804C100.047,127.719,98.288,125.898,98.371,123.974z"/>
    <path fill-rule="evenodd" clip-rule="evenodd" fill="#010101" d="M131.891,120.34c1.344-0.292,2.818,0.303,3.636,1.399
		c1.21,1.539,0.891,4.025-0.708,5.173c-0.897,0.758-2.146,0.812-3.253,0.624c-0.909-0.256-1.701-0.877-2.186-1.685
		c-0.548-0.937-0.597-2.106-0.291-3.132C129.514,121.504,130.618,120.551,131.891,120.34z"/>
    <path fill-rule="evenodd" clip-rule="evenodd" fill="#010101" d="M139.554,120.419c1.919-0.634,4.192,0.702,4.586,2.68
		c0.448,1.636-0.432,3.501-1.974,4.206c-0.73,0.391-1.587,0.333-2.384,0.273c-1.225-0.219-2.27-1.158-2.7-2.316
		C136.301,123.331,137.516,120.901,139.554,120.419z"/>
    <path fill-rule="evenodd" clip-rule="evenodd" fill="#010101" d="M190.683,120.416c2.113-0.718,4.63,0.99,4.679,3.234
		c0.164,1.345-0.518,2.703-1.652,3.426c-0.842,0.597-1.922,0.61-2.905,0.481c-1.237-0.293-2.264-1.282-2.648-2.486
		c-0.19-0.756-0.186-1.56,0.027-2.309C188.591,121.65,189.522,120.709,190.683,120.416z"/>
    <path fill-rule="evenodd" clip-rule="evenodd" fill="#010101" d="M203.614,120.434c0.793-0.001,1.584,0,2.378-0.001
		c0.003,0.754-0.007,1.509,0.005,2.264c0.615-0.729,1.153-1.519,1.747-2.265c1.021,0.007,2.043,0,3.066,0.003
		c-0.945,1.118-1.824,2.292-2.785,3.396c0.963,1.209,1.854,2.472,2.803,3.692c-1.026,0.019-2.052,0.003-3.077,0.009
		c-0.575-0.891-1.17-1.768-1.761-2.648c0,0.883,0,1.765,0.003,2.648c-0.794-0.001-1.587,0-2.379-0.001
		C203.616,125.164,203.614,122.799,203.614,120.434z"/>
    <path fill-rule="evenodd" clip-rule="evenodd" fill="#010101" d="M107.567,120.441c1.188-0.021,2.376,0.003,3.566-0.014
		c0.534,1.412,0.901,2.883,1.388,4.311c0.343,0.918,0.524,1.89,0.897,2.797c-0.858,0.006-1.715-0.002-2.573,0.006
		c-0.11-0.408-0.183-0.827-0.353-1.215c-0.729,0.019-1.46,0.008-2.189,0.01c-0.146,0.397-0.283,0.797-0.406,1.204
		c-0.836-0.003-1.669-0.003-2.503,0C106.082,125.164,106.911,122.826,107.567,120.441z"/>
    <path fill-rule="evenodd" clip-rule="evenodd" fill="#010101" d="M114.043,120.435c1.489,0.008,2.977-0.026,4.463,0.016
		c1.52,0.016,2.727,1.669,2.271,3.121c-0.173,0.705-0.697,1.259-1.315,1.614c0.507,0.767,0.935,1.582,1.441,2.351
		c-0.886,0.005-1.771-0.005-2.656,0.005c-0.397-0.683-0.7-1.417-1.096-2.101c-0.242,0.008-0.484,0.014-0.726,0.024
		c0.002,0.691,0,1.382,0.003,2.073c-0.796,0-1.592,0.003-2.386-0.002C114.045,125.169,114.043,122.802,114.043,120.435z"/>
    <path fill-rule="evenodd" clip-rule="evenodd" fill="#010101" d="M121.455,122.505c-0.002-0.692,0-1.383,0-2.073
		c2.375,0.003,4.751,0.001,7.125,0c0,0.689,0,1.38,0,2.07c-0.737-0.005-1.475-0.002-2.212-0.005c0,1.681-0.002,3.361,0.001,5.043
		c-0.885-0.003-1.768-0.002-2.652-0.003c0.003-1.679,0-3.359,0.002-5.038C122.963,122.5,122.209,122.495,121.455,122.505z"/>
    <path fill-rule="evenodd" clip-rule="evenodd" fill="#010101" d="M144.932,127.54c-0.001-2.368-0.001-4.738,0-7.108
		c0.783,0.014,1.566-0.021,2.349,0.013c0.864,0.897,1.572,1.95,2.384,2.902c-0.017-0.971,0.005-1.941-0.033-2.91
		c0.792-0.007,1.586-0.003,2.381-0.003c0,2.368-0.001,4.737,0.002,7.105c-0.775,0-1.549-0.001-2.321,0.002
		c-0.809-0.98-1.591-1.981-2.384-2.972c-0.019,0.99-0.005,1.979-0.008,2.969C146.513,127.538,145.721,127.535,144.932,127.54z"/>
    <path fill-rule="evenodd" clip-rule="evenodd" fill="#010101" d="M156.764,120.435c0.805-0.003,1.611,0,2.416-0.003
		c0.786,0.972,1.547,1.963,2.352,2.916c0.008-0.971,0-1.943,0.003-2.913c0.786-0.003,1.571-0.002,2.357-0.002
		c-0.002,2.365,0.002,4.732-0.002,7.098c-0.778-0.003-1.555-0.005-2.333,0c-0.82-0.937-1.568-1.933-2.344-2.905
		c-0.025,0.967-0.008,1.935-0.012,2.9c-0.812,0.003-1.625,0.003-2.437,0.002C156.766,125.164,156.764,122.799,156.764,120.435z"/>
    <path fill-rule="evenodd" clip-rule="evenodd" fill="#010101" d="M164.86,120.434c2.07-0.001,4.138,0,6.207,0
		c-0.001,0.686,0,1.372-0.001,2.06c-1.274-0.005-2.548-0.002-3.822-0.002c-0.002,0.151-0.002,0.454-0.003,0.605
		c1.088,0.003,2.178,0,3.266,0.002c-0.001,0.594-0.001,1.188,0,1.784c-1.088-0.001-2.176-0.001-3.262,0
		c-0.002,0.24-0.003,0.48-0.002,0.721c1.274,0.002,2.548,0.002,3.823-0.001c0.001,0.643,0,1.285,0.001,1.928
		c-2.07-0.001-4.139,0-6.207-0.001C164.861,125.164,164.86,122.799,164.86,120.434z"/>
    <path fill-rule="evenodd" clip-rule="evenodd" fill="#010101" d="M171.845,122.491c0.002-0.686,0.002-1.371,0.002-2.057
		c2.375-0.001,4.747,0.003,7.121-0.001c0.001,0.688,0.003,1.375,0,2.065c-0.743-0.009-1.487-0.005-2.23-0.006
		c0.003,1.68-0.003,3.361,0.003,5.04c-0.891-0.003-1.782,0-2.672-0.001c0.002-1.679-0.002-3.358,0.002-5.037
		C173.329,122.491,172.587,122.492,171.845,122.491z"/>
    <path fill-rule="evenodd" clip-rule="evenodd" fill="#010101" d="M179.516,120.434c0.799,0,1.598-0.001,2.398,0
		c0.248,1.007,0.337,2.044,0.6,3.05c0.384-0.945,0.786-1.882,1.152-2.834c0.449,0.936,0.759,1.935,1.24,2.856
		c0.065-1.042,0.424-2.036,0.521-3.075c0.799,0.005,1.598,0.005,2.397,0c-0.389,2.375-0.92,4.725-1.317,7.097
		c-0.651,0.005-1.302-0.001-1.954,0.008c-0.34-0.615-0.567-1.282-0.883-1.909c-0.267,0.635-0.554,1.261-0.807,1.903
		c-0.655,0.001-1.31,0-1.965,0.001C180.391,125.175,180.003,122.796,179.516,120.434z"/>
    <path fill-rule="evenodd" clip-rule="evenodd" fill="#010101" d="M196.087,127.532c0.002-2.368-0.01-4.736,0.006-7.105
		c1.088,0.013,2.178,0.003,3.268,0.006c0.629,0.003,1.272-0.046,1.884,0.138c0.92,0.361,1.674,1.267,1.637,2.29
		c0.079,0.961-0.537,1.846-1.363,2.281c0.422,0.815,0.937,1.579,1.385,2.381c-0.882,0.014-1.763-0.005-2.645,0.013
		c-0.356-0.697-0.705-1.396-1.061-2.094c-0.246-0.005-0.491-0.006-0.735-0.009c-0.003,0.699-0.002,1.398-0.002,2.097
		C197.669,127.529,196.878,127.527,196.087,127.532z"/>
    <path fill-rule="evenodd" clip-rule="evenodd" fill="#FEFEFE" d="M109.443,122.399c0.068,0.74,0.414,1.414,0.538,2.143
		c-0.411,0-0.824,0-1.236,0C109.054,123.85,109.105,123.078,109.443,122.399z"/>
    <path fill-rule="evenodd" clip-rule="evenodd" fill="#FEFEFE" d="M116.426,122.502c0.586,0.013,1.177-0.048,1.76,0.035
		c0.432,0.281,0.381,0.956-0.115,1.134c-0.548,0.036-1.096,0.007-1.644,0.013C116.427,123.288,116.426,122.894,116.426,122.502z"/>
    <path fill-rule="evenodd" clip-rule="evenodd" fill="#FEFEFE" d="M198.462,122.491c0.567,0.014,1.14-0.038,1.706,0.033
		c0.431,0.172,0.362,0.692,0.203,1.037c-0.613,0.216-1.272,0.094-1.907,0.124C198.462,123.286,198.46,122.889,198.462,122.491z"/>
    <path fill-rule="evenodd" clip-rule="evenodd" fill="#FEFEFE" d="M131.974,122.807c0.661-0.427,1.645,0.013,1.842,0.754
		c0.17,0.413,0.003,0.845-0.157,1.229c-0.473,0.51-1.325,0.734-1.884,0.23C131.018,124.506,131.12,123.171,131.974,122.807z"/>
    <path fill-rule="evenodd" clip-rule="evenodd" fill="#FEFEFE" d="M139.641,123.018c0.651-0.689,1.939-0.354,2.163,0.566
		c0.207,0.419-0.032,0.851-0.194,1.239c-0.339,0.271-0.718,0.557-1.182,0.472C139.344,125.259,138.811,123.714,139.641,123.018z"/>
    <path fill-rule="evenodd" clip-rule="evenodd" fill="#FEFEFE" d="M191.158,122.77c0.794-0.454,1.917,0.276,1.839,1.191
		c0.097,1.012-1.218,1.734-2.019,1.113C190.122,124.586,190.223,123.117,191.158,122.77z"/>
    <path fill-rule="evenodd" clip-rule="evenodd" fill="#010101" d="M211.888,125.61c0.515,0,1.029-0.025,1.544,0.002
		c0.034,0.08,0.1,0.237,0.133,0.315c-0.229,0.013-0.456,0.024-0.681,0.035c0.002,0.526,0.002,1.052,0.005,1.577
		c-0.11,0.007-0.327,0.016-0.437,0.021c-0.005-0.537-0.003-1.072-0.002-1.608c-0.187-0.001-0.375-0.003-0.561-0.003
		C211.889,125.864,211.889,125.694,211.888,125.61z"/>
    <path fill-rule="evenodd" clip-rule="evenodd" fill="#010101" d="M213.697,125.593c0.195,0.002,0.394,0.01,0.592,0.024
		c0.132,0.473,0.222,0.959,0.356,1.434c0.11-0.489,0.214-0.977,0.362-1.455c0.179,0.003,0.362,0.007,0.546,0.011
		c-0.001,0.646-0.001,1.294,0,1.943c-0.092,0-0.278,0.001-0.37,0.003c0.005-0.52-0.016-1.039-0.015-1.557
		c-0.078,0.528-0.203,1.045-0.343,1.56c-0.14-0.005-0.279-0.008-0.418-0.01c-0.075-0.513-0.162-1.024-0.31-1.522
		c-0.038,0.51-0.022,1.02-0.019,1.531c-0.098-0.002-0.294-0.006-0.391-0.01C213.694,126.895,213.689,126.244,213.697,125.593z"/>
</svg>
