<svg id="#tpm-svg-3" xmlns="http://www.w3.org/2000/svg" x="0px" y="0px"
	 width="450" height="490" viewBox="50 190 512 476" >
<path  fill="#fff" d="M120.621,509.927h209.952c6.045,0,10.991,4.946,10.991,10.99
	V659.11c0,6.045-4.945,10.99-10.991,10.99H120.621c-6.045,0-10.991-4.946-10.991-10.99V520.917
	C109.63,514.873,114.576,509.927,120.621,509.927L120.621,509.927z M329.149,583.719c-3.477,0-6.295,2.818-6.295,6.295
	c0,3.477,2.819,6.295,6.295,6.295c3.476,0,6.295-2.818,6.295-6.295C335.444,586.537,332.625,583.719,329.149,583.719
	L329.149,583.719z M124.53,524.942v126.066h191.154V524.942H124.53z"/>
</svg>
