<svg xmlns="http://www.w3.org/2000/svg" x="0px" y="0px" width="640" height="440" viewBox="25 200 658.583 441.89">
    <path fill-rule="evenodd" clip-rule="evenodd" fill="#fff"
          d="M136.687,517.126V332.335c0-1.993,0.815-3.805,2.126-5.116  c0.028-0.027,0.056-0.054,0.085-0.079c1.306-1.266,3.082-2.048,5.032-2.048h99.353c1.989,0,3.8,0.817,5.115,2.132  c1.312,1.313,2.127,3.123,2.127,5.111v184.791c0,1.988-0.815,3.798-2.127,5.11l-0.003,0.003l0.003,0.003  c-1.312,1.312-3.123,2.127-5.115,2.127h-99.353c-1.989,0-3.799-0.815-5.111-2.127C137.504,520.927,136.687,519.115,136.687,517.126  L136.687,517.126z M139.522,332.335v184.791c0,1.214,0.495,2.316,1.291,3.112c0.8,0.8,1.904,1.297,3.118,1.297h99.353  c1.209,0,2.311-0.497,3.111-1.297l0.003,0.003c0.798-0.799,1.294-1.902,1.294-3.114V332.335c0-1.213-0.497-2.318-1.297-3.118  c-0.796-0.796-1.897-1.291-3.111-1.291h-99.353c-1.182,0-2.259,0.47-3.053,1.232c-0.019,0.022-0.039,0.043-0.06,0.064  C140.018,330.022,139.522,331.124,139.522,332.335L139.522,332.335z M198.917,510.55c0-0.562-0.085-1.1-0.243-1.602  c-0.165-0.525-0.407-1.012-0.71-1.445c-0.485-0.693-1.14-1.268-1.907-1.667c-0.732-0.381-1.565-0.597-2.451-0.597  c-0.885,0-1.719,0.216-2.451,0.597c-0.767,0.4-1.421,0.974-1.907,1.667c-0.303,0.433-0.545,0.92-0.71,1.445  c-0.158,0.501-0.243,1.04-0.243,1.602c0,1.466,0.595,2.794,1.555,3.755c0.961,0.961,2.289,1.555,3.755,1.555  c1.469,0,2.797-0.594,3.758-1.552C198.323,513.347,198.917,512.019,198.917,510.55L198.917,510.55z M201.376,508.107  c-0.25-0.796-0.624-1.543-1.098-2.221c-0.753-1.076-1.754-1.959-2.914-2.564c-1.125-0.586-2.403-0.918-3.757-0.918  s-2.632,0.332-3.757,0.918c-1.16,0.605-2.161,1.488-2.914,2.564c-0.474,0.677-0.848,1.425-1.098,2.221  c-0.244,0.775-0.376,1.596-0.376,2.443c0,2.249,0.912,4.285,2.386,5.759c1.474,1.474,3.51,2.386,5.759,2.386  c2.245,0,4.28-0.912,5.754-2.386l0.005-0.005c1.474-1.474,2.386-3.509,2.386-5.754C201.751,509.703,201.62,508.882,201.376,508.107  L201.376,508.107z M145.92,497.989c0,0.783,0.635,1.417,1.417,1.417h92.541c0.783,0,1.417-0.635,1.417-1.417V336.004  c0-0.783-0.635-1.417-1.417-1.417h-92.541c-0.783,0-1.417,0.635-1.417,1.417V497.989L145.92,497.989z M148.754,337.421v159.151  h89.706V337.421H148.754z"/>
</svg>