<?xml version="1.0" encoding="utf-8"?>
<!-- Generator: Adobe Illustrator 17.0.1, SVG Export Plug-In . SVG Version: 6.00 Build 0)  -->
<!DOCTYPE svg PUBLIC "-//W3C//DTD SVG 1.1//EN" "http://www.w3.org/Graphics/SVG/1.1/DTD/svg11.dtd">
<svg version="1.1" id="Layer_1" xmlns="http://www.w3.org/2000/svg" xmlns:xlink="http://www.w3.org/1999/xlink" x="0px" y="0px"
	 width="121.89px" height="121.89px" viewBox="0 0 121.89 121.89" enable-background="new 0 0 121.89 121.89" xml:space="preserve">
<path fill-rule="evenodd" clip-rule="evenodd" fill="#FFFFFF" d="M60.945,120.345c32.717,0,59.4-26.684,59.4-59.4
	c0-32.717-26.684-59.4-59.4-59.4c-32.716,0-59.4,26.684-59.4,59.4C1.545,93.661,28.229,120.345,60.945,120.345z"/>
<path fill-rule="evenodd" clip-rule="evenodd" fill="#FC8D80" d="M58.518,45.37c-1.34-1.34-1.34-3.514,0-4.855s3.514-1.34,4.855,0
	l17.978,17.978c0.068,0.067,0.133,0.137,0.196,0.209l0.027,0.032l0.032,0.038l0.013,0.016l0.038,0.048l0.021,0.028l0.034,0.045
	l0.014,0.02l0.026,0.035l0.039,0.057l0.004,0.005l0.035,0.054l0.018,0.029l0.022,0.036l0.023,0.038l0.019,0.033l0.023,0.041
	l0.017,0.029l0.026,0.048l0.013,0.025l0.029,0.057l0.006,0.012l0.029,0.06l0.01,0.021l0.027,0.06l0.005,0.011
	c0.182,0.418,0.282,0.88,0.282,1.365c0,0.485-0.101,0.946-0.282,1.365l-0.005,0.011l-0.027,0.06l-0.01,0.021l-0.029,0.06
	l-0.006,0.012l-0.029,0.057l-0.013,0.025l-0.026,0.048l-0.017,0.029l-0.023,0.041l-0.019,0.033l-0.023,0.038l-0.022,0.036
	l-0.018,0.029l-0.035,0.054l-0.004,0.005l-0.039,0.057l-0.026,0.035l-0.014,0.02l-0.034,0.045l-0.021,0.028L81.618,63.1
	l-0.013,0.016l-0.032,0.038l-0.027,0.032c-0.062,0.072-0.128,0.142-0.196,0.209L63.372,81.374c-1.34,1.34-3.514,1.34-4.855,0
	s-1.34-3.514,0-4.855l12.141-12.141H42.943c-1.896,0-3.433-1.537-3.433-3.433c0-1.896,1.537-3.433,3.433-3.433h27.716L58.518,45.37z
	"/>
</svg>
