<svg xmlns="http://www.w3.org/2000/svg" x="0px" y="0px" width="1980"
     height="310" viewBox="-200 300 1105.276 271.89">
    <path fill="rgba(255,255,255,0.15)"
          d="M87.949,394.447c7.673-15.897,26.784-22.565,42.68-14.894  c15.902,7.671,22.571,26.778,14.898,42.681c-12.307,25.501-31.626,46.989-55.454,61.958C66.85,498.778,39.508,507.21,10.34,507.21  c-29.172,0-56.513-8.432-79.737-23.017c-23.829-14.969-43.147-36.457-55.451-61.958c-7.671-15.903-1.002-35.01,14.893-42.681  c15.901-7.672,35.006-1.004,42.683,14.894c7.085,14.689,18.204,27.06,31.922,35.671c13.123,8.245,28.776,13.011,45.691,13.011  c16.912,0,32.565-4.767,45.689-13.011C69.745,421.507,80.866,409.136,87.949,394.447L87.949,394.447z M-625.155,574.545  L-625.155,574.545h76.039c1.169-3.748,1.798-7.734,1.798-11.867c0-21.992-17.825-39.816-39.815-39.816  c-21.994,0-39.822,17.824-39.822,39.816C-626.955,566.81-626.324,570.796-625.155,574.545L-625.155,574.545z M-504.557,574.545  L-504.557,574.545c0.524-3.873,0.797-7.834,0.797-11.868c0-16.912-4.767-32.565-13.011-45.688  c-8.612-13.715-20.983-24.836-35.672-31.92c-15.897-7.673-22.566-26.784-14.894-42.68c7.671-15.902,26.779-22.571,42.682-14.898  c25.5,12.307,46.989,31.626,61.958,55.454c14.585,23.224,23.017,50.566,23.017,79.733c0,3.993-0.159,7.95-0.469,11.868H-504.557  L-504.557,574.545z M-375.004,574.545L-375.004,574.545h132.152c-6.395-5.01-14.451-7.998-23.205-7.998h-85.742  C-360.553,566.547-368.609,569.534-375.004,574.545L-375.004,574.545z M-156.544,574.545L-156.544,574.545h57.437  c-6.907-8.138-17.208-13.304-28.717-13.304C-139.334,561.24-149.636,566.407-156.544,574.545L-156.544,574.545z M-4.917,574.545  L-4.917,574.545h180.543c-3.403-2.566-6.917-4.991-10.537-7.264c-23.224-14.585-50.566-23.017-79.737-23.017  c-29.167,0-56.509,8.432-79.733,23.017C2,569.554-1.514,571.979-4.917,574.545L-4.917,574.545z M296.391,574.545L296.391,574.545  h64.406c-0.524-3.871-0.796-7.83-0.796-11.862c0-16.915,4.767-32.568,13.012-45.691c8.611-13.717,20.983-24.836,35.671-31.921  c15.897-7.677,22.566-26.783,14.894-42.683c-7.671-15.895-26.779-22.564-42.682-14.893c-25.5,12.304-46.989,31.622-61.958,55.451  c-14.585,23.224-23.016,50.566-23.016,79.737C295.922,566.673,296.081,570.629,296.391,574.545L296.391,574.545z M405.358,574.545  L405.358,574.545c-1.169-3.748-1.799-7.734-1.799-11.867c0-21.992,17.827-39.816,39.821-39.816c21.99,0,39.815,17.824,39.815,39.816  c0,4.133-0.63,8.119-1.799,11.867H405.358L405.358,574.545z M525.956,574.545L525.956,574.545h64.407  c0.31-3.918,0.469-7.875,0.469-11.868c0-29.167-8.431-56.509-23.016-79.733c-14.969-23.827-36.458-43.147-61.958-55.454  c-15.903-7.673-35.01-1.004-42.682,14.898c-7.671,15.896-1.003,35.007,14.894,42.68c14.689,7.083,27.06,18.204,35.672,31.92  c8.244,13.123,13.011,28.776,13.011,45.688C526.752,566.71,526.48,570.672,525.956,574.545L525.956,574.545z M664.696,574.545  L664.696,574.545h116.8c-6.395-5.01-14.451-7.998-23.204-7.998h-70.391C679.146,566.547,671.091,569.534,664.696,574.545  L664.696,574.545z M867.805,574.545L867.805,574.545h57.437c-6.907-8.138-17.208-13.304-28.718-13.304  C885.014,561.24,874.712,566.407,867.805,574.545L867.805,574.545z M1019.432,574.545L1019.432,574.545h180.543  c-3.403-2.566-6.917-4.991-10.537-7.264c-23.224-14.585-50.565-23.017-79.737-23.017c-29.167,0-56.509,8.432-79.733,23.017  C1026.349,569.554,1022.834,571.979,1019.432,574.545L1019.432,574.545z M1257.637,551.052L1257.637,551.052V304.264  c-20.604,0.227-37.235,16.997-37.235,37.651v85.743v85.743C1220.402,534.055,1237.033,550.824,1257.637,551.052L1257.637,551.052z   M1122.848,267.345L1122.848,267.345h-105.9c-12.681,22.877-19.913,49.188-19.913,77.181v8.179  c0,20.796,16.859,37.656,37.654,37.656c20.796,0,37.657-16.86,37.657-37.656v-8.179  C1072.345,310.021,1093.128,280.351,1122.848,267.345L1122.848,267.345z M924.102,267.345L924.102,267.345h-53.994  c-7.884,7.276-12.823,17.694-12.823,29.268c0,21.99,17.829,39.815,39.821,39.815c21.992,0,39.815-17.825,39.815-39.815  C936.922,285.039,931.985,274.621,924.102,267.345L924.102,267.345z M818.13,267.345L818.13,267.345h-77.851  c-1.762,9.488-2.692,19.267-2.692,29.263v9.155v31.583v9.155c0,46.484-37.722,84.204-84.21,84.204h-8.179  c-20.796,0-37.656,16.861-37.656,37.657c0,20.795,16.86,37.654,37.656,37.654h8.179c88.054,0,159.519-71.461,159.519-159.515v-9.155  v-31.583v-9.155C812.896,286.319,814.747,276.461,818.13,267.345L818.13,267.345z M603.818,267.345L603.818,267.345h-22.643  c3.739,0.282,7.515,0.427,11.322,0.427C596.303,267.772,600.078,267.627,603.818,267.345L603.818,267.345z M98.5,267.345  L98.5,267.345H-7.4c-12.681,22.877-19.913,49.188-19.913,77.181v8.179c0,20.796,16.859,37.656,37.654,37.656  c20.796,0,37.656-16.86,37.656-37.656v-8.179C47.996,310.021,68.78,280.351,98.5,267.345L98.5,267.345z M-100.246,267.345  L-100.246,267.345h-53.994c-7.883,7.276-12.823,17.694-12.823,29.268c0,21.99,17.829,39.815,39.821,39.815  s39.816-17.825,39.816-39.815C-87.426,285.039-92.364,274.621-100.246,267.345L-100.246,267.345z M-206.218,267.345  L-206.218,267.345h-77.851c-1.762,9.488-2.692,19.267-2.692,29.263v9.155v31.583v9.155c0,46.484-37.721,84.204-84.211,84.204h-8.178  c-20.796,0-37.656,16.861-37.656,37.657c0,20.795,16.86,37.654,37.656,37.654h8.178c88.054,0,159.52-71.461,159.52-159.515v-9.155  v-31.583v-9.155C-211.451,286.319-209.6,276.461-206.218,267.345L-206.218,267.345z M-420.53,267.345L-420.53,267.345h-22.644  c3.74,0.282,7.516,0.427,11.323,0.427C-428.045,267.772-424.27,267.627-420.53,267.345L-420.53,267.345z M-662.362,308.842  L-662.362,308.842v75.31h82.384h85.743c20.796,0,37.656-16.861,37.656-37.651c0-20.8-16.861-37.659-37.656-37.659h-85.743H-662.362  L-662.362,308.842z M653.377,306.679L653.377,306.679c21.99,0,39.819,17.828,39.819,39.821c0,21.99-17.829,39.815-39.819,39.815  c-21.994,0-39.817-17.825-39.817-39.815C613.56,324.507,631.383,306.679,653.377,306.679L653.377,306.679z M444.37,308.842  L444.37,308.842h85.743c20.796,0,37.656,16.859,37.656,37.659c0,20.79-16.86,37.651-37.656,37.651H444.37h-85.743  c-20.796,0-37.656-16.861-37.656-37.651c0-20.8,16.86-37.659,37.656-37.659H444.37L444.37,308.842z M799.946,490.693  L799.946,490.693c0-21.992,17.828-39.815,39.821-39.815c21.99,0,39.815,17.823,39.815,39.815c0,21.992-17.825,39.821-39.815,39.821  C817.774,530.514,799.946,512.685,799.946,490.693L799.946,490.693z M1112.297,394.447L1112.297,394.447  c7.672-15.897,26.784-22.565,42.68-14.894c15.902,7.671,22.572,26.778,14.899,42.681c-12.307,25.501-31.627,46.989-55.454,61.958  c-23.224,14.585-50.566,23.017-79.733,23.017c-29.172,0-56.513-8.432-79.737-23.017c-23.829-14.969-43.147-36.457-55.451-61.958  c-7.672-15.903-1.002-35.01,14.893-42.681c15.9-7.672,35.006-1.004,42.683,14.894c7.085,14.689,18.204,27.06,31.921,35.671  c13.123,8.245,28.776,13.011,45.691,13.011c16.912,0,32.565-4.767,45.688-13.011  C1094.092,421.507,1105.214,409.136,1112.297,394.447L1112.297,394.447z M-370.971,306.679L-370.971,306.679  c21.991,0,39.82,17.828,39.82,39.821c0,21.99-17.829,39.815-39.82,39.815c-21.993,0-39.817-17.825-39.817-39.815  C-410.788,324.507-392.964,306.679-370.971,306.679L-370.971,306.679z M194.965,427.658L194.965,427.658v-85.743  c0-20.796,16.859-37.657,37.659-37.657c20.791,0,37.651,16.861,37.651,37.657v85.743v85.743c0,20.796-16.86,37.657-37.651,37.657  c-20.8,0-37.659-16.861-37.659-37.657V427.658L194.965,427.658z M-224.402,490.693L-224.402,490.693  c0-21.992,17.828-39.815,39.821-39.815c21.991,0,39.815,17.823,39.815,39.815c0,21.992-17.825,39.821-39.815,39.821  C-206.574,530.514-224.402,512.685-224.402,490.693z"/>
</svg>