<svg xmlns:xlink="http://www.w3.org/1999/xlink" xmlns="http://www.w3.org/2000/svg" viewBox="80 125 170 54.724" >
<g>
	<path fill-rule="evenodd" clip-rule="evenodd" fill="#6F7891" d="M219.132,154.26l-3.283,4.434   c-0.041,0.058-0.086,0.112-0.136,0.164l-0.002,0.002l-0.019,0.019l-0.019,0.018l-0.002,0.002c-0.107,0.103-0.228,0.187-0.357,0.251   l0,0l-0.031,0.015l-0.001,0.001l-0.031,0.014c-0.172,0.075-0.353,0.114-0.535,0.119h-0.002l-0.024,0h-0.014h-0.014l-0.024,0h-0.002   c-0.182-0.005-0.363-0.044-0.535-0.119l-0.03-0.014l-0.001-0.001l-0.031-0.015l0,0c-0.129-0.064-0.25-0.148-0.357-0.251   l-0.002-0.002l-0.019-0.018l-0.019-0.019l-0.002-0.002c-0.05-0.052-0.095-0.107-0.136-0.164l-3.283-4.434v7.109   c0,0.796-0.646,1.442-1.442,1.442c-0.797,0-1.442-0.646-1.442-1.442v-11.471c0-0.796,0.645-1.442,1.442-1.442   c0.516,0,0.968,0.271,1.223,0.678l4.675,6.313l4.675-6.313c0.255-0.407,0.707-0.678,1.223-0.678c0.796,0,1.442,0.646,1.442,1.442   v11.471c0,0.796-0.646,1.442-1.442,1.442c-0.796,0-1.442-0.646-1.442-1.442V154.26z"/>
	<path fill-rule="evenodd" clip-rule="evenodd" fill="#6F7891" d="M180.505,148.579c-0.793,0-1.442,0.649-1.442,1.442v11.327   c0,0.793,0.649,1.442,1.442,1.442h3.989c3.908,0,7.106-3.198,7.106-7.106c0-3.908-3.199-7.106-7.106-7.106H180.505L180.505,148.579   z M181.947,151.463h2.547c2.322,0,4.221,1.899,4.221,4.221c0,2.322-1.9,4.221-4.221,4.221h-2.547V151.463z"/>
	<path fill-rule="evenodd" clip-rule="evenodd" fill="#5EC1FF" d="M115.799,162.221c0.813-1.685,2.839-2.392,4.524-1.579   c1.685,0.813,2.392,2.838,1.579,4.524c-1.305,2.703-3.352,4.98-5.878,6.567c-2.462,1.546-5.36,2.439-8.451,2.439   c-3.092,0-5.99-0.894-8.451-2.439c-2.526-1.587-4.573-3.864-5.877-6.567c-0.813-1.686-0.106-3.711,1.579-4.524   c1.685-0.813,3.71-0.106,4.524,1.579c0.751,1.557,1.929,2.868,3.383,3.781c1.391,0.874,3.05,1.379,4.843,1.379   c1.793,0,3.452-0.505,4.843-1.379C113.869,165.09,115.048,163.779,115.799,162.221z"/>
	<circle fill-rule="evenodd" clip-rule="evenodd" fill="#FFC79C" cx="120.489" cy="147.459" r="4.22"/>
	<circle fill-rule="evenodd" clip-rule="evenodd" fill="#77DFAD" cx="94.657" cy="147.459" r="4.22"/>
	<path fill-rule="evenodd" clip-rule="evenodd" fill="#FC8D80" d="M120.489,138.533h0.867c2.204,0,3.991-1.787,3.991-3.991   c0-2.204-1.787-3.991-3.991-3.991h-0.867c-9.333,0-16.908,7.574-16.908,16.907v11.07c0,2.204,1.787,3.992,3.992,3.992   c2.204,0,3.991-1.787,3.991-3.992v-11.07C111.564,142.531,115.562,138.533,120.489,138.533z"/>
	<path fill-rule="evenodd" clip-rule="evenodd" fill="#6F7891" d="M240.157,158.966c-0.399,0.357-0.863,0.635-1.363,0.826   c-0.501,0.191-1.032,0.286-1.568,0.286c-1.169,0-2.28-0.46-3.107-1.287c-0.827-0.826-1.286-1.938-1.286-3.106   c0-1.169,0.46-2.28,1.286-3.107c0.826-0.827,1.938-1.286,3.107-1.286c0.536,0,1.067,0.095,1.568,0.286   c0.5,0.191,0.964,0.469,1.363,0.826c0.611,0.547,1.553,0.494,2.099-0.117c0.546-0.611,0.494-1.552-0.117-2.099   c-0.67-0.6-1.444-1.077-2.284-1.398c-0.84-0.321-1.73-0.484-2.629-0.484c-1.964,0-3.83,0.773-5.218,2.161   c-1.388,1.389-2.161,3.255-2.161,5.218c0,1.964,0.773,3.83,2.161,5.218c1.389,1.388,3.254,2.161,5.218,2.161   c0.899,0,1.789-0.164,2.629-0.484c0.84-0.321,1.614-0.798,2.284-1.399c0.611-0.546,0.663-1.488,0.116-2.099   C241.71,158.472,240.768,158.419,240.157,158.966z"/>
	<path fill-rule="evenodd" clip-rule="evenodd" fill="#6F7891" d="M136.39,155.817v5.531c0,0.793,0.649,1.442,1.443,1.442   c0.792,0,1.442-0.65,1.442-1.442v-4.089h5.534c0.793,0,1.442-0.65,1.442-1.443c0-0.792-0.649-1.442-1.442-1.442h-5.534v-2.911   h6.458c0.793,0,1.442-0.649,1.442-1.442c0-0.793-0.649-1.442-1.442-1.442h-7.9c-0.013,0-0.025,0-0.037,0   c-0.012,0.001-0.025,0.001-0.038,0.002c-0.012,0.001-0.024,0.001-0.036,0.002c-0.012,0.001-0.024,0.002-0.036,0.003   c-0.012,0.001-0.024,0.003-0.036,0.004c-0.012,0.002-0.024,0.003-0.036,0.005c-0.012,0.002-0.024,0.004-0.036,0.006   c-0.011,0.002-0.023,0.004-0.034,0.007c-0.012,0.002-0.024,0.005-0.035,0.007c-0.011,0.003-0.023,0.006-0.035,0.008   c-0.012,0.003-0.023,0.007-0.035,0.01c-0.011,0.003-0.023,0.007-0.034,0.01c-0.011,0.004-0.022,0.007-0.034,0.011   c-0.01,0.004-0.022,0.008-0.033,0.012c-0.011,0.004-0.022,0.008-0.033,0.012c-0.011,0.004-0.021,0.009-0.032,0.013   c-0.531,0.226-0.883,0.749-0.883,1.329V155.817z"/>
	<path fill-rule="evenodd" clip-rule="evenodd" fill="#6F7891" d="M193.745,155.685v5.663c0,0.579,0.351,1.103,0.883,1.329   c0.011,0.005,0.022,0.009,0.032,0.013c0.011,0.005,0.022,0.009,0.033,0.012c0.011,0.004,0.022,0.008,0.033,0.012   c0.011,0.004,0.022,0.008,0.034,0.011c0.011,0.003,0.023,0.007,0.034,0.01c0.011,0.003,0.022,0.007,0.034,0.009   c0.012,0.003,0.023,0.006,0.035,0.008c0.012,0.003,0.023,0.006,0.036,0.008c0.011,0.003,0.023,0.005,0.035,0.007   c0.011,0.002,0.023,0.005,0.035,0.006c0.012,0.002,0.024,0.004,0.036,0.005c0.012,0.002,0.024,0.003,0.036,0.004   c0.012,0.001,0.025,0.002,0.037,0.003c0.012,0.001,0.024,0.001,0.037,0.003c0.012,0.001,0.024,0.001,0.037,0.001   c0.013,0.001,0.025,0.001,0.037,0.001h8.385c0.793,0,1.442-0.65,1.442-1.442c0-0.793-0.649-1.442-1.442-1.442h-6.942v-2.779h6.097   c0.793,0,1.442-0.649,1.442-1.442c0-0.793-0.649-1.442-1.442-1.442h-6.097v-2.779h6.942c0.793,0,1.442-0.649,1.442-1.442   c0-0.793-0.649-1.442-1.442-1.442h-8.385c-0.012,0-0.025,0-0.037,0c-0.012,0.001-0.025,0.001-0.037,0.002   c-0.012,0.001-0.025,0.001-0.037,0.002c-0.012,0.001-0.024,0.002-0.036,0.003c-0.012,0.001-0.024,0.003-0.036,0.004   c-0.012,0.002-0.024,0.003-0.036,0.005c-0.012,0.002-0.023,0.004-0.035,0.006c-0.012,0.002-0.024,0.005-0.036,0.007   c-0.011,0.002-0.023,0.005-0.035,0.007c-0.011,0.003-0.023,0.006-0.035,0.008c-0.011,0.003-0.023,0.007-0.034,0.009   c-0.012,0.003-0.023,0.007-0.034,0.01c-0.011,0.004-0.022,0.007-0.033,0.011c-0.011,0.004-0.022,0.008-0.033,0.012   c-0.011,0.004-0.022,0.009-0.033,0.013c-0.011,0.004-0.022,0.009-0.032,0.013c-0.532,0.226-0.883,0.749-0.883,1.326V155.685z"/>
	<path fill-rule="evenodd" clip-rule="evenodd" fill="#6F7891" d="M150.651,148.579c-0.793,0-1.442,0.65-1.442,1.442v6.913   c0,3.366,2.755,6.121,6.121,6.121c3.366,0,6.121-2.755,6.121-6.121v-6.913c0-0.793-0.649-1.442-1.442-1.442   c-0.793,0-1.442,0.65-1.442,1.442v6.913c0,1.78-1.456,3.236-3.236,3.236c-1.78,0-3.236-1.456-3.236-3.236v-6.913   C152.093,149.228,151.445,148.579,150.651,148.579z"/>
	<path fill-rule="evenodd" clip-rule="evenodd" fill="#6F7891" d="M173.791,162.203l0.001-0.001l0.079,0.091   c0.274,0.315,0.669,0.498,1.088,0.498c0.793,0,1.442-0.65,1.442-1.442v-11.327c0-0.793-0.649-1.442-1.442-1.442   c-0.793,0-1.442,0.65-1.442,1.442v7.397l-7.061-8.33c-0.024-0.028-0.049-0.055-0.076-0.08l-0.003-0.003   c-0.271-0.272-0.636-0.426-1.02-0.426c-0.794,0-1.443,0.65-1.443,1.442v11.327c0,0.793,0.649,1.442,1.443,1.442   c0.792,0,1.442-0.65,1.442-1.442v-7.395L173.791,162.203z"/>
	<path fill-rule="evenodd" clip-rule="evenodd" fill="#6F7891" d="M224.728,149.898c0-0.796,0.646-1.442,1.442-1.442   c0.796,0,1.442,0.646,1.442,1.442v11.471c0,0.796-0.646,1.442-1.442,1.442c-0.796,0-1.442-0.646-1.442-1.442V149.898z"/>
</g>
</svg>