<svg xmlns:xlink="http://www.w3.org/1999/xlink" xmlns="http://www.w3.org/2000/svg" viewBox="84 126 50 54.724" width="30" height="30">
<g>
	<path fill-rule="evenodd" clip-rule="evenodd" fill="#fff" d="M115.799,162.221c0.813-1.685,2.839-2.392,4.524-1.579   c1.685,0.813,2.392,2.838,1.579,4.524c-1.305,2.703-3.352,4.98-5.878,6.567c-2.462,1.546-5.36,2.439-8.451,2.439   c-3.092,0-5.99-0.894-8.451-2.439c-2.526-1.587-4.573-3.864-5.877-6.567c-0.813-1.686-0.106-3.711,1.579-4.524   c1.685-0.813,3.71-0.106,4.524,1.579c0.751,1.557,1.929,2.868,3.383,3.781c1.391,0.874,3.05,1.379,4.843,1.379   c1.793,0,3.452-0.505,4.843-1.379C113.869,165.09,115.048,163.779,115.799,162.221z"></path>
	<circle fill-rule="evenodd" clip-rule="evenodd" fill="#fff" cx="120.489" cy="147.459" r="4.22"></circle>
	<circle fill-rule="evenodd" clip-rule="evenodd" fill="#fff" cx="94.657" cy="147.459" r="4.22"></circle>
	<path fill-rule="evenodd" clip-rule="evenodd" fill="#fff" d="M120.489,138.533h0.867c2.204,0,3.991-1.787,3.991-3.991   c0-2.204-1.787-3.991-3.991-3.991h-0.867c-9.333,0-16.908,7.574-16.908,16.907v11.07c0,2.204,1.787,3.992,3.992,3.992   c2.204,0,3.991-1.787,3.991-3.992v-11.07C111.564,142.531,115.562,138.533,120.489,138.533z"></path>

</g>
</svg>