<svg xmlns="http://www.w3.org/2000/svg" x="0px" y="0px"
     width="312.001px" height="186.001px" viewBox="0 0 312.001 186.001">
    <path fill-rule="evenodd" clip-rule="evenodd" fill="#D81F26" d="M95.464,112.658c-2.512,0.441-5.068,0.574-7.713,0.926
	L79.685,89.96v24.638c-2.512,0.264-4.804,0.617-7.184,0.969V70.434h6.7l9.167,25.608V70.434h7.096V112.658L95.464,112.658z
	 M109.347,86.962c2.733,0,6.92-0.132,9.432-0.132v7.052c-3.129,0-6.788,0-9.432,0.132v10.49c4.143-0.264,8.286-0.617,12.473-0.749
	v6.787l-19.525,1.543V70.434h19.525v7.052h-12.473V86.962L109.347,86.962z M148.045,77.486h-7.316v32.439
	c-2.38,0-4.76,0-7.051,0.088V77.486h-7.316v-7.052h21.685L148.045,77.486L148.045,77.486L148.045,77.486z M159.504,86.478h9.652
	v7.052h-9.652v15.999h-6.92V70.434h19.702v7.052h-12.782V86.478L159.504,86.478z M183.746,103.358
	c4.011,0.088,8.065,0.397,11.988,0.617v6.964c-6.303-0.397-12.605-0.793-19.04-0.926V70.434h7.052V103.358L183.746,103.358
	L183.746,103.358z M201.684,111.424c2.248,0.133,4.628,0.265,6.92,0.529V70.434h-6.92V111.424L201.684,111.424L201.684,111.424z
	 M239.501,70.434l-8.947,21.465l8.947,23.668c-2.645-0.353-5.289-0.837-7.934-1.278l-5.068-13.046l-5.156,11.989
	c-2.557-0.441-5.025-0.574-7.581-0.926l9.079-20.671l-8.198-21.2h7.58l4.628,11.856l4.937-11.856H239.501z"/>
</svg>
