<svg xmlns="http://www.w3.org/2000/svg" x="0px" y="0px"
	 width="312.001px" height="186.001px" viewBox="0 0 312.001 186.001">
	<path fill-rule="evenodd" clip-rule="evenodd" fill="#400095" d="M58.101,115.422l2.684-2.684c0.654-0.655,0.982-1.396,0.982-2.226
		l0-42.356h0.654L94.5,97.092V75.816c0-0.829-0.327-1.571-0.982-2.226l-2.684-2.684v-0.654l16.956,0v0.655l-2.684,2.684
		c-0.655,0.655-0.982,1.397-0.982,2.226v42.029l-0.655,0L71.391,88.843v21.669c0,0.829,0.327,1.571,0.982,2.225l2.684,2.684v0.655
		l-16.955,0V115.422z"/>
	<path fill-rule="evenodd" clip-rule="evenodd" fill="#400095" d="M112.5,115.422l2.684-2.684c0.655-0.655,0.982-1.396,0.982-2.226
		l0-34.697c0-0.829-0.327-1.571-0.982-2.226l-2.684-2.684v-0.654l27.037,0c4.714,0,8.325,1.069,10.834,3.208
		c2.51,2.138,3.765,4.975,3.765,8.51c0,5.325-2.75,8.663-8.249,10.016v0.131c6.765,1.179,10.147,4.91,10.147,11.195
		c0,4.19-1.473,7.365-4.419,9.525c-2.946,2.16-7.059,3.241-12.34,3.241H112.5V115.422L112.5,115.422z M138.228,88.385
		c3.71,0,5.564-1.615,5.564-4.845c0-1.528-0.469-2.749-1.407-3.666c-0.939-0.916-2.324-1.375-4.157-1.375H126.64v9.885H138.228
		L138.228,88.385z M138.032,107.697c4.932,0,7.398-1.943,7.398-5.827c0-3.665-2.466-5.499-7.398-5.499h-11.391v11.326H138.032z"/>
	<path fill-rule="evenodd" clip-rule="evenodd" fill="#400095" d="M168.601,110.545c-4.539-4.299-6.808-10.049-6.808-17.25
		c0-7.245,2.291-13.028,6.874-17.348c4.583-4.321,10.387-6.481,17.414-6.481c1.571,0,3.492,0.142,5.761,0.425
		c2.27,0.284,3.688,0.425,4.255,0.425c1.659,0,3.186-0.546,4.583-1.636l0.654,0.262l-3.928,15.515l-0.72-0.196
		c-0.48-1.658-1.56-3.099-3.24-4.321c-1.68-1.222-3.917-1.833-6.71-1.833c-3.972,0-7.256,1.386-9.852,4.157
		c-2.597,2.771-3.895,6.47-3.895,11.097c0,4.495,1.222,8.129,3.666,10.9c2.444,2.771,5.652,4.157,9.623,4.157
		c4.626,0,8.27-1.811,10.933-5.434l6.154,7.136c-4.277,4.582-10.103,6.874-17.479,6.874
		C178.901,116.993,173.14,114.844,168.601,110.545z"/>
	<path fill-rule="evenodd" clip-rule="evenodd" fill="#400095" d="M216.192,112.149c-3.579-3.23-5.368-7.921-5.368-14.075V75.816
		c0-0.829-0.327-1.571-0.982-2.226l-2.684-2.684v-0.654l17.675,0v0.655l-2.684,2.684c-0.655,0.655-0.982,1.397-0.982,2.226v22.52
		c0,3.316,0.807,5.804,2.422,7.463c1.615,1.659,3.928,2.488,6.939,2.488c2.968,0,5.248-0.84,6.841-2.52
		c1.593-1.68,2.389-4.157,2.389-7.43v-22.52c0-0.829-0.327-1.571-0.982-2.226l-2.684-2.684v-0.655H253.9v0.655l-2.684,2.684
		c-0.655,0.655-0.982,1.397-0.982,2.226v22.258c0,6.154-1.8,10.845-5.401,14.075c-3.601,3.229-8.369,4.845-14.304,4.845
		C224.55,116.993,219.771,115.378,216.192,112.149z"/>
</svg>
