<svg id="#tpm-svg-1" xmlns="http://www.w3.org/2000/svg" x="0px" y="0px"
	 width="450" height="490" viewBox="50 190 512 476" >
<path  fill="#fff" d="M129.964,171.789h335.348c11.183,0,20.333,9.15,20.333,20.333
	v204.154c0,11.183-9.15,20.333-20.333,20.333H129.964c-11.183,0-20.334-9.15-20.334-20.333V192.122
	C109.63,180.939,118.78,171.789,129.964,171.789L129.964,171.789z M213.085,465.912h14.017c24.587,0,45.37-16.286,52.15-38.659
	h30.44c6.781,22.373,27.563,38.659,52.15,38.659h20.347v8.81H213.085V465.912L213.085,465.912z M126.185,189.631v195.365h342.904
	V189.631H126.185L126.185,189.631z M297.638,393.828c-3.544,0-6.417,2.873-6.417,6.417c0,3.544,2.873,6.418,6.417,6.418
	c3.544,0,6.417-2.873,6.417-6.418C304.055,396.701,301.182,393.828,297.638,393.828z"/>
</svg>
