<svg xmlns="http://www.w3.org/2000/svg" x="0px" y="0px" width="640" height="440" viewBox="25 200 658.583 441.89">
    <path fill-rule="evenodd" clip-rule="evenodd" fill="#fff"
          d="M136.651,285.274h4.205v-17.902h-4.205V285.274L136.651,285.274z   M138.746,265.024c1.317,0,2.348-1.013,2.348-2.28c0-1.284-1.03-2.297-2.348-2.297c-1.301,0-2.331,1.013-2.331,2.297  C136.415,264.011,137.445,265.024,138.746,265.024L138.746,265.024z M154.858,260.498c-7.11,0-11.569,4.847-11.569,12.599  s4.459,12.582,11.569,12.582c7.093,0,11.552-4.83,11.552-12.582S161.952,260.498,154.858,260.498L154.858,260.498z M154.858,264.213  c4.34,0,7.11,3.445,7.11,8.884c0,5.421-2.77,8.867-7.11,8.867c-4.357,0-7.11-3.445-7.11-8.867  C147.748,267.659,150.501,264.213,154.858,264.213L154.858,264.213z M168.185,278.417c0.186,4.493,3.868,7.262,9.474,7.262  c5.894,0,9.61-2.905,9.61-7.533c0-3.631-2.094-5.675-7.043-6.806l-2.804-0.642c-2.989-0.709-4.222-1.655-4.222-3.276  c0-2.027,1.858-3.378,4.611-3.378c2.787,0,4.695,1.368,4.898,3.648h4.155c-0.101-4.29-3.648-7.195-9.018-7.195  c-5.303,0-9.07,2.922-9.07,7.245c0,3.479,2.128,5.641,6.62,6.671l3.158,0.743c3.074,0.726,4.324,1.739,4.324,3.496  c0,2.026-2.044,3.479-4.982,3.479c-2.972,0-5.219-1.469-5.489-3.715L168.185,278.417L168.185,278.417z"/>

</svg>