<svg xmlns="http://www.w3.org/2000/svg" x="0px" y="0px" width="640" height="440" viewBox="25 200 658.583 441.89">
    <path fill-rule="evenodd" clip-rule="evenodd" fill="#fff"
          d="M89.903,208.691h281.228h248.471h17.514  c4.69,0,8.953,1.919,12.042,5.008c3.09,3.09,5.009,7.354,5.009,12.042v17.514V561.4v17.514c0,4.688-1.92,8.95-5.01,12.04  c-3.091,3.091-7.355,5.01-12.041,5.01h-17.514H425.559h-54.428h-54.428H89.903H72.389c-4.687,0-8.951-1.919-12.042-5.01  c-3.09-3.089-5.009-7.352-5.009-12.041v-14.953V243.255v-17.514c0-4.69,1.918-8.954,5.007-12.043  c3.09-3.09,7.352-5.007,12.043-5.007H89.903L89.903,208.691z M371.131,211.525H89.903H72.389c-3.908,0-7.462,1.6-10.039,4.177  c-2.577,2.577-4.177,6.131-4.177,10.039v17.514v320.706v14.953c0,3.906,1.601,7.46,4.178,10.037  c2.578,2.578,6.133,4.179,10.038,4.179h17.514h226.799h54.428h54.428h194.043h17.514c3.904,0,7.458-1.601,10.037-4.18  c2.578-2.578,4.179-6.131,4.179-10.036V561.4V243.255v-17.514c0-3.906-1.6-7.46-4.178-10.038c-2.577-2.577-6.131-4.177-10.038-4.177  h-17.514H371.131L371.131,211.525z M50.471,637.001c-5.024,0-9.59-2.055-12.899-5.364c-3.31-3.31-5.365-7.877-5.365-12.899v-11.684  c0-0.783,0.635-1.417,1.417-1.417h642.258c0.783,0,1.417,0.635,1.417,1.417v11.684c0,5.024-2.054,9.591-5.364,12.9  c-3.309,3.309-7.876,5.363-12.9,5.363H50.471L50.471,637.001z M39.576,629.632c2.797,2.797,6.654,4.534,10.895,4.534h608.564  c4.242,0,8.099-1.736,10.896-4.533c2.797-2.797,4.533-6.654,4.533-10.896v-10.267H35.041v10.267  C35.041,622.977,36.778,626.835,39.576,629.632L39.576,629.632z M371.131,223.909H70.443v343.469h300.688h267.93V223.909H371.131  L371.131,223.909z M69.026,221.074c-0.783,0-1.417,0.635-1.417,1.417v346.304c0,0.783,0.635,1.417,1.417,1.417h302.105h269.347  c0.783,0,1.417-0.635,1.417-1.417V222.492c0-0.783-0.635-1.417-1.417-1.417H371.131H69.026z"/>

</svg>