<svg xmlns="http://www.w3.org/2000/svg" x="0px" y="0px" width="640" height="440" viewBox="25 200 658.583 441.89">
    <path fill-rule="evenodd" clip-rule="evenodd" fill="#fff"
          d="M297.169,325.092h260.498c4.164,0,7.95,1.705,10.696,4.449  l0.003,0.003l0.003-0.003c2.746,2.746,4.45,6.535,4.45,10.701v168.975c0,4.167-1.705,7.955-4.45,10.701  c-2.746,2.746-6.534,4.45-10.701,4.45H297.169c-4.167,0-7.956-1.704-10.701-4.45c-2.745-2.745-4.45-6.533-4.45-10.701V340.242  c0-4.168,1.704-7.956,4.45-10.701C289.213,326.796,293.001,325.092,297.169,325.092L297.169,325.092z M557.667,327.927H297.169  c-3.386,0-6.465,1.386-8.698,3.619c-2.233,2.233-3.619,5.312-3.619,8.697v168.975c0,3.385,1.386,6.464,3.619,8.697  c2.233,2.233,5.313,3.62,8.697,3.62h260.498c3.385,0,6.464-1.387,8.697-3.62c2.233-2.233,3.62-5.312,3.62-8.696V340.242  c0-3.384-1.386-6.464-3.62-8.697l0.003-0.003C564.134,329.313,561.055,327.927,557.667,327.927L557.667,327.927z M555.036,418.128  c-1.823,0-3.474,0.739-4.668,1.934c-1.194,1.194-1.933,2.845-1.933,4.668c0,1.823,0.739,3.474,1.933,4.668  c1.195,1.194,2.845,1.933,4.668,1.933c1.823,0,3.474-0.739,4.669-1.933c1.195-1.194,1.934-2.845,1.934-4.668  c0-1.823-0.739-3.474-1.934-4.668C558.51,418.867,556.86,418.128,555.036,418.128L555.036,418.128z M548.364,418.057  c-1.707,1.707-2.764,4.067-2.764,6.673c0,2.605,1.056,4.964,2.764,6.672c1.708,1.707,4.067,2.764,6.672,2.764  c2.606,0,4.965-1.056,6.673-2.764c1.708-1.707,2.764-4.067,2.764-6.672c0-2.605-1.056-4.965-2.764-6.673  c-1.708-1.708-4.067-2.764-6.673-2.764C552.431,415.293,550.072,416.35,548.364,418.057L548.364,418.057z M296.374,338.244  c-0.783,0-1.417,0.635-1.417,1.417v170.137c0,0.783,0.635,1.417,1.417,1.417h242.617c0.783,0,1.417-0.635,1.417-1.417V339.661  c0-0.783-0.635-1.417-1.417-1.417H296.374L296.374,338.244z M537.574,341.079H297.791v167.302h239.783V341.079z"/>
</svg>