<svg xmlns="http://www.w3.org/2000/svg" x="0px" y="0px" width="640" height="440" viewBox="25 200 658.583 441.89">
    <path fill-rule="evenodd" clip-rule="evenodd" fill="#fff"
          d="M408.11,266.326h-3.274v7.573c0,1.95-0.8,3.499-3.149,3.499     c-2.324,0.025-2.999-1.574-2.999-3.599v-7.474l-3.274,0v8.298c0,2.399,0.85,5.823,5.349,5.849     c2.474,0.025,3.698-1.175,4.274-2.249v1.824l3.074,0V266.326z"/>
    <path fill-rule="evenodd" clip-rule="evenodd" fill="#fff"
          d="M409.411,280.048h3.274v-7.573      c0-1.924,0.799-3.474,3.124-3.499c2.299,0,2.974,1.575,2.974,3.624v7.449h3.274v-8.273c0-2.424-0.849-5.848-5.323-5.873      c-2.449-0.025-3.675,1.174-4.274,2.249c0.025-0.65,0.025-1.224,0.025-1.824h-3.074V280.048L409.411,280.048z M409.411,280.048      L409.411,280.048L409.411,280.048z"/>
    <path fill-rule="evenodd" clip-rule="evenodd" fill="#fff"
          d="M423.311,280.048h3.274v-13.722l-3.274,0V280.048     L423.311,280.048L423.311,280.048z M423.311,264.477h3.274v-2.925h-3.274V264.477z"/>
    <polygon fill-rule="evenodd" clip-rule="evenodd" fill="#fff"
             points="430.01,280.048 433.285,280.048 433.285,268.851      435.634,268.851 434.662,266.327 433.285,266.327 433.285,261.553 430.01,261.552 430.01,266.327 427.736,266.327      427.736,268.851 430.01,268.851    "/>
    <polygon fill-rule="evenodd" clip-rule="evenodd" fill="#fff"
             points="438.797,284.846 442.296,284.846 449.52,266.325      446.021,266.325 442.721,275.448 439.372,266.325 435.873,266.325 441.046,279.522    "/>
    <path xmlns="http://www.w3.org/2000/svg" fill-rule="evenodd" clip-rule="evenodd" fill="#FEFEFE" d="M377.462,273.064l5.976-10.32l2.888,10.32l-2.888,10.318      L377.462,273.064L377.462,273.064z M374.548,274.74L374.548,274.74h-11.953l7.521,7.652l10.41,2.667L374.548,274.74      L374.548,274.74z M380.525,261.067L380.525,261.067l-10.409,2.668l-7.521,7.652h11.953L380.525,261.067L380.525,261.067z       M389.057,269.552l-3.647-13.564l-13.609,3.635l-2.015,3.542l-4.088-0.029l-9.961,9.93l9.961,9.928h0l4.086-0.03l2.018,3.542      l13.607,3.635l3.647-13.563l-2.071-3.512L389.057,269.552L389.057,269.552z M389.057,269.552L389.057,269.552L389.057,269.552z"/>

</svg>