<svg xmlns="http://www.w3.org/2000/svg" x="0px" y="0px"
     width="2480px" height="3508px" viewBox="0 0 2480 3508">
    <path fill="#FFC79C" d="M643.053,679.845c-60.936,60.936-60.924,159.718,0.015,220.657c60.931,60.931,159.706,60.936,220.641,0
		c60.936-60.935,60.947-159.725,0.015-220.657C802.785,618.906,703.988,618.91,643.053,679.845L643.053,679.845z"/>
    <path fill="#FFC79C" d="M1453.358,2271.102c-49.547,49.546-49.537,129.865,0.012,179.414c49.542,49.543,129.855,49.547,179.402,0
		c49.546-49.546,49.554-129.871,0.012-179.414C1583.234,2221.553,1502.904,2221.557,1453.358,2271.102L1453.358,2271.102z"/>
    <path fill="#5EC1FF" d="M767.561,1949.807c-60.935,60.935-60.924,159.718,0.015,220.657c60.93,60.931,159.707,60.935,220.642,0
		c60.935-60.935,60.945-159.726,0.015-220.657C927.294,1888.867,828.496,1888.872,767.561,1949.807L767.561,1949.807z"/>
    <path fill="#5EC1FF" d="M1428.436,2945.797c-30.467,30.468-30.463,79.859,0.008,110.329c30.465,30.466,79.854,30.468,110.322,0
		c30.467-30.468,30.473-79.864,0.007-110.329C1508.304,2915.327,1458.904,2915.329,1428.436,2945.797z"/>
    <path fill="#5EC1FF" d="M1078.346,448.549c-26.032,26.033-26.027,68.235,0.007,94.27c26.031,26.031,68.229,26.032,94.262,0
		c26.032-26.033,26.038-68.238,0.006-94.27C1146.588,422.515,1104.379,422.518,1078.346,448.549z"/>
    <path fill="#77DFAD" d="M1839.44,1786.684c-26.032,26.033-26.027,68.235,0.007,94.27c26.031,26.031,68.23,26.032,94.262,0
		c26.032-26.033,26.038-68.238,0.006-94.27C1907.681,1760.65,1865.472,1760.652,1839.44,1786.684z"/>
    <path fill="#77DFAD" d="M681.255,2386.609c-26.032,26.033-26.027,68.235,0.007,94.27c26.031,26.031,68.229,26.032,94.262,0
		c26.032-26.033,26.038-68.238,0.006-94.27C749.496,2360.575,707.288,2360.577,681.255,2386.609z"/>
    <path fill="#77DFAD" d="M1856.105,2536.59c-26.032,26.033-26.027,68.235,0.007,94.269c26.031,26.031,68.23,26.032,94.262,0
		c26.032-26.033,26.038-68.238,0.006-94.269C1924.347,2510.556,1882.138,2510.558,1856.105,2536.59z"/>
    <path fill="#FFC79C" d="M1897.767,2019.988c-26.032,26.033-26.027,68.235,0.007,94.27c26.031,26.031,68.23,26.032,94.262,0
		c26.032-26.033,26.038-68.238,0.006-94.27C1966.008,1993.954,1923.8,1993.957,1897.767,2019.988z"/>
    <path fill="#FFC79C" d="M922.89,2607.305c-26.032,26.033-26.027,68.235,0.007,94.27c26.031,26.031,68.229,26.032,94.262,0
		c26.032-26.033,26.038-68.238,0.006-94.27C991.131,2581.271,948.922,2581.274,922.89,2607.305L922.89,2607.305z"/>
    <path fill="#FFC79C" d="M1664.461,880.523c-26.032,26.033-26.027,68.235,0.007,94.27c26.031,26.031,68.23,26.032,94.262,0
		c26.032-26.033,26.038-68.238,0.006-94.27C1732.703,854.489,1690.494,854.491,1664.461,880.523z"/>
    <path fill="#5EC1FF" d="M617.456,2739.423c-26.032,26.033-26.027,68.236,0.007,94.269c26.031,26.031,68.23,26.032,94.262,0
		c26.032-26.033,26.038-68.238,0.006-94.269C685.698,2713.389,643.489,2713.392,617.456,2739.423z"/>
    <path fill="#60B4E8" d="M703.387,1189.619c-26.032,26.033-26.027,68.235,0.007,94.269c26.031,26.031,68.229,26.032,94.262,0
		c26.032-26.033,26.038-68.238,0.006-94.269C771.628,1163.585,729.42,1163.588,703.387,1189.619L703.387,1189.619z"/>
    <path fill="#77DFAD" d="M1344.973,981.312c-26.032,26.033-26.027,68.235,0.007,94.269c26.031,26.031,68.229,26.032,94.262,0
		c26.032-26.033,26.038-68.238,0.006-94.269C1413.214,955.278,1371.005,955.281,1344.973,981.312z"/>
    <path fill="#FFC79C" d="M1196.183,1525.259c-26.032,26.033-26.027,68.235,0.007,94.27c26.031,26.031,68.23,26.032,94.262,0
		c26.032-26.033,26.038-68.238,0.006-94.269C1264.424,1499.225,1222.216,1499.228,1196.183,1525.259L1196.183,1525.259z"/>
    <path fill="#77DFAD" d="M296.058,1556.842c-60.936,60.936-60.924,159.718,0.015,220.657c60.931,60.931,159.706,60.936,220.641,0
		c60.936-60.935,60.947-159.725,0.015-220.657C455.79,1495.904,356.992,1495.908,296.058,1556.842L296.058,1556.842z"/>
    <path fill="#77DFAD" d="M1895.175,1108.957c-60.936,60.936-60.924,159.718,0.015,220.657c60.931,60.931,159.706,60.936,220.641,0
		c60.936-60.935,60.947-159.725,0.015-220.657C2054.907,1048.018,1956.11,1048.022,1895.175,1108.957L1895.175,1108.957z"/>
</svg>
