<svg xmlns="http://www.w3.org/2000/svg" x="0px" y="0px"
     width="595.276px" height="841.89px" viewBox="0 0 595.276 841.89">
    <path fill="#58B5EF" d="M274.799,246.73c-2.014-4.172-7.028-5.921-11.199-3.908
		c-4.173,2.013-5.922,7.026-3.909,11.199c3.229,6.691,8.298,12.33,14.551,16.257c6.094,3.827,13.268,6.039,20.921,6.039
		c7.654,0,14.829-2.212,20.922-6.039c6.252-3.928,11.321-9.566,14.55-16.257c2.013-4.173,0.263-9.186-3.908-11.199
		c-4.172-2.013-9.185-0.263-11.199,3.908c-1.859,3.854-4.777,7.1-8.376,9.36c-3.444,2.163-7.551,3.414-11.989,3.414
		c-4.438,0-8.545-1.251-11.988-3.414C279.575,253.83,276.657,250.584,274.799,246.73z"/>
    <path fill="#FC8D80" d="M379.814,289.877c-2.013-4.172-7.028-5.921-11.199-3.908
		c-4.173,2.013-5.922,7.026-3.909,11.199c3.229,6.691,8.299,12.33,14.551,16.257c6.093,3.827,13.268,6.039,20.921,6.039
		c7.654,0,14.829-2.212,20.922-6.039c6.253-3.928,11.322-9.566,14.55-16.257c2.013-4.173,0.263-9.186-3.908-11.199
		c-4.172-2.013-9.185-0.263-11.199,3.908c-1.859,3.854-4.777,7.1-8.376,9.36c-3.444,2.163-7.551,3.414-11.989,3.414
		c-4.438,0-8.545-1.251-11.988-3.414C384.591,296.978,381.672,293.731,379.814,289.877z"/>
    <circle fill="#58B5EF" cx="273.948" cy="328.341" r="10.448"/>
    <circle fill="#FC8D80" cx="295.163" cy="237.627" r="10.448"/>
    <circle fill="#FC8D80" cx="141.354" cy="465.069" r="10.448"/>
    <circle fill="#FFC79C" cx="412.742" cy="552.457" r="10.448"/>
    <circle fill="#58B5EF" cx="400.178" cy="280.774" r="10.448"/>
    <circle fill="#77DFAD" cx="215.751" cy="317.489" r="10.448"/>
    <circle fill="#77DFAD" cx="352.983" cy="217.905" r="10.448"/>
    <circle fill="#77DFAD" cx="377.13" cy="338.056" r="10.448"/>
    <circle fill="#77DFAD" cx="243.162" cy="271.538" r="10.448"/>
    <circle fill="#FFC79C" cx="174.741" cy="267.716" r="10.448"/>
    <path fill="#FFC79C" d="M344.309,262.519c-3.859,3.858-3.859,10.115,0.001,13.974
		c3.857,3.857,10.114,3.857,13.972-0.001l10.286-10.286c3.859-3.859,3.859-10.115,0.001-13.972
		c-3.859-3.859-10.115-3.859-13.974-0.001L344.309,262.519z"/>
    <path fill="#FFC79C" d="M228.051,205.258c-3.859,3.858-3.859,10.115,0.001,13.974
		c3.857,3.857,10.114,3.857,13.972-0.001l10.286-10.286c3.858-3.859,3.859-10.115,0.001-13.972
		c-3.859-3.859-10.115-3.859-13.974-0.001L228.051,205.258z"/>
    <path fill="#77DFAD" d="M146.641,586.443c-3.859,3.859-3.859,10.115,0.001,13.974
		c3.857,3.857,10.114,3.857,13.972-0.001l16.228-16.228c3.859-3.859,3.859-10.115,0.001-13.972c-3.859-3.859-10.115-3.859-13.974,0
		L146.641,586.443z"/>
    <path fill="#FC8D80" d="M185.996,320.013c3.859-3.858,3.859-10.115-0.001-13.974
		c-3.857-3.857-10.114-3.857-13.972,0.001l-9.533,9.533c-3.859,3.858-3.859,10.115-0.001,13.972
		c3.859,3.859,10.115,3.859,13.974,0.001L185.996,320.013z"/>
    <path fill="#FC8D80" d="M401.946,620.135c3.859-3.858,3.859-10.114-0.001-13.974
		c-3.857-3.857-10.114-3.857-13.972,0.001l-26.783,26.783c-3.859,3.859-3.859,10.115-0.001,13.972
		c3.859,3.859,10.116,3.859,13.974,0.001L401.946,620.135z"/>
    <path fill="#58B5EF" d="M452.419,599.862c3.858-3.858,3.859-10.115-0.001-13.974
		c-3.857-3.857-10.114-3.857-13.972,0.001l-9.533,9.533c-3.858,3.859-3.858,10.115-0.001,13.972
		c3.859,3.859,10.115,3.859,13.974,0.001L452.419,599.862z"/>
    <path fill="#FFC79C" d="M258.324,312.717l-1.517,1.517
		c-3.859,3.858-10.115,3.858-13.973,0c-3.858-3.858-3.858-10.114,0.001-13.973l1.517-1.517
		c16.337-16.337,42.856-16.339,59.193-0.001l1.699,1.698l5.86,5.86l1.699,1.698c8.624,8.625,22.622,8.625,31.247-0.001l1.517-1.518
		c3.859-3.858,10.115-3.858,13.973,0c3.858,3.858,3.858,10.115-0.001,13.973l-1.517,1.518
		c-16.337,16.337-42.856,16.338-59.193,0.001l-1.698-1.699l-5.86-5.86l-1.698-1.699C280.947,304.091,266.95,304.091,258.324,312.717
		z"/>
    <circle fill="#77DFAD" cx="328.425" cy="292.375" r="10.448"/>
    <circle fill="#77DFAD" cx="202.13" cy="629.377" r="10.448"/>
    <circle fill="#58B5EF" cx="142.054" cy="368.554" r="10.448"/>
    <circle fill="#FFC79C" cx="453.92" cy="340.086" r="10.448"/>
    <circle fill="#77DFAD" cx="445.742" cy="461.457" r="10.448"/>
</svg>
