<?xml version="1.0" encoding="utf-8"?>
<!-- Generator: Adobe Illustrator 17.0.1, SVG Export Plug-In . SVG Version: 6.00 Build 0)  -->
<!DOCTYPE svg PUBLIC "-//W3C//DTD SVG 1.1//EN" "http://www.w3.org/Graphics/SVG/1.1/DTD/svg11.dtd">
<svg version="1.1" id="Layer_1" xmlns="http://www.w3.org/2000/svg" xmlns:xlink="http://www.w3.org/1999/xlink" x="0px" y="0px"
	 width="1920.216px" height="1048.705px" viewBox="0 0 1920.216 1048.705" enable-background="new 0 0 1920.216 1048.705"
	 xml:space="preserve">
<path fill-rule="evenodd" clip-rule="evenodd" fill="#58B5EF" d="M1268.12,269.144c-7.217-14.953-25.192-21.224-40.143-14.009
	c-14.957,7.215-21.23,25.187-14.013,40.144c11.575,23.985,29.747,44.196,52.158,58.276c21.844,13.718,47.56,21.648,74.994,21.648
	c27.438,0,53.155-7.93,74.998-21.648c22.412-14.079,40.583-34.291,52.156-58.276c7.215-14.958,0.942-32.929-14.008-40.144
	c-14.955-7.215-32.925-0.944-40.146,14.009c-6.664,13.815-17.122,25.452-30.024,33.551c-12.343,7.755-27.066,12.238-42.976,12.238
	c-15.907,0-30.63-4.483-42.973-12.238C1285.242,294.595,1274.782,282.959,1268.12,269.144z"/>
<path fill-rule="evenodd" clip-rule="evenodd" fill="#FC8D80" d="M1644.556,423.81c-7.216-14.953-25.192-21.224-40.143-14.009
	c-14.957,7.216-21.23,25.187-14.013,40.145c11.576,23.985,29.747,44.197,52.159,58.275c21.843,13.719,47.56,21.649,74.993,21.649
	c27.438,0,53.154-7.93,74.998-21.649c22.412-14.079,40.583-34.29,52.155-58.275c7.216-14.958,0.943-32.929-14.007-40.145
	c-14.955-7.215-32.925-0.943-40.146,14.009c-6.664,13.815-17.122,25.451-30.024,33.551c-12.343,7.754-27.066,12.238-42.975,12.238
	c-15.907,0-30.63-4.483-42.973-12.238C1661.678,449.261,1651.218,437.625,1644.556,423.81z"/>
<circle fill-rule="evenodd" clip-rule="evenodd" fill="#58B5EF" cx="1265.069" cy="561.685" r="37.452"/>
<circle fill-rule="evenodd" clip-rule="evenodd" fill="#FC8D80" cx="1341.116" cy="236.513" r="37.451"/>
<circle fill-rule="evenodd" clip-rule="evenodd" fill="#FFC79C" cx="1306.477" cy="730.252" r="37.451"/>
<circle fill-rule="evenodd" clip-rule="evenodd" fill="#58B5EF" cx="867.223" cy="812.848" r="37.451"/>
<circle fill-rule="evenodd" clip-rule="evenodd" fill="#58B5EF" cx="1717.552" cy="391.179" r="37.452"/>
<circle fill-rule="evenodd" clip-rule="evenodd" fill="#58B5EF" cx="1431.399" cy="987.871" r="37.451"/>
<circle fill-rule="evenodd" clip-rule="evenodd" fill="#FC8D80" cx="1411.347" cy="661.281" r="37.451"/>
<path fill-rule="evenodd" clip-rule="evenodd" fill="#77DFAD" d="M1181.196,331.587c-14.626-14.626-38.337-14.623-52.964,0.004
	c-14.626,14.625-14.627,38.334,0,52.961c14.626,14.626,38.339,14.629,52.964,0.003
	C1195.823,369.927,1195.822,346.213,1181.196,331.587z"/>
<circle fill-rule="evenodd" clip-rule="evenodd" fill="#FFC79C" cx="883.233" cy="186.455" r="37.451"/>
<path fill-rule="evenodd" clip-rule="evenodd" fill="#FFC79C" d="M1517.283,325.74c-13.831,13.831-13.832,36.257,0.002,50.091
	c13.827,13.827,36.254,13.827,50.085-0.004l36.871-36.871c13.831-13.831,13.832-36.258,0.004-50.085
	c-13.834-13.834-36.26-13.833-50.091-0.002L1517.283,325.74z"/>
<path fill-rule="evenodd" clip-rule="evenodd" fill="#FFC79C" d="M1730.657,258.766c-13.831,13.831-13.832,36.257,0.002,50.091
	c13.827,13.827,36.254,13.827,50.085-0.004l58.171-58.171c13.831-13.831,13.832-36.258,0.004-50.085
	c-13.834-13.834-36.26-13.833-50.091-0.002L1730.657,258.766z"/>
<path fill-rule="evenodd" clip-rule="evenodd" fill="#FC8D80" d="M1121.161,593.583c13.831-13.831,13.832-36.257-0.002-50.091
	c-13.827-13.827-36.254-13.827-50.085,0.004l-34.171,34.172c-13.831,13.831-13.831,36.258-0.004,50.085
	c13.834,13.834,36.26,13.833,50.091,0.002L1121.161,593.583z"/>
<path fill-rule="evenodd" clip-rule="evenodd" fill="#FFC79C" d="M180.93,299.695c13.831-13.831,13.832-36.257-0.002-50.091
	c-13.827-13.827-36.254-13.827-50.085,0.004l-14.601,14.601c-2.318,1.425-4.508,3.14-6.517,5.148l-58.171,58.171
	c-13.831,13.831-13.832,36.257,0.002,50.091c13.827,13.827,36.254,13.827,50.085-0.004l14.601-14.601
	c2.318-1.425,4.508-3.14,6.517-5.148L180.93,299.695z"/>
<path fill-rule="evenodd" clip-rule="evenodd" fill="#58B5EF" d="M1536.921,648.89c-13.831,13.831-13.832,36.257,0.002,50.091
	c13.827,13.827,36.254,13.827,50.085-0.004l57.025-57.026c13.831-13.831,13.831-36.258,0.004-50.085
	c-13.834-13.834-36.26-13.833-50.091-0.002L1536.921,648.89z"/>
<path fill-rule="evenodd" clip-rule="evenodd" fill="#77DFAD" d="M533.147,658.963c-13.831,13.831-13.832,36.257,0.002,50.091
	c13.827,13.827,36.254,13.827,50.085-0.004l57.025-57.026c13.831-13.831,13.831-36.258,0.004-50.085
	c-13.834-13.834-36.26-13.833-50.091-0.002L533.147,658.963z"/>
<path fill-rule="evenodd" clip-rule="evenodd" fill="#FFC79C" d="M1209.064,505.68l-5.439,5.439
	c-13.831,13.831-36.258,13.831-50.089,0c-13.83-13.83-13.829-36.256,0.002-50.087l5.439-5.439
	c58.563-58.563,153.62-58.567,212.183-0.004l6.089,6.089l21.005,21.005l6.089,6.089c30.915,30.915,81.09,30.915,112.009-0.004
	l5.44-5.439c13.831-13.831,36.258-13.831,50.089,0c13.83,13.83,13.829,36.256-0.002,50.087l-5.44,5.44
	c-58.562,58.562-153.62,58.566-212.183,0.004l-6.089-6.089l-21.005-21.005l-6.089-6.089
	C1290.158,474.761,1239.983,474.761,1209.064,505.68z"/>
<path fill-rule="evenodd" clip-rule="evenodd" fill="#77DFAD" d="M1433.865,406.281c-14.625,14.625-14.626,38.34,0.001,52.967
	c14.625,14.625,38.338,14.622,52.964-0.003c14.627-14.628,14.626-38.336,0.001-52.962
	C1472.203,391.657,1448.492,391.653,1433.865,406.281z"/>
<path fill-rule="evenodd" clip-rule="evenodd" fill="#77DFAD" d="M1497.284,742.766l-5.469-5.469
	c-13.906-13.906-36.454-13.906-50.36,0c-13.905,13.905-13.904,36.452,0.002,50.358l5.469,5.469
	c58.88,58.879,154.452,58.883,213.331,0.004l0,0c13.906-13.906,13.907-36.453-0.002-50.362
	c-13.902-13.902-36.45-13.902-50.356,0.004l0,0C1578.817,773.852,1528.371,773.852,1497.284,742.766z"/>
<path fill-rule="evenodd" clip-rule="evenodd" fill="#77DFAD" d="M1845.956,627.574c-14.626-14.627-38.338-14.623-52.964,0.004
	c-14.626,14.626-14.627,38.334,0,52.961c14.626,14.627,38.339,14.629,52.964,0.004
	C1860.583,665.916,1860.582,642.201,1845.956,627.574z"/>
<path fill-rule="evenodd" clip-rule="evenodd" fill="#58B5EF" d="M1365.663,79.712l-8.084,8.084
	c-13.831,13.831-13.831,36.258-0.004,50.085c13.834,13.834,36.26,13.833,50.091,0.002l58.171-58.171l8.084-8.084
	c13.831-13.831,13.831-36.258,0.004-50.085c-13.834-13.834-36.26-13.833-50.091-0.002L1365.663,79.712z"/>
<rect x="0.108" y="0.108" fill-rule="evenodd" clip-rule="evenodd" fill="none" stroke="#E6E6E6" stroke-width="0.216" stroke-miterlimit="22.9256" width="1920" height="1048.489"/>
</svg>
