<?xml version="1.0" encoding="utf-8"?>
<!-- Generator: Adobe Illustrator 17.0.1, SVG Export Plug-In . SVG Version: 6.00 Build 0)  -->
<!DOCTYPE svg PUBLIC "-//W3C//DTD SVG 1.1//EN" "http://www.w3.org/Graphics/SVG/1.1/DTD/svg11.dtd">
<svg version="1.1" id="Layer_1" xmlns="http://www.w3.org/2000/svg" xmlns:xlink="http://www.w3.org/1999/xlink" x="0px" y="0px"
	 width="37.187px" height="37.188px" viewBox="0 0 37.187 37.188" enable-background="new 0 0 37.187 37.188" xml:space="preserve">
<path fill-rule="evenodd" clip-rule="evenodd" fill="#fff" d="M18.593,3.352c4.964,0,5.553,0.019,7.515,0.108
	c5.039,0.23,7.392,2.62,7.622,7.622c0.09,1.96,0.107,2.549,0.107,7.513c0,4.966-0.019,5.553-0.107,7.514
	c-0.231,4.997-2.578,7.392-7.622,7.622c-1.962,0.09-2.547,0.108-7.515,0.108c-4.964,0-5.553-0.019-7.514-0.108
	c-5.051-0.231-7.392-2.633-7.622-7.624c-0.09-1.96-0.108-2.548-0.108-7.514c0-4.964,0.02-5.552,0.108-7.514
	c0.231-5,2.579-7.392,7.622-7.621C13.042,3.37,13.628,3.351,18.593,3.352L18.593,3.352L18.593,3.352z M18.593,0
	c-5.05,0-5.682,0.022-7.665,0.112C4.175,0.422,0.423,4.169,0.113,10.927C0.022,12.912,0,13.544,0,18.594
	c0,5.05,0.022,5.683,0.112,7.667c0.31,6.753,4.056,10.505,10.815,10.815c1.984,0.089,2.617,0.112,7.667,0.112
	c5.05,0,5.683-0.022,7.667-0.112c6.746-0.31,10.508-4.056,10.813-10.815c0.091-1.983,0.113-2.617,0.113-7.667
	c0-5.05-0.022-5.682-0.112-7.665C36.771,4.182,33.021,0.424,26.262,0.114C24.277,0.022,23.643,0.001,18.593,0L18.593,0L18.593,0z
	 M18.593,9.046c-5.273,0-9.548,4.275-9.548,9.548c0,5.273,4.275,9.549,9.548,9.549c5.273,0,9.548-4.275,9.548-9.549
	C28.141,13.321,23.866,9.046,18.593,9.046L18.593,9.046z M18.593,24.791c3.422,0,6.197-2.774,6.197-6.198
	c0-3.422-2.775-6.197-6.197-6.197s-6.198,2.775-6.198,6.197C12.396,22.017,15.17,24.791,18.593,24.791L18.593,24.791z M28.519,6.438
	c-1.233,0-2.233,1-2.233,2.231c0,1.232,1,2.231,2.233,2.231c1.232,0,2.229-0.999,2.229-2.231C30.748,7.438,29.75,6.438,28.519,6.438
	z"/>
</svg>
