<?xml version="1.0" encoding="utf-8"?>
<!-- Generator: Adobe Illustrator 17.0.1, SVG Export Plug-In . SVG Version: 6.00 Build 0)  -->
<!DOCTYPE svg PUBLIC "-//W3C//DTD SVG 1.1//EN" "http://www.w3.org/Graphics/SVG/1.1/DTD/svg11.dtd">
<svg version="1.1" id="Layer_1" xmlns="http://www.w3.org/2000/svg" xmlns:xlink="http://www.w3.org/1999/xlink" x="0px" y="0px"
	 width="37.187px" height="37.188px" viewBox="0 0 37.187 37.188" enable-background="new 0 0 37.187 37.188" xml:space="preserve">
<path fill-rule="evenodd" clip-rule="evenodd" fill="#fff" d="M18.593,0c-5.05,0-5.682,0.022-7.665,0.112
	C4.175,0.422,0.423,4.169,0.113,10.927C0.021,12.912,0,13.544,0,18.594c0,5.05,0.021,5.683,0.112,7.667
	c0.31,6.753,4.057,10.505,10.815,10.815c1.984,0.089,2.617,0.112,7.667,0.112c5.05,0,5.683-0.022,7.667-0.112
	c6.747-0.31,10.508-4.056,10.813-10.815c0.091-1.983,0.113-2.617,0.113-7.667c0-5.05-0.022-5.682-0.112-7.665
	C36.771,4.182,33.02,0.424,26.262,0.114C24.277,0.022,23.643,0.001,18.593,0L18.593,0L18.593,0z M29.493,29.884h-4.289v-8.011
	c0-4.814-5.718-4.449-5.718,0v8.011h-4.289V14.159h4.289v2.523c1.996-3.697,10.007-3.969,10.007,3.539V29.884L29.493,29.884z
	 M10.195,12.347c-1.381,0-2.502-1.129-2.502-2.521s1.121-2.521,2.502-2.521c1.381,0,2.501,1.129,2.501,2.521
	S11.577,12.347,10.195,12.347L10.195,12.347z M12.339,29.884H8.051V14.159h4.288V29.884z"/>
</svg>
