<?xml version="1.0" encoding="utf-8"?>
<!-- Generator: Adobe Illustrator 17.0.1, SVG Export Plug-In . SVG Version: 6.00 Build 0)  -->
<!DOCTYPE svg PUBLIC "-//W3C//DTD SVG 1.1//EN" "http://www.w3.org/Graphics/SVG/1.1/DTD/svg11.dtd">
<svg version="1.1" id="Layer_1" xmlns="http://www.w3.org/2000/svg" xmlns:xlink="http://www.w3.org/1999/xlink" x="0px" y="0px"
	 width="433.406px" height="235.199px" viewBox="0 0 433.406 235.199" enable-background="new 0 0 433.406 235.199"
	 xml:space="preserve">
<g>
	<path fill-rule="evenodd" clip-rule="evenodd" fill="#FFFFFF" d="M214.031,60.444c31.875,0.005,63.753-0.002,95.628,0.003
		c0,31.851,0.003,63.7,0,95.551c-31.878-0.002-63.755-0.002-95.63,0C214.033,124.146,214.026,92.295,214.031,60.444z"/>
	<path fill-rule="evenodd" clip-rule="evenodd" fill="#010101" d="M118.408,60.463c31.875,0.005,63.753-0.002,95.628,0.003
		c0,31.851,0.003,63.7,0,95.551c-31.878-0.003-63.755-0.003-95.63,0C118.41,124.165,118.403,92.314,118.408,60.463z"/>
	<path fill-rule="evenodd" clip-rule="evenodd" fill="#FEFEFE" d="M158.725,66.849c11.753-2.999,24.736-0.556,34.633,6.449
		c5.167,3.6,9.504,8.371,12.634,13.832c-6.722,3.78-13.394,7.655-20.106,11.454c-1.208,0.687-2.441,1.335-3.607,2.087
		c-1.851-3.175-4.829-5.713-8.319-6.898c-2.339-0.878-4.903-0.967-7.362-0.669c-7.131,0.936-13.096,7.566-12.993,14.81
		c-0.349,6.363,3.938,12.54,9.881,14.708c4.42,1.733,9.617,1.19,13.607-1.368c2.163-1.327,3.899-3.251,5.207-5.409
		c4.501,2.695,9.11,5.215,13.649,7.852c3.356,1.893,6.678,3.852,10.052,5.716c-5.605,9.795-15.209,17.261-26.157,20.074
		c-1.361,0.433-2.787,0.582-4.169,0.926c-3.183,0.362-6.397,0.69-9.601,0.38c-9.682-0.54-19.068-4.661-26.17-11.245
		c-7.37-6.772-12.217-16.226-13.361-26.17c-1.29-9.923,1.219-20.258,6.735-28.593C139.115,75.907,148.377,69.306,158.725,66.849z"/>
	<path fill-rule="evenodd" clip-rule="evenodd" fill="#010101" d="M220.828,67.305c9.105-0.01,18.213,0.021,27.318-0.018
		c9.189,11.323,18.224,22.78,27.379,34.132c0.018-11.376-0.005-22.749,0.01-34.124c9.103,0.018,18.205,0.016,27.308,0.003
		c0.013,27.313,0.01,54.629,0.003,81.942c-9.118-0.016-18.237,0-27.355-0.008c-8.916-11.169-17.883-22.298-26.789-33.474
		c-0.176-0.202-0.356-0.393-0.545-0.579c0.055,11.35,0.01,22.699,0.021,34.048c-9.118,0.016-18.237,0.003-27.355,0.005
		C220.828,121.921,220.821,94.613,220.828,67.305z"/>
	<path fill-rule="evenodd" clip-rule="evenodd" fill="#010101" d="M121.58,168.724c-0.121-2.661,1.851-5.243,4.428-5.886
		c2.606-0.855,5.616,0.462,6.96,2.808c-1.001,0.697-2.139,1.177-3.125,1.901c-0.472-0.53-0.989-1.138-1.738-1.24
		c-1.23-0.236-2.575,0.663-2.753,1.919c-0.192,0.626,0.105,1.243,0.278,1.835c1.017,1.387,3.311,1.319,4.2-0.175
		c1.038,0.65,2.126,1.216,3.165,1.866c-1.127,1.854-3.222,3.183-5.44,2.978C124.346,174.906,121.444,171.899,121.58,168.724z"/>
	<path fill-rule="evenodd" clip-rule="evenodd" fill="#010101" d="M176.909,162.726c2.218-0.482,4.651,0.501,6.001,2.31
		c1.998,2.54,1.471,6.644-1.169,8.539c-1.481,1.251-3.542,1.34-5.369,1.03c-1.5-0.422-2.808-1.447-3.607-2.782
		c-0.905-1.547-0.986-3.476-0.48-5.17C172.984,164.648,174.807,163.075,176.909,162.726z"/>
	<path fill-rule="evenodd" clip-rule="evenodd" fill="#010101" d="M189.556,162.857c3.167-1.046,6.919,1.159,7.569,4.423
		c0.74,2.7-0.713,5.778-3.259,6.942c-1.206,0.645-2.619,0.55-3.935,0.451c-2.021-0.362-3.747-1.911-4.457-3.822
		C184.187,167.663,186.193,163.652,189.556,162.857z"/>
	<path fill-rule="evenodd" clip-rule="evenodd" fill="#010101" d="M273.95,162.852c3.487-1.185,7.642,1.633,7.724,5.338
		c0.27,2.221-0.855,4.462-2.727,5.655c-1.389,0.986-3.172,1.007-4.795,0.794c-2.042-0.482-3.736-2.116-4.37-4.103
		c-0.315-1.248-0.307-2.574,0.045-3.812C270.497,164.889,272.033,163.334,273.95,162.852z"/>
	<path fill-rule="evenodd" clip-rule="evenodd" fill="#010101" d="M295.293,162.88c1.308-0.003,2.614,0,3.925-0.003
		c0.005,1.245-0.01,2.491,0.008,3.736c1.015-1.204,1.903-2.506,2.884-3.739c1.686,0.01,3.372,0,5.06,0.005
		c-1.56,1.846-3.01,3.783-4.596,5.605c1.589,1.995,3.06,4.08,4.627,6.093c-1.693,0.031-3.387,0.005-5.078,0.016
		c-0.949-1.471-1.932-2.918-2.908-4.37c0,1.458,0,2.913,0.005,4.37c-1.311-0.003-2.619,0-3.927-0.003
		C295.296,170.688,295.293,166.784,295.293,162.88z"/>
	<path fill-rule="evenodd" clip-rule="evenodd" fill="#010101" d="M136.76,162.894c1.961-0.034,3.922,0.005,5.886-0.024
		c0.881,2.331,1.487,4.758,2.292,7.116c0.566,1.515,0.865,3.12,1.481,4.617c-1.416,0.01-2.832-0.003-4.247,0.01
		c-0.181-0.674-0.302-1.366-0.582-2.006c-1.203,0.032-2.409,0.013-3.613,0.016c-0.241,0.655-0.467,1.316-0.671,1.987
		c-1.379-0.005-2.755-0.005-4.132,0C134.309,170.688,135.677,166.829,136.76,162.894z"/>
	<path fill-rule="evenodd" clip-rule="evenodd" fill="#010101" d="M147.449,162.883c2.456,0.013,4.913-0.042,7.367,0.026
		c2.509,0.026,4.501,2.756,3.749,5.152c-0.286,1.164-1.151,2.079-2.171,2.664c0.836,1.266,1.544,2.611,2.378,3.88
		c-1.463,0.008-2.923-0.008-4.383,0.008c-0.655-1.127-1.156-2.339-1.809-3.468c-0.398,0.013-0.8,0.023-1.198,0.039
		c0.003,1.14,0,2.281,0.005,3.421c-1.314,0-2.627,0.005-3.938-0.003C147.451,170.696,147.449,166.79,147.449,162.883z"/>
	<path fill-rule="evenodd" clip-rule="evenodd" fill="#010101" d="M159.682,166.299c-0.003-1.143,0-2.284,0-3.421
		c3.92,0.005,7.842,0.003,11.761,0c0,1.138,0,2.278,0,3.416c-1.217-0.008-2.436-0.003-3.652-0.008c0,2.774-0.003,5.547,0.003,8.324
		c-1.46-0.005-2.918-0.003-4.378-0.005c0.005-2.771,0-5.545,0.003-8.316C162.173,166.291,160.927,166.283,159.682,166.299z"/>
	<path fill-rule="evenodd" clip-rule="evenodd" fill="#010101" d="M198.434,174.61c-0.003-3.909-0.003-7.82,0-11.732
		c1.292,0.024,2.585-0.034,3.877,0.021c1.426,1.481,2.595,3.22,3.935,4.79c-0.029-1.602,0.008-3.204-0.055-4.803
		c1.308-0.01,2.619-0.005,3.93-0.005c0,3.909-0.003,7.818,0.003,11.727c-1.279,0-2.556-0.003-3.83,0.003
		c-1.335-1.618-2.627-3.269-3.935-4.905c-0.031,1.633-0.008,3.267-0.013,4.9C201.042,174.608,199.736,174.602,198.434,174.61z"/>
	<path fill-rule="evenodd" clip-rule="evenodd" fill="#010101" d="M217.963,162.883c1.329-0.005,2.659,0,3.988-0.005
		c1.298,1.604,2.553,3.241,3.883,4.814c0.013-1.602,0-3.206,0.005-4.808c1.298-0.005,2.593-0.003,3.89-0.003
		c-0.002,3.904,0.003,7.81-0.002,11.717c-1.285-0.005-2.567-0.008-3.851,0c-1.353-1.547-2.587-3.191-3.87-4.795
		c-0.042,1.597-0.013,3.193-0.021,4.787c-1.34,0.005-2.682,0.005-4.022,0.003C217.965,170.688,217.963,166.784,217.963,162.883z"/>
	<path fill-rule="evenodd" clip-rule="evenodd" fill="#010101" d="M231.326,162.88c3.416-0.003,6.829,0,10.245,0
		c-0.003,1.133,0,2.265-0.003,3.4c-2.102-0.008-4.205-0.003-6.308-0.003c-0.003,0.249-0.003,0.75-0.005,0.999
		c1.796,0.005,3.594,0,5.39,0.003c-0.003,0.98-0.003,1.961,0,2.944c-1.796-0.003-3.592-0.003-5.385,0
		c-0.003,0.396-0.005,0.792-0.003,1.19c2.103,0.003,4.205,0.003,6.31-0.003c0.003,1.062,0,2.121,0.003,3.183
		c-3.416-0.003-6.832,0-10.245-0.003C231.328,170.688,231.326,166.784,231.326,162.88z"/>
	<path fill-rule="evenodd" clip-rule="evenodd" fill="#010101" d="M242.856,166.276c0.003-1.133,0.003-2.263,0.003-3.395
		c3.919-0.003,7.836,0.005,11.753-0.003c0.003,1.135,0.005,2.271,0,3.408c-1.227-0.016-2.454-0.008-3.681-0.01
		c0.005,2.774-0.005,5.547,0.005,8.318c-1.471-0.005-2.942,0-4.41-0.003c0.003-2.771-0.003-5.542,0.003-8.313
		C245.305,166.276,244.081,166.278,242.856,166.276z"/>
	<path fill-rule="evenodd" clip-rule="evenodd" fill="#010101" d="M255.516,162.88c1.319,0,2.638-0.003,3.959,0
		c0.409,1.662,0.556,3.374,0.991,5.034c0.634-1.56,1.298-3.107,1.901-4.677c0.742,1.544,1.253,3.193,2.047,4.714
		c0.107-1.72,0.7-3.361,0.86-5.076c1.319,0.008,2.637,0.008,3.956,0c-0.642,3.919-1.518,7.8-2.173,11.714
		c-1.075,0.008-2.15-0.003-3.225,0.013c-0.561-1.015-0.936-2.116-1.458-3.151c-0.44,1.049-0.915,2.082-1.332,3.141
		c-1.08,0.003-2.163,0-3.243,0.003C256.961,170.706,256.321,166.779,255.516,162.88z"/>
	<path fill-rule="evenodd" clip-rule="evenodd" fill="#010101" d="M282.869,174.597c0.003-3.909-0.016-7.818,0.01-11.727
		c1.796,0.021,3.594,0.005,5.393,0.01c1.038,0.005,2.1-0.076,3.11,0.228c1.518,0.595,2.763,2.092,2.703,3.781
		c0.131,1.586-0.886,3.046-2.249,3.765c0.697,1.345,1.547,2.606,2.286,3.93c-1.455,0.024-2.91-0.008-4.365,0.021
		c-0.587-1.151-1.164-2.305-1.751-3.455c-0.406-0.008-0.81-0.01-1.214-0.016c-0.005,1.153-0.003,2.307-0.003,3.46
		C285.48,174.592,284.175,174.589,282.869,174.597z"/>
	<path fill-rule="evenodd" clip-rule="evenodd" fill="#FEFEFE" d="M139.856,166.124c0.113,1.222,0.684,2.333,0.889,3.537
		c-0.679,0-1.361,0-2.04,0C139.214,168.52,139.298,167.246,139.856,166.124z"/>
	<path fill-rule="evenodd" clip-rule="evenodd" fill="#FEFEFE" d="M151.381,166.294c0.967,0.021,1.943-0.079,2.905,0.058
		c0.713,0.464,0.629,1.578-0.189,1.872c-0.905,0.06-1.809,0.011-2.713,0.021C151.384,167.592,151.381,166.942,151.381,166.294z"/>
	<path fill-rule="evenodd" clip-rule="evenodd" fill="#FEFEFE" d="M286.788,166.276c0.936,0.023,1.883-0.063,2.816,0.055
		c0.711,0.283,0.598,1.143,0.336,1.712c-1.012,0.357-2.1,0.155-3.149,0.205C286.788,167.589,286.786,166.934,286.788,166.276z"/>
	<path fill-rule="evenodd" clip-rule="evenodd" fill="#FEFEFE" d="M177.045,166.797c1.091-0.705,2.716,0.021,3.041,1.245
		c0.281,0.682,0.005,1.395-0.26,2.029c-0.781,0.842-2.186,1.211-3.109,0.38C175.467,169.603,175.635,167.398,177.045,166.797z"/>
	<path fill-rule="evenodd" clip-rule="evenodd" fill="#FEFEFE" d="M189.701,167.146c1.075-1.138,3.201-0.585,3.571,0.934
		c0.341,0.692-0.052,1.405-0.32,2.045c-0.558,0.448-1.185,0.92-1.951,0.779C189.21,170.845,188.329,168.294,189.701,167.146z"/>
	<path fill-rule="evenodd" clip-rule="evenodd" fill="#FEFEFE" d="M274.734,166.737c1.311-0.75,3.165,0.456,3.036,1.966
		c0.16,1.67-2.011,2.863-3.332,1.838C273.024,169.734,273.189,167.309,274.734,166.737z"/>
	<path fill-rule="evenodd" clip-rule="evenodd" fill="#010101" d="M308.95,171.425c0.85,0,1.699-0.042,2.548,0.003
		c0.055,0.131,0.165,0.391,0.22,0.519c-0.378,0.021-0.752,0.039-1.125,0.057c0.003,0.868,0.003,1.736,0.008,2.604
		c-0.181,0.01-0.54,0.026-0.721,0.034c-0.008-0.886-0.005-1.77-0.003-2.653c-0.31-0.003-0.619-0.005-0.925-0.005
		C308.953,171.844,308.953,171.564,308.95,171.425z"/>
	<path fill-rule="evenodd" clip-rule="evenodd" fill="#010101" d="M311.936,171.396c0.323,0.003,0.65,0.016,0.978,0.039
		c0.217,0.781,0.367,1.583,0.587,2.367c0.181-0.807,0.354-1.612,0.598-2.402c0.296,0.005,0.598,0.011,0.902,0.018
		c-0.003,1.067-0.003,2.137,0,3.206c-0.152,0-0.459,0.003-0.611,0.005c0.008-0.857-0.026-1.715-0.023-2.569
		c-0.129,0.87-0.336,1.725-0.566,2.574c-0.231-0.008-0.461-0.013-0.69-0.016c-0.123-0.847-0.267-1.691-0.511-2.512
		c-0.063,0.842-0.037,1.683-0.031,2.527c-0.163-0.003-0.485-0.011-0.645-0.016C311.931,173.546,311.923,172.471,311.936,171.396z"/>
</g>
</svg>
