<?xml version="1.0" encoding="utf-8"?>
<!-- Generator: Adobe Illustrator 17.0.1, SVG Export Plug-In . SVG Version: 6.00 Build 0)  -->
<!DOCTYPE svg PUBLIC "-//W3C//DTD SVG 1.1//EN" "http://www.w3.org/Graphics/SVG/1.1/DTD/svg11.dtd">
<svg version="1.1" id="Layer_1" xmlns="http://www.w3.org/2000/svg" xmlns:xlink="http://www.w3.org/1999/xlink" x="0px" y="0px"
	 width="433.406px" height="235.199px" viewBox="0 0 433.406 235.199" enable-background="new 0 0 433.406 235.199"
	 xml:space="preserve">
<g>
	<path opacity="0.2" fill-rule="evenodd" clip-rule="evenodd" fill="#57B5E0" d="M101.217,90.253
		c-5.914,0-11.387,1.882-15.858,5.076c3.443-1.477,7.286-2.285,11.334-2.24c0.68,0.007,1.352,0.047,2.019,0.101
		c10.816,0.184,19.915,7.403,22.915,17.282c0.761,2.328,1.159,4.801,1.131,7.362c-0.027,2.403-0.432,4.718-1.151,6.903
		c-0.023,0.074-0.047,0.147-0.07,0.22c-0.023,0.069-0.046,0.138-0.07,0.207c-3.194,9.748-12.359,16.792-23.175,16.792l-0.284-0.007
		c-0.614,0.033-1.231,0.054-1.856,0.046c-3.973-0.044-7.728-0.908-11.09-2.408c4.525,3.326,10.109,5.295,16.156,5.295
		c15.085,0,27.315-12.23,27.315-27.315C128.532,102.483,116.302,90.253,101.217,90.253z"/>
	<path fill-rule="evenodd" clip-rule="evenodd" fill="#57B5E0" d="M112.923,78.578c-15.184,0-28.334,8.676-34.782,21.338
		c0.252-0.226,0.507-0.45,0.77-0.666c6.283-10.621,17.852-17.746,31.086-17.746c19.934,0,36.095,16.16,36.095,36.095
		c0,19.935-16.16,36.095-36.095,36.095c-13.372,0-25.041-7.274-31.278-18.079c-0.249-0.21-0.492-0.427-0.732-0.646
		c6.391,12.831,19.629,21.652,34.937,21.652c21.551,0,39.021-17.47,39.021-39.021C151.944,96.049,134.474,78.578,112.923,78.578z"/>
	<path opacity="0.8" fill-rule="evenodd" clip-rule="evenodd" fill="#57B5E0" d="M109.997,81.505
		c-13.23,0-24.793,7.121-31.076,17.737c0.366-0.302,0.743-0.591,1.126-0.873c6.014-8.435,15.875-13.937,27.023-13.937
		c18.318,0,33.168,14.85,33.168,33.168c0,18.318-14.85,33.168-33.168,33.168c-11.297,0-21.268-5.653-27.257-14.279
		c-0.372-0.282-0.737-0.572-1.092-0.872c6.236,10.804,17.905,18.077,31.276,18.077c19.934,0,36.095-16.16,36.095-36.095
		C146.091,97.665,129.931,81.505,109.997,81.505z"/>
	<path opacity="0.6" fill-rule="evenodd" clip-rule="evenodd" fill="#57B5E0" d="M107.07,84.431
		c-11.148,0-21.009,5.502-27.022,13.936c0.601-0.443,1.221-0.865,1.863-1.258c5.526-5.993,13.438-9.752,22.232-9.752
		c16.702,0,30.241,13.54,30.241,30.241c0,16.702-13.539,30.241-30.241,30.241c-8.976,0-17.034-3.914-22.573-10.125
		c-0.604-0.385-1.187-0.795-1.754-1.224c5.988,8.624,15.957,14.276,27.253,14.276c18.318,0,33.168-14.85,33.168-33.168
		C140.238,99.281,125.388,84.431,107.07,84.431z"/>
	<path opacity="0.4" fill-rule="evenodd" clip-rule="evenodd" fill="#57B5E0" d="M104.143,87.327
		c-8.829,0-16.768,3.789-22.296,9.824c1.112-0.685,2.282-1.293,3.503-1.818c4.473-3.197,9.95-5.08,15.867-5.08
		c15.085,0,27.315,12.229,27.315,27.315c0,15.085-12.229,27.315-27.315,27.315c-6.047,0-11.631-1.969-16.157-5.295
		c-1.191-0.532-2.333-1.142-3.417-1.828c5.535,6.166,13.562,10.05,22.501,10.05c16.702,0,30.241-13.54,30.241-30.242
		C134.385,100.866,120.845,87.327,104.143,87.327z"/>
	<path opacity="0.1" fill-rule="evenodd" clip-rule="evenodd" fill="#737373" d="M102.485,132.23c3.198,0,6.158-1.018,8.576-2.745
		c-1.862,0.799-3.941,1.236-6.13,1.212c-0.368-0.005-0.73-0.025-1.091-0.055c-5.849-0.099-10.77-4.003-12.392-9.346
		c-0.412-1.259-0.627-2.597-0.611-3.982c0.014-1.299,0.233-2.551,0.623-3.733c0.012-0.04,0.025-0.079,0.038-0.119
		c0.013-0.037,0.025-0.075,0.038-0.112c1.728-5.272,6.684-9.081,12.534-9.081l0.102,0.003c0.383-0.017,0.717-0.028,1.055-0.025
		c2.149,0.024,4.179,0.491,5.998,1.303c-2.447-1.799-5.467-2.864-8.737-2.864c-8.158,0-14.772,6.614-14.772,14.772
		S94.326,132.23,102.485,132.23z"/>
	<path opacity="0.4" fill-rule="evenodd" clip-rule="evenodd" fill="#737373" d="M96.153,138.544c8.212,0,15.323-4.693,18.811-11.54
		c-0.136,0.122-0.274,0.243-0.416,0.36c-3.398,5.744-9.654,9.597-16.812,9.597c-10.78,0-19.52-8.739-19.52-19.52
		c0-10.781,8.74-19.52,19.52-19.52c7.232,0,13.543,3.934,16.915,9.777c0.135,0.114,0.266,0.231,0.396,0.349
		c-3.456-6.939-10.615-11.71-18.894-11.71c-11.654,0-21.102,9.448-21.102,21.103C75.051,129.096,84.499,138.544,96.153,138.544z"/>
	<path opacity="0.35" fill-rule="evenodd" clip-rule="evenodd" fill="#737373" d="M97.736,136.961
		c7.155,0,13.408-3.851,16.806-9.592c-0.198,0.163-0.402,0.32-0.609,0.472c-3.252,4.562-8.585,7.537-14.614,7.537
		c-9.907,0-17.938-8.031-17.938-17.937c0-9.906,8.031-17.937,17.938-17.937c6.109,0,11.502,3.058,14.741,7.722
		c0.201,0.153,0.398,0.31,0.59,0.472c-3.372-5.843-9.683-9.776-16.914-9.776c-10.78,0-19.52,8.74-19.52,19.52
		C78.216,128.222,86.956,136.961,97.736,136.961z"/>
	<path opacity="0.3" fill-rule="evenodd" clip-rule="evenodd" fill="#737373" d="M99.32,135.378c6.029,0,11.362-2.975,14.613-7.536
		c-0.325,0.239-0.66,0.467-1.008,0.68c-2.988,3.241-7.267,5.274-12.023,5.274c-9.032,0-16.354-7.322-16.354-16.355
		c0-9.032,7.322-16.354,16.354-16.354c4.854,0,9.213,2.117,12.207,5.476c0.327,0.208,0.642,0.43,0.948,0.662
		c-3.238-4.664-8.63-7.72-14.738-7.72c-9.907,0-17.938,8.031-17.938,17.937C81.382,127.348,89.413,135.378,99.32,135.378z"/>
	<path opacity="0.2" fill-rule="evenodd" clip-rule="evenodd" fill="#737373" d="M100.902,133.813c4.775,0,9.069-2.049,12.058-5.313
		c-0.601,0.371-1.234,0.699-1.894,0.983c-2.419,1.73-5.381,2.748-8.581,2.748c-8.158,0-14.772-6.614-14.772-14.772
		s6.614-14.772,14.772-14.772c3.27,0,6.29,1.065,8.738,2.864c0.644,0.287,1.262,0.618,1.848,0.988
		c-2.993-3.334-7.334-5.435-12.169-5.435c-9.032,0-16.354,7.322-16.354,16.355C84.547,126.491,91.87,133.813,100.902,133.813z"/>
	<circle fill-rule="evenodd" clip-rule="evenodd" fill="#57B5E0" cx="104.514" cy="118.006" r="7.317"/>
	<g>
		<g>
			<path opacity="0.7" fill-rule="evenodd" clip-rule="evenodd" fill="#737373" d="M198.869,93.605l-7.29,0.025l0.035,12.878
				c-1.74-0.992-3.857-1.588-6.298-1.585c-8.689,0.022-13.337,6.805-13.321,13.196c0.016,6.356,4.702,13.079,13.391,13.056
				c6.541-0.016,9.021-3.156,13.566-5.263L198.869,93.605L198.869,93.605z M191.745,118.194L191.745,118.194
				c-0.051,3.168-2.164,6.203-6.206,6.209c-4.055,0.01-6.242-3.139-6.251-6.343c-0.007-3.219,2.171-6.318,6.219-6.327
				c4.042-0.003,6.171,2.955,6.238,6.146V118.194z"/>
		</g>
	</g>
	<g>
		<path opacity="0.7" fill-rule="evenodd" clip-rule="evenodd" fill="#737373" d="M233.435,117.92
			c0.018,7.188,5.278,12.814,13.496,12.785l7.593-0.019l-0.019-6.781l-6.892,0.01c-4.424,0.013-6.873-2.568-6.878-6.021
			c-0.01-3.392,2.422-5.993,6.853-6.005l6.892-0.016l-0.018-6.805l-7.593,0.022C238.649,105.106,233.416,110.77,233.435,117.92z"/>
	</g>
	<g>
		<path opacity="0.7" fill-rule="evenodd" clip-rule="evenodd" fill="#737373" d="M316.846,104.596
			c-2.805,0.007-5.39,0.58-8.765,2.849c-3.373-2.247-5.987-2.812-8.741-2.805c-6.191,0.013-10.519,4.258-10.503,10.36l0.042,15.603
			l7.249-0.026l-0.039-15.259c-0.007-2.582,1.6-3.869,4.233-3.876c2.761-0.007,4.147,1.332,4.15,3.544l0.044,15.575l7.255-0.01
			l-0.038-15.588c-0.007-2.205,1.364-3.554,4.163-3.56c2.595-0.007,4.195,1.274,4.204,3.856l0.038,15.265l7.303-0.025l-0.042-15.6
			C327.387,108.803,323.03,104.577,316.846,104.596z"/>
	</g>
	<g>
		<g>
			<path opacity="0.7" fill-rule="evenodd" clip-rule="evenodd" fill="#737373" d="M344.814,104.528
				c-8.62,0.023-13.509,6.72-13.493,13.191c0.016,6.378,4.937,13.079,13.557,13.06c8.629-0.025,13.49-6.748,13.477-13.133
				C358.342,111.185,353.443,104.504,344.814,104.528L344.814,104.528z M344.865,123.996L344.865,123.996
				c-4.074,0.012-6.257-3.137-6.266-6.343c-0.007-3.207,2.167-6.315,6.234-6.325c4.045-0.007,6.254,3.082,6.264,6.296
				C351.107,120.833,348.913,123.989,344.865,123.996z"/>
		</g>
	</g>
	<g>
		<g>
			<path opacity="0.7" fill-rule="evenodd" clip-rule="evenodd" fill="#737373" d="M216.521,104.848
				c-8.632,0.019-13.496,6.729-13.48,13.19c0.016,6.379,4.916,13.082,13.544,13.066c8.644-0.025,13.509-6.757,13.493-13.133
				C230.062,111.506,225.166,104.832,216.521,104.848L216.521,104.848z M216.566,124.33L216.566,124.33
				c-4.048,0.007-6.254-3.14-6.26-6.356c-0.013-3.201,2.18-6.311,6.228-6.311c4.042-0.016,6.235,3.073,6.241,6.286
				C222.782,121.158,220.608,124.311,216.566,124.33z"/>
		</g>
	</g>
	<g>
		<g>
			<path opacity="0.7" fill-rule="evenodd" clip-rule="evenodd" fill="#737373" d="M271.347,104.714
				c-8.629,0.013-13.49,6.729-13.474,13.181c0.016,6.381,4.912,13.088,13.537,13.076c8.651-0.032,13.509-6.758,13.496-13.136
				C284.891,111.366,279.992,104.685,271.347,104.714L271.347,104.714z M271.399,124.183L271.399,124.183
				c-4.049,0.013-6.242-3.139-6.247-6.343c-0.006-3.21,2.168-6.308,6.216-6.324c4.039-0.013,6.228,3.079,6.238,6.293
				C277.611,121.012,275.437,124.171,271.399,124.183z"/>
		</g>
	</g>
	<path fill-rule="evenodd" clip-rule="evenodd" fill="#57B5E0" d="M320.052,100.852v-1.009c-0.379,0.393-0.801,0.691-1.267,0.893
		c-0.466,0.202-0.963,0.303-1.491,0.303c-1.236,0-2.262-0.412-3.08-1.237c-0.817-0.825-1.226-1.857-1.226-3.098
		c0-0.578,0.102-1.126,0.307-1.644c0.204-0.518,0.496-0.974,0.874-1.368c0.414-0.434,0.866-0.754,1.357-0.961
		c0.491-0.207,1.05-0.31,1.678-0.31c0.558,0,1.075,0.1,1.551,0.299c0.476,0.199,0.913,0.501,1.312,0.904v-5.109h1.48v12.337H320.052
		L320.052,100.852z M314.521,96.689L314.521,96.689c0,0.832,0.275,1.53,0.826,2.093c0.551,0.563,1.225,0.844,2.022,0.844
		c0.727,0,1.369-0.283,1.924-0.848c0.556-0.566,0.833-1.227,0.833-1.985c0-0.807-0.275-1.499-0.826-2.074
		c-0.55-0.576-1.204-0.863-1.962-0.863c-0.777,0-1.441,0.274-1.992,0.822C314.796,95.227,314.521,95.897,314.521,96.689z"/>
	<path fill-rule="evenodd" clip-rule="evenodd" fill="#57B5E0" d="M324.73,91.667h-1.465V89.97h1.465V91.667L324.73,91.667z
		 M323.266,100.852L323.266,100.852v-8.221h1.465v8.221H323.266z"/>
	<path fill-rule="evenodd" clip-rule="evenodd" fill="#57B5E0" d="M326.614,101.51h1.577c0.229,0.383,0.53,0.676,0.901,0.878
		c0.371,0.202,0.796,0.303,1.274,0.303c0.832,0,1.502-0.25,2.011-0.751c0.508-0.501,0.762-1.165,0.762-1.992v-0.105
		c-0.379,0.393-0.801,0.691-1.267,0.893c-0.466,0.202-0.963,0.303-1.491,0.303c-1.236,0-2.262-0.412-3.079-1.237
		c-0.817-0.825-1.226-1.857-1.226-3.098c0-0.578,0.102-1.126,0.306-1.644c0.204-0.518,0.496-0.974,0.874-1.368
		c0.414-0.434,0.866-0.754,1.357-0.961c0.491-0.207,1.05-0.31,1.678-0.31c0.558,0,1.075,0.1,1.551,0.299
		c0.476,0.199,0.913,0.501,1.312,0.904v-0.994h1.48v6.861c0,1.43-0.371,2.55-1.114,3.36c-0.742,0.81-1.764,1.214-3.065,1.214
		c-0.942,0-1.746-0.223-2.414-0.669C327.374,102.951,326.898,102.323,326.614,101.51L326.614,101.51z M327.608,96.689
		L327.608,96.689c0,0.832,0.275,1.53,0.826,2.093c0.551,0.563,1.224,0.844,2.022,0.844c0.728,0,1.369-0.283,1.925-0.848
		c0.556-0.566,0.833-1.227,0.833-1.985c0-0.807-0.275-1.499-0.826-2.074c-0.551-0.576-1.204-0.863-1.962-0.863
		c-0.777,0-1.441,0.274-1.992,0.822C327.883,95.227,327.608,95.897,327.608,96.689z"/>
	<path fill-rule="evenodd" clip-rule="evenodd" fill="#57B5E0" d="M337.818,91.667h-1.465V89.97h1.465V91.667L337.818,91.667z
		 M336.353,100.852L336.353,100.852v-8.221h1.465v8.221H336.353z"/>
	<polygon fill-rule="evenodd" clip-rule="evenodd" fill="#57B5E0" points="340.083,100.852 340.083,93.976 338.917,93.976 
		338.917,92.631 340.083,92.631 340.083,89.97 341.555,89.97 341.555,92.631 342.721,92.631 342.721,93.976 341.555,93.976 
		341.555,100.852 	"/>
	<path fill-rule="evenodd" clip-rule="evenodd" fill="#57B5E0" d="M350.434,100.852v-1.009c-0.379,0.393-0.801,0.691-1.267,0.893
		s-0.963,0.303-1.491,0.303c-1.236,0-2.262-0.412-3.079-1.237s-1.226-1.857-1.226-3.098c0-0.578,0.102-1.126,0.306-1.644
		c0.204-0.518,0.496-0.974,0.875-1.368c0.414-0.434,0.866-0.754,1.357-0.961c0.491-0.207,1.05-0.31,1.678-0.31
		c0.563,0,1.081,0.1,1.555,0.299c0.473,0.199,0.905,0.501,1.293,0.904v-0.994h1.495v8.221H350.434L350.434,100.852z M344.903,96.689
		L344.903,96.689c0,0.832,0.275,1.53,0.826,2.093c0.55,0.563,1.225,0.844,2.022,0.844c0.727,0,1.369-0.283,1.925-0.848
		c0.556-0.566,0.833-1.227,0.833-1.985c0-0.807-0.275-1.499-0.826-2.074c-0.551-0.576-1.205-0.863-1.962-0.863
		c-0.778,0-1.441,0.274-1.992,0.822C345.178,95.227,344.903,95.897,344.903,96.689z"/>
	<rect x="353.648" y="89.97" fill-rule="evenodd" clip-rule="evenodd" fill="#57B5E0" width="1.465" height="10.882"/>
</g>
</svg>
