<?xml version="1.0" encoding="utf-8"?>
<!-- Generator: Adobe Illustrator 17.0.1, SVG Export Plug-In . SVG Version: 6.00 Build 0)  -->
<!DOCTYPE svg PUBLIC "-//W3C//DTD SVG 1.1//EN" "http://www.w3.org/Graphics/SVG/1.1/DTD/svg11.dtd">
<svg version="1.1" id="Layer_1" xmlns="http://www.w3.org/2000/svg" xmlns:xlink="http://www.w3.org/1999/xlink" x="0px" y="0px"
	 width="433.406px" height="235.199px" viewBox="0 0 433.406 235.199" enable-background="new 0 0 433.406 235.199"
	 xml:space="preserve">
<path fill-rule="evenodd" clip-rule="evenodd" fill="#4C4D4F" d="M255.73,84.443h14.643v66.312H255.73l-28.031-43.874v43.874
	h-14.643V84.443h0.307h14.335h0.308l27.723,43.393V84.443L255.73,84.443z M339.413,83.499c1.31,0,2.498,0.305,3.564,0.913
	c1.066,0.61,1.903,1.447,2.512,2.512c0.609,1.065,0.913,2.246,0.913,3.544c0,1.297-0.311,2.485-0.933,3.564
	c-0.622,1.079-1.469,1.93-2.542,2.551c-1.072,0.622-2.257,0.934-3.554,0.934c-1.297,0-2.478-0.311-3.544-0.934
	c-1.065-0.622-1.907-1.469-2.522-2.541c-0.615-1.072-0.923-2.251-0.923-3.535c0-1.284,0.308-2.462,0.923-3.535
	c0.615-1.072,1.46-1.92,2.532-2.541C336.911,83.81,338.102,83.499,339.413,83.499L339.413,83.499z M339.373,96.426
	c1.099,0,2.095-0.264,2.988-0.794c0.894-0.529,1.599-1.248,2.115-2.154c0.516-0.906,0.774-1.909,0.774-3.008
	c0-1.099-0.252-2.095-0.755-2.989c-0.503-0.894-1.198-1.599-2.085-2.115c-0.887-0.516-1.886-0.774-2.998-0.774
	c-1.112,0-2.118,0.261-3.018,0.784c-0.9,0.522-1.605,1.234-2.115,2.134c-0.509,0.9-0.764,1.899-0.764,2.998
	c0,1.099,0.255,2.098,0.764,2.998c0.51,0.9,1.211,1.612,2.105,2.135C337.278,96.164,338.274,96.426,339.373,96.426L339.373,96.426z
	 M343.006,89.317c0-0.834-0.294-1.496-0.883-1.986c-0.589-0.49-1.393-0.735-2.412-0.735h-3.257v7.824h1.708v-2.383h1.549h0.219
	l1.549,2.383h1.707l-1.747-2.681c0.503-0.211,0.89-0.522,1.161-0.933C342.871,90.396,343.006,89.9,343.006,89.317L343.006,89.317z
	 M339.611,90.707c0.556,0,0.986-0.122,1.29-0.367c0.304-0.245,0.457-0.585,0.457-1.022c0-0.437-0.152-0.774-0.457-1.013
	c-0.304-0.238-0.734-0.357-1.29-0.357h-1.47v2.76H339.611L339.611,90.707z M119.724,83.137c13.332,0,24.801,8.401,29.899,20.45
	h-15.252c-3.573-4.429-8.81-7.225-14.647-7.225c-10.767,0-19.494,9.508-19.494,21.238c0,11.729,8.728,21.238,19.494,21.238
	c7.784,0,14.501-4.97,17.626-12.156h-17.896v-11.999h19.581h3.256h10.035c0.077,0.962,0.118,1.934,0.118,2.917
	c0,19.034-14.649,34.463-32.719,34.463c-18.071,0-32.72-15.429-32.72-34.463C87.004,98.567,101.653,83.137,119.724,83.137
	L119.724,83.137z M186.586,84.443h-14.643l-24.152,66.312h14.643l5.034-13.822h23.593l5.034,13.822h14.643L186.586,84.443
	L186.586,84.443z M172.147,124.084l7.117-19.539l7.117,19.539H172.147L172.147,124.084z M326.802,84.443v14.643l-33.47,37.026
	h32.998v14.643h-51.041v-14.643l34.099-37.026h-31.484V84.443H326.802z"/>
</svg>
