<?xml version="1.0" encoding="utf-8"?>
<!-- Generator: Adobe Illustrator 17.0.1, SVG Export Plug-In . SVG Version: 6.00 Build 0)  -->
<!DOCTYPE svg PUBLIC "-//W3C//DTD SVG 1.1//EN" "http://www.w3.org/Graphics/SVG/1.1/DTD/svg11.dtd">
<svg version="1.1" id="Layer_1" xmlns="http://www.w3.org/2000/svg" xmlns:xlink="http://www.w3.org/1999/xlink" x="0px" y="0px"
	 width="433.406px" height="235.199px" viewBox="0 0 433.406 235.199" enable-background="new 0 0 433.406 235.199"
	 xml:space="preserve">
<g>
	<rect x="92.199" y="95.004" fill-rule="evenodd" clip-rule="evenodd" fill="#6A9997" width="11.204" height="45.191"/>
	<rect x="92.199" y="95.004" fill-rule="evenodd" clip-rule="evenodd" fill="#7AB3B2" width="27.264" height="9.338"/>
	<rect x="92.199" y="112.931" fill-rule="evenodd" clip-rule="evenodd" fill="#7AB3B2" width="22.791" height="9.337"/>
	<rect x="158.679" y="95.004" fill-rule="evenodd" clip-rule="evenodd" fill="#F38E4A" width="9.338" height="45.191"/>
	<rect x="176.606" y="95.004" fill-rule="evenodd" clip-rule="evenodd" fill="#F38E4A" width="9.338" height="45.191"/>
	<polygon fill-rule="evenodd" clip-rule="evenodd" fill="#C9753D" points="168.016,95.004 185.943,140.195 176.606,140.195 
		158.679,95.004 	"/>
	<rect x="313.942" y="95.004" fill-rule="evenodd" clip-rule="evenodd" fill="#F38E4A" width="9.338" height="45.191"/>
	<rect x="331.869" y="95.004" fill-rule="evenodd" clip-rule="evenodd" fill="#F38E4A" width="9.338" height="45.191"/>
	<polygon fill-rule="evenodd" clip-rule="evenodd" fill="#C9753D" points="323.28,95.004 341.207,140.195 331.869,140.195 
		313.942,95.004 	"/>
	<rect x="194.689" y="95.004" fill-rule="evenodd" clip-rule="evenodd" fill="#DB4E4E" width="9.337" height="45.191"/>
	<rect x="194.689" y="112.931" fill-rule="evenodd" clip-rule="evenodd" fill="#DB4E4E" width="8.963" height="27.264"/>
	<path fill-rule="evenodd" clip-rule="evenodd" fill="#FF5B5B" d="M203.836,95.004c-0.062,0-0.122,0.004-0.183,0.005v17.917
		c0.061,0.002,0.122,0.005,0.183,0.005c4.95,0,8.963-4.013,8.963-8.963C212.799,99.018,208.785,95.004,203.836,95.004z"/>
	<path fill-rule="evenodd" clip-rule="evenodd" fill="#FF5B5B" d="M208.321,112.931c-0.062,0-4.606,0.005-4.668,0.006v27.254
		c0.063,0,4.606,0.005,4.668,0.005c7.529,0,13.632-6.103,13.632-13.632C221.953,119.035,215.85,112.931,208.321,112.931z"/>
	<rect x="227.646" y="95.004" fill-rule="evenodd" clip-rule="evenodd" fill="#89719E" width="9.337" height="45.191"/>
	<path fill-rule="evenodd" clip-rule="evenodd" fill="#A584BD" d="M237.17,95.004c-0.063,0-0.124,0.004-0.187,0.005V113.3
		c0.063,0.001,0.125,0.005,0.187,0.005c5.053,0,9.15-4.097,9.15-9.15C246.319,99.101,242.223,95.004,237.17,95.004z"/>
	<polygon fill-rule="evenodd" clip-rule="evenodd" fill="#A584BD" points="254.91,140.195 236.983,113.305 236.983,140.195 	"/>
	<polygon fill-rule="evenodd" clip-rule="evenodd" fill="#FBBD54" points="259.437,140.195 289.926,140.195 275.319,95.004 	"/>
	<polygon fill-rule="evenodd" clip-rule="evenodd" fill="#D3994C" points="266.94,140.195 282.424,140.195 275.319,115.986 	"/>
	<rect x="295.619" y="95.004" fill-rule="evenodd" clip-rule="evenodd" fill="#DDD64E" width="9.338" height="45.191"/>
	<rect x="295.619" y="95.004" fill-rule="evenodd" clip-rule="evenodd" fill="#C0B638" width="9.338" height="9.338"/>
	<path fill-rule="evenodd" clip-rule="evenodd" fill="#9AA84A" d="M142.605,95.004v31.535h-0.027c0,0.013,0,0.038,0,0.038
		c0,2.357-1.911,4.267-4.267,4.267c-2.356,0-4.267-1.91-4.267-4.267c0,0,0-0.021,0-0.028h-0.027V95.004h-9.338v31.558
		c0,7.529,6.104,13.632,13.632,13.632c7.364,0,13.346-5.877,13.608-13.178h0.025V95.004H142.605z"/>
	<path fill-rule="evenodd" clip-rule="evenodd" fill="#AABD52" d="M138.311,140.195c7.364,0,13.346-5.877,13.608-13.178h0.025
		V95.004h-9.338v31.535h-0.027c0,0.013,0,0.038,0,0.038c0,2.357-1.911,4.267-4.267,4.267V140.195z"/>
</g>
</svg>
