<svg xmlns="http://www.w3.org/2000/svg" x="0px" y="0px"
     width="312.001px" height="186.001px" viewBox="0 0 312.001 186.001">
    <path fill-rule="evenodd" clip-rule="evenodd" fill="#309CDD" d="M210.547,55.984H109.2c-0.921,0-1.381,0.46-1.381,1.381v43.776
				c0,16.307,12.965,28.876,28.954,28.876H238.12c0.921,0,1.381-0.46,1.381-1.381V84.86
				C239.501,68.552,226.537,55.984,210.547,55.984z"/>
    <path fill-rule="evenodd" clip-rule="evenodd" fill="#FFFFFF" d="M149.245,101.376c0-7.943-6.043-12.953-12.722-12.838
					c-6.621,0.059-12.492,4.951-12.492,12.838c0,7.828,5.871,12.722,12.492,12.779C143.202,114.155,149.245,109.204,149.245,101.376
					L149.245,101.376L149.245,101.376z M115.799,101.376c0-11.802,9.326-20.896,20.839-20.896c11.572,0,20.954,9.094,20.954,20.896
					c0,11.628-9.383,20.724-20.954,20.724C125.125,122.1,115.799,113.119,115.799,101.376z"/>
    <path fill-rule="evenodd" clip-rule="evenodd" fill="#FFFFFF" d="M167.698,91.704v2.015c2.245-2.994,5.815-3.856,9.385-3.856
					c9.094,0.056,12.201,6.388,12.145,14.62v15.602c0,0.921-0.46,1.381-1.381,1.381h-5.009c-0.921,0-1.381-0.461-1.381-1.381
					v-15.543c0-4.836-2.015-7.6-6.158-7.656c-4.03-0.059-7.311,3.11-7.311,7.656v15.543c0,0.921-0.463,1.381-1.381,1.381h-5.24
					c-0.921,0-1.381-0.461-1.381-1.381v-28.38c0-0.921,0.46-1.381,1.381-1.381h4.951C167.238,90.323,167.698,90.783,167.698,91.704
					L167.698,91.704z M167.698,91.704L167.698,91.704L167.698,91.704z"/>
    <path fill-rule="evenodd" clip-rule="evenodd" fill="#FFFFFF" d="M207.624,96.54c-3.396,0-6.736,1.841-7.772,5.872h15.599
					C214.531,98.325,211.194,96.54,207.624,96.54L207.624,96.54L207.624,96.54z M220.175,116.573
					c-2.823,3.338-7.14,5.353-12.032,5.353c-8.06,0-16.522-5.467-16.522-16.062c0-10.705,8.06-16.001,16.234-16.001
					c8.577,0,15.947,5.813,15.947,15.888c0,0.517-0.059,1.036-0.117,1.496c-0.056,0.864-0.576,1.266-1.438,1.266h-22.68
					c0.632,4.202,5.007,6.562,8.577,6.562c2.128,0,4.662-0.806,6.389-2.532c0.634-0.576,1.209-0.749,1.958-0.23l3.396,2.302
					C220.635,115.134,220.751,115.825,220.175,116.573L220.175,116.573z M220.175,116.573L220.175,116.573L220.175,116.573z"/>
    <path fill-rule="evenodd" clip-rule="evenodd" fill="#309CDD" d="M88.504,96.54c-3.396,0-6.736,1.841-7.772,5.872h15.599
					C95.411,98.325,92.074,96.54,88.504,96.54L88.504,96.54L88.504,96.54z M101.055,116.573c-2.823,3.338-7.14,5.353-12.032,5.353
					c-8.06,0-16.522-5.467-16.522-16.062c0-10.705,8.06-16.001,16.234-16.001c8.577,0,15.947,5.813,15.947,15.888
					c0,0.517-0.059,1.036-0.117,1.496c-0.056,0.864-0.575,1.266-1.438,1.266H80.444c0.634,4.202,5.009,6.562,8.579,6.562
					c2.128,0,4.662-0.806,6.388-2.532c0.634-0.576,1.209-0.749,1.959-0.23l3.396,2.302
					C101.515,115.134,101.631,115.825,101.055,116.573L101.055,116.573z M101.055,116.573L101.055,116.573L101.055,116.573z"/>
</svg>
