<?xml version="1.0" encoding="utf-8"?>
<!-- Generator: Adobe Illustrator 17.0.1, SVG Export Plug-In . SVG Version: 6.00 Build 0)  -->
<!DOCTYPE svg PUBLIC "-//W3C//DTD SVG 1.1//EN" "http://www.w3.org/Graphics/SVG/1.1/DTD/svg11.dtd">
<svg version="1.1" id="Layer_1" xmlns="http://www.w3.org/2000/svg" xmlns:xlink="http://www.w3.org/1999/xlink" x="0px" y="0px"
	 width="433.406px" height="235.199px" viewBox="0 0 433.406 235.199" enable-background="new 0 0 433.406 235.199"
	 xml:space="preserve">
<g>
	<path fill-rule="evenodd" clip-rule="evenodd" fill="#6BA656" d="M161.868,136.785c0.445-9.262,0.89-18.524,1.335-27.785
		c2.808-0.157,5.617-0.315,8.425-0.472c1.205,4.216,2.409,8.433,3.614,12.65c1.185-3.994,2.371-7.988,3.557-11.982
		c2.582-0.08,5.164-0.161,7.746-0.242c1.05,9.826,1.544,19.652,1.796,29.478c-2.525-0.157-5.049-0.315-7.574-0.472
		c0.008-5.26,0.016-10.52,0.023-15.78c-0.833,3.108-1.665,6.215-2.498,9.323c-2.214-0.006-4.427-0.011-6.641-0.017
		c-0.675-3.411-1.351-6.822-2.026-10.233c-0.211,5.333-0.422,10.666-0.633,15.999C166.618,137.096,164.244,136.941,161.868,136.785
		L161.868,136.785z M193.398,113.426c2.917-3.372,6.794-4.118,11.18-3.286c2.852,0.541,5.263,1.917,6.693,5.149
		c1.508,3.583,2.651,8.958,2.062,12.875c-0.556,3.694-2.2,6.726-5.912,8.498c-4.09,1.952-12.093,1.365-15.374-1.93
		c-3.309-3.323-3.303-9.26-2.31-13.522C190.388,118.416,191.521,115.597,193.398,113.426L193.398,113.426z M197.468,120.176
		c-1.767,2.796-1.884,4.931-0.514,7.882c0.911,1.962,2.211,3.182,4.132,3.22c3.83,0.076,6.649-4.99,5.751-8.431
		c-0.613-2.347-2.037-4.542-4.446-5.33C200.189,116.797,198.725,118.188,197.468,120.176L197.468,120.176z M218.168,113.426
		c-1.878,2.171-3.01,4.99-3.661,7.785c-0.993,4.262-0.999,10.199,2.31,13.522c3.281,3.295,11.284,3.882,15.374,1.93
		c3.712-1.772,5.356-4.803,5.912-8.498c0.589-3.917-0.554-9.292-2.062-12.875c-1.43-3.232-3.841-4.608-6.693-5.149
		C224.962,109.308,221.085,110.054,218.168,113.426L218.168,113.426z M222.238,120.176c1.257-1.988,2.722-3.379,4.924-2.659
		c2.409,0.788,3.833,2.983,4.446,5.33c0.898,3.441-1.921,8.507-5.751,8.431c-1.921-0.038-3.222-1.258-4.132-3.22
		C220.354,125.106,220.47,122.971,222.238,120.176L222.238,120.176z M343.708,109.569c0.596-1.202,1.469-2.213,2.647-3.016
		c1.619,1.443,3.238,2.885,4.857,4.328c-1.7,0.347-2.966,1.104-3.499,2.555c1.97,1.875,1.869,6.32,0.773,8.628
		c-1.468,3.091-4.478,4.308-7.909,4.469c-1.716,0.081-3.262-0.042-4.812-0.16c-1.985,0.593-2.666,1.486-1.98,2.693
		c3.171-0.942,7.577-1.47,10.884-0.924c1.829,0.302,3.088,1.099,4.057,3.106c0.684,1.417,1.994,4.329,0.253,6.336
		c-1.849,2.419-4.38,3.535-7.26,3.986c-3.388,0.529-11.224,0.509-13.478-2.005c-1.814-2.024-1.738-5.922,0.549-7.298
		c-0.961-2.564-1.048-4.256-0.655-5.467c0.448-1.378,1.519-2.133,2.635-2.843c-2.961-2.248-4.167-5.548-2.954-9.11
		c0.835-2.454,2.397-4.592,6.148-5.777C336.929,108.132,340.986,107.895,343.708,109.569L343.708,109.569z M341.257,132.708
		c-1.837,0.119-4.931,0.574-6.656,1.292c-0.756,0.315-1.691,0.882-1.281,1.655c0.484,0.913,2.223,0.895,3.126,0.914
		c2.023,0.042,4.004-0.075,5.903-0.509c0.909-0.208,2.245-0.751,1.871-1.921C343.738,132.633,342.595,132.622,341.257,132.708
		L341.257,132.708z M341.144,114.954c-1.664-0.657-5.961-0.755-6.833,1.076c-0.341,0.716-0.31,1.432,0.062,2.148
		c0.763,1.47,3.939,1.802,5.41,1.747c1.527-0.057,2.599-0.507,2.912-1.614C343.213,116.478,342.41,115.454,341.144,114.954
		L341.144,114.954z M305.646,113.426c2.917-3.372,6.793-4.118,11.18-3.286c2.852,0.541,5.263,1.917,6.693,5.149
		c1.508,3.583,2.651,8.958,2.062,12.875c-0.556,3.694-2.2,6.726-5.912,8.498c-4.09,1.952-12.093,1.365-15.374-1.93
		c-3.309-3.323-3.303-9.26-2.31-13.522C302.636,118.416,303.768,115.597,305.646,113.426L305.646,113.426z M309.715,120.176
		c-1.768,2.796-1.884,4.931-0.514,7.882c0.91,1.962,2.211,3.182,4.132,3.22c3.831,0.076,6.65-4.99,5.751-8.431
		c-0.612-2.347-2.037-4.542-4.446-5.33C312.437,116.797,310.972,118.188,309.715,120.176L309.715,120.176z M281.506,111.376
		c2.479-0.207,4.957-0.414,7.436-0.622c-0.092,0.813-0.184,1.627-0.276,2.44c3.563-2.254,7.272-3.363,11.142-3.223
		c0.246,2.133,0.491,4.266,0.737,6.399c-5.456,0.057-8.663,1.426-9.944,3.919c-1.595,3.103-0.983,12.951-0.692,16.546
		c-2.548,0.092-5.095,0.184-7.643,0.276C282.384,128.491,282.186,119.906,281.506,111.376L281.506,111.376z M238.573,110.248
		c2.176-0.36,4.351-0.721,6.526-1.082c0.142,1.001,0.284,2.003,0.426,3.004c2.313-1.73,5.669-3.697,8.656-3.609
		c1.209,0.035,2.328,0.373,3.259,1.339c2.23,2.313,2.828,7.305,3.105,10.35c1.665-0.361,3.33-0.721,4.995-1.082
		c-0.237-2.708-0.488-7.438,0.488-9.979c0.512-1.332,1.304-2.498,2.57-3.383c3.988-2.788,8.814,0.145,11.928,2.887
		c-1.566,1.251-3.131,2.502-4.696,3.752c-1.205-1.167-2.295-1.726-3.248-1.551c-2.305,0.425-2.149,5.575-2.116,7.26
		c1.941-0.407,3.883-0.813,5.824-1.22c0.426,1.673,0.852,3.346,1.277,5.019c-2.016,0.522-4.032,1.043-6.048,1.565
		c1.092,4.758,2.183,9.515,3.275,14.273c-2.336,0.844-4.673,1.688-7.01,2.532c-0.595-5.141-1.189-10.282-1.784-15.424
		c-1.734,0.464-3.468,0.928-5.202,1.393c-0.085,3.127-0.169,6.254-0.253,9.381c-2.39,0.058-4.781,0.115-7.171,0.173
		c0.559-4.524,1.717-12.023-0.225-16.252c-2.078-4.521-5.729,0.974-7.095,3.084c0.015,4.658,0.031,9.316,0.046,13.973
		c-2.172-0.069-4.343-0.138-6.515-0.207C239.248,127.713,238.911,118.981,238.573,110.248z"/>
	<path fill-rule="evenodd" clip-rule="evenodd" fill="#6BA656" d="M123.043,143.035c2.142,0.781,4.538,1.121,7.383,0.682
		c3.495-0.539,6.797-2.104,9.23-4.65c2.228-2.331,3.134-4.444,2.808-7.54c-0.226-2.145-0.748-3.637-1.918-5.3
		c-1.369-1.945-1.818-3.27-2.091-5.409c-0.669-5.248-0.416-11.96,1.486-17.029c0.828-2.208,2.313-4.323,4.052-5.933
		c1.887-1.747,2.645-4.242,2.313-6.724c-0.246-1.846-1.453-3.698-3.067-4.711c-2.376-1.491-5.251-0.518-7.351,1.029
		c-2.434,1.793-2.756,4.517-2.311,7.268c0.363,2.246,1.06,3.728,1.335,6.15c0.435,3.83,0.306,7.711-0.426,11.494
		c-0.478,2.47-1.312,4.79-3.403,6.232c-2.449,1.689-5.258-0.691-7.098-2.532c-3.462-3.463-6.037-7.7-8.058-12.137
		c-1.801-3.954-2.655-8.353-2.601-12.69c0.221-3-0.04-5.829-1.931-8.286c-1.511-1.963-3.593-2.636-6.124-2.297
		c-3.315,0.443-5.969,2.726-6.663,5.936c-0.515,2.379,0.681,4.588,2.171,6.398c1.621,1.968,4.253,3.083,6.468,5.198
		c4.857,4.64,9.597,12.196,11.996,18.488c0.418,1.096,0.679,2.178,0.834,3.252c0.657,4.534-1.876,5.39-5.787,4.854
		c-4.079-0.559-8.048-2.89-11.961-6.149c-2.293-1.91-4.058-4.33-5.467-6.945c-1.545-2.867-3.467-4.159-6.282-5.341
		c-3.087-1.295-6.159,0.117-7.698,2.881c-1.573,2.825-0.254,6.127,1.931,8.173c3.008,2.818,10.371,2.893,15.05,4.348
		c5.034,1.565,10.07,4.252,13.909,7.94c2.399,2.305,3.758,4.521,2.013,7.468c-1.88,3.174-4.518,4.298-7.82,4.935
		c-0.867,0.167-2.194,0.296-3.434,0.293c-3.31-0.009-4.949,0.007-6.774,2.81c-2.218,3.405-0.408,7.299,2.428,8.689
		c4.544,2.226,6.677-0.893,8.614-4.411c2.395-4.35,5.149-7.044,8.406-7.403C118.879,141.883,121.448,142.454,123.043,143.035z"/>
</g>
</svg>
