<svg xmlns="http://www.w3.org/2000/svg" x="0px" y="0px"
     width="312.001px" height="186.001px" viewBox="0 0 312.001 186.001">
    <path fill-rule="evenodd" clip-rule="evenodd" fill="#00A251" d="M129.927,92.484c-1.327-1.18-2.861-2.153-4.542-2.89
				c-1.681-0.738-3.421-1.328-5.191-1.74c-3.009-0.649-5.368-1.504-7.079-2.507s-2.566-2.301-2.566-3.923
				c0-0.619,0.177-1.209,0.531-1.74c0.354-0.531,0.826-1.032,1.416-1.416c0.59-0.413,1.269-0.708,2.006-0.973
				c0.737-0.236,1.475-0.354,2.242-0.354c1.15,0,2.212,0.147,3.245,0.442c1.032,0.295,1.976,0.649,2.832,1.062
				c0.855,0.442,1.622,0.885,2.33,1.386c0.678,0.501,1.298,0.973,1.799,1.386l4.483-8.465c-0.059-0.059-0.088-0.089-0.147-0.147
				c-0.826-0.737-1.917-1.445-3.215-2.153c-1.298-0.678-2.89-1.298-4.749-1.799c-1.829-0.501-3.952-0.737-6.4-0.737
				c-2.95,0-5.516,0.383-7.669,1.18c-2.183,0.796-3.982,1.858-5.427,3.215c-1.445,1.357-2.536,2.92-3.244,4.69
				c-0.708,1.77-1.062,3.658-1.062,5.634c0,1.799,0.295,3.451,0.914,4.926c0.619,1.475,1.475,2.802,2.595,3.923
				c1.121,1.15,2.448,2.123,4.012,2.92c1.534,0.796,3.215,1.416,5.044,1.858c3.717,0.944,6.43,1.917,8.141,2.891
				c1.711,0.974,2.566,2.36,2.566,4.1c0,0.826-0.206,1.534-0.619,2.183c-0.413,0.649-0.944,1.179-1.622,1.651
				c-0.678,0.443-1.416,0.797-2.212,1.032c-0.796,0.236-1.622,0.354-2.419,0.354c-1.386,0-2.684-0.177-3.893-0.531
				c-1.209-0.354-2.33-0.826-3.362-1.386c-0.56-0.295-1.062-0.62-1.563-0.974c-0.826-0.531-2.153-1.416-3.658-2.478l-4.719,8.908
				c0.413,0.354,0.826,0.708,1.298,1.032c1.268,0.944,2.684,1.799,4.247,2.537c1.563,0.737,3.333,1.327,5.28,1.77
				c1.947,0.442,4.129,0.678,6.519,0.678c2.566,0,4.955-0.384,7.167-1.121c2.212-0.738,4.159-1.77,5.781-3.097
				c1.652-1.327,2.949-2.891,3.893-4.719c0.944-1.799,1.416-3.776,1.416-5.929c0-2.478-0.413-4.601-1.209-6.312
				C132.345,95.139,131.283,93.693,129.927,92.484L129.927,92.484L129.927,92.484z M82.852,100.153L62.205,69.212H51.911v47.665
				h10.648V85.346l21.148,31.531H93.5V69.212H82.852V100.153L82.852,100.153z M169.008,73.873c-1.357-1.416-3.097-2.537-5.191-3.392
				c-2.094-0.855-4.631-1.298-7.58-1.298h-17.373v47.694h10.5v-16.812h7.374c2.153,0,4.188-0.325,6.135-1.003
				c1.947-0.678,3.687-1.652,5.191-2.92c1.504-1.298,2.684-2.891,3.569-4.808c0.885-1.917,1.327-4.188,1.327-6.754
				c0-2.006-0.324-3.923-0.973-5.781C171.368,76.911,170.365,75.288,169.008,73.873L169.008,73.873z M160.425,89.535
				c-1.18,1.209-2.743,1.829-4.749,1.829h-6.283V78.002h6.223c2.006,0,3.599,0.619,4.778,1.888c1.18,1.269,1.799,2.891,1.799,4.896
				C162.194,86.733,161.605,88.325,160.425,89.535L160.425,89.535L160.425,89.535z M206.88,106.583
				c-0.59,0.266-1.209,0.472-1.858,0.649c-1.268,0.354-2.743,0.531-4.454,0.531c-2.094,0-3.982-0.383-5.634-1.15
				c-1.681-0.767-3.097-1.799-4.277-3.156c-1.18-1.327-2.094-2.92-2.743-4.719c-0.649-1.799-0.973-3.775-0.973-5.869
				c0-2.035,0.324-3.982,0.973-5.811c0.649-1.829,1.563-3.451,2.743-4.837c1.18-1.386,2.655-2.478,4.365-3.244
				c1.711-0.796,3.658-1.18,5.781-1.18c2.212,0,4.159,0.413,5.87,1.209c0.413,0.177,3.48,1.563,6.578,4.749l4.778-8.996
				c-1.74-1.77-3.775-3.274-6.047-4.395c-3.303-1.622-7.167-2.419-11.621-2.419c-3.658,0-7.02,0.649-10.028,1.976
				c-3.038,1.298-5.633,3.097-7.787,5.368c-2.183,2.271-3.864,4.926-5.044,7.993c-1.18,3.068-1.799,6.371-1.799,9.91
				c0,3.628,0.59,6.932,1.799,9.969c1.18,3.038,2.861,5.634,5.044,7.846c2.153,2.212,4.749,3.952,7.757,5.191
				c3.009,1.239,6.312,1.858,9.94,1.858c2.183,0,4.306-0.265,6.312-0.796c2.035-0.531,3.893-1.239,5.634-2.153
				c1.74-0.914,3.333-1.976,4.749-3.186c0.266-0.236,0.501-0.442,0.767-0.678l-4.277-8.259
				C212.219,103.929,209.977,105.404,206.88,106.583L206.88,106.583L206.88,106.583z M248.94,106.583L248.94,106.583
				c3.097-1.179,5.339-2.654,6.518-3.569l4.277,8.259c-0.265,0.236-0.502,0.442-0.767,0.678c-1.416,1.209-3.009,2.271-4.749,3.186
				c-1.74,0.914-3.598,1.622-5.634,2.153c-2.006,0.531-4.129,0.796-6.312,0.796c-3.628,0-6.932-0.619-9.94-1.858
				c-3.008-1.239-5.604-2.979-7.757-5.191c-2.183-2.212-3.864-4.808-5.044-7.846c-1.209-3.038-1.799-6.341-1.799-9.969
				c0-3.539,0.619-6.843,1.799-9.911c1.209-3.067,2.89-5.722,5.044-7.993c2.153-2.271,4.749-4.07,7.787-5.368
				c3.009-1.327,6.371-1.976,10.028-1.976c4.454,0,8.318,0.826,11.651,2.389c2.271,1.121,4.306,2.625,6.047,4.395l-4.778,8.996
				c-3.097-3.186-6.165-4.572-6.577-4.749c-1.711-0.796-3.657-1.209-5.869-1.209c-2.124,0-4.07,0.383-5.781,1.18
				c-1.711,0.767-3.186,1.858-4.365,3.244c-1.18,1.386-2.094,3.008-2.743,4.837c-0.649,1.829-0.973,3.775-0.973,5.811
				c0,2.094,0.325,4.07,0.973,5.869c0.619,1.799,1.563,3.392,2.743,4.719c1.18,1.357,2.595,2.389,4.277,3.156
				c1.652,0.767,3.54,1.15,5.634,1.15c1.711,0,3.186-0.177,4.454-0.531C247.731,107.055,248.35,106.849,248.94,106.583z"/>
</svg>
