<?xml version="1.0" encoding="utf-8"?>
<!-- Generator: Adobe Illustrator 17.0.1, SVG Export Plug-In . SVG Version: 6.00 Build 0)  -->
<!DOCTYPE svg PUBLIC "-//W3C//DTD SVG 1.1//EN" "http://www.w3.org/Graphics/SVG/1.1/DTD/svg11.dtd">
<svg version="1.1" id="Layer_1" xmlns="http://www.w3.org/2000/svg" xmlns:xlink="http://www.w3.org/1999/xlink" x="0px" y="0px"
	 width="433.406px" height="235.199px" viewBox="0 0 433.406 235.199" enable-background="new 0 0 433.406 235.199"
	 xml:space="preserve">
<g>
	<g>
		<path fill-rule="evenodd" clip-rule="evenodd" fill="#0E385B" d="M194.121,117.192c1.075,0,1.63,0.751,1.63,1.761v8.313
			c0,0.978-0.685,1.761-1.761,1.761c-0.978,0-1.597-0.555-1.76-1.337c-1.403,0.751-3.423,1.337-5.641,1.337
			c-6.422,0-11.442-4.043-11.442-11.443c0-6.356,5.249-11.377,11.737-11.377c2.64,0,6.975,0.652,6.975,2.901
			c0,0.979-0.684,1.696-1.694,1.696c-1.238,0-2.217-1.305-5.347-1.305c-4.368,0-7.89,3.62-7.89,8.085
			c0,4.891,3.359,8.184,7.89,8.184c2.249,0,4.109-0.685,5.38-1.5v-3.848h-4.63c-0.847,0-1.565-0.716-1.565-1.597
			c0-0.879,0.718-1.63,1.565-1.63H194.121z"/>
		<path fill-rule="evenodd" clip-rule="evenodd" fill="#0E385B" d="M219.226,123.713h-9.291l-1.533,4.043
			c-0.261,0.815-0.815,1.271-1.826,1.271c-1.108,0-1.728-0.782-1.728-1.662c0-0.229,0.098-0.621,0.196-0.881l7.074-18.419
			c0.359-1.043,1.044-1.891,2.543-1.891c1.467,0,2.184,0.881,2.542,1.891l7.009,18.419c0.065,0.23,0.163,0.62,0.163,0.848
			c0,1.043-0.75,1.695-1.826,1.695c-0.88,0-1.532-0.456-1.761-1.271L219.226,123.713L219.226,123.713z M210.879,120.779
			L210.879,120.779h7.466l-3.716-9.944L210.879,120.779z"/>
		<path fill-rule="evenodd" clip-rule="evenodd" fill="#0E385B" d="M235.789,106.206c0.912,0,1.597,0.455,1.988,1.14l7.009,11.834
			l7.075-11.834c0.392-0.685,1.044-1.14,1.989-1.14c1.37,0,2.282,1.01,2.282,2.216v18.909c0,0.912-0.718,1.695-1.794,1.695
			c-1.043,0-1.76-0.782-1.76-1.695v-14.507l-5.965,9.877c-0.36,0.62-0.913,1.109-1.794,1.109c-0.88,0-1.434-0.488-1.794-1.109
			l-5.965-9.877v14.507c0,0.912-0.718,1.695-1.794,1.695c-1.044,0-1.761-0.782-1.761-1.695v-18.909
			C233.507,107.216,234.419,106.206,235.789,106.206z"/>
		<path fill-rule="evenodd" clip-rule="evenodd" fill="#0E385B" d="M270.967,125.473h11.509c0.879,0,1.564,0.749,1.564,1.597
			c0,0.912-0.685,1.63-1.564,1.63h-13.334c-1.011,0-1.825-0.782-1.825-1.761v-18.68c0-0.979,0.814-1.761,1.825-1.761h13.334
			c0.879,0,1.564,0.749,1.564,1.63c0,0.879-0.685,1.597-1.564,1.597h-11.509v6.226h9.814c0.847,0,1.532,0.718,1.532,1.599
			c0,0.913-0.685,1.629-1.532,1.629h-9.814V125.473z"/>
		<path fill-rule="evenodd" clip-rule="evenodd" fill="#0E385B" d="M303.244,106.5c1.891,0,3.651,0.358,5.217,1.597
			c1.662,1.337,2.673,3.358,2.673,5.933c0,2.576-1.142,4.728-2.902,6.064c-1.532,1.14-3.325,1.467-5.151,1.467h-5.575v5.704
			c0,0.978-0.847,1.761-1.826,1.761c-1.01,0-1.825-0.782-1.825-1.761v-18.974c0-1.01,0.815-1.792,1.825-1.792H303.244L303.244,106.5
			z M305.787,110.509L305.787,110.509c-0.88-0.587-1.858-0.815-3.031-0.815h-5.25v8.673h5.022c1.14,0,2.249-0.164,3.129-0.751
			c1.076-0.685,1.761-1.924,1.761-3.586C307.417,112.367,306.798,111.194,305.787,110.509z"/>
		<path fill-rule="evenodd" clip-rule="evenodd" fill="#0E385B" d="M321.112,107.967c0-0.979,0.814-1.761,1.825-1.761
			c1.043,0,1.825,0.782,1.825,1.761v19.299c0,0.978-0.846,1.761-1.825,1.761c-1.011,0-1.825-0.782-1.825-1.761V107.967z"/>
		<path fill-rule="evenodd" clip-rule="evenodd" fill="#0E385B" d="M343.965,114.715l5.967-7.661
			c0.457-0.587,0.945-0.848,1.63-0.848c1.043,0,2.087,0.782,2.087,1.924c0,0.391-0.13,0.815-0.424,1.14l-6.879,8.313l7.009,8.412
			c0.293,0.325,0.456,0.718,0.456,1.109c0,1.076-1.01,1.923-2.086,1.923c-0.685,0-1.206-0.292-1.63-0.815l-6.097-7.792l-6.194,7.792
			c-0.424,0.523-0.945,0.815-1.63,0.815c-1.01,0-2.086-0.782-2.086-1.891c0-0.422,0.163-0.815,0.455-1.14l7.075-8.346l-6.912-8.379
			c-0.294-0.358-0.456-0.749-0.456-1.14c0-1.044,0.977-1.924,2.086-1.924c0.718,0,1.239,0.261,1.63,0.848L343.965,114.715z"/>
	</g>
	<g>
		<linearGradient id="SVGID_1_" gradientUnits="userSpaceOnUse" x1="80.8132" y1="160.1952" x2="133.9551" y2="122.9848">
			<stop  offset="0" style="stop-color:#3585C6"/>
			<stop  offset="1" style="stop-color:#0BAAE2"/>
		</linearGradient>
		<path fill-rule="evenodd" clip-rule="evenodd" fill="url(#SVGID_1_)" d="M132.028,126.997c0.459,0.29,3.764,2.357,7.028,3.273
			L97.06,162.499c0,0-3.821,3.021-7.212,3.04c-5.629,0.028-10.213-4.616-10.213-10.292c0-3.209,1.93-6.337,5.677-9.247l35.04-27.187
			l11.587,8.13L132.028,126.997z"/>
		<linearGradient id="SVGID_2_" gradientUnits="userSpaceOnUse" x1="149.8696" y1="121.204" x2="97.3764" y2="84.4479">
			<stop  offset="0" style="stop-color:#1AB1E4"/>
			<stop  offset="1" style="stop-color:#90CC88"/>
		</linearGradient>
		<path fill-rule="evenodd" clip-rule="evenodd" fill="url(#SVGID_2_)" d="M151.681,115.354c0,3.185-1.439,6.039-3.7,7.92
			c-0.611,0.515-1.278,0.95-1.994,1.303c-0.731,0.37-1.52,0.652-2.339,0.828c-0.7,0.161-1.432,0.241-2.18,0.241
			c-1.866,0-5.387-1.793-7.205-2.943l-8.922-6.014l-2.058-1.439l-2.059-1.448l-17.473-12.263l0.137-20.215
			c0.007-1.946-0.185-3.739-0.563-5.371c38.058,26.665,41.561,29.415,42.429,30.025
			C149.791,109.098,151.681,112.073,151.681,115.354z"/>
		<linearGradient id="SVGID_3_" gradientUnits="userSpaceOnUse" x1="89.5124" y1="144.3325" x2="89.5124" y2="69.6603">
			<stop  offset="0" style="stop-color:#00AECD"/>
			<stop  offset="1" style="stop-color:#90CC88"/>
		</linearGradient>
		<path fill-rule="evenodd" clip-rule="evenodd" fill="url(#SVGID_3_)" d="M99.429,79.577c0-5.454-4.462-9.917-9.917-9.917
			c-5.455,0-9.917,4.463-9.917,9.917v64.755l19.834-15.439V79.577z"/>
	</g>
</g>
</svg>
