<?xml version="1.0" encoding="utf-8"?>
<!-- Generator: Adobe Illustrator 17.0.1, SVG Export Plug-In . SVG Version: 6.00 Build 0)  -->
<!DOCTYPE svg PUBLIC "-//W3C//DTD SVG 1.1//EN" "http://www.w3.org/Graphics/SVG/1.1/DTD/svg11.dtd">
<svg version="1.1" id="Layer_1" xmlns="http://www.w3.org/2000/svg" xmlns:xlink="http://www.w3.org/1999/xlink" x="0px" y="0px"
	 width="147.141px" height="40.64px" viewBox="0 0 147.141 40.64" enable-background="new 0 0 147.141 40.64" xml:space="preserve">
		<path style="display: none" fill-rule="evenodd" clip-rule="evenodd" fill="#FFFFFF" d="M43.583,30.752c0.242-5.03,0.484-10.06,0.725-15.091
			c1.525-0.085,3.05-0.171,4.576-0.256c0.654,2.29,1.309,4.58,1.963,6.87c0.644-2.169,1.288-4.338,1.931-6.508
			c1.402-0.044,2.805-0.088,4.207-0.131c0.57,5.337,0.839,10.673,0.975,16.009c-1.371-0.085-2.742-0.171-4.113-0.256
			c0.004-2.857,0.008-5.714,0.012-8.571c-0.452,1.688-0.904,3.376-1.356,5.063c-1.202-0.003-2.405-0.006-3.607-0.009
			c-0.367-1.853-0.734-3.705-1.1-5.557c-0.115,2.896-0.229,5.793-0.344,8.689C46.163,30.92,44.873,30.836,43.583,30.752
			L43.583,30.752z M60.707,18.065c1.584-1.831,3.69-2.237,6.072-1.784c1.549,0.294,2.858,1.041,3.635,2.796
			c0.819,1.946,1.44,4.865,1.12,6.993c-0.302,2.006-1.195,3.653-3.211,4.615c-2.221,1.06-6.568,0.741-8.349-1.048
			c-1.797-1.805-1.794-5.029-1.255-7.344C59.072,20.775,59.687,19.244,60.707,18.065L60.707,18.065z M62.917,21.731
			c-0.96,1.519-1.023,2.678-0.279,4.281c0.495,1.065,1.201,1.728,2.244,1.749c2.08,0.041,3.611-2.71,3.123-4.579
			c-0.333-1.274-1.106-2.467-2.415-2.895C64.396,19.896,63.6,20.651,62.917,21.731L62.917,21.731z M74.16,18.065
			c-1.02,1.179-1.635,2.71-1.989,4.228c-0.539,2.314-0.543,5.539,1.255,7.344c1.782,1.789,6.128,2.108,8.35,1.048
			c2.016-0.962,2.909-2.609,3.211-4.615c0.32-2.127-0.301-5.047-1.12-6.993c-0.777-1.756-2.086-2.503-3.635-2.796
			C77.85,15.828,75.744,16.234,74.16,18.065L74.16,18.065z M76.37,21.731c0.683-1.08,1.478-1.835,2.674-1.444
			c1.308,0.428,2.082,1.62,2.415,2.895c0.488,1.869-1.043,4.62-3.124,4.579c-1.043-0.021-1.75-0.683-2.244-1.749
			C75.347,24.409,75.41,23.249,76.37,21.731L76.37,21.731z M142.34,15.97c0.324-0.653,0.798-1.202,1.438-1.638
			c0.879,0.783,1.759,1.567,2.638,2.351c-0.923,0.188-1.611,0.599-1.9,1.388c1.07,1.018,1.015,3.432,0.42,4.686
			c-0.797,1.679-2.432,2.34-4.295,2.427c-0.932,0.044-1.771-0.023-2.614-0.087c-1.078,0.322-1.448,0.807-1.075,1.463
			c1.722-0.511,4.115-0.799,5.911-0.502c0.993,0.164,1.677,0.597,2.203,1.687c0.372,0.769,1.083,2.351,0.137,3.441
			c-1.004,1.314-2.379,1.92-3.943,2.165c-1.84,0.287-6.096,0.276-7.32-1.089c-0.985-1.099-0.944-3.217,0.298-3.963
			c-0.522-1.393-0.569-2.312-0.356-2.969c0.243-0.748,0.825-1.158,1.431-1.544c-1.608-1.221-2.263-3.014-1.604-4.948
			c0.454-1.333,1.302-2.494,3.339-3.138C138.659,15.19,140.862,15.061,142.34,15.97L142.34,15.97z M141.009,28.537
			c-0.998,0.064-2.678,0.312-3.615,0.701c-0.411,0.171-0.918,0.479-0.696,0.899c0.263,0.496,1.208,0.486,1.698,0.496
			c1.098,0.023,2.175-0.041,3.206-0.276c0.493-0.113,1.219-0.408,1.016-1.043C142.357,28.496,141.736,28.49,141.009,28.537
			L141.009,28.537z M140.948,18.895c-0.903-0.357-3.237-0.41-3.711,0.584c-0.185,0.389-0.168,0.778,0.034,1.167
			c0.415,0.799,2.139,0.978,2.938,0.949c0.83-0.031,1.411-0.275,1.581-0.877C142.072,19.723,141.636,19.167,140.948,18.895
			L140.948,18.895z M121.669,18.065c1.584-1.831,3.69-2.237,6.072-1.784c1.549,0.294,2.858,1.041,3.635,2.796
			c0.819,1.946,1.44,4.865,1.12,6.993c-0.302,2.006-1.195,3.653-3.211,4.615c-2.221,1.06-6.568,0.741-8.35-1.048
			c-1.797-1.805-1.794-5.029-1.255-7.344C120.034,20.775,120.649,19.244,121.669,18.065L121.669,18.065z M123.879,21.731
			c-0.96,1.519-1.023,2.678-0.279,4.281c0.494,1.065,1.201,1.728,2.244,1.749c2.08,0.041,3.611-2.71,3.123-4.579
			c-0.332-1.274-1.106-2.467-2.414-2.895C125.357,19.896,124.562,20.651,123.879,21.731L123.879,21.731z M108.559,16.952
			c1.346-0.113,2.692-0.225,4.038-0.338c-0.05,0.442-0.1,0.884-0.15,1.326c1.935-1.224,3.95-1.827,6.051-1.75
			c0.133,1.159,0.267,2.317,0.4,3.476c-2.963,0.031-4.705,0.775-5.401,2.128c-0.866,1.686-0.534,7.034-0.376,8.986
			c-1.384,0.05-2.767,0.1-4.151,0.15C109.035,26.247,108.928,21.584,108.559,16.952L108.559,16.952z M85.242,16.34
			c1.181-0.196,2.363-0.392,3.544-0.588c0.077,0.544,0.154,1.088,0.231,1.631c1.256-0.94,3.079-2.007,4.701-1.96
			c0.656,0.019,1.264,0.203,1.77,0.727c1.211,1.256,1.536,3.967,1.687,5.621c0.904-0.196,1.809-0.392,2.713-0.587
			c-0.129-1.471-0.265-4.04,0.265-5.42c0.278-0.723,0.708-1.356,1.396-1.837c2.166-1.515,4.787,0.078,6.478,1.568
			c-0.85,0.68-1.701,1.359-2.551,2.038c-0.654-0.634-1.247-0.938-1.764-0.842c-1.252,0.231-1.167,3.028-1.149,3.943
			c1.054-0.221,2.109-0.442,3.163-0.663c0.231,0.908,0.463,1.817,0.694,2.725c-1.095,0.284-2.19,0.567-3.285,0.85
			c0.593,2.584,1.186,5.168,1.779,7.752c-1.269,0.458-2.538,0.917-3.807,1.375c-0.323-2.792-0.646-5.585-0.969-8.377
			c-0.942,0.252-1.884,0.504-2.826,0.756c-0.046,1.698-0.091,3.396-0.137,5.095c-1.298,0.031-2.596,0.063-3.895,0.094
			c0.304-2.457,0.933-6.53-0.122-8.826c-1.128-2.455-3.112,0.529-3.853,1.675c0.008,2.53,0.017,5.059,0.025,7.589
			c-1.179-0.038-2.359-0.075-3.538-0.113C85.609,25.824,85.425,21.082,85.242,16.34z"/>
		<path fill-rule="evenodd" clip-rule="evenodd" fill="#FFFFFF" d="M22.497,34.146c1.164,0.424,2.465,0.609,4.01,0.371
			c1.898-0.293,3.691-1.143,5.013-2.525c1.21-1.266,1.702-2.414,1.525-4.095c-0.123-1.165-0.406-1.975-1.042-2.878
			c-0.744-1.056-0.987-1.776-1.135-2.937c-0.363-2.85-0.226-6.496,0.807-9.249c0.45-1.199,1.256-2.348,2.2-3.222
			c1.025-0.949,1.436-2.304,1.256-3.652C34.998,4.956,34.343,3.95,33.466,3.4c-1.29-0.81-2.852-0.282-3.993,0.559
			c-1.322,0.974-1.497,2.453-1.255,3.947c0.197,1.22,0.576,2.024,0.725,3.34c0.236,2.08,0.166,4.188-0.231,6.242
			c-0.26,1.341-0.712,2.601-1.848,3.385c-1.33,0.918-2.856-0.376-3.855-1.375c-1.88-1.881-3.279-4.182-4.376-6.592
			c-0.978-2.147-1.442-4.536-1.412-6.892c0.12-1.629-0.022-3.166-1.049-4.5c-0.821-1.066-1.952-1.431-3.326-1.247
			c-1.8,0.241-3.242,1.48-3.619,3.224c-0.28,1.292,0.37,2.492,1.179,3.475c0.88,1.069,2.31,1.674,3.513,2.823
			c2.638,2.52,5.212,6.624,6.515,10.041c0.227,0.595,0.369,1.183,0.453,1.766c0.357,2.463-1.019,2.927-3.143,2.637
			c-2.215-0.304-4.371-1.569-6.496-3.34c-1.245-1.037-2.204-2.351-2.969-3.771c-0.839-1.557-1.883-2.259-3.412-2.901
			c-1.677-0.703-3.345,0.063-4.181,1.565c-0.854,1.534-0.138,3.328,1.049,4.439c1.634,1.53,5.632,1.571,8.174,2.361
			c2.734,0.85,5.469,2.309,7.554,4.312c1.303,1.252,2.041,2.455,1.093,4.056c-1.021,1.724-2.454,2.335-4.247,2.68
			c-0.471,0.091-1.191,0.161-1.865,0.159c-1.798-0.005-2.688,0.004-3.679,1.526c-1.205,1.849-0.222,3.964,1.319,4.719
			c2.468,1.209,3.626-0.485,4.678-2.396c1.301-2.363,2.796-3.826,4.565-4.021C20.236,33.52,21.631,33.83,22.497,34.146z"/>
</svg>
