<svg id="#tpm-svg-2" xmlns="http://www.w3.org/2000/svg" x="0px" y="0px"
	 width="450" height="490" viewBox="50 190 512 476" >
<path  fill="#fff" d="M392.89,665.397V514.631c0-2.587,2.117-4.704,4.704-4.704h83.347
	c2.587,0,4.704,2.117,4.704,4.704v150.766c0,2.587-2.117,4.704-4.704,4.704h-83.347C395.007,670.101,392.89,667.984,392.89,665.397
	L392.89,665.397z M439.267,651.69c-3.173,0-5.745,2.573-5.745,5.746s2.572,5.746,5.745,5.746s5.746-2.572,5.746-5.746
	S442.441,651.69,439.267,651.69L439.267,651.69z M401.908,644.524h74.718V519.157h-74.718V644.524z"/>
</svg>
